<?xml version="1.0" encoding="UTF-8" standalone="no"?>
<!DOCTYPE svg PUBLIC "-//W3C//DTD SVG 1.1//EN" "http://www.w3.org/Graphics/SVG/1.1/DTD/svg11.dtd">
<!-- Created with Vectornator (http://vectornator.io/) -->
<svg height="100%" stroke-miterlimit="10" style="fill-rule:nonzero;clip-rule:evenodd;stroke-linecap:round;stroke-linejoin:round;" version="1.1" viewBox="0 0 258.082 259.353" width="100%" xml:space="preserve" xmlns="http://www.w3.org/2000/svg" xmlns:vectornator="http://vectornator.io" xmlns:xlink="http://www.w3.org/1999/xlink">
<defs/>
<g id="layer1" vectornator:layerName="layer1">
<g opacity="1">
<path d="M1.46611 129.677C1.46611 59.2189 58.5834 2.10166 129.041 2.10166C199.499 2.10166 256.616 59.2189 256.616 129.677C256.616 200.134 199.499 257.252 129.041 257.252C58.5834 257.252 1.46611 200.134 1.46611 129.677Z" fill="#eddcf7" fill-rule="nonzero" opacity="1" stroke="none"/>
<g opacity="1">
<path d="M155.746 98.0983C153.797 96.7537 151.8 94.0354 155.746 91.9895C173.563 79.7734 178.503 66.1822 178.503 32.9231C178.503 28.8312 173.563 25.4407 166.626 25.4407C160.686 25.4407 155.744 28.8312 155.744 32.9231C155.744 62.1209 150.804 70.9464 134.982 79.7734C131.036 81.8194 127.094 81.8194 123.151 79.7734C107.328 70.2741 102.386 60.7457 102.386 31.5494C102.386 26.8158 97.444 23.3947 91.5059 23.3947C84.567 23.3947 79.6273 26.8158 79.6273 31.5494C79.6273 64.8391 84.567 79.7719 102.386 91.9895C104.335 93.3647 105.334 95.4106 103.337 97.426C84.567 111.016 77.6304 126.622 77.6304 152.43L78.6289 227.132C78.6289 231.897 84.567 235.959 91.5059 235.959C97.444 235.959 103.337 231.896 103.337 227.132L105.334 152.43C105.334 130.043 110.273 119.17 123.151 110.345C126.096 107.625 132.034 107.625 134.982 111.017C147.856 119.843 152.798 130.716 152.798 152.43L154.748 227.132C154.748 231.897 159.735 235.959 166.626 235.959C173.563 235.959 179.501 231.896 179.501 227.132L180.452 152.43C180.452 126.622 173.563 111.016 155.744 98.0983" fill="#6e66d4" fill-rule="evenodd" opacity="1" stroke="none"/>
<path d="M153.145 148.975C153.178 150.13 153.66 167.303 153.66 167.303L179.896 167.303C179.896 167.303 179.959 149.155 179.956 149.066L153.145 148.975Z" fill="#ffa42b" fill-rule="nonzero" opacity="1" stroke="none"/>
<path d="M153.928 177.566L154.289 195.816L179.439 195.816L179.727 177.566L179.655 177.566L153.928 177.566Z" fill="#ffa42b" fill-rule="nonzero" opacity="1" stroke="none"/>
</g>
</g>
</g>
</svg>
