<?xml version="1.0" encoding="UTF-8" standalone="no"?>
<!DOCTYPE svg PUBLIC "-//W3C//DTD SVG 1.1//EN" "http://www.w3.org/Graphics/SVG/1.1/DTD/svg11.dtd">
<!-- Created with Vectornator (http://vectornator.io/) -->
<svg height="100%" stroke-miterlimit="10" style="fill-rule:nonzero;clip-rule:evenodd;stroke-linecap:round;stroke-linejoin:round;" version="1.1" viewBox="0 0 718.956 226.8" width="100%" xml:space="preserve" xmlns="http://www.w3.org/2000/svg" xmlns:vectornator="http://vectornator.io" xmlns:xlink="http://www.w3.org/1999/xlink">
<defs>
<clipPath id="TextBounds">
<rect height="161.595" width="96.7111" x="557.19" y="32.6025"/>
</clipPath>
<clipPath id="TextBounds_2">
<rect height="161.595" width="102.968" x="61.9268" y="32.6025"/>
</clipPath>
</defs>
<g id="layer1" vectornator:layerName="layer1">
<g opacity="1">
<g opacity="1">
<g opacity="1">
<path d="M322.045 113.4L492.145 113.4" fill="none" opacity="1" stroke="#0000ff" stroke-linecap="butt" stroke-linejoin="miter" stroke-width="28.35"/>
<path d="M307.87 56.7L307.87 170.1" fill="none" opacity="1" stroke="#0000ff" stroke-linecap="butt" stroke-linejoin="miter" stroke-width="28.35"/>
</g>
<g opacity="1">
<path d="M550.42 14.175L660.67 14.175C685.026 14.175 704.77 33.9192 704.77 58.275L704.77 168.525C704.77 192.881 685.026 212.625 660.67 212.625L550.42 212.625C526.064 212.625 506.32 192.881 506.32 168.525L506.32 58.275C506.32 33.9192 526.064 14.175 550.42 14.175Z" fill="none" opacity="1" stroke="#0000ff" stroke-linecap="butt" stroke-linejoin="miter" stroke-width="28.35"/>
<path clip-path="url(#TextBounds)" d="M570.08 76.1685L607.345 76.1685C614.691 76.1685 620.625 77.1652 625.146 79.1585C629.668 81.1519 633.406 84.0127 636.359 87.741C639.312 91.4694 641.453 95.8068 642.782 100.753C644.111 105.7 644.776 110.942 644.776 116.479C644.776 125.153 643.788 131.881 641.813 136.661C639.838 141.442 637.097 145.447 633.591 148.677C630.084 151.907 626.319 154.057 622.295 155.128C616.795 156.604 611.811 157.343 607.345 157.343L570.08 157.343L570.08 76.1685ZM595.163 94.5517L595.163 138.904L601.309 138.904C606.551 138.904 610.279 138.323 612.494 137.16C614.709 135.997 616.444 133.967 617.699 131.069C618.954 128.171 619.582 123.474 619.582 116.977C619.582 108.376 618.179 102.488 615.373 99.3136C612.568 96.139 607.917 94.5517 601.42 94.5517L595.163 94.5517Z" fill="#0000ff" opacity="1" stroke="#0000ff" stroke-linecap="butt" stroke-linejoin="miter" stroke-width="2.268"/>
</g>
</g>
<g opacity="1">
<path d="M14.1859 113.4C14.1859 58.5996 58.6104 14.175 113.411 14.175C168.211 14.175 212.636 58.5996 212.636 113.4C212.636 168.2 168.211 212.625 113.411 212.625C58.6104 212.625 14.1859 168.2 14.1859 113.4Z" fill="none" opacity="1" stroke="#ff0000" stroke-linecap="butt" stroke-linejoin="miter" stroke-width="28.35"/>
<path clip-path="url(#TextBounds_2)" d="M115.293 127.94L115.293 111.052L154.053 111.052L154.053 145.659C146.634 150.716 140.072 154.159 134.369 155.986C128.666 157.813 121.901 158.727 114.075 158.727C104.441 158.727 96.5873 157.084 90.5149 153.799C84.4426 150.513 79.736 145.622 76.3953 139.125C73.0546 132.629 71.3842 125.172 71.3842 116.755C71.3842 107.896 73.2115 100.19 76.866 93.6381C80.5205 87.0858 85.873 82.1116 92.9236 78.7156C98.4238 76.0947 105.825 74.7842 115.127 74.7842C124.098 74.7842 130.807 75.5963 135.255 77.2205C139.703 78.8448 143.394 81.3641 146.329 84.7787C149.264 88.1932 151.469 92.5214 152.946 97.7632L128.749 102.082C127.752 99.0183 126.063 96.6742 123.682 95.05C121.301 93.4258 118.265 92.6137 114.574 92.6137C109.073 92.6137 104.69 94.524 101.423 98.3446C98.1561 102.165 96.5227 108.21 96.5227 116.479C96.5227 125.264 98.1746 131.54 101.478 135.305C104.782 139.07 109.387 140.953 115.293 140.953C118.099 140.953 120.775 140.547 123.322 139.734C125.869 138.922 128.786 137.538 132.071 135.582L132.071 127.94L115.293 127.94Z" fill="#ff0000" opacity="1" stroke="#ff0000" stroke-linecap="butt" stroke-linejoin="miter" stroke-width="2.268"/>
</g>
</g>
</g>
</svg>
