<?xml version="1.0" encoding="UTF-8" standalone="no"?>
<!DOCTYPE svg PUBLIC "-//W3C//DTD SVG 1.1//EN" "http://www.w3.org/Graphics/SVG/1.1/DTD/svg11.dtd">
<!-- Created with Vectornator (http://vectornator.io/) -->
<svg height="100%" stroke-miterlimit="10" style="fill-rule:nonzero;clip-rule:evenodd;stroke-linecap:round;stroke-linejoin:round;" version="1.1" viewBox="0 0 258.082 259.353" width="100%" xml:space="preserve" xmlns="http://www.w3.org/2000/svg" xmlns:vectornator="http://vectornator.io" xmlns:xlink="http://www.w3.org/1999/xlink">
<defs/>
<g id="layer1" vectornator:layerName="layer1">
<g opacity="1">
<path d="M233.117 77.9466L143.027 17.895C134.56 12.2502 123.535 12.2502 115.068 17.895L24.9777 77.9466C19.1439 81.84 15.6411 88.392 15.6411 95.3976L15.6411 95.3976C15.6411 112.143 34.3017 122.122 48.2373 112.836L129.041 58.971L209.845 112.849C223.78 122.135 242.441 112.143 242.441 95.3976L242.441 95.3976C242.441 88.3794 238.938 81.84 233.117 77.9466Z" fill="#710657" fill-rule="nonzero" opacity="1" stroke="none"/>
<path d="M233.117 181.407L143.027 241.458C134.56 247.103 123.535 247.103 115.068 241.458L24.9777 181.407C19.1439 177.513 15.6411 170.961 15.6411 163.956L15.6411 163.956C15.6411 147.21 34.3017 137.231 48.2373 146.517L129.041 200.382L209.845 146.505C223.78 137.219 242.441 147.21 242.441 163.956L242.441 163.956C242.441 170.974 238.938 177.513 233.117 181.407Z" fill="#710657" fill-rule="nonzero" opacity="1" stroke="none"/>
</g>
</g>
</svg>
