<?xml version="1.0" encoding="UTF-8" standalone="no"?>
<!DOCTYPE svg PUBLIC "-//W3C//DTD SVG 1.1//EN" "http://www.w3.org/Graphics/SVG/1.1/DTD/svg11.dtd">
<!-- Created with Vectornator (http://vectornator.io/) -->
<svg height="100%" stroke-miterlimit="10" style="fill-rule:nonzero;clip-rule:evenodd;stroke-linecap:round;stroke-linejoin:round;" version="1.1" viewBox="0 0 1168.02 226.8" width="100%" xml:space="preserve" xmlns="http://www.w3.org/2000/svg" xmlns:vectornator="http://vectornator.io" xmlns:xlink="http://www.w3.org/1999/xlink">
<defs/>
<g id="layer1" vectornator:layerName="layer1">
<g opacity="1">
<g opacity="1">
<path d="M998.469 14.175L1108.72 14.175C1133.07 14.175 1152.82 33.9192 1152.82 58.275L1152.82 168.525C1152.82 192.881 1133.07 212.625 1108.72 212.625L998.469 212.625C974.113 212.625 954.369 192.881 954.369 168.525L954.369 58.275C954.369 33.9192 974.113 14.175 998.469 14.175Z" fill="none" opacity="1" stroke="#0000ff" stroke-linecap="butt" stroke-linejoin="miter" stroke-width="28.35"/>
<g opacity="1">
<path d="M1006.91 62.6662L1053.49 62.6662C1062.67 62.6662 1070.09 63.9121 1075.74 66.4038C1081.39 68.8955 1086.07 72.4715 1089.76 77.1319C1093.45 81.7923 1096.13 87.2141 1097.79 93.3972C1099.45 99.5803 1100.28 106.133 1100.28 113.054C1100.28 123.897 1099.04 132.307 1096.58 138.282C1094.11 144.258 1090.68 149.264 1086.3 153.302C1081.91 157.339 1077.21 160.027 1072.18 161.365C1065.3 163.211 1059.07 164.134 1053.49 164.134L1006.91 164.134L1006.91 62.6662ZM1038.26 85.6452L1038.26 141.086L1045.95 141.086C1052.5 141.086 1057.16 140.359 1059.93 138.905C1062.7 137.452 1064.86 134.914 1066.43 131.292C1068 127.67 1068.79 121.798 1068.79 113.677C1068.79 102.926 1067.03 95.5659 1063.53 91.5976C1060.02 87.6294 1054.2 85.6452 1046.08 85.6452L1038.26 85.6452Z" fill="#0000ff" fill-rule="nonzero" opacity="1" stroke="#0000ff" stroke-linecap="butt" stroke-linejoin="miter" stroke-width="2.268"/>
</g>
</g>
<g opacity="1">
<path d="M488.943 113.4C488.943 58.5995 533.368 14.175 588.168 14.175C642.969 14.175 687.393 58.5995 687.393 113.4C687.393 168.2 642.969 212.625 588.168 212.625C533.368 212.625 488.943 168.2 488.943 113.4Z" fill="none" opacity="1" stroke="#808080" stroke-linecap="butt" stroke-linejoin="miter" stroke-width="28.35"/>
<g opacity="1">
<path d="M540.514 62.6662L635.822 62.6662L635.822 87.7217L603.845 87.7217L603.845 164.134L572.491 164.134L572.491 87.7217L540.514 87.7217L540.514 62.6662Z" fill="#808080" fill-rule="nonzero" opacity="1" stroke="#808080" stroke-linecap="butt" stroke-linejoin="miter" stroke-width="2.268"/>
</g>
</g>
<g opacity="1">
<path d="M15.2014 113.4C15.2014 58.5996 59.626 14.175 114.426 14.175C169.227 14.175 213.651 58.5996 213.651 113.4C213.651 168.2 169.227 212.625 114.426 212.625C59.626 212.625 15.2014 168.2 15.2014 113.4Z" fill="none" opacity="1" stroke="#ff0000" stroke-linecap="butt" stroke-linejoin="miter" stroke-width="28.35"/>
<g opacity="1">
<path d="M117.645 127.381L117.645 106.271L166.095 106.271L166.095 149.53C156.82 155.851 148.618 160.154 141.489 162.438C134.36 164.722 125.904 165.864 116.122 165.864C104.079 165.864 94.2621 163.811 86.6717 159.704C79.0812 155.597 73.198 149.484 69.0221 141.362C64.8462 133.241 62.7583 123.921 62.7583 113.4C62.7583 102.326 65.0423 92.6935 69.6104 84.5032C74.1786 76.3129 80.8692 70.0952 89.6825 65.8501C96.5577 62.574 105.809 60.9359 117.437 60.9359C128.65 60.9359 137.036 61.951 142.596 63.9813C148.157 66.0116 152.771 69.1608 156.439 73.429C160.108 77.6972 162.865 83.1074 164.71 89.6597L134.464 95.0583C133.218 91.2285 131.107 88.2984 128.131 86.2682C125.155 84.2379 121.359 83.2228 116.745 83.2228C109.87 83.2228 104.39 85.6106 100.307 90.3864C96.2232 95.1622 94.1814 102.718 94.1814 113.054C94.1814 124.036 96.2463 131.88 100.376 136.587C104.506 141.293 110.262 143.646 117.645 143.646C121.152 143.646 124.497 143.139 127.681 142.124C130.865 141.109 134.51 139.378 138.617 136.933L138.617 127.381L117.645 127.381Z" fill="#ff0000" fill-rule="nonzero" opacity="1" stroke="#ff0000" stroke-linecap="butt" stroke-linejoin="miter" stroke-width="2.268"/>
</g>
</g>
<g opacity="1">
<path d="M770.093 113.4L940.193 113.4" fill="none" opacity="1" stroke="#0000ff" stroke-linecap="butt" stroke-linejoin="miter" stroke-width="28.35"/>
<path d="M755.918 56.7L755.918 170.1" fill="none" opacity="1" stroke="#0000ff" stroke-linecap="butt" stroke-linejoin="miter" stroke-width="28.35"/>
</g>
<g opacity="1">
<path d="M246.109 102.06L268.789 102.06L268.789 124.74L246.109 124.74L246.109 102.06Z" fill="#808080" fill-rule="nonzero" opacity="1" stroke="none"/>
<path d="M433.806 102.06L456.486 102.06L456.486 124.74L433.806 124.74L433.806 102.06Z" fill="#808080" fill-rule="nonzero" opacity="1" stroke="none"/>
<path d="M396.266 102.06L418.946 102.06L418.946 124.74L396.266 124.74L396.266 102.06Z" fill="#808080" fill-rule="nonzero" opacity="1" stroke="none"/>
<path d="M358.727 102.06L381.407 102.06L381.407 124.74L358.727 124.74L358.727 102.06Z" fill="#808080" fill-rule="nonzero" opacity="1" stroke="none"/>
<path d="M321.188 102.06L343.868 102.06L343.868 124.74L321.188 124.74L321.188 102.06Z" fill="#808080" fill-rule="nonzero" opacity="1" stroke="none"/>
<path d="M283.648 102.06L306.328 102.06L306.328 124.74L283.648 124.74L283.648 102.06Z" fill="#808080" fill-rule="nonzero" opacity="1" stroke="none"/>
</g>
</g>
</g>
</svg>
