<?xml version="1.0" encoding="UTF-8" standalone="no"?>
<!DOCTYPE svg PUBLIC "-//W3C//DTD SVG 1.1//EN" "http://www.w3.org/Graphics/SVG/1.1/DTD/svg11.dtd">
<!-- Created with Vectornator (http://vectornator.io/) -->
<svg height="100%" stroke-miterlimit="10" style="fill-rule:nonzero;clip-rule:evenodd;stroke-linecap:round;stroke-linejoin:round;" version="1.1" viewBox="0 0 1168.02 226.8" width="100%" xml:space="preserve" xmlns="http://www.w3.org/2000/svg" xmlns:vectornator="http://vectornator.io" xmlns:xlink="http://www.w3.org/1999/xlink">
<defs>
<clipPath id="TextBounds">
<rect height="161.595" width="90.3988" x="542.969" y="32.6025"/>
</clipPath>
<clipPath id="TextBounds_2">
<rect height="161.595" width="96.7112" x="1005.24" y="32.6025"/>
</clipPath>
<clipPath id="TextBounds_3">
<rect height="161.595" width="102.968" x="62.9424" y="32.6025"/>
</clipPath>
<clipPath id="TextBounds_4">
<rect height="161.595" width="102.968" x="62.9424" y="32.6025"/>
</clipPath>
</defs>
<g id="layer1" vectornator:layerName="layer1">
<g opacity="1">
<g opacity="1">
<path d="M488.943 113.4C488.943 58.5995 533.368 14.175 588.168 14.175C642.969 14.175 687.393 58.5995 687.393 113.4C687.393 168.2 642.969 212.625 588.168 212.625C533.368 212.625 488.943 168.2 488.943 113.4Z" fill="none" opacity="1" stroke="#808080" stroke-linecap="butt" stroke-linejoin="miter" stroke-width="28.35"/>
<path clip-path="url(#TextBounds)" d="M549.824 76.1685L626.07 76.1685L626.07 96.2128L600.488 96.2128L600.488 157.342L575.405 157.342L575.405 96.2128L549.824 96.2128L549.824 76.1685Z" fill="#808080" opacity="1" stroke="#808080" stroke-linecap="butt" stroke-linejoin="miter" stroke-width="2.268"/>
</g>
<g opacity="1">
<g opacity="1">
<path d="M770.093 113.4L940.193 113.4" fill="none" opacity="1" stroke="#0000ff" stroke-linecap="butt" stroke-linejoin="miter" stroke-width="28.35"/>
<path d="M755.918 56.7L755.918 170.1" fill="none" opacity="1" stroke="#0000ff" stroke-linecap="butt" stroke-linejoin="miter" stroke-width="28.35"/>
</g>
<g opacity="1">
<path d="M998.469 14.175L1108.72 14.175C1133.07 14.175 1152.82 33.9192 1152.82 58.275L1152.82 168.525C1152.82 192.881 1133.07 212.625 1108.72 212.625L998.469 212.625C974.113 212.625 954.369 192.881 954.369 168.525L954.369 58.275C954.369 33.9192 974.113 14.175 998.469 14.175Z" fill="none" opacity="1" stroke="#0000ff" stroke-linecap="butt" stroke-linejoin="miter" stroke-width="28.35"/>
<path clip-path="url(#TextBounds_2)" d="M1018.13 76.1685L1055.39 76.1685C1062.74 76.1685 1068.67 77.1652 1073.19 79.1585C1077.72 81.1519 1081.45 84.0127 1084.41 87.741C1087.36 91.4694 1089.5 95.8068 1090.83 100.753C1092.16 105.7 1092.82 110.942 1092.82 116.479C1092.82 125.153 1091.84 131.881 1089.86 136.661C1087.89 141.442 1085.15 145.447 1081.64 148.677C1078.13 151.907 1074.37 154.057 1070.34 155.128C1064.84 156.604 1059.86 157.342 1055.39 157.342L1018.13 157.342L1018.13 76.1685ZM1043.21 94.5517L1043.21 138.904L1049.36 138.904C1054.6 138.904 1058.33 138.323 1060.54 137.16C1062.76 135.997 1064.49 133.967 1065.75 131.069C1067 128.171 1067.63 123.474 1067.63 116.977C1067.63 108.376 1066.23 102.488 1063.42 99.3136C1060.62 96.139 1055.97 94.5517 1049.47 94.5517L1043.21 94.5517Z" fill="#0000ff" opacity="1" stroke="#0000ff" stroke-linecap="butt" stroke-linejoin="miter" stroke-width="2.268"/>
</g>
</g>
<g opacity="1">
<path d="M15.2014 113.4C15.2014 58.5995 59.626 14.175 114.426 14.175C169.227 14.175 213.651 58.5995 213.651 113.4C213.651 168.2 169.227 212.625 114.426 212.625C59.626 212.625 15.2014 168.2 15.2014 113.4Z" fill="none" opacity="1" stroke="#ff0000" stroke-linecap="butt" stroke-linejoin="miter" stroke-width="28.35"/>
<path clip-path="url(#TextBounds_3)" d="M116.309 127.94L116.309 111.052L155.069 111.052L155.069 145.659C147.649 150.716 141.088 154.159 135.384 155.986C129.681 157.813 122.917 158.727 115.091 158.727C105.456 158.727 97.6029 157.084 91.5305 153.799C85.4581 150.513 80.7516 145.622 77.4109 139.125C74.0701 132.629 72.3998 125.172 72.3998 116.755C72.3998 107.896 74.227 100.19 77.8815 93.6381C81.536 87.0858 86.8885 82.1116 93.9391 78.7155C99.4393 76.0946 106.841 74.7842 116.143 74.7842C125.113 74.7842 131.822 75.5963 136.27 77.2205C140.718 78.8447 144.41 81.3641 147.345 84.7787C150.279 88.1932 152.485 92.5214 153.961 97.7632L129.764 102.082C128.768 99.0183 127.079 96.6742 124.698 95.05C122.317 93.4258 119.281 92.6137 115.589 92.6137C110.089 92.6137 105.705 94.524 102.439 98.3446C99.1717 102.165 97.5383 108.21 97.5383 116.479C97.5383 125.264 99.1902 131.54 102.494 135.305C105.798 139.07 110.403 140.953 116.309 140.953C119.115 140.953 121.791 140.547 124.338 139.734C126.885 138.922 129.801 137.538 133.086 135.582L133.086 127.94L116.309 127.94Z" fill="#ff0000" opacity="1" stroke="#ff0000" stroke-linecap="butt" stroke-linejoin="miter" stroke-width="2.268"/>
<g opacity="1">
<path d="M15.2014 113.4C15.2014 58.5995 59.626 14.175 114.426 14.175C169.227 14.175 213.651 58.5995 213.651 113.4C213.651 168.2 169.227 212.625 114.426 212.625C59.626 212.625 15.2014 168.2 15.2014 113.4Z" fill="none" opacity="1" stroke="#ff0000" stroke-linecap="butt" stroke-linejoin="miter" stroke-width="28.35"/>
<path clip-path="url(#TextBounds_4)" d="M116.309 127.94L116.309 111.052L155.069 111.052L155.069 145.659C147.649 150.716 141.088 154.159 135.384 155.986C129.681 157.813 122.917 158.727 115.091 158.727C105.456 158.727 97.6029 157.084 91.5305 153.799C85.4581 150.513 80.7516 145.622 77.4109 139.125C74.0701 132.629 72.3998 125.172 72.3998 116.755C72.3998 107.896 74.227 100.19 77.8815 93.6381C81.536 87.0858 86.8885 82.1116 93.9391 78.7155C99.4393 76.0946 106.841 74.7842 116.143 74.7842C125.113 74.7842 131.822 75.5963 136.27 77.2205C140.718 78.8447 144.41 81.3641 147.345 84.7787C150.279 88.1932 152.485 92.5214 153.961 97.7632L129.764 102.082C128.768 99.0183 127.079 96.6742 124.698 95.05C122.317 93.4258 119.281 92.6137 115.589 92.6137C110.089 92.6137 105.705 94.524 102.439 98.3446C99.1717 102.165 97.5383 108.21 97.5383 116.479C97.5383 125.264 99.1902 131.54 102.494 135.305C105.798 139.07 110.403 140.953 116.309 140.953C119.115 140.953 121.791 140.547 124.338 139.734C126.885 138.922 129.801 137.538 133.086 135.582L133.086 127.94L116.309 127.94Z" fill="#ff0000" opacity="1" stroke="#ff0000" stroke-linecap="butt" stroke-linejoin="miter" stroke-width="2.268"/>
</g>
</g>
<g opacity="1">
<path d="M246.109 102.06L268.789 102.06L268.789 124.74L246.109 124.74L246.109 102.06Z" fill="#808080" fill-rule="nonzero" opacity="1" stroke="none"/>
<path d="M433.806 102.06L456.486 102.06L456.486 124.74L433.806 124.74L433.806 102.06Z" fill="#808080" fill-rule="nonzero" opacity="1" stroke="none"/>
<path d="M396.266 102.06L418.946 102.06L418.946 124.74L396.266 124.74L396.266 102.06Z" fill="#808080" fill-rule="nonzero" opacity="1" stroke="none"/>
<path d="M358.727 102.06L381.407 102.06L381.407 124.74L358.727 124.74L358.727 102.06Z" fill="#808080" fill-rule="nonzero" opacity="1" stroke="none"/>
<path d="M321.188 102.06L343.868 102.06L343.868 124.74L321.188 124.74L321.188 102.06Z" fill="#808080" fill-rule="nonzero" opacity="1" stroke="none"/>
<path d="M283.648 102.06L306.328 102.06L306.328 124.74L283.648 124.74L283.648 102.06Z" fill="#808080" fill-rule="nonzero" opacity="1" stroke="none"/>
</g>
</g>
</g>
</svg>
