<?xml version="1.0" encoding="UTF-8" standalone="no"?>
<!DOCTYPE svg PUBLIC "-//W3C//DTD SVG 1.1//EN" "http://www.w3.org/Graphics/SVG/1.1/DTD/svg11.dtd">
<!-- Created with Vectornator (http://vectornator.io/) -->
<svg height="100%" stroke-miterlimit="10" style="fill-rule:nonzero;clip-rule:evenodd;stroke-linecap:round;stroke-linejoin:round;" version="1.1" viewBox="0 0 258.082 259.353" width="100%" xml:space="preserve" xmlns="http://www.w3.org/2000/svg" xmlns:vectornator="http://vectornator.io" xmlns:xlink="http://www.w3.org/1999/xlink">
<defs/>
<g id="layer1" vectornator:layerName="layer1">
<g opacity="1">
<path d="M233.117 102.693L143.027 42.6416C134.56 36.9968 123.535 36.9968 115.068 42.6416L24.9777 102.693C19.1439 106.587 15.6411 113.139 15.6411 120.144L15.6411 120.144C15.6411 136.89 34.3017 146.869 48.2373 137.583L129.041 83.7176L209.845 137.595C223.78 146.881 242.441 136.89 242.441 120.144L242.441 120.144C242.441 113.126 238.938 106.587 233.117 102.693Z" fill="#d40002" fill-rule="nonzero" opacity="1" stroke="none"/>
<path d="M233.117 182.489L143.027 122.437C134.56 116.793 123.535 116.793 115.068 122.437L24.9777 182.489C19.1439 186.382 15.6411 192.934 15.6411 199.94L15.6411 199.94C15.6411 216.685 34.3017 226.665 48.2373 217.378L129.041 163.513L209.845 217.391C223.78 226.677 242.441 216.685 242.441 199.94L242.441 199.94C242.441 192.922 238.938 186.382 233.117 182.489Z" fill="#d40002" fill-rule="nonzero" opacity="1" stroke="none"/>
</g>
</g>
</svg>
