<?xml version="1.0" encoding="UTF-8" standalone="no"?>
<!DOCTYPE svg PUBLIC "-//W3C//DTD SVG 1.1//EN" "http://www.w3.org/Graphics/SVG/1.1/DTD/svg11.dtd">
<!-- Created with Vectornator (http://vectornator.io/) -->
<svg height="100%" stroke-miterlimit="10" style="fill-rule:nonzero;clip-rule:evenodd;stroke-linecap:round;stroke-linejoin:round;" version="1.1" viewBox="0 0 258.082 259.353" width="100%" xml:space="preserve" xmlns="http://www.w3.org/2000/svg" xmlns:vectornator="http://vectornator.io" xmlns:xlink="http://www.w3.org/1999/xlink">
<defs/>
<g id="layer1" vectornator:layerName="layer1">
<path d="M1.46611 129.677C1.46611 59.2189 58.5834 2.10166 129.041 2.10166C199.499 2.10166 256.616 59.2189 256.616 129.677C256.616 200.134 199.499 257.252 129.041 257.252C58.5834 257.252 1.46611 200.134 1.46611 129.677Z" fill="#e48095" fill-rule="nonzero" opacity="1" stroke="none"/>
<g opacity="1">
<path d="M103.795 96.6232L138.125 59.3285C155.29 40.6811 181.896 40.6811 199.06 59.3285C207.643 68.6522 211.934 80.773 211.934 91.9614C211.934 103.15 207.643 116.203 199.06 124.594L164.731 161.889L103.795 96.6232Z" fill="#000000" fill-rule="nonzero" opacity="1" stroke="#000000" stroke-linecap="round" stroke-linejoin="round" stroke-width="0.2"/>
<path d="M220.166 92.1883C220.166 77.1978 214.678 63.1442 203.702 52.8382C193.64 41.5953 179.92 35.9739 165.285 35.9739C150.65 35.9739 136.93 41.5953 126.869 52.8382L53.6943 127.791C32.6567 149.34 32.6567 184.942 53.6943 207.428C63.7558 217.734 77.476 223.355 92.1109 223.355C106.746 223.355 120.466 217.734 130.527 206.491L203.702 131.538C214.678 121.232 220.166 107.179 220.166 92.1883ZM55.5237 167.141C55.5237 157.772 59.1824 148.403 66.4999 140.907L139.674 65.9549C146.077 58.4596 155.224 54.712 165.285 54.712C175.347 54.712 184.494 58.4596 190.896 65.9549C204.617 80.0085 204.617 104.368 190.896 119.359L117.722 194.311C111.319 200.87 102.172 204.617 92.1109 204.617C82.0494 204.617 72.9026 200.87 66.4999 193.374C59.1824 185.879 55.5237 176.51 55.5237 167.141Z" fill="#000000" fill-rule="nonzero" opacity="1" stroke="none"/>
<path d="M167.32 156.098L129.989 195.527C111.323 215.241 82.3912 215.241 63.7255 195.527C54.3927 185.669 49.7262 172.855 49.7262 161.026C49.7262 149.198 54.3927 135.398 63.7255 126.526L101.057 87.0978L167.32 156.098Z" fill="#000000" fill-rule="nonzero" opacity="1" stroke="#000000" stroke-linecap="round" stroke-linejoin="round" stroke-width="0.2"/>
<g opacity="1">
<path d="M66.2606 164.176C66.8948 164.167 67.5324 164.404 68.0232 164.89L86.6015 183.314C87.583 184.285 87.6054 185.885 86.6514 186.886C85.6975 187.886 84.1302 187.908 83.1486 186.935L64.5686 168.513C63.5871 167.541 63.5647 165.942 64.5187 164.941C64.9973 164.439 65.6264 164.185 66.2606 164.176Z" fill="#f9f9f9" fill-rule="nonzero" opacity="1" stroke="none"/>
<path d="M85.0764 167.463C85.7106 167.454 86.3482 167.691 86.839 168.178L101.379 182.595C102.36 183.567 102.383 185.168 101.429 186.167C100.475 187.167 98.9074 187.189 97.9258 186.216L83.3861 171.799C82.4046 170.827 82.3822 169.226 83.3362 168.227C83.8132 167.728 84.4439 167.472 85.0764 167.463Z" fill="#f9f9f9" fill-rule="nonzero" opacity="1" stroke="none"/>
<path d="M113.369 112.527C114.003 112.518 114.641 112.755 115.131 113.242L140.929 138.824C141.911 139.795 141.933 141.397 140.979 142.396C140.025 143.396 138.458 143.418 137.476 142.445L111.678 116.864C110.697 115.891 110.675 114.293 111.628 113.292C112.105 112.79 112.735 112.536 113.369 112.527Z" fill="#f9f9f9" fill-rule="nonzero" opacity="1" stroke="none"/>
<path d="M123.647 107.348C124.281 107.34 124.919 107.577 125.409 108.063L140.713 123.239C141.694 124.213 141.717 125.811 140.763 126.811C139.809 127.812 138.242 127.834 137.26 126.86L121.956 111.684C120.975 110.711 120.952 109.113 121.906 108.112C122.382 107.612 123.013 107.357 123.647 107.348Z" fill="#f9f9f9" fill-rule="nonzero" opacity="1" stroke="none"/>
<path d="M109.344 123.906C109.978 123.897 110.616 124.134 111.106 124.62L125.648 139.037C126.629 140.009 126.652 141.609 125.698 142.609C124.744 143.61 123.176 143.632 122.195 142.658L107.654 128.241C106.672 127.268 106.65 125.67 107.604 124.669C108.079 124.169 108.71 123.914 109.344 123.906Z" fill="#f9f9f9" fill-rule="nonzero" opacity="1" stroke="none"/>
<path d="M163.521 62.1846C164.156 62.1757 164.793 62.4127 165.284 62.8994L183.861 81.3211C184.842 82.2944 184.865 83.8926 183.911 84.893C182.957 85.8934 181.389 85.9153 180.408 84.942L161.829 66.5203C160.848 65.547 160.825 63.9488 161.779 62.9484C162.256 62.4499 162.887 62.1935 163.521 62.1846Z" fill="#f9f9f9" fill-rule="nonzero" opacity="1" stroke="none"/>
<path d="M167.27 81.2702C167.905 81.2613 168.542 81.4983 169.033 81.985L184.114 96.9385C185.095 97.9119 185.118 99.51 184.164 100.51C183.21 101.511 181.642 101.533 180.661 100.559L165.58 85.6059C164.599 84.6325 164.576 83.0344 165.53 82.034C166.007 81.5355 166.636 81.2791 167.27 81.2702Z" fill="#f9f9f9" fill-rule="nonzero" opacity="1" stroke="none"/>
<path d="M158.798 98.497C165.277 99.6722 171.327 100.527 176.855 99.936C182.383 99.3449 187.39 97.3079 191.783 92.6994C194.281 90.0807 198.385 90.0249 200.954 92.5711C203.524 95.1174 203.582 99.3039 201.085 101.923C189.291 114.291 175.096 114.389 161.58 112.359" fill="#f9f9f9" fill-rule="nonzero" opacity="1" stroke="none"/>
<path d="M99.283 160.904C86.3245 158.554 75.0853 157.486 66.2976 166.702C63.8019 169.319 59.6962 169.376 57.1267 166.83C54.5588 164.284 54.5002 160.097 56.9959 157.478C68.7904 145.11 82.985 145.013 96.499 147.04" fill="#f9f9f9" fill-rule="nonzero" opacity="1" stroke="none"/>
<path d="M99.285 205.94C100.945 205.916 102.616 205.235 103.864 203.927C118.439 188.641 114.485 170.098 111.047 153.778C109.973 148.679 108.951 143.886 108.452 139.288C107.487 130.386 108.523 122.456 114.944 115.723C123.733 106.506 134.949 107.597 147.908 109.947L145.145 96.0785C131.631 94.0509 117.395 94.0958 105.601 106.464C96.3817 116.132 94.5521 127.092 95.322 137.965C95.7688 144.284 97.1545 150.615 98.4178 156.612C101.572 171.58 104.259 184.456 94.5206 194.668C92.0249 197.287 92.084 201.509 94.6519 204.056C95.9367 205.329 97.6255 205.963 99.285 205.94Z" fill="#f9f9f9" fill-rule="nonzero" opacity="1" stroke="none"/>
<path d="M159.335 53.3896C157.675 53.4128 156.004 54.0939 154.756 55.4024C140.181 70.6883 144.135 89.2317 147.573 105.551C148.647 110.65 149.669 115.444 150.168 120.042C151.133 128.944 150.096 136.873 143.676 143.606C134.886 152.823 123.67 151.733 110.712 149.382L113.475 163.251C126.989 165.278 141.224 165.233 153.019 152.865C162.238 143.197 164.068 132.237 163.298 121.364C162.851 115.045 161.465 108.714 160.202 102.717C157.047 87.7496 154.361 74.8735 164.099 64.6612C166.595 62.0425 166.536 57.8198 163.968 55.2736C162.683 54.0004 160.994 53.3664 159.335 53.3896Z" fill="#f9f9f9" fill-rule="nonzero" opacity="1" stroke="none"/>
</g>
</g>
</g>
</svg>
