<?xml version="1.0" encoding="UTF-8" standalone="no"?>
<!DOCTYPE svg PUBLIC "-//W3C//DTD SVG 1.1//EN" "http://www.w3.org/Graphics/SVG/1.1/DTD/svg11.dtd">
<!-- Created with Vectornator (http://vectornator.io/) -->
<svg height="100%" stroke-miterlimit="10" style="fill-rule:nonzero;clip-rule:evenodd;stroke-linecap:round;stroke-linejoin:round;" version="1.1" viewBox="0 0 258.082 259.353" width="100%" xml:space="preserve" xmlns="http://www.w3.org/2000/svg" xmlns:vectornator="http://vectornator.io" xmlns:xlink="http://www.w3.org/1999/xlink">
<defs/>
<clipPath id="ArtboardFrame">
<rect height="259.353" width="258.082" x="0" y="0"/>
</clipPath>
<g clip-path="url(#ArtboardFrame)" id="layer1" vectornator:layerName="layer1">
<g opacity="1">
<path d="M1016.48 204.347C1016.48 133.89 1073.6 76.7724 1144.06 76.7724C1214.52 76.7724 1271.63 133.89 1271.63 204.347C1271.63 274.805 1214.52 331.922 1144.06 331.922C1073.6 331.922 1016.48 274.805 1016.48 204.347Z" fill="#3d9daf" fill-rule="nonzero" opacity="1" stroke="none"/>
<g opacity="1">
<path d="M1118.81 171.294L1153.14 133.999C1170.31 115.352 1196.91 115.352 1214.08 133.999C1222.66 143.323 1226.95 155.444 1226.95 166.632C1226.95 177.821 1222.66 190.874 1214.08 199.265L1179.75 236.56L1118.81 171.294Z" fill="#000000" fill-rule="nonzero" opacity="1" stroke="#000000" stroke-linecap="round" stroke-linejoin="round" stroke-width="0.2"/>
<path d="M1235.18 166.859C1235.18 151.869 1229.69 137.815 1218.72 127.509C1208.66 116.266 1194.94 110.645 1180.3 110.645C1165.67 110.645 1151.95 116.266 1141.89 127.509L1068.71 202.462C1047.67 224.01 1047.67 259.613 1068.71 282.099C1078.77 292.405 1092.49 298.026 1107.13 298.026C1121.76 298.026 1135.48 292.405 1145.54 281.162L1218.72 206.209C1229.69 195.903 1235.18 181.85 1235.18 166.859ZM1070.54 241.812C1070.54 232.443 1074.2 223.074 1081.52 215.578L1154.69 140.626C1161.09 133.13 1170.24 129.383 1180.3 129.383C1190.36 129.383 1199.51 133.13 1205.91 140.626C1219.63 154.679 1219.63 179.039 1205.91 194.029L1132.74 268.982C1126.34 275.54 1117.19 279.288 1107.13 279.288C1097.07 279.288 1087.92 275.54 1081.52 268.045C1074.2 260.55 1070.54 251.181 1070.54 241.812Z" fill="#000000" fill-rule="nonzero" opacity="1" stroke="none"/>
<path d="M1182.34 230.769L1145.01 270.197C1126.34 289.912 1097.41 289.912 1078.74 270.197C1069.41 260.34 1064.74 247.526 1064.74 235.697C1064.74 223.869 1069.41 210.069 1078.74 201.197L1116.07 161.769L1182.34 230.769Z" fill="#000000" fill-rule="nonzero" opacity="1" stroke="#000000" stroke-linecap="round" stroke-linejoin="round" stroke-width="0.2"/>
<g opacity="1">
<path d="M1081.28 238.846C1081.91 238.838 1082.55 239.075 1083.04 239.561L1101.62 257.985C1102.6 258.956 1102.62 260.556 1101.67 261.556C1100.71 262.557 1099.15 262.579 1098.17 261.605L1079.59 243.184C1078.6 242.212 1078.58 240.612 1079.54 239.612C1080.01 239.11 1080.64 238.855 1081.28 238.846Z" fill="#f9f9f9" fill-rule="nonzero" opacity="1" stroke="none"/>
<path d="M1100.09 242.134C1100.73 242.125 1101.37 242.362 1101.86 242.849L1116.4 257.266C1117.38 258.237 1117.4 259.839 1116.45 260.838C1115.49 261.838 1113.92 261.86 1112.94 260.887L1098.4 246.47C1097.42 245.498 1097.4 243.896 1098.35 242.898C1098.83 242.399 1099.46 242.143 1100.09 242.134Z" fill="#f9f9f9" fill-rule="nonzero" opacity="1" stroke="none"/>
<path d="M1128.39 187.198C1129.02 187.189 1129.66 187.426 1130.15 187.912L1155.95 213.494C1156.93 214.466 1156.95 216.068 1156 217.066C1155.04 218.067 1153.47 218.089 1152.49 217.115L1126.7 191.535C1125.71 190.562 1125.69 188.963 1126.65 187.963C1127.12 187.461 1127.75 187.206 1128.39 187.198Z" fill="#f9f9f9" fill-rule="nonzero" opacity="1" stroke="none"/>
<path d="M1138.66 182.019C1139.3 182.01 1139.94 182.247 1140.43 182.734L1155.73 197.91C1156.71 198.883 1156.73 200.482 1155.78 201.482C1154.83 202.482 1153.26 202.504 1152.28 201.531L1136.97 186.355C1135.99 185.382 1135.97 183.783 1136.92 182.783C1137.4 182.283 1138.03 182.028 1138.66 182.019Z" fill="#f9f9f9" fill-rule="nonzero" opacity="1" stroke="none"/>
<path d="M1124.36 198.576C1124.99 198.567 1125.63 198.804 1126.12 199.291L1140.66 213.708C1141.65 214.68 1141.67 216.28 1140.71 217.28C1139.76 218.281 1138.19 218.302 1137.21 217.329L1122.67 202.912C1121.69 201.939 1121.67 200.341 1122.62 199.34C1123.1 198.84 1123.73 198.585 1124.36 198.576Z" fill="#f9f9f9" fill-rule="nonzero" opacity="1" stroke="none"/>
<path d="M1178.54 136.855C1179.17 136.847 1179.81 137.084 1180.3 137.57L1198.88 155.992C1199.86 156.965 1199.88 158.563 1198.93 159.564C1197.97 160.564 1196.41 160.586 1195.42 159.613L1176.85 141.191C1175.86 140.218 1175.84 138.62 1176.8 137.619C1177.27 137.121 1177.9 136.864 1178.54 136.855Z" fill="#f9f9f9" fill-rule="nonzero" opacity="1" stroke="none"/>
<path d="M1182.29 155.941C1182.92 155.932 1183.56 156.169 1184.05 156.656L1199.13 171.609C1200.11 172.583 1200.13 174.181 1199.18 175.181C1198.23 176.182 1196.66 176.204 1195.68 175.23L1180.6 160.277C1179.62 159.303 1179.59 157.705 1180.55 156.705C1181.02 156.206 1181.65 155.95 1182.29 155.941Z" fill="#f9f9f9" fill-rule="nonzero" opacity="1" stroke="none"/>
<path d="M1173.81 173.168C1180.29 174.343 1186.34 175.198 1191.87 174.607C1197.4 174.016 1202.41 171.979 1206.8 167.37C1209.3 164.751 1213.4 164.696 1215.97 167.242C1218.54 169.788 1218.6 173.975 1216.1 176.593C1204.31 188.962 1190.11 189.059 1176.6 187.03" fill="#f9f9f9" fill-rule="nonzero" opacity="1" stroke="none"/>
<path d="M1114.3 235.575C1101.34 233.225 1090.1 232.157 1081.31 241.372C1078.82 243.99 1074.71 244.047 1072.14 241.501C1069.58 238.955 1069.52 234.768 1072.01 232.149C1083.81 219.781 1098 219.683 1111.52 221.711" fill="#f9f9f9" fill-rule="nonzero" opacity="1" stroke="none"/>
<path d="M1114.3 280.61C1115.96 280.587 1117.63 279.906 1118.88 278.598C1133.46 263.312 1129.5 244.768 1126.06 228.449C1124.99 223.35 1123.97 218.556 1123.47 213.958C1122.5 205.056 1123.54 197.127 1129.96 190.394C1138.75 181.177 1149.97 182.267 1162.92 184.618L1160.16 170.749C1146.65 168.722 1132.41 168.767 1120.62 181.135C1111.4 190.803 1109.57 201.763 1110.34 212.636C1110.79 218.955 1112.17 225.286 1113.43 231.283C1116.59 246.25 1119.28 259.126 1109.54 269.339C1107.04 271.957 1107.1 276.18 1109.67 278.726C1110.95 280 1112.64 280.634 1114.3 280.61Z" fill="#f9f9f9" fill-rule="nonzero" opacity="1" stroke="none"/>
<path d="M1174.35 128.06C1172.69 128.084 1171.02 128.765 1169.77 130.073C1155.2 145.359 1159.15 163.902 1162.59 180.222C1163.66 185.32 1164.69 190.114 1165.18 194.712C1166.15 203.614 1165.11 211.544 1158.69 218.277C1149.9 227.494 1138.69 226.403 1125.73 224.053L1128.49 237.921C1142.01 239.949 1156.24 239.904 1168.04 227.536C1177.25 217.868 1179.08 206.908 1178.31 196.035C1177.87 189.716 1176.48 183.385 1175.22 177.387C1172.06 162.42 1169.38 149.544 1179.12 139.332C1181.61 136.713 1181.55 132.491 1178.98 129.944C1177.7 128.671 1176.01 128.037 1174.35 128.06Z" fill="#f9f9f9" fill-rule="nonzero" opacity="1" stroke="none"/>
</g>
</g>
</g>
<path d="M1.46611 129.677C1.46611 59.2189 58.5834 2.10166 129.041 2.10166C199.499 2.10166 256.616 59.2189 256.616 129.677C256.616 200.134 199.499 257.252 129.041 257.252C58.5834 257.252 1.46611 200.134 1.46611 129.677Z" fill="#3d9daf" fill-rule="nonzero" opacity="1" stroke="none"/>
<path d="M103.795 96.6232L138.125 59.3285C155.29 40.6811 181.896 40.6811 199.06 59.3285C207.643 68.6522 211.934 80.773 211.934 91.9614C211.934 103.15 207.643 116.203 199.06 124.594L164.731 161.889L103.795 96.6232Z" fill="#000000" fill-rule="nonzero" opacity="1" stroke="#000000" stroke-linecap="round" stroke-linejoin="round" stroke-width="0.2"/>
<path d="M220.166 92.1883C220.166 77.1978 214.678 63.1442 203.702 52.8382C193.64 41.5953 179.92 35.9739 165.285 35.9739C150.65 35.9739 136.93 41.5953 126.869 52.8382L53.6943 127.791C32.6567 149.34 32.6567 184.942 53.6943 207.428C63.7558 217.734 77.476 223.355 92.1109 223.355C106.746 223.355 120.466 217.734 130.527 206.491L203.702 131.538C214.678 121.232 220.166 107.179 220.166 92.1883ZM55.5237 167.141C55.5237 157.772 59.1824 148.403 66.4999 140.907L139.674 65.9549C146.077 58.4596 155.224 54.712 165.285 54.712C175.347 54.712 184.494 58.4596 190.896 65.9549C204.617 80.0085 204.617 104.368 190.896 119.359L117.722 194.311C111.319 200.87 102.172 204.617 92.1109 204.617C82.0494 204.617 72.9026 200.87 66.4999 193.374C59.1824 185.879 55.5237 176.51 55.5237 167.141Z" fill="#000000" fill-rule="nonzero" opacity="1" stroke="none"/>
<path d="M167.32 156.098L129.989 195.527C111.323 215.241 82.3912 215.241 63.7255 195.527C54.3927 185.669 49.7262 172.855 49.7262 161.026C49.7262 149.198 54.3927 135.398 63.7255 126.526L101.057 87.0978L167.32 156.098Z" fill="#000000" fill-rule="nonzero" opacity="1" stroke="#000000" stroke-linecap="round" stroke-linejoin="round" stroke-width="0.2"/>
<g opacity="1">
<path d="M66.2606 164.176C66.8948 164.167 67.5324 164.404 68.0232 164.89L86.6015 183.314C87.583 184.285 87.6054 185.885 86.6514 186.886C85.6975 187.886 84.1302 187.908 83.1486 186.935L64.5686 168.513C63.5871 167.541 63.5647 165.942 64.5187 164.941C64.9973 164.439 65.6264 164.185 66.2606 164.176Z" fill="#f9f9f9" fill-rule="nonzero" opacity="1" stroke="none"/>
<path d="M85.0764 167.463C85.7106 167.454 86.3482 167.691 86.839 168.178L101.379 182.595C102.36 183.567 102.383 185.168 101.429 186.167C100.475 187.167 98.9074 187.189 97.9258 186.216L83.3861 171.799C82.4046 170.827 82.3822 169.226 83.3362 168.227C83.8132 167.728 84.4439 167.472 85.0764 167.463Z" fill="#f9f9f9" fill-rule="nonzero" opacity="1" stroke="none"/>
<path d="M113.369 112.527C114.003 112.518 114.641 112.755 115.131 113.242L140.929 138.824C141.911 139.795 141.933 141.397 140.979 142.396C140.025 143.396 138.458 143.418 137.476 142.445L111.678 116.864C110.697 115.891 110.675 114.293 111.628 113.292C112.105 112.79 112.735 112.536 113.369 112.527Z" fill="#f9f9f9" fill-rule="nonzero" opacity="1" stroke="none"/>
<path d="M123.647 107.348C124.281 107.34 124.919 107.577 125.409 108.063L140.713 123.239C141.694 124.213 141.717 125.811 140.763 126.811C139.809 127.812 138.242 127.834 137.26 126.86L121.956 111.684C120.975 110.711 120.952 109.113 121.906 108.112C122.382 107.612 123.013 107.357 123.647 107.348Z" fill="#f9f9f9" fill-rule="nonzero" opacity="1" stroke="none"/>
<path d="M109.344 123.906C109.978 123.897 110.616 124.134 111.106 124.62L125.648 139.037C126.629 140.009 126.652 141.609 125.698 142.609C124.744 143.61 123.176 143.632 122.195 142.658L107.654 128.241C106.672 127.268 106.65 125.67 107.604 124.669C108.079 124.169 108.71 123.914 109.344 123.906Z" fill="#f9f9f9" fill-rule="nonzero" opacity="1" stroke="none"/>
<path d="M163.521 62.1846C164.156 62.1757 164.793 62.4127 165.284 62.8994L183.861 81.3211C184.842 82.2944 184.865 83.8926 183.911 84.893C182.957 85.8934 181.389 85.9153 180.408 84.942L161.829 66.5203C160.848 65.547 160.825 63.9488 161.779 62.9484C162.256 62.4499 162.887 62.1935 163.521 62.1846Z" fill="#f9f9f9" fill-rule="nonzero" opacity="1" stroke="none"/>
<path d="M167.27 81.2702C167.905 81.2613 168.542 81.4983 169.033 81.985L184.114 96.9385C185.095 97.9119 185.118 99.51 184.164 100.51C183.21 101.511 181.642 101.533 180.661 100.559L165.58 85.6059C164.599 84.6325 164.576 83.0344 165.53 82.034C166.007 81.5355 166.636 81.2791 167.27 81.2702Z" fill="#f9f9f9" fill-rule="nonzero" opacity="1" stroke="none"/>
<path d="M158.798 98.497C165.277 99.6722 171.327 100.527 176.855 99.936C182.383 99.3449 187.39 97.3079 191.783 92.6994C194.281 90.0807 198.385 90.0249 200.954 92.5711C203.524 95.1174 203.582 99.3039 201.085 101.923C189.291 114.291 175.096 114.389 161.58 112.359" fill="#f9f9f9" fill-rule="nonzero" opacity="1" stroke="none"/>
<path d="M99.283 160.904C86.3245 158.554 75.0853 157.486 66.2976 166.702C63.8019 169.319 59.6962 169.376 57.1267 166.83C54.5588 164.284 54.5002 160.097 56.9959 157.478C68.7904 145.11 82.985 145.013 96.499 147.04" fill="#f9f9f9" fill-rule="nonzero" opacity="1" stroke="none"/>
<path d="M99.285 205.94C100.945 205.916 102.616 205.235 103.864 203.927C118.439 188.641 114.485 170.098 111.047 153.778C109.973 148.679 108.951 143.886 108.452 139.288C107.487 130.386 108.523 122.456 114.944 115.723C123.733 106.506 134.949 107.597 147.908 109.947L145.145 96.0785C131.631 94.0509 117.395 94.0958 105.601 106.464C96.3817 116.132 94.5521 127.092 95.322 137.965C95.7688 144.284 97.1545 150.615 98.4178 156.612C101.572 171.58 104.259 184.456 94.5206 194.668C92.0249 197.287 92.084 201.509 94.6519 204.056C95.9367 205.329 97.6255 205.963 99.285 205.94Z" fill="#f9f9f9" fill-rule="nonzero" opacity="1" stroke="none"/>
<path d="M159.335 53.3896C157.675 53.4128 156.004 54.0939 154.756 55.4024C140.181 70.6883 144.135 89.2317 147.573 105.551C148.647 110.65 149.669 115.444 150.168 120.042C151.133 128.944 150.096 136.873 143.676 143.606C134.886 152.823 123.67 151.733 110.712 149.382L113.475 163.251C126.989 165.278 141.224 165.233 153.019 152.865C162.238 143.197 164.068 132.237 163.298 121.364C162.851 115.045 161.465 108.714 160.202 102.717C157.047 87.7496 154.361 74.8735 164.099 64.6612C166.595 62.0425 166.536 57.8198 163.968 55.2736C162.683 54.0004 160.994 53.3664 159.335 53.3896Z" fill="#f9f9f9" fill-rule="nonzero" opacity="1" stroke="none"/>
</g>
</g>
</svg>
