<?xml version="1.0" encoding="UTF-8" standalone="no"?>
<!DOCTYPE svg PUBLIC "-//W3C//DTD SVG 1.1//EN" "http://www.w3.org/Graphics/SVG/1.1/DTD/svg11.dtd">
<!-- Created with Vectornator (http://vectornator.io/) -->
<svg height="100%" stroke-miterlimit="10" style="fill-rule:nonzero;clip-rule:evenodd;stroke-linecap:round;stroke-linejoin:round;" version="1.1" viewBox="0 0 1168.02 226.8" width="100%" xml:space="preserve" xmlns="http://www.w3.org/2000/svg" xmlns:vectornator="http://vectornator.io" xmlns:xlink="http://www.w3.org/1999/xlink">
<defs/>
<g id="layer1" vectornator:layerName="layer1">
<g opacity="1">
<g opacity="1">
<path d="M999.272 14.175L1109.52 14.175C1133.88 14.175 1153.62 33.9192 1153.62 58.275L1153.62 168.525C1153.62 192.881 1133.88 212.625 1109.52 212.625L999.272 212.625C974.916 212.625 955.172 192.881 955.172 168.525L955.172 58.275C955.172 33.9192 974.916 14.175 999.272 14.175Z" fill="none" opacity="1" stroke="#0000ff" stroke-linecap="butt" stroke-linejoin="miter" stroke-width="28.35"/>
<g opacity="1">
<path d="M1007.71 62.6662L1054.29 62.6662C1063.48 62.6662 1070.89 63.9121 1076.54 66.4038C1082.2 68.8955 1086.87 72.4715 1090.56 77.1319C1094.25 81.7923 1096.93 87.2141 1098.59 93.3972C1100.25 99.5803 1101.08 106.133 1101.08 113.054C1101.08 123.897 1099.85 132.307 1097.38 138.282C1094.91 144.258 1091.48 149.264 1087.1 153.302C1082.72 157.339 1078.01 160.027 1072.98 161.365C1066.11 163.211 1059.88 164.134 1054.29 164.134L1007.71 164.134L1007.71 62.6662ZM1039.07 85.6452L1039.07 141.086L1046.75 141.086C1053.3 141.086 1057.96 140.359 1060.73 138.905C1063.5 137.452 1065.67 134.914 1067.24 131.292C1068.8 127.67 1069.59 121.798 1069.59 113.677C1069.59 102.926 1067.84 95.5659 1064.33 91.5976C1060.82 87.6294 1055.01 85.6452 1046.89 85.6452L1039.07 85.6452Z" fill="#0000ff" fill-rule="nonzero" opacity="1" stroke="#0000ff" stroke-linecap="butt" stroke-linejoin="miter" stroke-width="2.268"/>
</g>
</g>
<g opacity="1">
<path d="M14.3985 113.4C14.3985 58.5996 58.823 14.175 113.623 14.175C168.424 14.175 212.848 58.5996 212.848 113.4C212.848 168.2 168.424 212.625 113.623 212.625C58.823 212.625 14.3985 168.2 14.3985 113.4Z" fill="none" opacity="1" stroke="#ff0000" stroke-linecap="butt" stroke-linejoin="miter" stroke-width="28.35"/>
<g opacity="1">
<path d="M116.842 127.381L116.842 106.271L165.292 106.271L165.292 149.53C156.017 155.851 147.815 160.154 140.686 162.438C133.557 164.722 125.101 165.864 115.319 165.864C103.276 165.864 93.4591 163.811 85.8687 159.704C78.2782 155.597 72.395 149.484 68.2191 141.362C64.0432 133.241 61.9553 123.921 61.9553 113.4C61.9553 102.326 64.2393 92.6935 68.8075 84.5032C73.3756 76.3129 80.0663 70.0952 88.8795 65.8501C95.7547 62.574 105.006 60.9359 116.634 60.9359C127.847 60.9359 136.233 61.951 141.793 63.9813C147.354 66.0116 151.968 69.1608 155.636 73.429C159.305 77.6972 162.062 83.1074 163.907 89.6597L133.661 95.0583C132.415 91.2285 130.304 88.2984 127.328 86.2682C124.352 84.2379 120.556 83.2228 115.942 83.2228C109.067 83.2228 103.587 85.6106 99.5038 90.3864C95.4202 95.1622 93.3784 102.718 93.3784 113.054C93.3784 124.036 95.4433 131.88 99.573 136.587C103.703 141.293 109.459 143.646 116.842 143.646C120.349 143.646 123.694 143.139 126.878 142.124C130.062 141.109 133.707 139.378 137.814 136.933L137.814 127.381L116.842 127.381Z" fill="#ff0000" fill-rule="nonzero" opacity="1" stroke="#ff0000" stroke-linecap="butt" stroke-linejoin="miter" stroke-width="2.268"/>
</g>
</g>
<g opacity="1">
<path d="M489.746 113.4C489.746 58.5995 534.171 14.175 588.971 14.175C643.772 14.175 688.196 58.5995 688.196 113.4C688.196 168.2 643.772 212.625 588.971 212.625C534.171 212.625 489.746 168.2 489.746 113.4Z" fill="none" opacity="1" stroke="#808080" stroke-linecap="butt" stroke-linejoin="miter" stroke-width="28.35"/>
<g opacity="1">
<path d="M541.317 62.6662L636.625 62.6662L636.625 87.7217L604.648 87.7217L604.648 164.134L573.294 164.134L573.294 87.7217L541.317 87.7217L541.317 62.6662Z" fill="#808080" fill-rule="nonzero" opacity="1" stroke="#808080" stroke-linecap="butt" stroke-linejoin="miter" stroke-width="2.268"/>
</g>
</g>
<g opacity="1">
<path d="M770.896 113.4L940.996 113.4" fill="none" opacity="1" stroke="#0000ff" stroke-linecap="butt" stroke-linejoin="miter" stroke-width="28.35"/>
<path d="M756.721 56.7L756.721 170.1" fill="none" opacity="1" stroke="#0000ff" stroke-linecap="butt" stroke-linejoin="miter" stroke-width="28.35"/>
</g>
<g opacity="1">
<path d="M212.848 113.4L368.773 113.4" fill="none" opacity="1" stroke="#ff0000" stroke-linecap="butt" stroke-linejoin="miter" stroke-width="28.35"/>
<path d="M346.093 70.875L431.143 113.4L346.093 155.925" fill="#ff0000" fill-rule="nonzero" opacity="1" stroke="none"/>
</g>
</g>
</g>
</svg>
