<?xml version="1.0" encoding="UTF-8" standalone="no"?>
<!DOCTYPE svg PUBLIC "-//W3C//DTD SVG 1.1//EN" "http://www.w3.org/Graphics/SVG/1.1/DTD/svg11.dtd">
<!-- Created with Vectornator (http://vectornator.io/) -->
<svg height="100%" stroke-miterlimit="10" style="fill-rule:nonzero;clip-rule:evenodd;stroke-linecap:round;stroke-linejoin:round;" version="1.1" viewBox="0 0 600 400" width="100%" xml:space="preserve" xmlns="http://www.w3.org/2000/svg" xmlns:vectornator="http://vectornator.io" xmlns:xlink="http://www.w3.org/1999/xlink">
<defs>
<clipPath id="TextBounds">
<rect height="18.1852" width="162.279" x="218.861" y="12.5"/>
</clipPath>
<clipPath id="TextBounds_2">
<rect height="12" width="39.6953" x="414.79" y="50.7586"/>
</clipPath>
<clipPath id="TextBounds_3">
<rect height="12" width="39.6953" x="414.79" y="50.7586"/>
</clipPath>
<clipPath id="TextBounds_4">
<rect height="12" width="50.4332" x="493.799" y="292.135"/>
</clipPath>
<clipPath id="TextBounds_5">
<rect height="12" width="50.4332" x="493.799" y="292.135"/>
</clipPath>
<clipPath id="TextBounds_6">
<rect height="12" width="53.3809" x="55.7682" y="241.827"/>
</clipPath>
<clipPath id="TextBounds_7">
<rect height="12" width="53.3809" x="55.7682" y="241.827"/>
</clipPath>
</defs>
<g id="Untitled" vectornator:layerName="Untitled">
<g fill="#333333" opacity="1" stroke="none">
<path clip-path="url(#TextBounds)" d="M225.423 25.3047C225.896 25.3047 226.286 25.2555 226.59 25.157C227.134 24.9742 227.579 24.6227 227.926 24.1023C228.203 23.6852 228.402 23.1508 228.524 22.4992C228.594 22.1102 228.629 21.7492 228.629 21.4164C228.629 20.1367 228.375 19.143 227.866 18.4352C227.358 17.7273 226.539 17.3734 225.409 17.3734L222.927 17.3734L222.927 25.3047L225.423 25.3047ZM221.521 16.1711L225.704 16.1711C227.125 16.1711 228.226 16.675 229.009 17.6828C229.707 18.5922 230.057 19.757 230.057 21.1773C230.057 22.2742 229.85 23.2656 229.438 24.1516C228.711 25.7172 227.462 26.5 225.69 26.5L221.521 26.5L221.521 16.1711Z"/>
<path clip-path="url(#TextBounds)" d="M231.723 18.9695L232.925 18.9695L232.925 20.2703C233.024 20.0172 233.265 19.709 233.65 19.3457C234.034 18.9824 234.477 18.8008 234.979 18.8008C235.002 18.8008 235.042 18.8031 235.098 18.8078C235.154 18.8125 235.25 18.8219 235.386 18.8359L235.386 20.1719C235.311 20.1578 235.242 20.1484 235.179 20.1437C235.116 20.1391 235.046 20.1367 234.971 20.1367C234.334 20.1367 233.844 20.3418 233.502 20.752C233.16 21.1621 232.989 21.6344 232.989 22.1687L232.989 26.5L231.723 26.5L231.723 18.9695Z"/>
<path clip-path="url(#TextBounds)" d="M237.749 18.9695L237.749 23.9687C237.749 24.3531 237.81 24.6672 237.932 24.9109C238.157 25.3609 238.576 25.5859 239.19 25.5859C240.071 25.5859 240.671 25.1922 240.99 24.4047C241.164 23.9828 241.25 23.4039 241.25 22.668L241.25 18.9695L242.516 18.9695L242.516 26.5L241.321 26.5L241.335 25.3891C241.171 25.675 240.967 25.9164 240.723 26.1133C240.24 26.507 239.654 26.7039 238.965 26.7039C237.892 26.7039 237.161 26.3453 236.771 25.6281C236.561 25.2437 236.455 24.7305 236.455 24.0883L236.455 18.9695L237.749 18.9695Z"/>
<path clip-path="url(#TextBounds)" d="M247.15 18.8359C247.74 18.8359 248.256 18.9812 248.696 19.2719C248.936 19.4359 249.179 19.675 249.428 19.9891L249.428 19.0398L250.595 19.0398L250.595 25.8883C250.595 26.8445 250.454 27.5992 250.173 28.1523C249.648 29.1742 248.657 29.6852 247.199 29.6852C246.388 29.6852 245.706 29.5035 245.153 29.1402C244.6 28.777 244.29 28.2086 244.225 27.4352L245.511 27.4352C245.572 27.7727 245.694 28.0328 245.877 28.2156C246.163 28.4969 246.613 28.6375 247.227 28.6375C248.197 28.6375 248.832 28.2953 249.132 27.6109C249.311 27.2078 249.393 26.4883 249.379 25.4523C249.125 25.8367 248.821 26.1227 248.464 26.3102C248.108 26.4977 247.637 26.5914 247.051 26.5914C246.236 26.5914 245.522 26.302 244.91 25.723C244.298 25.1441 243.993 24.1867 243.993 22.8508C243.993 21.5898 244.301 20.6055 244.917 19.8977C245.534 19.1898 246.278 18.8359 247.15 18.8359ZM249.428 22.7031C249.428 21.7703 249.236 21.0789 248.851 20.6289C248.467 20.1789 247.977 19.9539 247.382 19.9539C246.491 19.9539 245.882 20.3711 245.554 21.2055C245.38 21.6508 245.293 22.2344 245.293 22.9562C245.293 23.8047 245.466 24.4504 245.81 24.8934C246.155 25.3363 246.618 25.5578 247.199 25.5578C248.108 25.5578 248.748 25.1477 249.118 24.3273C249.325 23.8633 249.428 23.3219 249.428 22.7031Z"/>
<path clip-path="url(#TextBounds)" d="M253.253 24.1375C253.29 24.5594 253.396 24.8828 253.569 25.1078C253.888 25.5156 254.441 25.7195 255.229 25.7195C255.697 25.7195 256.11 25.6176 256.466 25.4137C256.822 25.2098 257 24.8945 257 24.468C257 24.1445 256.857 23.8984 256.571 23.7297C256.389 23.6266 256.028 23.507 255.489 23.3711L254.483 23.118C253.841 22.9586 253.368 22.7805 253.063 22.5836C252.519 22.2414 252.247 21.768 252.247 21.1633C252.247 20.4508 252.504 19.8742 253.017 19.4336C253.53 18.993 254.221 18.7727 255.088 18.7727C256.222 18.7727 257.04 19.1055 257.542 19.7711C257.856 20.193 258.008 20.6477 257.999 21.1352L256.804 21.1352C256.78 20.8492 256.679 20.5891 256.501 20.3547C256.211 20.0219 255.707 19.8555 254.989 19.8555C254.511 19.8555 254.149 19.9469 253.903 20.1297C253.657 20.3125 253.534 20.5539 253.534 20.8539C253.534 21.182 253.696 21.4445 254.019 21.6414C254.207 21.7586 254.483 21.8617 254.849 21.9508L255.686 22.1547C256.595 22.375 257.204 22.5883 257.514 22.7945C258.006 23.118 258.252 23.6266 258.252 24.3203C258.252 24.9906 257.998 25.5695 257.489 26.057C256.98 26.5445 256.206 26.7883 255.165 26.7883C254.045 26.7883 253.252 26.534 252.785 26.0254C252.319 25.5168 252.069 24.8875 252.036 24.1375L253.253 24.1375Z"/>
<path clip-path="url(#TextBounds)" d="M263.603 16.1359L264.833 16.1359L264.833 19.8836C265.11 19.5227 265.44 19.2473 265.825 19.0574C266.209 18.8676 266.626 18.7727 267.076 18.7727C268.014 18.7727 268.774 19.0949 269.358 19.7395C269.941 20.384 270.233 21.3344 270.233 22.5906C270.233 23.7812 269.945 24.7703 269.368 25.5578C268.792 26.3453 267.993 26.7391 266.971 26.7391C266.399 26.7391 265.916 26.6008 265.522 26.3242C265.288 26.1602 265.037 25.8977 264.77 25.5367L264.77 26.5L263.603 26.5L263.603 16.1359ZM266.893 25.6211C267.578 25.6211 268.09 25.3492 268.43 24.8055C268.77 24.2617 268.939 23.5445 268.939 22.6539C268.939 21.8617 268.77 21.2055 268.43 20.6852C268.09 20.1648 267.589 19.9047 266.929 19.9047C266.352 19.9047 265.847 20.118 265.413 20.5445C264.98 20.9711 264.763 21.6742 264.763 22.6539C264.763 23.3617 264.852 23.9359 265.03 24.3766C265.363 25.2062 265.984 25.6211 266.893 25.6211Z"/>
<path clip-path="url(#TextBounds)" d="M276.414 18.9695L277.813 18.9695C277.635 19.4523 277.239 20.5539 276.625 22.2742C276.165 23.568 275.781 24.6227 275.471 25.4383C274.74 27.3602 274.225 28.532 273.925 28.9539C273.625 29.3758 273.109 29.5867 272.378 29.5867C272.2 29.5867 272.062 29.5797 271.966 29.5656C271.87 29.5516 271.752 29.5258 271.611 29.4883L271.611 28.3352C271.832 28.3961 271.991 28.4336 272.089 28.4477C272.188 28.4617 272.275 28.4688 272.35 28.4688C272.584 28.4688 272.756 28.4301 272.866 28.3527C272.977 28.2754 273.069 28.1805 273.144 28.068C273.168 28.0305 273.252 27.8383 273.397 27.4914C273.543 27.1445 273.648 26.8867 273.714 26.718L270.929 18.9695L272.364 18.9695L274.382 25.1008L276.414 18.9695Z"/>
<path clip-path="url(#TextBounds)" d="M283.881 24.4961C283.881 24.8617 284.014 25.15 284.282 25.3609C284.549 25.5719 284.865 25.6773 285.231 25.6773C285.676 25.6773 286.107 25.5742 286.525 25.368C287.228 25.0258 287.579 24.4656 287.579 23.6875L287.579 22.668C287.425 22.7664 287.225 22.8484 286.982 22.9141C286.738 22.9797 286.499 23.0266 286.264 23.0547L285.498 23.1531C285.039 23.2141 284.694 23.3102 284.464 23.4414C284.075 23.6617 283.881 24.0133 283.881 24.4961ZM286.946 21.9367C287.237 21.8992 287.432 21.7773 287.53 21.5711C287.586 21.4586 287.614 21.2969 287.614 21.0859C287.614 20.6547 287.461 20.3418 287.154 20.1473C286.847 19.9527 286.407 19.8555 285.836 19.8555C285.175 19.8555 284.706 20.0336 284.429 20.3898C284.275 20.5867 284.174 20.8797 284.127 21.2687L282.946 21.2687C282.969 20.3406 283.27 19.6949 283.849 19.3316C284.428 18.9684 285.1 18.7867 285.864 18.7867C286.75 18.7867 287.469 18.9555 288.022 19.293C288.571 19.6305 288.845 20.1555 288.845 20.868L288.845 25.2062C288.845 25.3375 288.872 25.443 288.926 25.5227C288.98 25.6023 289.093 25.6422 289.267 25.6422C289.323 25.6422 289.386 25.6387 289.457 25.6316C289.527 25.6246 289.602 25.6141 289.682 25.6L289.682 26.5352C289.485 26.5914 289.335 26.6266 289.232 26.6406C289.129 26.6547 288.988 26.6617 288.81 26.6617C288.374 26.6617 288.057 26.507 287.861 26.1977C287.757 26.0336 287.685 25.8016 287.643 25.5016C287.385 25.8391 287.014 26.132 286.532 26.3805C286.049 26.6289 285.517 26.7531 284.936 26.7531C284.237 26.7531 283.666 26.541 283.223 26.1168C282.78 25.6926 282.559 25.1617 282.559 24.5242C282.559 23.8258 282.777 23.2844 283.213 22.9C283.649 22.5156 284.221 22.2789 284.929 22.1898L286.946 21.9367Z"/>
<path clip-path="url(#TextBounds)" d="M294.097 25.6492C294.688 25.6492 295.179 25.402 295.57 24.9074C295.962 24.4129 296.157 23.6734 296.157 22.6891C296.157 22.0891 296.071 21.5734 295.897 21.1422C295.569 20.3125 294.969 19.8977 294.097 19.8977C293.221 19.8977 292.621 20.3359 292.297 21.2125C292.124 21.6812 292.037 22.2766 292.037 22.9984C292.037 23.5797 292.124 24.0742 292.297 24.482C292.625 25.2602 293.225 25.6492 294.097 25.6492ZM290.821 19.0047L292.051 19.0047L292.051 20.0031C292.304 19.6609 292.581 19.3961 292.881 19.2086C293.307 18.9273 293.809 18.7867 294.386 18.7867C295.239 18.7867 295.963 19.1137 296.558 19.7676C297.154 20.4215 297.451 21.3555 297.451 22.5695C297.451 24.2102 297.022 25.382 296.164 26.0852C295.621 26.5305 294.988 26.7531 294.266 26.7531C293.699 26.7531 293.223 26.6289 292.839 26.3805C292.614 26.2398 292.363 25.9984 292.086 25.6562L292.086 29.5023L290.821 29.5023L290.821 19.0047Z"/>
<path clip-path="url(#TextBounds)" d="M302.106 25.6492C302.696 25.6492 303.188 25.402 303.579 24.9074C303.97 24.4129 304.166 23.6734 304.166 22.6891C304.166 22.0891 304.079 21.5734 303.906 21.1422C303.578 20.3125 302.978 19.8977 302.106 19.8977C301.229 19.8977 300.629 20.3359 300.306 21.2125C300.132 21.6812 300.046 22.2766 300.046 22.9984C300.046 23.5797 300.132 24.0742 300.306 24.482C300.634 25.2602 301.234 25.6492 302.106 25.6492ZM298.829 19.0047L300.06 19.0047L300.06 20.0031C300.313 19.6609 300.589 19.3961 300.889 19.2086C301.316 18.9273 301.818 18.7867 302.394 18.7867C303.247 18.7867 303.971 19.1137 304.567 19.7676C305.162 20.4215 305.46 21.3555 305.46 22.5695C305.46 24.2102 305.031 25.382 304.173 26.0852C303.629 26.5305 302.996 26.7531 302.275 26.7531C301.707 26.7531 301.232 26.6289 300.847 26.3805C300.622 26.2398 300.371 25.9984 300.095 25.6562L300.095 29.5023L298.829 29.5023L298.829 19.0047Z"/>
<path clip-path="url(#TextBounds)" d="M306.971 18.9695L308.174 18.9695L308.174 20.2703C308.272 20.0172 308.514 19.709 308.898 19.3457C309.282 18.9824 309.725 18.8008 310.227 18.8008C310.25 18.8008 310.29 18.8031 310.346 18.8078C310.403 18.8125 310.499 18.8219 310.635 18.8359L310.635 20.1719C310.56 20.1578 310.491 20.1484 310.427 20.1437C310.364 20.1391 310.295 20.1367 310.22 20.1367C309.582 20.1367 309.093 20.3418 308.75 20.752C308.408 21.1621 308.237 21.6344 308.237 22.1687L308.237 26.5L306.971 26.5L306.971 18.9695Z"/>
<path clip-path="url(#TextBounds)" d="M314.72 25.6844C315.559 25.6844 316.134 25.3668 316.446 24.7316C316.758 24.0965 316.914 23.3898 316.914 22.6117C316.914 21.9086 316.801 21.3367 316.576 20.8961C316.22 20.2023 315.606 19.8555 314.734 19.8555C313.961 19.8555 313.398 20.1508 313.046 20.7414C312.695 21.332 312.519 22.0445 312.519 22.8789C312.519 23.6805 312.695 24.3484 313.046 24.8828C313.398 25.4172 313.956 25.6844 314.72 25.6844ZM314.769 18.7516C315.739 18.7516 316.56 19.075 317.23 19.7219C317.9 20.3687 318.236 21.3203 318.236 22.5766C318.236 23.7906 317.94 24.7937 317.35 25.5859C316.759 26.3781 315.843 26.7742 314.6 26.7742C313.564 26.7742 312.742 26.4238 312.132 25.723C311.523 25.0223 311.218 24.0812 311.218 22.9C311.218 21.6344 311.539 20.6266 312.182 19.8766C312.824 19.1266 313.686 18.7516 314.769 18.7516Z"/>
<path clip-path="url(#TextBounds)" d="M320.359 18.9695L322.37 25.1008L324.472 18.9695L325.857 18.9695L323.017 26.5L321.667 26.5L318.889 18.9695L320.359 18.9695Z"/>
<path clip-path="url(#TextBounds)" d="M327.911 24.4961C327.911 24.8617 328.044 25.15 328.311 25.3609C328.579 25.5719 328.895 25.6773 329.261 25.6773C329.706 25.6773 330.137 25.5742 330.554 25.368C331.257 25.0258 331.609 24.4656 331.609 23.6875L331.609 22.668C331.454 22.7664 331.255 22.8484 331.011 22.9141C330.768 22.9797 330.529 23.0266 330.294 23.0547L329.528 23.1531C329.068 23.2141 328.724 23.3102 328.494 23.4414C328.105 23.6617 327.911 24.0133 327.911 24.4961ZM330.976 21.9367C331.267 21.8992 331.461 21.7773 331.56 21.5711C331.616 21.4586 331.644 21.2969 331.644 21.0859C331.644 20.6547 331.491 20.3418 331.184 20.1473C330.877 19.9527 330.437 19.8555 329.865 19.8555C329.204 19.8555 328.736 20.0336 328.459 20.3898C328.304 20.5867 328.204 20.8797 328.157 21.2687L326.975 21.2687C326.999 20.3406 327.3 19.6949 327.879 19.3316C328.458 18.9684 329.129 18.7867 329.893 18.7867C330.779 18.7867 331.499 18.9555 332.052 19.293C332.6 19.6305 332.875 20.1555 332.875 20.868L332.875 25.2062C332.875 25.3375 332.902 25.443 332.955 25.5227C333.009 25.6023 333.123 25.6422 333.296 25.6422C333.353 25.6422 333.416 25.6387 333.486 25.6316C333.557 25.6246 333.632 25.6141 333.711 25.6L333.711 26.5352C333.514 26.5914 333.364 26.6266 333.261 26.6406C333.158 26.6547 333.018 26.6617 332.839 26.6617C332.404 26.6617 332.087 26.507 331.89 26.1977C331.787 26.0336 331.714 25.8016 331.672 25.5016C331.414 25.8391 331.044 26.132 330.561 26.3805C330.079 26.6289 329.546 26.7531 328.965 26.7531C328.267 26.7531 327.696 26.541 327.253 26.1168C326.81 25.6926 326.589 25.1617 326.589 24.5242C326.589 23.8258 326.807 23.2844 327.243 22.9C327.679 22.5156 328.25 22.2789 328.958 22.1898L330.976 21.9367Z"/>
<path clip-path="url(#TextBounds)" d="M334.984 16.1711L336.25 16.1711L336.25 26.5L334.984 26.5L334.984 16.1711Z"/>
<path clip-path="url(#TextBounds)" d="M342.901 24.1375C342.939 24.5594 343.044 24.8828 343.218 25.1078C343.536 25.5156 344.089 25.7195 344.877 25.7195C345.346 25.7195 345.758 25.6176 346.114 25.4137C346.471 25.2098 346.649 24.8945 346.649 24.468C346.649 24.1445 346.506 23.8984 346.22 23.7297C346.037 23.6266 345.676 23.507 345.137 23.3711L344.132 23.118C343.489 22.9586 343.016 22.7805 342.711 22.5836C342.168 22.2414 341.896 21.768 341.896 21.1633C341.896 20.4508 342.152 19.8742 342.666 19.4336C343.179 18.993 343.869 18.7727 344.736 18.7727C345.871 18.7727 346.689 19.1055 347.19 19.7711C347.504 20.193 347.657 20.6477 347.647 21.1352L346.452 21.1352C346.429 20.8492 346.328 20.5891 346.15 20.3547C345.859 20.0219 345.355 19.8555 344.638 19.8555C344.16 19.8555 343.798 19.9469 343.552 20.1297C343.305 20.3125 343.182 20.5539 343.182 20.8539C343.182 21.182 343.344 21.4445 343.668 21.6414C343.855 21.7586 344.132 21.8617 344.497 21.9508L345.334 22.1547C346.243 22.375 346.853 22.5883 347.162 22.7945C347.654 23.118 347.9 23.6266 347.9 24.3203C347.9 24.9906 347.646 25.5695 347.138 26.057C346.629 26.5445 345.854 26.7883 344.814 26.7883C343.693 26.7883 342.9 26.534 342.434 26.0254C341.967 25.5168 341.718 24.8875 341.685 24.1375L342.901 24.1375Z"/>
<path clip-path="url(#TextBounds)" d="M349.602 16.8672L350.882 16.8672L350.882 18.9695L352.084 18.9695L352.084 20.0031L350.882 20.0031L350.882 24.918C350.882 25.1805 350.971 25.3562 351.149 25.4453C351.247 25.4969 351.411 25.5227 351.641 25.5227C351.702 25.5227 351.768 25.5215 351.838 25.5191C351.908 25.5168 351.99 25.5109 352.084 25.5016L352.084 26.5C351.939 26.5422 351.788 26.5727 351.63 26.5914C351.473 26.6102 351.304 26.6195 351.121 26.6195C350.53 26.6195 350.129 26.4684 349.918 26.166C349.707 25.8637 349.602 25.4711 349.602 24.9883L349.602 20.0031L348.582 20.0031L348.582 18.9695L349.602 18.9695L349.602 16.8672Z"/>
<path clip-path="url(#TextBounds)" d="M354.32 24.4961C354.32 24.8617 354.454 25.15 354.721 25.3609C354.988 25.5719 355.304 25.6773 355.67 25.6773C356.115 25.6773 356.546 25.5742 356.964 25.368C357.667 25.0258 358.018 24.4656 358.018 23.6875L358.018 22.668C357.864 22.7664 357.664 22.8484 357.421 22.9141C357.177 22.9797 356.938 23.0266 356.704 23.0547L355.937 23.1531C355.478 23.2141 355.133 23.3102 354.904 23.4414C354.514 23.6617 354.32 24.0133 354.32 24.4961ZM357.386 21.9367C357.676 21.8992 357.871 21.7773 357.969 21.5711C358.025 21.4586 358.054 21.2969 358.054 21.0859C358.054 20.6547 357.9 20.3418 357.593 20.1473C357.286 19.9527 356.846 19.8555 356.275 19.8555C355.614 19.8555 355.145 20.0336 354.868 20.3898C354.714 20.5867 354.613 20.8797 354.566 21.2687L353.385 21.2687C353.408 20.3406 353.709 19.6949 354.288 19.3316C354.867 18.9684 355.539 18.7867 356.303 18.7867C357.189 18.7867 357.908 18.9555 358.461 19.293C359.01 19.6305 359.284 20.1555 359.284 20.868L359.284 25.2062C359.284 25.3375 359.311 25.443 359.365 25.5227C359.419 25.6023 359.532 25.6422 359.706 25.6422C359.762 25.6422 359.825 25.6387 359.896 25.6316C359.966 25.6246 360.041 25.6141 360.121 25.6L360.121 26.5352C359.924 26.5914 359.774 26.6266 359.671 26.6406C359.568 26.6547 359.427 26.6617 359.249 26.6617C358.813 26.6617 358.496 26.507 358.3 26.1977C358.196 26.0336 358.124 25.8016 358.082 25.5016C357.824 25.8391 357.454 26.132 356.971 26.3805C356.488 26.6289 355.956 26.7531 355.375 26.7531C354.676 26.7531 354.105 26.541 353.663 26.1168C353.22 25.6926 352.998 25.1617 352.998 24.5242C352.998 23.8258 353.216 23.2844 353.652 22.9C354.088 22.5156 354.66 22.2789 355.368 22.1898L357.386 21.9367Z"/>
<path clip-path="url(#TextBounds)" d="M361.611 16.8672L362.891 16.8672L362.891 18.9695L364.093 18.9695L364.093 20.0031L362.891 20.0031L362.891 24.918C362.891 25.1805 362.98 25.3562 363.158 25.4453C363.257 25.4969 363.421 25.5227 363.65 25.5227C363.711 25.5227 363.777 25.5215 363.847 25.5191C363.918 25.5168 364 25.5109 364.093 25.5016L364.093 26.5C363.948 26.5422 363.797 26.5727 363.64 26.5914C363.483 26.6102 363.313 26.6195 363.13 26.6195C362.539 26.6195 362.139 26.4684 361.928 26.166C361.717 25.8637 361.611 25.4711 361.611 24.9883L361.611 20.0031L360.592 20.0031L360.592 18.9695L361.611 18.9695L361.611 16.8672Z"/>
<path clip-path="url(#TextBounds)" d="M366.625 18.9695L366.625 23.9687C366.625 24.3531 366.686 24.6672 366.807 24.9109C367.032 25.3609 367.452 25.5859 368.066 25.5859C368.947 25.5859 369.547 25.1922 369.866 24.4047C370.039 23.9828 370.126 23.4039 370.126 22.668L370.126 18.9695L371.392 18.9695L371.392 26.5L370.196 26.5L370.211 25.3891C370.046 25.675 369.843 25.9164 369.599 26.1133C369.116 26.507 368.53 26.7039 367.841 26.7039C366.768 26.7039 366.036 26.3453 365.647 25.6281C365.436 25.2437 365.331 24.7305 365.331 24.0883L365.331 18.9695L366.625 18.9695Z"/>
<path clip-path="url(#TextBounds)" d="M374.12 24.1375C374.157 24.5594 374.263 24.8828 374.436 25.1078C374.755 25.5156 375.308 25.7195 376.096 25.7195C376.564 25.7195 376.977 25.6176 377.333 25.4137C377.689 25.2098 377.868 24.8945 377.868 24.468C377.868 24.1445 377.725 23.8984 377.439 23.7297C377.256 23.6266 376.895 23.507 376.356 23.3711L375.35 23.118C374.708 22.9586 374.235 22.7805 373.93 22.5836C373.386 22.2414 373.114 21.768 373.114 21.1633C373.114 20.4508 373.371 19.8742 373.884 19.4336C374.398 18.993 375.088 18.7727 375.955 18.7727C377.089 18.7727 377.907 19.1055 378.409 19.7711C378.723 20.193 378.875 20.6477 378.866 21.1352L377.671 21.1352C377.647 20.8492 377.546 20.5891 377.368 20.3547C377.078 20.0219 376.574 19.8555 375.857 19.8555C375.379 19.8555 375.016 19.9469 374.77 20.1297C374.524 20.3125 374.401 20.5539 374.401 20.8539C374.401 21.182 374.563 21.4445 374.886 21.6414C375.074 21.7586 375.35 21.8617 375.716 21.9508L376.553 22.1547C377.462 22.375 378.071 22.5883 378.381 22.7945C378.873 23.118 379.119 23.6266 379.119 24.3203C379.119 24.9906 378.865 25.5695 378.356 26.057C377.848 26.5445 377.073 26.7883 376.032 26.7883C374.912 26.7883 374.119 26.534 373.652 26.0254C373.186 25.5168 372.936 24.8875 372.904 24.1375L374.12 24.1375Z"/>
</g>
<g opacity="1">
<g fill="#ffffff" opacity="1" stroke="#ffffff" stroke-linecap="butt" stroke-linejoin="round" stroke-width="1.6">
<path clip-path="url(#TextBounds_2)" d="M417.45 58.534C417.45 58.7575 417.532 58.9336 417.695 59.0626C417.858 59.1915 418.052 59.2559 418.275 59.2559C418.547 59.2559 418.811 59.1929 419.066 59.0669C419.496 58.8577 419.71 58.5154 419.71 58.0399L419.71 57.4169C419.616 57.477 419.494 57.5271 419.345 57.5672C419.196 57.6073 419.05 57.636 418.907 57.6532L418.439 57.7133C418.158 57.7506 417.947 57.8093 417.807 57.8895C417.569 58.0241 417.45 58.239 417.45 58.534ZM419.324 56.97C419.501 56.9471 419.62 56.8726 419.68 56.7465C419.715 56.6778 419.732 56.579 419.732 56.4501C419.732 56.1865 419.638 55.9953 419.45 55.8764C419.263 55.7575 418.994 55.6981 418.645 55.6981C418.241 55.6981 417.954 55.807 417.785 56.0247C417.691 56.145 417.629 56.324 417.601 56.5618L416.879 56.5618C416.893 55.9946 417.077 55.6 417.431 55.378C417.785 55.156 418.195 55.045 418.662 55.045C419.203 55.045 419.643 55.1481 419.981 55.3544C420.316 55.5606 420.484 55.8814 420.484 56.3169L420.484 58.968C420.484 59.0482 420.5 59.1127 420.533 59.1614C420.566 59.2101 420.636 59.2344 420.742 59.2344C420.776 59.2344 420.815 59.2323 420.858 59.228C420.901 59.2237 420.946 59.2172 420.995 59.2086L420.995 59.7801C420.875 59.8145 420.783 59.836 420.72 59.8446C420.657 59.8532 420.571 59.8575 420.462 59.8575C420.196 59.8575 420.003 59.7629 419.882 59.5739C419.819 59.4736 419.775 59.3318 419.749 59.1485C419.592 59.3547 419.365 59.5338 419.07 59.6856C418.775 59.8374 418.45 59.9133 418.095 59.9133C417.668 59.9133 417.319 59.7837 417.048 59.5245C416.778 59.2652 416.642 58.9408 416.642 58.5512C416.642 58.1244 416.776 57.7935 417.042 57.5586C417.308 57.3238 417.658 57.1791 418.09 57.1247L419.324 56.97Z"/>
<path clip-path="url(#TextBounds_2)" d="M423.694 59.2387C424.055 59.2387 424.355 59.0876 424.594 58.7854C424.833 58.4832 424.953 58.0313 424.953 57.4297C424.953 57.0631 424.9 56.748 424.794 56.4844C424.593 55.9774 424.226 55.7239 423.694 55.7239C423.158 55.7239 422.791 55.9917 422.594 56.5274C422.488 56.8139 422.435 57.1777 422.435 57.6188C422.435 57.974 422.488 58.2762 422.594 58.5254C422.794 59.001 423.161 59.2387 423.694 59.2387ZM421.691 55.1782L422.443 55.1782L422.443 55.7883C422.598 55.5792 422.767 55.4174 422.95 55.3028C423.211 55.1309 423.517 55.045 423.87 55.045C424.391 55.045 424.834 55.2448 425.198 55.6444C425.561 56.044 425.743 56.6148 425.743 57.3567C425.743 58.3593 425.481 59.0754 424.957 59.5051C424.625 59.7773 424.238 59.9133 423.797 59.9133C423.45 59.9133 423.159 59.8374 422.924 59.6856C422.787 59.5997 422.634 59.4521 422.465 59.243L422.465 61.5934L421.691 61.5934L421.691 55.1782Z"/>
<path clip-path="url(#TextBounds_2)" d="M428.588 59.2387C428.949 59.2387 429.249 59.0876 429.488 58.7854C429.727 58.4832 429.847 58.0313 429.847 57.4297C429.847 57.0631 429.794 56.748 429.688 56.4844C429.487 55.9774 429.121 55.7239 428.588 55.7239C428.052 55.7239 427.685 55.9917 427.488 56.5274C427.382 56.8139 427.329 57.1777 427.329 57.6188C427.329 57.974 427.382 58.2762 427.488 58.5254C427.688 59.001 428.055 59.2387 428.588 59.2387ZM426.585 55.1782L427.337 55.1782L427.337 55.7883C427.492 55.5792 427.661 55.4174 427.844 55.3028C428.105 55.1309 428.412 55.045 428.764 55.045C429.285 55.045 429.728 55.2448 430.092 55.6444C430.455 56.044 430.637 56.6148 430.637 57.3567C430.637 58.3593 430.375 59.0754 429.851 59.5051C429.519 59.7773 429.132 59.9133 428.691 59.9133C428.344 59.9133 428.054 59.8374 427.819 59.6856C427.681 59.5997 427.528 59.4521 427.359 59.243L427.359 61.5934L426.585 61.5934L426.585 55.1782Z"/>
<path clip-path="url(#TextBounds_2)" d="M431.561 55.1567L432.296 55.1567L432.296 55.9516C432.356 55.7969 432.504 55.6086 432.739 55.3866C432.973 55.1646 433.244 55.0536 433.551 55.0536C433.565 55.0536 433.589 55.055 433.624 55.0579C433.658 55.0607 433.717 55.0665 433.8 55.0751L433.8 55.8915C433.754 55.8829 433.712 55.8771 433.673 55.8743C433.634 55.8714 433.592 55.87 433.546 55.87C433.157 55.87 432.857 55.9953 432.648 56.246C432.439 56.4966 432.335 56.7852 432.335 57.1118L432.335 59.7586L431.561 59.7586L431.561 55.1567Z"/>
<path clip-path="url(#TextBounds_2)" d="M436.296 59.2602C436.809 59.2602 437.161 59.0661 437.351 58.678C437.542 58.2898 437.637 57.858 437.637 57.3825C437.637 56.9528 437.568 56.6033 437.431 56.334C437.213 55.9101 436.838 55.6981 436.305 55.6981C435.832 55.6981 435.489 55.8786 435.274 56.2395C435.059 56.6004 434.951 57.0359 434.951 57.5458C434.951 58.0356 435.059 58.4438 435.274 58.7704C435.489 59.0969 435.829 59.2602 436.296 59.2602ZM436.326 55.0235C436.919 55.0235 437.421 55.2211 437.83 55.6165C438.24 56.0118 438.445 56.5933 438.445 57.361C438.445 58.1029 438.264 58.7159 437.903 59.2001C437.542 59.6842 436.982 59.9262 436.223 59.9262C435.59 59.9262 435.087 59.7121 434.715 59.2838C434.343 58.8556 434.156 58.2805 434.156 57.5586C434.156 56.7852 434.353 56.1693 434.745 55.711C435.138 55.2527 435.665 55.0235 436.326 55.0235Z"/>
<path clip-path="url(#TextBounds_2)" d="M439.742 55.1567L440.971 58.9036L442.256 55.1567L443.103 55.1567L441.367 59.7586L440.542 59.7586L438.844 55.1567L439.742 55.1567Z"/>
<path clip-path="url(#TextBounds_2)" d="M445.681 55.0536C446.007 55.0536 446.324 55.1302 446.63 55.2835C446.937 55.4367 447.17 55.6351 447.331 55.8786C447.485 56.1106 447.589 56.3813 447.64 56.6907C447.686 56.9027 447.709 57.2407 447.709 57.7047L444.336 57.7047C444.35 58.1717 444.46 58.5462 444.667 58.8284C444.873 59.1105 445.192 59.2516 445.625 59.2516C446.029 59.2516 446.351 59.1184 446.592 58.852C446.729 58.6973 446.827 58.5183 446.884 58.3149L447.644 58.3149C447.624 58.4839 447.558 58.6723 447.445 58.8799C447.331 59.0876 447.205 59.2573 447.064 59.3891C446.829 59.6183 446.539 59.773 446.192 59.8532C446.006 59.899 445.795 59.9219 445.56 59.9219C444.987 59.9219 444.502 59.7135 444.104 59.2967C443.706 58.8799 443.506 58.2963 443.506 57.5458C443.506 56.8067 443.707 56.2066 444.108 55.7454C444.509 55.2842 445.033 55.0536 445.681 55.0536ZM446.914 57.0903C446.882 56.7551 446.809 56.4873 446.695 56.2868C446.483 55.9144 446.129 55.7282 445.633 55.7282C445.278 55.7282 444.98 55.8564 444.74 56.1128C444.499 56.3691 444.372 56.695 444.357 57.0903L446.914 57.0903Z"/>
<path clip-path="url(#TextBounds_2)" d="M449.148 57.5114C449.148 58.0041 449.253 58.4166 449.462 58.7489C449.671 59.0812 450.006 59.2473 450.467 59.2473C450.826 59.2473 451.12 59.0933 451.35 58.7854C451.581 58.4775 451.696 58.0356 451.696 57.4598C451.696 56.8783 451.577 56.4479 451.34 56.1686C451.102 55.8893 450.808 55.7497 450.459 55.7497C450.069 55.7497 449.753 55.8986 449.511 56.1965C449.269 56.4945 449.148 56.9327 449.148 57.5114ZM450.313 55.0751C450.665 55.0751 450.96 55.1495 451.198 55.2985C451.335 55.3844 451.492 55.5348 451.666 55.7497L451.666 53.4251L452.41 53.4251L452.41 59.7586L451.714 59.7586L451.714 59.1184C451.533 59.402 451.32 59.6068 451.073 59.7329C450.827 59.8589 450.545 59.9219 450.227 59.9219C449.714 59.9219 449.27 59.7064 448.895 59.2753C448.52 58.8441 448.332 58.2705 448.332 57.5544C448.332 56.884 448.503 56.3032 448.845 55.812C449.188 55.3207 449.677 55.0751 450.313 55.0751Z"/>
</g>
<g fill="#000000" opacity="1" stroke="none">
<path clip-path="url(#TextBounds_3)" d="M417.45 58.534C417.45 58.7575 417.532 58.9336 417.695 59.0626C417.858 59.1915 418.052 59.2559 418.275 59.2559C418.547 59.2559 418.811 59.1929 419.066 59.0669C419.496 58.8577 419.71 58.5154 419.71 58.0399L419.71 57.4169C419.616 57.477 419.494 57.5271 419.345 57.5672C419.196 57.6073 419.05 57.636 418.907 57.6532L418.439 57.7133C418.158 57.7506 417.947 57.8093 417.807 57.8895C417.569 58.0241 417.45 58.239 417.45 58.534ZM419.324 56.97C419.501 56.9471 419.62 56.8726 419.68 56.7465C419.715 56.6778 419.732 56.579 419.732 56.4501C419.732 56.1865 419.638 55.9953 419.45 55.8764C419.263 55.7575 418.994 55.6981 418.645 55.6981C418.241 55.6981 417.954 55.807 417.785 56.0247C417.691 56.145 417.629 56.324 417.601 56.5618L416.879 56.5618C416.893 55.9946 417.077 55.6 417.431 55.378C417.785 55.156 418.195 55.045 418.662 55.045C419.203 55.045 419.643 55.1481 419.981 55.3544C420.316 55.5606 420.484 55.8814 420.484 56.3169L420.484 58.968C420.484 59.0482 420.5 59.1127 420.533 59.1614C420.566 59.2101 420.636 59.2344 420.742 59.2344C420.776 59.2344 420.815 59.2323 420.858 59.228C420.901 59.2237 420.946 59.2172 420.995 59.2086L420.995 59.7801C420.875 59.8145 420.783 59.836 420.72 59.8446C420.657 59.8532 420.571 59.8575 420.462 59.8575C420.196 59.8575 420.003 59.7629 419.882 59.5739C419.819 59.4736 419.775 59.3318 419.749 59.1485C419.592 59.3547 419.365 59.5338 419.07 59.6856C418.775 59.8374 418.45 59.9133 418.095 59.9133C417.668 59.9133 417.319 59.7837 417.048 59.5245C416.778 59.2652 416.642 58.9408 416.642 58.5512C416.642 58.1244 416.776 57.7935 417.042 57.5586C417.308 57.3238 417.658 57.1791 418.09 57.1247L419.324 56.97Z"/>
<path clip-path="url(#TextBounds_3)" d="M423.694 59.2387C424.055 59.2387 424.355 59.0876 424.594 58.7854C424.833 58.4832 424.953 58.0313 424.953 57.4297C424.953 57.0631 424.9 56.748 424.794 56.4844C424.593 55.9774 424.226 55.7239 423.694 55.7239C423.158 55.7239 422.791 55.9917 422.594 56.5274C422.488 56.8139 422.435 57.1777 422.435 57.6188C422.435 57.974 422.488 58.2762 422.594 58.5254C422.794 59.001 423.161 59.2387 423.694 59.2387ZM421.691 55.1782L422.443 55.1782L422.443 55.7883C422.598 55.5792 422.767 55.4174 422.95 55.3028C423.211 55.1309 423.517 55.045 423.87 55.045C424.391 55.045 424.834 55.2448 425.198 55.6444C425.561 56.044 425.743 56.6148 425.743 57.3567C425.743 58.3593 425.481 59.0754 424.957 59.5051C424.625 59.7773 424.238 59.9133 423.797 59.9133C423.45 59.9133 423.159 59.8374 422.924 59.6856C422.787 59.5997 422.634 59.4521 422.465 59.243L422.465 61.5934L421.691 61.5934L421.691 55.1782Z"/>
<path clip-path="url(#TextBounds_3)" d="M428.588 59.2387C428.949 59.2387 429.249 59.0876 429.488 58.7854C429.727 58.4832 429.847 58.0313 429.847 57.4297C429.847 57.0631 429.794 56.748 429.688 56.4844C429.487 55.9774 429.121 55.7239 428.588 55.7239C428.052 55.7239 427.685 55.9917 427.488 56.5274C427.382 56.8139 427.329 57.1777 427.329 57.6188C427.329 57.974 427.382 58.2762 427.488 58.5254C427.688 59.001 428.055 59.2387 428.588 59.2387ZM426.585 55.1782L427.337 55.1782L427.337 55.7883C427.492 55.5792 427.661 55.4174 427.844 55.3028C428.105 55.1309 428.412 55.045 428.764 55.045C429.285 55.045 429.728 55.2448 430.092 55.6444C430.455 56.044 430.637 56.6148 430.637 57.3567C430.637 58.3593 430.375 59.0754 429.851 59.5051C429.519 59.7773 429.132 59.9133 428.691 59.9133C428.344 59.9133 428.054 59.8374 427.819 59.6856C427.681 59.5997 427.528 59.4521 427.359 59.243L427.359 61.5934L426.585 61.5934L426.585 55.1782Z"/>
<path clip-path="url(#TextBounds_3)" d="M431.561 55.1567L432.296 55.1567L432.296 55.9516C432.356 55.7969 432.504 55.6086 432.739 55.3866C432.973 55.1646 433.244 55.0536 433.551 55.0536C433.565 55.0536 433.589 55.055 433.624 55.0579C433.658 55.0607 433.717 55.0665 433.8 55.0751L433.8 55.8915C433.754 55.8829 433.712 55.8771 433.673 55.8743C433.634 55.8714 433.592 55.87 433.546 55.87C433.157 55.87 432.857 55.9953 432.648 56.246C432.439 56.4966 432.335 56.7852 432.335 57.1118L432.335 59.7586L431.561 59.7586L431.561 55.1567Z"/>
<path clip-path="url(#TextBounds_3)" d="M436.296 59.2602C436.809 59.2602 437.161 59.0661 437.351 58.678C437.542 58.2898 437.637 57.858 437.637 57.3825C437.637 56.9528 437.568 56.6033 437.431 56.334C437.213 55.9101 436.838 55.6981 436.305 55.6981C435.832 55.6981 435.489 55.8786 435.274 56.2395C435.059 56.6004 434.951 57.0359 434.951 57.5458C434.951 58.0356 435.059 58.4438 435.274 58.7704C435.489 59.0969 435.829 59.2602 436.296 59.2602ZM436.326 55.0235C436.919 55.0235 437.421 55.2211 437.83 55.6165C438.24 56.0118 438.445 56.5933 438.445 57.361C438.445 58.1029 438.264 58.7159 437.903 59.2001C437.542 59.6842 436.982 59.9262 436.223 59.9262C435.59 59.9262 435.087 59.7121 434.715 59.2838C434.343 58.8556 434.156 58.2805 434.156 57.5586C434.156 56.7852 434.353 56.1693 434.745 55.711C435.138 55.2527 435.665 55.0235 436.326 55.0235Z"/>
<path clip-path="url(#TextBounds_3)" d="M439.742 55.1567L440.971 58.9036L442.256 55.1567L443.103 55.1567L441.367 59.7586L440.542 59.7586L438.844 55.1567L439.742 55.1567Z"/>
<path clip-path="url(#TextBounds_3)" d="M445.681 55.0536C446.007 55.0536 446.324 55.1302 446.63 55.2835C446.937 55.4367 447.17 55.6351 447.331 55.8786C447.485 56.1106 447.589 56.3813 447.64 56.6907C447.686 56.9027 447.709 57.2407 447.709 57.7047L444.336 57.7047C444.35 58.1717 444.46 58.5462 444.667 58.8284C444.873 59.1105 445.192 59.2516 445.625 59.2516C446.029 59.2516 446.351 59.1184 446.592 58.852C446.729 58.6973 446.827 58.5183 446.884 58.3149L447.644 58.3149C447.624 58.4839 447.558 58.6723 447.445 58.8799C447.331 59.0876 447.205 59.2573 447.064 59.3891C446.829 59.6183 446.539 59.773 446.192 59.8532C446.006 59.899 445.795 59.9219 445.56 59.9219C444.987 59.9219 444.502 59.7135 444.104 59.2967C443.706 58.8799 443.506 58.2963 443.506 57.5458C443.506 56.8067 443.707 56.2066 444.108 55.7454C444.509 55.2842 445.033 55.0536 445.681 55.0536ZM446.914 57.0903C446.882 56.7551 446.809 56.4873 446.695 56.2868C446.483 55.9144 446.129 55.7282 445.633 55.7282C445.278 55.7282 444.98 55.8564 444.74 56.1128C444.499 56.3691 444.372 56.695 444.357 57.0903L446.914 57.0903Z"/>
<path clip-path="url(#TextBounds_3)" d="M449.148 57.5114C449.148 58.0041 449.253 58.4166 449.462 58.7489C449.671 59.0812 450.006 59.2473 450.467 59.2473C450.826 59.2473 451.12 59.0933 451.35 58.7854C451.581 58.4775 451.696 58.0356 451.696 57.4598C451.696 56.8783 451.577 56.4479 451.34 56.1686C451.102 55.8893 450.808 55.7497 450.459 55.7497C450.069 55.7497 449.753 55.8986 449.511 56.1965C449.269 56.4945 449.148 56.9327 449.148 57.5114ZM450.313 55.0751C450.665 55.0751 450.96 55.1495 451.198 55.2985C451.335 55.3844 451.492 55.5348 451.666 55.7497L451.666 53.4251L452.41 53.4251L452.41 59.7586L451.714 59.7586L451.714 59.1184C451.533 59.402 451.32 59.6068 451.073 59.7329C450.827 59.8589 450.545 59.9219 450.227 59.9219C449.714 59.9219 449.27 59.7064 448.895 59.2753C448.52 58.8441 448.332 58.2705 448.332 57.5544C448.332 56.884 448.503 56.3032 448.845 55.812C449.188 55.3207 449.677 55.0751 450.313 55.0751Z"/>
</g>
</g>
<g opacity="1">
<g opacity="1">
<path d="M316.277 51C397.287 50.9835 465.357 111.878 474.331 192.391L316.309 210.004L316.309 210.004L316.277 51Z" fill="#2bbe83" fill-rule="nonzero" opacity="1" stroke="#ffffff" stroke-linecap="butt" stroke-linejoin="round" stroke-width="1"/>
<path d="M467.348 199.549C472.117 242.732 459.01 285.985 431.073 319.255C403.135 352.526 362.801 372.916 319.446 375.685L309.309 217.005L309.309 217.005L467.348 199.549Z" fill="#ffcf3a" fill-rule="nonzero" opacity="1" stroke="#ffffff" stroke-linecap="butt" stroke-linejoin="round" stroke-width="1"/>
<path d="M319.287 375.696C261.432 379.334 206.182 351.195 175.099 302.262C144.015 253.329 142.026 191.357 169.907 140.531C197.787 89.705 251.119 58.0809 309.088 58.0003L309.309 217.005L309.309 217.005L319.287 375.696Z" fill="#337bb7" fill-rule="nonzero" opacity="1" stroke="#ffffff" stroke-linecap="butt" stroke-linejoin="round" stroke-width="1"/>
</g>
<path d="M419.453 58.8696C414.453 58.8696 404.656 73.9696 401.39 79.0029L398.124 84.0362" fill="none" opacity="1" stroke="#2bbe83" stroke-linecap="butt" stroke-linejoin="miter" stroke-width="1"/>
<path d="M486.643 292.975C481.643 292.975 465.206 285.641 459.726 283.196L454.247 280.751" fill="none" opacity="1" stroke="#ffcf3a" stroke-linecap="butt" stroke-linejoin="miter" stroke-width="1"/>
<path d="M120.638 246.265C125.638 246.265 143.419 243.47 149.347 242.539L155.274 241.607" fill="none" opacity="1" stroke="#337bb7" stroke-linecap="butt" stroke-linejoin="miter" stroke-width="1"/>
<g opacity="1">
<g fill="#ffffff" opacity="1" stroke="#ffffff" stroke-linecap="butt" stroke-linejoin="round" stroke-width="1.6">
<path clip-path="url(#TextBounds_4)" d="M497.64 296.4C498.159 296.4 498.581 296.526 498.906 296.778C499.231 297.03 499.426 297.464 499.492 298.08L498.74 298.08C498.695 297.796 498.59 297.561 498.427 297.373C498.263 297.186 498.001 297.092 497.64 297.092C497.148 297.092 496.795 297.332 496.583 297.814C496.446 298.126 496.377 298.511 496.377 298.97C496.377 299.431 496.474 299.819 496.669 300.134C496.864 300.449 497.171 300.607 497.589 300.607C497.91 300.607 498.164 300.509 498.351 300.312C498.539 300.116 498.669 299.848 498.74 299.507L499.492 299.507C499.406 300.117 499.192 300.563 498.848 300.845C498.504 301.127 498.064 301.268 497.529 301.268C496.927 301.268 496.447 301.049 496.089 300.609C495.731 300.169 495.552 299.62 495.552 298.961C495.552 298.153 495.748 297.524 496.141 297.075C496.533 296.625 497.033 296.4 497.64 296.4Z"/>
<path clip-path="url(#TextBounds_4)" d="M500.287 294.823L501.061 294.823L501.061 301.135L500.287 301.135L500.287 294.823Z"/>
<path clip-path="url(#TextBounds_4)" d="M502.221 296.555L503.007 296.555L503.007 301.135L502.221 301.135L502.221 296.555ZM502.221 294.823L503.007 294.823L503.007 295.7L502.221 295.7L502.221 294.823Z"/>
<path clip-path="url(#TextBounds_4)" d="M504.176 296.533L504.911 296.533L504.911 297.186C505.128 296.917 505.359 296.724 505.602 296.606C505.846 296.489 506.117 296.43 506.415 296.43C507.068 296.43 507.509 296.658 507.738 297.113C507.864 297.363 507.927 297.719 507.927 298.183L507.927 301.135L507.141 301.135L507.141 298.235C507.141 297.954 507.099 297.728 507.016 297.556C506.879 297.269 506.629 297.126 506.268 297.126C506.085 297.126 505.935 297.145 505.817 297.182C505.605 297.245 505.419 297.371 505.259 297.56C505.13 297.712 505.046 297.869 505.007 298.031C504.969 298.193 504.949 298.424 504.949 298.725L504.949 301.135L504.176 301.135L504.176 296.533Z"/>
<path clip-path="url(#TextBounds_4)" d="M509.07 296.555L509.856 296.555L509.856 301.135L509.07 301.135L509.07 296.555ZM509.07 294.823L509.856 294.823L509.856 295.7L509.07 295.7L509.07 294.823Z"/>
<path clip-path="url(#TextBounds_4)" d="M512.8 296.4C513.318 296.4 513.74 296.526 514.065 296.778C514.39 297.03 514.586 297.464 514.652 298.08L513.9 298.08C513.854 297.796 513.749 297.561 513.586 297.373C513.423 297.186 513.161 297.092 512.8 297.092C512.307 297.092 511.955 297.332 511.743 297.814C511.605 298.126 511.536 298.511 511.536 298.97C511.536 299.431 511.634 299.819 511.829 300.134C512.023 300.449 512.33 300.607 512.748 300.607C513.069 300.607 513.323 300.509 513.511 300.312C513.698 300.116 513.828 299.848 513.9 299.507L514.652 299.507C514.566 300.117 514.351 300.563 514.007 300.845C513.663 301.127 513.224 301.268 512.688 301.268C512.086 301.268 511.607 301.049 511.249 300.609C510.89 300.169 510.711 299.62 510.711 298.961C510.711 298.153 510.908 297.524 511.3 297.075C511.693 296.625 512.192 296.4 512.8 296.4Z"/>
<path clip-path="url(#TextBounds_4)" d="M516.018 299.911C516.018 300.134 516.1 300.31 516.263 300.439C516.426 300.568 516.62 300.632 516.843 300.632C517.115 300.632 517.379 300.569 517.634 300.443C518.063 300.234 518.278 299.892 518.278 299.416L518.278 298.793C518.184 298.854 518.062 298.904 517.913 298.944C517.764 298.984 517.618 299.013 517.475 299.03L517.006 299.09C516.726 299.127 516.515 299.186 516.375 299.266C516.137 299.401 516.018 299.616 516.018 299.911ZM517.892 298.346C518.069 298.324 518.188 298.249 518.248 298.123C518.283 298.054 518.3 297.955 518.3 297.827C518.3 297.563 518.206 297.372 518.018 297.253C517.831 297.134 517.562 297.075 517.213 297.075C516.809 297.075 516.522 297.183 516.353 297.401C516.259 297.521 516.197 297.701 516.168 297.938L515.447 297.938C515.461 297.371 515.645 296.977 515.999 296.755C516.353 296.533 516.763 296.421 517.23 296.421C517.771 296.421 518.211 296.525 518.549 296.731C518.884 296.937 519.052 297.258 519.052 297.693L519.052 300.345C519.052 300.425 519.068 300.489 519.101 300.538C519.134 300.587 519.204 300.611 519.31 300.611C519.344 300.611 519.383 300.609 519.426 300.605C519.468 300.6 519.514 300.594 519.563 300.585L519.563 301.157C519.443 301.191 519.351 301.213 519.288 301.221C519.225 301.23 519.139 301.234 519.03 301.234C518.764 301.234 518.57 301.139 518.45 300.95C518.387 300.85 518.343 300.708 518.317 300.525C518.159 300.731 517.933 300.91 517.638 301.062C517.343 301.214 517.018 301.29 516.663 301.29C516.236 301.29 515.887 301.16 515.616 300.901C515.346 300.642 515.21 300.317 515.21 299.928C515.21 299.501 515.343 299.17 515.61 298.935C515.876 298.7 516.226 298.556 516.658 298.501L517.892 298.346Z"/>
<path clip-path="url(#TextBounds_4)" d="M520.341 294.823L521.114 294.823L521.114 301.135L520.341 301.135L520.341 294.823Z"/>
<path clip-path="url(#TextBounds_4)" d="M524.874 295.248L525.656 295.248L525.656 296.533L526.391 296.533L526.391 297.165L525.656 297.165L525.656 300.168C525.656 300.329 525.71 300.436 525.819 300.491C525.879 300.522 525.98 300.538 526.12 300.538C526.157 300.538 526.197 300.537 526.24 300.536C526.283 300.534 526.333 300.531 526.391 300.525L526.391 301.135C526.302 301.161 526.21 301.18 526.114 301.191C526.018 301.202 525.914 301.208 525.802 301.208C525.441 301.208 525.196 301.116 525.067 300.931C524.938 300.746 524.874 300.506 524.874 300.211L524.874 297.165L524.251 297.165L524.251 296.533L524.874 296.533L524.874 295.248Z"/>
<path clip-path="url(#TextBounds_4)" d="M527.186 296.533L527.92 296.533L527.92 297.328C527.981 297.173 528.128 296.985 528.363 296.763C528.598 296.541 528.869 296.43 529.175 296.43C529.189 296.43 529.214 296.432 529.248 296.434C529.283 296.437 529.341 296.443 529.424 296.452L529.424 297.268C529.379 297.259 529.336 297.254 529.298 297.251C529.259 297.248 529.217 297.246 529.171 297.246C528.781 297.246 528.482 297.372 528.273 297.622C528.064 297.873 527.959 298.162 527.959 298.488L527.959 301.135L527.186 301.135L527.186 296.533Z"/>
<path clip-path="url(#TextBounds_4)" d="M530.095 296.555L530.881 296.555L530.881 301.135L530.095 301.135L530.095 296.555ZM530.095 294.823L530.881 294.823L530.881 295.7L530.095 295.7L530.095 294.823Z"/>
<path clip-path="url(#TextBounds_4)" d="M532.643 299.911C532.643 300.134 532.724 300.31 532.888 300.439C533.051 300.568 533.244 300.632 533.468 300.632C533.74 300.632 534.003 300.569 534.258 300.443C534.688 300.234 534.903 299.892 534.903 299.416L534.903 298.793C534.808 298.854 534.687 298.904 534.538 298.944C534.389 298.984 534.243 299.013 534.099 299.03L533.631 299.09C533.35 299.127 533.14 299.186 532.999 299.266C532.762 299.401 532.643 299.616 532.643 299.911ZM534.516 298.346C534.694 298.324 534.813 298.249 534.873 298.123C534.907 298.054 534.924 297.955 534.924 297.827C534.924 297.563 534.831 297.372 534.643 297.253C534.455 297.134 534.187 297.075 533.837 297.075C533.433 297.075 533.147 297.183 532.978 297.401C532.883 297.521 532.822 297.701 532.793 297.938L532.071 297.938C532.086 297.371 532.27 296.977 532.623 296.755C532.977 296.533 533.387 296.421 533.854 296.421C534.396 296.421 534.836 296.525 535.174 296.731C535.509 296.937 535.676 297.258 535.676 297.693L535.676 300.345C535.676 300.425 535.693 300.489 535.726 300.538C535.759 300.587 535.828 300.611 535.934 300.611C535.968 300.611 536.007 300.609 536.05 300.605C536.093 300.6 536.139 300.594 536.188 300.585L536.188 301.157C536.067 301.191 535.976 301.213 535.913 301.221C535.85 301.23 535.764 301.234 535.655 301.234C535.388 301.234 535.195 301.139 535.075 300.95C535.012 300.85 534.967 300.708 534.942 300.525C534.784 300.731 534.558 300.91 534.263 301.062C533.968 301.214 533.642 301.29 533.287 301.29C532.86 301.29 532.512 301.16 532.241 300.901C531.97 300.642 531.835 300.317 531.835 299.928C531.835 299.501 531.968 299.17 532.235 298.935C532.501 298.7 532.85 298.556 533.283 298.501L534.516 298.346Z"/>
<path clip-path="url(#TextBounds_4)" d="M536.965 294.823L537.739 294.823L537.739 301.135L536.965 301.135L536.965 294.823Z"/>
<path clip-path="url(#TextBounds_4)" d="M539.359 299.691C539.382 299.949 539.446 300.147 539.552 300.284C539.747 300.534 540.085 300.658 540.566 300.658C540.853 300.658 541.105 300.596 541.322 300.471C541.54 300.347 541.649 300.154 541.649 299.893C541.649 299.696 541.562 299.545 541.387 299.442C541.275 299.379 541.055 299.306 540.725 299.223L540.111 299.068C539.718 298.971 539.429 298.862 539.243 298.742C538.91 298.533 538.744 298.243 538.744 297.874C538.744 297.438 538.901 297.086 539.215 296.817C539.528 296.548 539.95 296.413 540.48 296.413C541.173 296.413 541.673 296.616 541.98 297.023C542.172 297.281 542.265 297.559 542.259 297.857L541.529 297.857C541.514 297.682 541.453 297.523 541.344 297.38C541.166 297.176 540.858 297.075 540.42 297.075C540.128 297.075 539.907 297.13 539.756 297.242C539.606 297.354 539.531 297.501 539.531 297.685C539.531 297.885 539.629 298.046 539.827 298.166C539.942 298.238 540.111 298.301 540.334 298.355L540.845 298.48C541.401 298.614 541.774 298.745 541.963 298.871C542.263 299.068 542.414 299.379 542.414 299.803C542.414 300.213 542.258 300.567 541.948 300.864C541.637 301.162 541.163 301.311 540.527 301.311C539.843 301.311 539.358 301.156 539.073 300.845C538.788 300.534 538.635 300.15 538.615 299.691L539.359 299.691Z"/>
</g>
<g fill="#000000" opacity="1" stroke="none">
<path clip-path="url(#TextBounds_5)" d="M497.64 296.4C498.159 296.4 498.581 296.526 498.906 296.778C499.231 297.03 499.426 297.464 499.492 298.08L498.74 298.08C498.695 297.796 498.59 297.561 498.427 297.373C498.263 297.186 498.001 297.092 497.64 297.092C497.148 297.092 496.795 297.332 496.583 297.814C496.446 298.126 496.377 298.511 496.377 298.97C496.377 299.431 496.474 299.819 496.669 300.134C496.864 300.449 497.171 300.607 497.589 300.607C497.91 300.607 498.164 300.509 498.351 300.312C498.539 300.116 498.669 299.848 498.74 299.507L499.492 299.507C499.406 300.117 499.192 300.563 498.848 300.845C498.504 301.127 498.064 301.268 497.529 301.268C496.927 301.268 496.447 301.049 496.089 300.609C495.731 300.169 495.552 299.62 495.552 298.961C495.552 298.153 495.748 297.524 496.141 297.075C496.533 296.625 497.033 296.4 497.64 296.4Z"/>
<path clip-path="url(#TextBounds_5)" d="M500.287 294.823L501.061 294.823L501.061 301.135L500.287 301.135L500.287 294.823Z"/>
<path clip-path="url(#TextBounds_5)" d="M502.221 296.555L503.007 296.555L503.007 301.135L502.221 301.135L502.221 296.555ZM502.221 294.823L503.007 294.823L503.007 295.7L502.221 295.7L502.221 294.823Z"/>
<path clip-path="url(#TextBounds_5)" d="M504.176 296.533L504.911 296.533L504.911 297.186C505.128 296.917 505.359 296.724 505.602 296.606C505.846 296.489 506.117 296.43 506.415 296.43C507.068 296.43 507.509 296.658 507.738 297.113C507.864 297.363 507.927 297.719 507.927 298.183L507.927 301.135L507.141 301.135L507.141 298.235C507.141 297.954 507.099 297.728 507.016 297.556C506.879 297.269 506.629 297.126 506.268 297.126C506.085 297.126 505.935 297.145 505.817 297.182C505.605 297.245 505.419 297.371 505.259 297.56C505.13 297.712 505.046 297.869 505.007 298.031C504.969 298.193 504.949 298.424 504.949 298.725L504.949 301.135L504.176 301.135L504.176 296.533Z"/>
<path clip-path="url(#TextBounds_5)" d="M509.07 296.555L509.856 296.555L509.856 301.135L509.07 301.135L509.07 296.555ZM509.07 294.823L509.856 294.823L509.856 295.7L509.07 295.7L509.07 294.823Z"/>
<path clip-path="url(#TextBounds_5)" d="M512.8 296.4C513.318 296.4 513.74 296.526 514.065 296.778C514.39 297.03 514.586 297.464 514.652 298.08L513.9 298.08C513.854 297.796 513.749 297.561 513.586 297.373C513.423 297.186 513.161 297.092 512.8 297.092C512.307 297.092 511.955 297.332 511.743 297.814C511.605 298.126 511.536 298.511 511.536 298.97C511.536 299.431 511.634 299.819 511.829 300.134C512.023 300.449 512.33 300.607 512.748 300.607C513.069 300.607 513.323 300.509 513.511 300.312C513.698 300.116 513.828 299.848 513.9 299.507L514.652 299.507C514.566 300.117 514.351 300.563 514.007 300.845C513.663 301.127 513.224 301.268 512.688 301.268C512.086 301.268 511.607 301.049 511.249 300.609C510.89 300.169 510.711 299.62 510.711 298.961C510.711 298.153 510.908 297.524 511.3 297.075C511.693 296.625 512.192 296.4 512.8 296.4Z"/>
<path clip-path="url(#TextBounds_5)" d="M516.018 299.911C516.018 300.134 516.1 300.31 516.263 300.439C516.426 300.568 516.62 300.632 516.843 300.632C517.115 300.632 517.379 300.569 517.634 300.443C518.063 300.234 518.278 299.892 518.278 299.416L518.278 298.793C518.184 298.854 518.062 298.904 517.913 298.944C517.764 298.984 517.618 299.013 517.475 299.03L517.006 299.09C516.726 299.127 516.515 299.186 516.375 299.266C516.137 299.401 516.018 299.616 516.018 299.911ZM517.892 298.346C518.069 298.324 518.188 298.249 518.248 298.123C518.283 298.054 518.3 297.955 518.3 297.827C518.3 297.563 518.206 297.372 518.018 297.253C517.831 297.134 517.562 297.075 517.213 297.075C516.809 297.075 516.522 297.183 516.353 297.401C516.259 297.521 516.197 297.701 516.168 297.938L515.447 297.938C515.461 297.371 515.645 296.977 515.999 296.755C516.353 296.533 516.763 296.421 517.23 296.421C517.771 296.421 518.211 296.525 518.549 296.731C518.884 296.937 519.052 297.258 519.052 297.693L519.052 300.345C519.052 300.425 519.068 300.489 519.101 300.538C519.134 300.587 519.204 300.611 519.31 300.611C519.344 300.611 519.383 300.609 519.426 300.605C519.468 300.6 519.514 300.594 519.563 300.585L519.563 301.157C519.443 301.191 519.351 301.213 519.288 301.221C519.225 301.23 519.139 301.234 519.03 301.234C518.764 301.234 518.57 301.139 518.45 300.95C518.387 300.85 518.343 300.708 518.317 300.525C518.159 300.731 517.933 300.91 517.638 301.062C517.343 301.214 517.018 301.29 516.663 301.29C516.236 301.29 515.887 301.16 515.616 300.901C515.346 300.642 515.21 300.317 515.21 299.928C515.21 299.501 515.343 299.17 515.61 298.935C515.876 298.7 516.226 298.556 516.658 298.501L517.892 298.346Z"/>
<path clip-path="url(#TextBounds_5)" d="M520.341 294.823L521.114 294.823L521.114 301.135L520.341 301.135L520.341 294.823Z"/>
<path clip-path="url(#TextBounds_5)" d="M524.874 295.248L525.656 295.248L525.656 296.533L526.391 296.533L526.391 297.165L525.656 297.165L525.656 300.168C525.656 300.329 525.71 300.436 525.819 300.491C525.879 300.522 525.98 300.538 526.12 300.538C526.157 300.538 526.197 300.537 526.24 300.536C526.283 300.534 526.333 300.531 526.391 300.525L526.391 301.135C526.302 301.161 526.21 301.18 526.114 301.191C526.018 301.202 525.914 301.208 525.802 301.208C525.441 301.208 525.196 301.116 525.067 300.931C524.938 300.746 524.874 300.506 524.874 300.211L524.874 297.165L524.251 297.165L524.251 296.533L524.874 296.533L524.874 295.248Z"/>
<path clip-path="url(#TextBounds_5)" d="M527.186 296.533L527.92 296.533L527.92 297.328C527.981 297.173 528.128 296.985 528.363 296.763C528.598 296.541 528.869 296.43 529.175 296.43C529.189 296.43 529.214 296.432 529.248 296.434C529.283 296.437 529.341 296.443 529.424 296.452L529.424 297.268C529.379 297.259 529.336 297.254 529.298 297.251C529.259 297.248 529.217 297.246 529.171 297.246C528.781 297.246 528.482 297.372 528.273 297.622C528.064 297.873 527.959 298.162 527.959 298.488L527.959 301.135L527.186 301.135L527.186 296.533Z"/>
<path clip-path="url(#TextBounds_5)" d="M530.095 296.555L530.881 296.555L530.881 301.135L530.095 301.135L530.095 296.555ZM530.095 294.823L530.881 294.823L530.881 295.7L530.095 295.7L530.095 294.823Z"/>
<path clip-path="url(#TextBounds_5)" d="M532.643 299.911C532.643 300.134 532.724 300.31 532.888 300.439C533.051 300.568 533.244 300.632 533.468 300.632C533.74 300.632 534.003 300.569 534.258 300.443C534.688 300.234 534.903 299.892 534.903 299.416L534.903 298.793C534.808 298.854 534.687 298.904 534.538 298.944C534.389 298.984 534.243 299.013 534.099 299.03L533.631 299.09C533.35 299.127 533.14 299.186 532.999 299.266C532.762 299.401 532.643 299.616 532.643 299.911ZM534.516 298.346C534.694 298.324 534.813 298.249 534.873 298.123C534.907 298.054 534.924 297.955 534.924 297.827C534.924 297.563 534.831 297.372 534.643 297.253C534.455 297.134 534.187 297.075 533.837 297.075C533.433 297.075 533.147 297.183 532.978 297.401C532.883 297.521 532.822 297.701 532.793 297.938L532.071 297.938C532.086 297.371 532.27 296.977 532.623 296.755C532.977 296.533 533.387 296.421 533.854 296.421C534.396 296.421 534.836 296.525 535.174 296.731C535.509 296.937 535.676 297.258 535.676 297.693L535.676 300.345C535.676 300.425 535.693 300.489 535.726 300.538C535.759 300.587 535.828 300.611 535.934 300.611C535.968 300.611 536.007 300.609 536.05 300.605C536.093 300.6 536.139 300.594 536.188 300.585L536.188 301.157C536.067 301.191 535.976 301.213 535.913 301.221C535.85 301.23 535.764 301.234 535.655 301.234C535.388 301.234 535.195 301.139 535.075 300.95C535.012 300.85 534.967 300.708 534.942 300.525C534.784 300.731 534.558 300.91 534.263 301.062C533.968 301.214 533.642 301.29 533.287 301.29C532.86 301.29 532.512 301.16 532.241 300.901C531.97 300.642 531.835 300.317 531.835 299.928C531.835 299.501 531.968 299.17 532.235 298.935C532.501 298.7 532.85 298.556 533.283 298.501L534.516 298.346Z"/>
<path clip-path="url(#TextBounds_5)" d="M536.965 294.823L537.739 294.823L537.739 301.135L536.965 301.135L536.965 294.823Z"/>
<path clip-path="url(#TextBounds_5)" d="M539.359 299.691C539.382 299.949 539.446 300.147 539.552 300.284C539.747 300.534 540.085 300.658 540.566 300.658C540.853 300.658 541.105 300.596 541.322 300.471C541.54 300.347 541.649 300.154 541.649 299.893C541.649 299.696 541.562 299.545 541.387 299.442C541.275 299.379 541.055 299.306 540.725 299.223L540.111 299.068C539.718 298.971 539.429 298.862 539.243 298.742C538.91 298.533 538.744 298.243 538.744 297.874C538.744 297.438 538.901 297.086 539.215 296.817C539.528 296.548 539.95 296.413 540.48 296.413C541.173 296.413 541.673 296.616 541.98 297.023C542.172 297.281 542.265 297.559 542.259 297.857L541.529 297.857C541.514 297.682 541.453 297.523 541.344 297.38C541.166 297.176 540.858 297.075 540.42 297.075C540.128 297.075 539.907 297.13 539.756 297.242C539.606 297.354 539.531 297.501 539.531 297.685C539.531 297.885 539.629 298.046 539.827 298.166C539.942 298.238 540.111 298.301 540.334 298.355L540.845 298.48C541.401 298.614 541.774 298.745 541.963 298.871C542.263 299.068 542.414 299.379 542.414 299.803C542.414 300.213 542.258 300.567 541.948 300.864C541.637 301.162 541.163 301.311 540.527 301.311C539.843 301.311 539.358 301.156 539.073 300.845C538.788 300.534 538.635 300.15 538.615 299.691L539.359 299.691Z"/>
</g>
</g>
<g opacity="1">
<g fill="#ffffff" opacity="1" stroke="#ffffff" stroke-linecap="butt" stroke-linejoin="round" stroke-width="1.6">
<path clip-path="url(#TextBounds_6)" d="M59.7518 246.122C60.0784 246.122 60.3949 246.199 60.7014 246.352C61.0079 246.506 61.2414 246.704 61.4018 246.947C61.5565 247.179 61.6596 247.45 61.7112 247.76C61.757 247.972 61.78 248.31 61.78 248.774L58.4069 248.774C58.4212 249.241 58.5315 249.615 58.7378 249.897C58.944 250.179 59.2634 250.32 59.696 250.32C60.0999 250.32 60.4221 250.187 60.6628 249.921C60.8003 249.766 60.8977 249.587 60.955 249.384L61.7155 249.384C61.6954 249.553 61.6288 249.741 61.5157 249.949C61.4025 250.156 61.2758 250.326 61.1354 250.458C60.9005 250.687 60.6098 250.842 60.2632 250.922C60.077 250.968 59.8664 250.991 59.6315 250.991C59.0586 250.991 58.5731 250.782 58.1749 250.366C57.7767 249.949 57.5776 249.365 57.5776 248.615C57.5776 247.876 57.7781 247.275 58.1792 246.814C58.5802 246.353 59.1044 246.122 59.7518 246.122ZM60.985 248.159C60.9535 247.824 60.8805 247.556 60.7659 247.356C60.5539 246.983 60.2001 246.797 59.7046 246.797C59.3494 246.797 59.0514 246.925 58.8108 247.182C58.5702 247.438 58.4427 247.764 58.4284 248.159L60.985 248.159Z"/>
<path clip-path="url(#TextBounds_6)" d="M62.2913 246.226L63.2925 246.226L64.3495 247.845L65.4194 246.226L66.3604 246.247L64.8092 248.469L66.4292 250.827L65.4409 250.827L64.2979 249.1L63.1893 250.827L62.2096 250.827L63.8296 248.469L62.2913 246.226Z"/>
<path clip-path="url(#TextBounds_6)" d="M69.0717 250.308C69.4327 250.308 69.7328 250.156 69.9719 249.854C70.2111 249.552 70.3307 249.1 70.3307 248.499C70.3307 248.132 70.2777 247.817 70.1717 247.553C69.9712 247.046 69.6046 246.793 69.0717 246.793C68.5361 246.793 68.1694 247.061 67.9717 247.596C67.8658 247.883 67.8128 248.247 67.8128 248.688C67.8128 249.043 67.8658 249.345 67.9717 249.594C68.1723 250.07 68.5389 250.308 69.0717 250.308ZM67.0694 246.247L67.8214 246.247L67.8214 246.857C67.976 246.648 68.1451 246.486 68.3284 246.372C68.5891 246.2 68.8956 246.114 69.2479 246.114C69.7693 246.114 70.2119 246.314 70.5757 246.713C70.9395 247.113 71.1214 247.684 71.1214 248.426C71.1214 249.428 70.8592 250.144 70.335 250.574C70.0027 250.846 69.616 250.982 69.1749 250.982C68.8283 250.982 68.5375 250.906 68.3026 250.754C68.1651 250.669 68.0119 250.521 67.8428 250.312L67.8428 252.662L67.0694 252.662L67.0694 246.247Z"/>
<path clip-path="url(#TextBounds_6)" d="M73.9401 246.122C74.2667 246.122 74.5832 246.199 74.8897 246.352C75.1962 246.506 75.4297 246.704 75.5901 246.947C75.7448 247.179 75.8479 247.45 75.8995 247.76C75.9453 247.972 75.9682 248.31 75.9682 248.774L72.5952 248.774C72.6095 249.241 72.7198 249.615 72.926 249.897C73.1323 250.179 73.4517 250.32 73.8842 250.32C74.2882 250.32 74.6104 250.187 74.851 249.921C74.9885 249.766 75.0859 249.587 75.1432 249.384L75.9038 249.384C75.8837 249.553 75.8171 249.741 75.704 249.949C75.5908 250.156 75.4641 250.326 75.3237 250.458C75.0888 250.687 74.7981 250.842 74.4514 250.922C74.2652 250.968 74.0547 250.991 73.8198 250.991C73.2469 250.991 72.7613 250.782 72.3632 250.366C71.965 249.949 71.7659 249.365 71.7659 248.615C71.7659 247.876 71.9664 247.275 72.3675 246.814C72.7685 246.353 73.2927 246.122 73.9401 246.122ZM75.1733 248.159C75.1418 247.824 75.0688 247.556 74.9542 247.356C74.7422 246.983 74.3884 246.797 73.8928 246.797C73.5376 246.797 73.2397 246.925 72.9991 247.182C72.7585 247.438 72.631 247.764 72.6167 248.159L75.1733 248.159Z"/>
<path clip-path="url(#TextBounds_6)" d="M76.9393 246.226L77.6741 246.226L77.6741 247.02C77.7342 246.866 77.8818 246.677 78.1167 246.455C78.3516 246.233 78.6223 246.122 78.9288 246.122C78.9431 246.122 78.9675 246.124 79.0018 246.127C79.0362 246.13 79.0949 246.135 79.178 246.144L79.178 246.96C79.1322 246.952 79.0899 246.946 79.0512 246.943C79.0126 246.94 78.9703 246.939 78.9245 246.939C78.5349 246.939 78.2356 247.064 78.0264 247.315C77.8173 247.565 77.7128 247.854 77.7128 248.181L77.7128 250.827L76.9393 250.827L76.9393 246.226Z"/>
<path clip-path="url(#TextBounds_6)" d="M79.8483 246.247L80.6346 246.247L80.6346 250.827L79.8483 250.827L79.8483 246.247ZM79.8483 244.515L80.6346 244.515L80.6346 245.392L79.8483 245.392L79.8483 244.515Z"/>
<path clip-path="url(#TextBounds_6)" d="M81.8034 246.226L82.5682 246.226L82.5682 246.879C82.7516 246.652 82.9177 246.488 83.0667 246.385C83.3216 246.21 83.6109 246.122 83.9346 246.122C84.3013 246.122 84.5964 246.213 84.8198 246.393C84.9458 246.496 85.0604 246.648 85.1635 246.849C85.3354 246.602 85.5374 246.42 85.7694 246.301C86.0014 246.182 86.2621 246.122 86.5514 246.122C87.1702 246.122 87.5913 246.346 87.8147 246.793C87.935 247.033 87.9952 247.357 87.9952 247.764L87.9952 250.827L87.1917 250.827L87.1917 247.631C87.1917 247.324 87.115 247.114 86.9618 246.999C86.8085 246.884 86.6216 246.827 86.401 246.827C86.0974 246.827 85.836 246.929 85.6169 247.132C85.3977 247.336 85.2882 247.675 85.2882 248.151L85.2882 250.827L84.5018 250.827L84.5018 247.824C84.5018 247.512 84.4646 247.284 84.3901 247.141C84.2727 246.926 84.0535 246.819 83.7327 246.819C83.4405 246.819 83.1748 246.932 82.9356 247.158C82.6964 247.384 82.5768 247.794 82.5768 248.387L82.5768 250.827L81.8034 250.827L81.8034 246.226Z"/>
<path clip-path="url(#TextBounds_6)" d="M91.0503 246.122C91.3768 246.122 91.6934 246.199 91.9999 246.352C92.3064 246.506 92.5398 246.704 92.7003 246.947C92.855 247.179 92.9581 247.45 93.0096 247.76C93.0555 247.972 93.0784 248.31 93.0784 248.774L89.7053 248.774C89.7197 249.241 89.83 249.615 90.0362 249.897C90.2425 250.179 90.5619 250.32 90.9944 250.32C91.3983 250.32 91.7206 250.187 91.9612 249.921C92.0987 249.766 92.1961 249.587 92.2534 249.384L93.0139 249.384C92.9939 249.553 92.9273 249.741 92.8141 249.949C92.701 250.156 92.5742 250.326 92.4339 250.458C92.199 250.687 91.9082 250.842 91.5616 250.922C91.3754 250.968 91.1648 250.991 90.93 250.991C90.357 250.991 89.8715 250.782 89.4733 250.366C89.0751 249.949 88.876 249.365 88.876 248.615C88.876 247.876 89.0766 247.275 89.4776 246.814C89.8787 246.353 90.4029 246.122 91.0503 246.122ZM92.2835 248.159C92.252 247.824 92.1789 247.556 92.0643 247.356C91.8523 246.983 91.4986 246.797 91.003 246.797C90.6478 246.797 90.3499 246.925 90.1092 247.182C89.8686 247.438 89.7412 247.764 89.7268 248.159L92.2835 248.159Z"/>
<path clip-path="url(#TextBounds_6)" d="M94.028 246.226L94.7628 246.226L94.7628 246.879C94.9805 246.609 95.2111 246.416 95.4546 246.299C95.6981 246.181 95.9688 246.122 96.2667 246.122C96.9198 246.122 97.3609 246.35 97.5901 246.806C97.7162 247.055 97.7792 247.411 97.7792 247.876L97.7792 250.827L96.9928 250.827L96.9928 247.927C96.9928 247.646 96.9513 247.42 96.8682 247.248C96.7307 246.962 96.4815 246.819 96.1206 246.819C95.9372 246.819 95.7869 246.837 95.6694 246.874C95.4574 246.937 95.2712 247.063 95.1108 247.252C94.9819 247.404 94.8981 247.561 94.8594 247.723C94.8208 247.885 94.8014 248.116 94.8014 248.417L94.8014 250.827L94.028 250.827L94.028 246.226Z"/>
<path clip-path="url(#TextBounds_6)" d="M99.0768 244.941L99.8589 244.941L99.8589 246.226L100.594 246.226L100.594 246.857L99.8589 246.857L99.8589 249.861C99.8589 250.021 99.9133 250.129 100.022 250.183C100.082 250.214 100.183 250.23 100.323 250.23C100.36 250.23 100.4 250.23 100.443 250.228C100.486 250.227 100.536 250.223 100.594 250.217L100.594 250.827C100.505 250.853 100.412 250.872 100.316 250.883C100.221 250.895 100.117 250.901 100.005 250.901C99.644 250.901 99.3991 250.808 99.2702 250.623C99.1413 250.439 99.0768 250.199 99.0768 249.904L99.0768 246.857L98.4538 246.857L98.4538 246.226L99.0768 246.226L99.0768 244.941Z"/>
<path clip-path="url(#TextBounds_6)" d="M101.96 249.603C101.96 249.826 102.042 250.002 102.205 250.131C102.368 250.26 102.562 250.325 102.785 250.325C103.057 250.325 103.321 250.262 103.576 250.136C104.005 249.927 104.22 249.584 104.22 249.109L104.22 248.486C104.126 248.546 104.004 248.596 103.855 248.636C103.706 248.676 103.56 248.705 103.417 248.722L102.948 248.782C102.668 248.819 102.457 248.878 102.317 248.958C102.079 249.093 101.96 249.308 101.96 249.603ZM103.833 248.039C104.011 248.016 104.13 247.941 104.19 247.815C104.224 247.747 104.242 247.648 104.242 247.519C104.242 247.255 104.148 247.064 103.96 246.945C103.773 246.826 103.504 246.767 103.155 246.767C102.751 246.767 102.464 246.876 102.295 247.094C102.201 247.214 102.139 247.393 102.11 247.631L101.389 247.631C101.403 247.063 101.587 246.669 101.941 246.447C102.294 246.225 102.705 246.114 103.172 246.114C103.713 246.114 104.153 246.217 104.491 246.423C104.826 246.629 104.994 246.95 104.994 247.386L104.994 250.037C104.994 250.117 105.01 250.182 105.043 250.23C105.076 250.279 105.145 250.303 105.251 250.303C105.286 250.303 105.324 250.301 105.367 250.297C105.41 250.293 105.456 250.286 105.505 250.277L105.505 250.849C105.385 250.883 105.293 250.905 105.23 250.913C105.167 250.922 105.081 250.926 104.972 250.926C104.706 250.926 104.512 250.832 104.392 250.643C104.329 250.542 104.285 250.401 104.259 250.217C104.101 250.424 103.875 250.603 103.58 250.754C103.285 250.906 102.96 250.982 102.605 250.982C102.178 250.982 101.829 250.853 101.558 250.593C101.288 250.334 101.152 250.01 101.152 249.62C101.152 249.193 101.285 248.862 101.552 248.627C101.818 248.393 102.168 248.248 102.6 248.194L103.833 248.039Z"/>
<path clip-path="url(#TextBounds_6)" d="M106.283 244.515L107.056 244.515L107.056 250.827L106.283 250.827L106.283 244.515Z"/>
</g>
<g fill="#000000" opacity="1" stroke="none">
<path clip-path="url(#TextBounds_7)" d="M59.7518 246.122C60.0784 246.122 60.3949 246.199 60.7014 246.352C61.0079 246.506 61.2414 246.704 61.4018 246.947C61.5565 247.179 61.6596 247.45 61.7112 247.76C61.757 247.972 61.78 248.31 61.78 248.774L58.4069 248.774C58.4212 249.241 58.5315 249.615 58.7378 249.897C58.944 250.179 59.2634 250.32 59.696 250.32C60.0999 250.32 60.4221 250.187 60.6628 249.921C60.8003 249.766 60.8977 249.587 60.955 249.384L61.7155 249.384C61.6954 249.553 61.6288 249.741 61.5157 249.949C61.4025 250.156 61.2758 250.326 61.1354 250.458C60.9005 250.687 60.6098 250.842 60.2632 250.922C60.077 250.968 59.8664 250.991 59.6315 250.991C59.0586 250.991 58.5731 250.782 58.1749 250.366C57.7767 249.949 57.5776 249.365 57.5776 248.615C57.5776 247.876 57.7781 247.275 58.1792 246.814C58.5802 246.353 59.1044 246.122 59.7518 246.122ZM60.985 248.159C60.9535 247.824 60.8805 247.556 60.7659 247.356C60.5539 246.983 60.2001 246.797 59.7046 246.797C59.3494 246.797 59.0514 246.925 58.8108 247.182C58.5702 247.438 58.4427 247.764 58.4284 248.159L60.985 248.159Z"/>
<path clip-path="url(#TextBounds_7)" d="M62.2913 246.226L63.2925 246.226L64.3495 247.845L65.4194 246.226L66.3604 246.247L64.8092 248.469L66.4292 250.827L65.4409 250.827L64.2979 249.1L63.1893 250.827L62.2096 250.827L63.8296 248.469L62.2913 246.226Z"/>
<path clip-path="url(#TextBounds_7)" d="M69.0717 250.308C69.4327 250.308 69.7328 250.156 69.9719 249.854C70.2111 249.552 70.3307 249.1 70.3307 248.499C70.3307 248.132 70.2777 247.817 70.1717 247.553C69.9712 247.046 69.6046 246.793 69.0717 246.793C68.5361 246.793 68.1694 247.061 67.9717 247.596C67.8658 247.883 67.8128 248.247 67.8128 248.688C67.8128 249.043 67.8658 249.345 67.9717 249.594C68.1723 250.07 68.5389 250.308 69.0717 250.308ZM67.0694 246.247L67.8214 246.247L67.8214 246.857C67.976 246.648 68.1451 246.486 68.3284 246.372C68.5891 246.2 68.8956 246.114 69.2479 246.114C69.7693 246.114 70.2119 246.314 70.5757 246.713C70.9395 247.113 71.1214 247.684 71.1214 248.426C71.1214 249.428 70.8592 250.144 70.335 250.574C70.0027 250.846 69.616 250.982 69.1749 250.982C68.8283 250.982 68.5375 250.906 68.3026 250.754C68.1651 250.669 68.0119 250.521 67.8428 250.312L67.8428 252.662L67.0694 252.662L67.0694 246.247Z"/>
<path clip-path="url(#TextBounds_7)" d="M73.9401 246.122C74.2667 246.122 74.5832 246.199 74.8897 246.352C75.1962 246.506 75.4297 246.704 75.5901 246.947C75.7448 247.179 75.8479 247.45 75.8995 247.76C75.9453 247.972 75.9682 248.31 75.9682 248.774L72.5952 248.774C72.6095 249.241 72.7198 249.615 72.926 249.897C73.1323 250.179 73.4517 250.32 73.8842 250.32C74.2882 250.32 74.6104 250.187 74.851 249.921C74.9885 249.766 75.0859 249.587 75.1432 249.384L75.9038 249.384C75.8837 249.553 75.8171 249.741 75.704 249.949C75.5908 250.156 75.4641 250.326 75.3237 250.458C75.0888 250.687 74.7981 250.842 74.4514 250.922C74.2652 250.968 74.0547 250.991 73.8198 250.991C73.2469 250.991 72.7613 250.782 72.3632 250.366C71.965 249.949 71.7659 249.365 71.7659 248.615C71.7659 247.876 71.9664 247.275 72.3675 246.814C72.7685 246.353 73.2927 246.122 73.9401 246.122ZM75.1733 248.159C75.1418 247.824 75.0688 247.556 74.9542 247.356C74.7422 246.983 74.3884 246.797 73.8928 246.797C73.5376 246.797 73.2397 246.925 72.9991 247.182C72.7585 247.438 72.631 247.764 72.6167 248.159L75.1733 248.159Z"/>
<path clip-path="url(#TextBounds_7)" d="M76.9393 246.226L77.6741 246.226L77.6741 247.02C77.7342 246.866 77.8818 246.677 78.1167 246.455C78.3516 246.233 78.6223 246.122 78.9288 246.122C78.9431 246.122 78.9675 246.124 79.0018 246.127C79.0362 246.13 79.0949 246.135 79.178 246.144L79.178 246.96C79.1322 246.952 79.0899 246.946 79.0512 246.943C79.0126 246.94 78.9703 246.939 78.9245 246.939C78.5349 246.939 78.2356 247.064 78.0264 247.315C77.8173 247.565 77.7128 247.854 77.7128 248.181L77.7128 250.827L76.9393 250.827L76.9393 246.226Z"/>
<path clip-path="url(#TextBounds_7)" d="M79.8483 246.247L80.6346 246.247L80.6346 250.827L79.8483 250.827L79.8483 246.247ZM79.8483 244.515L80.6346 244.515L80.6346 245.392L79.8483 245.392L79.8483 244.515Z"/>
<path clip-path="url(#TextBounds_7)" d="M81.8034 246.226L82.5682 246.226L82.5682 246.879C82.7516 246.652 82.9177 246.488 83.0667 246.385C83.3216 246.21 83.6109 246.122 83.9346 246.122C84.3013 246.122 84.5964 246.213 84.8198 246.393C84.9458 246.496 85.0604 246.648 85.1635 246.849C85.3354 246.602 85.5374 246.42 85.7694 246.301C86.0014 246.182 86.2621 246.122 86.5514 246.122C87.1702 246.122 87.5913 246.346 87.8147 246.793C87.935 247.033 87.9952 247.357 87.9952 247.764L87.9952 250.827L87.1917 250.827L87.1917 247.631C87.1917 247.324 87.115 247.114 86.9618 246.999C86.8085 246.884 86.6216 246.827 86.401 246.827C86.0974 246.827 85.836 246.929 85.6169 247.132C85.3977 247.336 85.2882 247.675 85.2882 248.151L85.2882 250.827L84.5018 250.827L84.5018 247.824C84.5018 247.512 84.4646 247.284 84.3901 247.141C84.2727 246.926 84.0535 246.819 83.7327 246.819C83.4405 246.819 83.1748 246.932 82.9356 247.158C82.6964 247.384 82.5768 247.794 82.5768 248.387L82.5768 250.827L81.8034 250.827L81.8034 246.226Z"/>
<path clip-path="url(#TextBounds_7)" d="M91.0503 246.122C91.3768 246.122 91.6934 246.199 91.9999 246.352C92.3064 246.506 92.5398 246.704 92.7003 246.947C92.855 247.179 92.9581 247.45 93.0096 247.76C93.0555 247.972 93.0784 248.31 93.0784 248.774L89.7053 248.774C89.7197 249.241 89.83 249.615 90.0362 249.897C90.2425 250.179 90.5619 250.32 90.9944 250.32C91.3983 250.32 91.7206 250.187 91.9612 249.921C92.0987 249.766 92.1961 249.587 92.2534 249.384L93.0139 249.384C92.9939 249.553 92.9273 249.741 92.8141 249.949C92.701 250.156 92.5742 250.326 92.4339 250.458C92.199 250.687 91.9082 250.842 91.5616 250.922C91.3754 250.968 91.1648 250.991 90.93 250.991C90.357 250.991 89.8715 250.782 89.4733 250.366C89.0751 249.949 88.876 249.365 88.876 248.615C88.876 247.876 89.0766 247.275 89.4776 246.814C89.8787 246.353 90.4029 246.122 91.0503 246.122ZM92.2835 248.159C92.252 247.824 92.1789 247.556 92.0643 247.356C91.8523 246.983 91.4986 246.797 91.003 246.797C90.6478 246.797 90.3499 246.925 90.1092 247.182C89.8686 247.438 89.7412 247.764 89.7268 248.159L92.2835 248.159Z"/>
<path clip-path="url(#TextBounds_7)" d="M94.028 246.226L94.7628 246.226L94.7628 246.879C94.9805 246.609 95.2111 246.416 95.4546 246.299C95.6981 246.181 95.9688 246.122 96.2667 246.122C96.9198 246.122 97.3609 246.35 97.5901 246.806C97.7162 247.055 97.7792 247.411 97.7792 247.876L97.7792 250.827L96.9928 250.827L96.9928 247.927C96.9928 247.646 96.9513 247.42 96.8682 247.248C96.7307 246.962 96.4815 246.819 96.1206 246.819C95.9372 246.819 95.7869 246.837 95.6694 246.874C95.4574 246.937 95.2712 247.063 95.1108 247.252C94.9819 247.404 94.8981 247.561 94.8594 247.723C94.8208 247.885 94.8014 248.116 94.8014 248.417L94.8014 250.827L94.028 250.827L94.028 246.226Z"/>
<path clip-path="url(#TextBounds_7)" d="M99.0768 244.941L99.8589 244.941L99.8589 246.226L100.594 246.226L100.594 246.857L99.8589 246.857L99.8589 249.861C99.8589 250.021 99.9133 250.129 100.022 250.183C100.082 250.214 100.183 250.23 100.323 250.23C100.36 250.23 100.4 250.23 100.443 250.228C100.486 250.227 100.536 250.223 100.594 250.217L100.594 250.827C100.505 250.853 100.412 250.872 100.316 250.883C100.221 250.895 100.117 250.901 100.005 250.901C99.644 250.901 99.3991 250.808 99.2702 250.623C99.1413 250.439 99.0768 250.199 99.0768 249.904L99.0768 246.857L98.4538 246.857L98.4538 246.226L99.0768 246.226L99.0768 244.941Z"/>
<path clip-path="url(#TextBounds_7)" d="M101.96 249.603C101.96 249.826 102.042 250.002 102.205 250.131C102.368 250.26 102.562 250.325 102.785 250.325C103.057 250.325 103.321 250.262 103.576 250.136C104.005 249.927 104.22 249.584 104.22 249.109L104.22 248.486C104.126 248.546 104.004 248.596 103.855 248.636C103.706 248.676 103.56 248.705 103.417 248.722L102.948 248.782C102.668 248.819 102.457 248.878 102.317 248.958C102.079 249.093 101.96 249.308 101.96 249.603ZM103.833 248.039C104.011 248.016 104.13 247.941 104.19 247.815C104.224 247.747 104.242 247.648 104.242 247.519C104.242 247.255 104.148 247.064 103.96 246.945C103.773 246.826 103.504 246.767 103.155 246.767C102.751 246.767 102.464 246.876 102.295 247.094C102.201 247.214 102.139 247.393 102.11 247.631L101.389 247.631C101.403 247.063 101.587 246.669 101.941 246.447C102.294 246.225 102.705 246.114 103.172 246.114C103.713 246.114 104.153 246.217 104.491 246.423C104.826 246.629 104.994 246.95 104.994 247.386L104.994 250.037C104.994 250.117 105.01 250.182 105.043 250.23C105.076 250.279 105.145 250.303 105.251 250.303C105.286 250.303 105.324 250.301 105.367 250.297C105.41 250.293 105.456 250.286 105.505 250.277L105.505 250.849C105.385 250.883 105.293 250.905 105.23 250.913C105.167 250.922 105.081 250.926 104.972 250.926C104.706 250.926 104.512 250.832 104.392 250.643C104.329 250.542 104.285 250.401 104.259 250.217C104.101 250.424 103.875 250.603 103.58 250.754C103.285 250.906 102.96 250.982 102.605 250.982C102.178 250.982 101.829 250.853 101.558 250.593C101.288 250.334 101.152 250.01 101.152 249.62C101.152 249.193 101.285 248.862 101.552 248.627C101.818 248.393 102.168 248.248 102.6 248.194L103.833 248.039Z"/>
<path clip-path="url(#TextBounds_7)" d="M106.283 244.515L107.056 244.515L107.056 250.827L106.283 250.827L106.283 244.515Z"/>
</g>
</g>
</g>
</g>
</svg>
