<?xml version="1.0" encoding="UTF-8" standalone="no"?>
<!DOCTYPE svg PUBLIC "-//W3C//DTD SVG 1.1//EN" "http://www.w3.org/Graphics/SVG/1.1/DTD/svg11.dtd">
<!-- Created with Vectornator (http://vectornator.io/) -->
<svg height="100%" stroke-miterlimit="10" style="fill-rule:nonzero;clip-rule:evenodd;stroke-linecap:round;stroke-linejoin:round;" version="1.1" viewBox="0 0 600 400" width="100%" xml:space="preserve" xmlns="http://www.w3.org/2000/svg" xmlns:vectornator="http://vectornator.io" xmlns:xlink="http://www.w3.org/1999/xlink">
<defs>
<clipPath id="TextBounds">
<rect height="15.1852" width="162.279" x="220.361" y="12.5"/>
</clipPath>
<clipPath id="TextBounds_2">
<rect height="10" width="39.6953" x="418" y="57.5"/>
</clipPath>
<clipPath id="TextBounds_3">
<rect height="10" width="39.6953" x="418" y="57.5"/>
</clipPath>
<clipPath id="TextBounds_4">
<rect height="10" width="50.4332" x="487" y="292.5"/>
</clipPath>
<clipPath id="TextBounds_5">
<rect height="10" width="50.4332" x="487" y="292.5"/>
</clipPath>
<clipPath id="TextBounds_6">
<rect height="10" width="53.3809" x="24" y="245.5"/>
</clipPath>
<clipPath id="TextBounds_7">
<rect height="10" width="53.3809" x="24" y="245.5"/>
</clipPath>
</defs>
<g id="Untitled" vectornator:layerName="Untitled">
<path d="M0 0L600 0L600 0L600 400L600 400L0 400L0 400L0 0L0 0Z" fill="#ffffff" fill-rule="nonzero" opacity="1" stroke="none"/>
<g opacity="1">
<g opacity="1">
<path d="M304.968 53C367.457 52.9873 424.122 89.6922 449.66 146.725L305 211.5L305 211.5L304.968 53Z" fill="#2bbe83" fill-rule="nonzero" opacity="1" stroke="#ffffff" stroke-linecap="butt" stroke-linejoin="round" stroke-width="1"/>
<path d="M444.725 154.87C463.069 195.949 463.093 242.888 444.789 283.985C426.486 325.082 391.58 356.465 348.774 370.309L300 219.5L300 219.5L444.725 154.87Z" fill="#ffcf3a" fill-rule="nonzero" opacity="1" stroke="#ffffff" stroke-linecap="butt" stroke-linejoin="round" stroke-width="1"/>
<path d="M348.623 370.358C289.11 389.539 223.881 371.94 182.094 325.426C140.306 278.912 129.77 212.178 155.194 155.052C180.619 97.9266 237.252 61.087 299.78 61.0002L300 219.5L300 219.5L348.623 370.358Z" fill="#337bb7" fill-rule="nonzero" opacity="1" stroke="#ffffff" stroke-linecap="butt" stroke-linejoin="round" stroke-width="1"/>
</g>
<g fill="#333333" opacity="1" stroke="none">
<path clip-path="url(#TextBounds)" d="M226.923 22.3047C227.396 22.3047 227.786 22.2555 228.09 22.157C228.634 21.9742 229.079 21.6227 229.426 21.1023C229.703 20.6852 229.902 20.1508 230.024 19.4992C230.094 19.1102 230.129 18.7492 230.129 18.4164C230.129 17.1367 229.875 16.143 229.366 15.4352C228.858 14.7273 228.039 14.3734 226.909 14.3734L224.427 14.3734L224.427 22.3047L226.923 22.3047ZM223.021 13.1711L227.204 13.1711C228.625 13.1711 229.726 13.675 230.509 14.6828C231.207 15.5922 231.557 16.757 231.557 18.1773C231.557 19.2742 231.35 20.2656 230.938 21.1516C230.211 22.7172 228.962 23.5 227.19 23.5L223.021 23.5L223.021 13.1711Z"/>
<path clip-path="url(#TextBounds)" d="M233.223 15.9695L234.425 15.9695L234.425 17.2703C234.524 17.0172 234.765 16.709 235.15 16.3457C235.534 15.9824 235.977 15.8008 236.479 15.8008C236.502 15.8008 236.542 15.8031 236.598 15.8078C236.654 15.8125 236.75 15.8219 236.886 15.8359L236.886 17.1719C236.811 17.1578 236.742 17.1484 236.679 17.1437C236.616 17.1391 236.546 17.1367 236.471 17.1367C235.834 17.1367 235.344 17.3418 235.002 17.752C234.66 18.1621 234.489 18.6344 234.489 19.1687L234.489 23.5L233.223 23.5L233.223 15.9695Z"/>
<path clip-path="url(#TextBounds)" d="M239.249 15.9695L239.249 20.9687C239.249 21.3531 239.31 21.6672 239.432 21.9109C239.657 22.3609 240.076 22.5859 240.69 22.5859C241.571 22.5859 242.171 22.1922 242.49 21.4047C242.664 20.9828 242.75 20.4039 242.75 19.668L242.75 15.9695L244.016 15.9695L244.016 23.5L242.821 23.5L242.835 22.3891C242.671 22.675 242.467 22.9164 242.223 23.1133C241.74 23.507 241.154 23.7039 240.465 23.7039C239.392 23.7039 238.661 23.3453 238.271 22.6281C238.061 22.2437 237.955 21.7305 237.955 21.0883L237.955 15.9695L239.249 15.9695Z"/>
<path clip-path="url(#TextBounds)" d="M248.65 15.8359C249.24 15.8359 249.756 15.9812 250.196 16.2719C250.436 16.4359 250.679 16.675 250.928 16.9891L250.928 16.0398L252.095 16.0398L252.095 22.8883C252.095 23.8445 251.954 24.5992 251.673 25.1523C251.148 26.1742 250.157 26.6852 248.699 26.6852C247.888 26.6852 247.206 26.5035 246.653 26.1402C246.1 25.777 245.79 25.2086 245.725 24.4352L247.011 24.4352C247.072 24.7727 247.194 25.0328 247.377 25.2156C247.663 25.4969 248.113 25.6375 248.727 25.6375C249.697 25.6375 250.332 25.2953 250.632 24.6109C250.811 24.2078 250.893 23.4883 250.879 22.4523C250.625 22.8367 250.321 23.1227 249.964 23.3102C249.608 23.4977 249.137 23.5914 248.551 23.5914C247.736 23.5914 247.022 23.302 246.41 22.723C245.798 22.1441 245.493 21.1867 245.493 19.8508C245.493 18.5898 245.801 17.6055 246.417 16.8977C247.034 16.1898 247.778 15.8359 248.65 15.8359ZM250.928 19.7031C250.928 18.7703 250.736 18.0789 250.351 17.6289C249.967 17.1789 249.477 16.9539 248.882 16.9539C247.991 16.9539 247.382 17.3711 247.054 18.2055C246.88 18.6508 246.793 19.2344 246.793 19.9562C246.793 20.8047 246.966 21.4504 247.31 21.8934C247.655 22.3363 248.118 22.5578 248.699 22.5578C249.608 22.5578 250.248 22.1477 250.618 21.3273C250.825 20.8633 250.928 20.3219 250.928 19.7031Z"/>
<path clip-path="url(#TextBounds)" d="M254.753 21.1375C254.79 21.5594 254.896 21.8828 255.069 22.1078C255.388 22.5156 255.941 22.7195 256.729 22.7195C257.197 22.7195 257.61 22.6176 257.966 22.4137C258.322 22.2098 258.5 21.8945 258.5 21.468C258.5 21.1445 258.357 20.8984 258.071 20.7297C257.889 20.6266 257.528 20.507 256.989 20.3711L255.983 20.118C255.341 19.9586 254.868 19.7805 254.563 19.5836C254.019 19.2414 253.747 18.768 253.747 18.1633C253.747 17.4508 254.004 16.8742 254.517 16.4336C255.03 15.993 255.721 15.7727 256.588 15.7727C257.722 15.7727 258.54 16.1055 259.042 16.7711C259.356 17.193 259.508 17.6477 259.499 18.1352L258.304 18.1352C258.28 17.8492 258.179 17.5891 258.001 17.3547C257.711 17.0219 257.207 16.8555 256.489 16.8555C256.011 16.8555 255.649 16.9469 255.403 17.1297C255.157 17.3125 255.034 17.5539 255.034 17.8539C255.034 18.182 255.196 18.4445 255.519 18.6414C255.707 18.7586 255.983 18.8617 256.349 18.9508L257.186 19.1547C258.095 19.375 258.704 19.5883 259.014 19.7945C259.506 20.118 259.752 20.6266 259.752 21.3203C259.752 21.9906 259.498 22.5695 258.989 23.057C258.48 23.5445 257.706 23.7883 256.665 23.7883C255.545 23.7883 254.752 23.534 254.285 23.0254C253.819 22.5168 253.569 21.8875 253.536 21.1375L254.753 21.1375Z"/>
<path clip-path="url(#TextBounds)" d="M265.103 13.1359L266.333 13.1359L266.333 16.8836C266.61 16.5227 266.94 16.2473 267.325 16.0574C267.709 15.8676 268.126 15.7727 268.576 15.7727C269.514 15.7727 270.274 16.0949 270.858 16.7395C271.441 17.384 271.733 18.3344 271.733 19.5906C271.733 20.7812 271.445 21.7703 270.868 22.5578C270.292 23.3453 269.493 23.7391 268.471 23.7391C267.899 23.7391 267.416 23.6008 267.022 23.3242C266.788 23.1602 266.537 22.8977 266.27 22.5367L266.27 23.5L265.103 23.5L265.103 13.1359ZM268.393 22.6211C269.078 22.6211 269.59 22.3492 269.93 21.8055C270.27 21.2617 270.439 20.5445 270.439 19.6539C270.439 18.8617 270.27 18.2055 269.93 17.6852C269.59 17.1648 269.089 16.9047 268.429 16.9047C267.852 16.9047 267.347 17.118 266.913 17.5445C266.48 17.9711 266.263 18.6742 266.263 19.6539C266.263 20.3617 266.352 20.9359 266.53 21.3766C266.863 22.2062 267.484 22.6211 268.393 22.6211Z"/>
<path clip-path="url(#TextBounds)" d="M277.914 15.9695L279.313 15.9695C279.135 16.4523 278.739 17.5539 278.125 19.2742C277.665 20.568 277.281 21.6227 276.971 22.4383C276.24 24.3602 275.725 25.532 275.425 25.9539C275.125 26.3758 274.609 26.5867 273.878 26.5867C273.7 26.5867 273.562 26.5797 273.466 26.5656C273.37 26.5516 273.252 26.5258 273.111 26.4883L273.111 25.3352C273.332 25.3961 273.491 25.4336 273.589 25.4477C273.688 25.4617 273.775 25.4688 273.85 25.4688C274.084 25.4688 274.256 25.4301 274.366 25.3527C274.477 25.2754 274.569 25.1805 274.644 25.068C274.668 25.0305 274.752 24.8383 274.897 24.4914C275.043 24.1445 275.148 23.8867 275.214 23.718L272.429 15.9695L273.864 15.9695L275.882 22.1008L277.914 15.9695Z"/>
<path clip-path="url(#TextBounds)" d="M285.381 21.4961C285.381 21.8617 285.514 22.15 285.782 22.3609C286.049 22.5719 286.365 22.6773 286.731 22.6773C287.176 22.6773 287.607 22.5742 288.025 22.368C288.728 22.0258 289.079 21.4656 289.079 20.6875L289.079 19.668C288.925 19.7664 288.725 19.8484 288.482 19.9141C288.238 19.9797 287.999 20.0266 287.764 20.0547L286.998 20.1531C286.539 20.2141 286.194 20.3102 285.964 20.4414C285.575 20.6617 285.381 21.0133 285.381 21.4961ZM288.446 18.9367C288.737 18.8992 288.932 18.7773 289.03 18.5711C289.086 18.4586 289.114 18.2969 289.114 18.0859C289.114 17.6547 288.961 17.3418 288.654 17.1473C288.347 16.9527 287.907 16.8555 287.336 16.8555C286.675 16.8555 286.206 17.0336 285.929 17.3898C285.775 17.5867 285.674 17.8797 285.627 18.2687L284.446 18.2687C284.469 17.3406 284.77 16.6949 285.349 16.3316C285.928 15.9684 286.6 15.7867 287.364 15.7867C288.25 15.7867 288.969 15.9555 289.522 16.293C290.071 16.6305 290.345 17.1555 290.345 17.868L290.345 22.2062C290.345 22.3375 290.372 22.443 290.426 22.5227C290.48 22.6023 290.593 22.6422 290.767 22.6422C290.823 22.6422 290.886 22.6387 290.957 22.6316C291.027 22.6246 291.102 22.6141 291.182 22.6L291.182 23.5352C290.985 23.5914 290.835 23.6266 290.732 23.6406C290.629 23.6547 290.488 23.6617 290.31 23.6617C289.874 23.6617 289.557 23.507 289.361 23.1977C289.257 23.0336 289.185 22.8016 289.143 22.5016C288.885 22.8391 288.514 23.132 288.032 23.3805C287.549 23.6289 287.017 23.7531 286.436 23.7531C285.737 23.7531 285.166 23.541 284.723 23.1168C284.28 22.6926 284.059 22.1617 284.059 21.5242C284.059 20.8258 284.277 20.2844 284.713 19.9C285.149 19.5156 285.721 19.2789 286.429 19.1898L288.446 18.9367Z"/>
<path clip-path="url(#TextBounds)" d="M295.597 22.6492C296.188 22.6492 296.679 22.402 297.07 21.9074C297.462 21.4129 297.657 20.6734 297.657 19.6891C297.657 19.0891 297.571 18.5734 297.397 18.1422C297.069 17.3125 296.469 16.8977 295.597 16.8977C294.721 16.8977 294.121 17.3359 293.797 18.2125C293.624 18.6812 293.537 19.2766 293.537 19.9984C293.537 20.5797 293.624 21.0742 293.797 21.482C294.125 22.2602 294.725 22.6492 295.597 22.6492ZM292.321 16.0047L293.551 16.0047L293.551 17.0031C293.804 16.6609 294.081 16.3961 294.381 16.2086C294.807 15.9273 295.309 15.7867 295.886 15.7867C296.739 15.7867 297.463 16.1137 298.058 16.7676C298.654 17.4215 298.951 18.3555 298.951 19.5695C298.951 21.2102 298.522 22.382 297.664 23.0852C297.121 23.5305 296.488 23.7531 295.766 23.7531C295.199 23.7531 294.723 23.6289 294.339 23.3805C294.114 23.2398 293.863 22.9984 293.586 22.6562L293.586 26.5023L292.321 26.5023L292.321 16.0047Z"/>
<path clip-path="url(#TextBounds)" d="M303.606 22.6492C304.196 22.6492 304.687 22.402 305.079 21.9074C305.47 21.4129 305.666 20.6734 305.666 19.6891C305.666 19.0891 305.579 18.5734 305.406 18.1422C305.078 17.3125 304.478 16.8977 303.606 16.8977C302.729 16.8977 302.129 17.3359 301.806 18.2125C301.632 18.6812 301.546 19.2766 301.546 19.9984C301.546 20.5797 301.632 21.0742 301.806 21.482C302.134 22.2602 302.734 22.6492 303.606 22.6492ZM300.329 16.0047L301.56 16.0047L301.56 17.0031C301.813 16.6609 302.089 16.3961 302.389 16.2086C302.816 15.9273 303.318 15.7867 303.894 15.7867C304.747 15.7867 305.471 16.1137 306.067 16.7676C306.662 17.4215 306.96 18.3555 306.96 19.5695C306.96 21.2102 306.531 22.382 305.673 23.0852C305.129 23.5305 304.496 23.7531 303.775 23.7531C303.207 23.7531 302.732 23.6289 302.347 23.3805C302.122 23.2398 301.871 22.9984 301.595 22.6562L301.595 26.5023L300.329 26.5023L300.329 16.0047Z"/>
<path clip-path="url(#TextBounds)" d="M308.471 15.9695L309.674 15.9695L309.674 17.2703C309.772 17.0172 310.014 16.709 310.398 16.3457C310.782 15.9824 311.225 15.8008 311.727 15.8008C311.75 15.8008 311.79 15.8031 311.846 15.8078C311.903 15.8125 311.999 15.8219 312.135 15.8359L312.135 17.1719C312.06 17.1578 311.991 17.1484 311.927 17.1437C311.864 17.1391 311.795 17.1367 311.72 17.1367C311.082 17.1367 310.593 17.3418 310.25 17.752C309.908 18.1621 309.737 18.6344 309.737 19.1687L309.737 23.5L308.471 23.5L308.471 15.9695Z"/>
<path clip-path="url(#TextBounds)" d="M316.22 22.6844C317.059 22.6844 317.634 22.3668 317.946 21.7316C318.258 21.0965 318.414 20.3898 318.414 19.6117C318.414 18.9086 318.301 18.3367 318.076 17.8961C317.72 17.2023 317.106 16.8555 316.234 16.8555C315.461 16.8555 314.898 17.1508 314.546 17.7414C314.195 18.332 314.019 19.0445 314.019 19.8789C314.019 20.6805 314.195 21.3484 314.546 21.8828C314.898 22.4172 315.456 22.6844 316.22 22.6844ZM316.269 15.7516C317.239 15.7516 318.06 16.075 318.73 16.7219C319.4 17.3687 319.736 18.3203 319.736 19.5766C319.736 20.7906 319.44 21.7937 318.85 22.5859C318.259 23.3781 317.343 23.7742 316.1 23.7742C315.064 23.7742 314.242 23.4238 313.632 22.723C313.023 22.0223 312.718 21.0812 312.718 19.9C312.718 18.6344 313.039 17.6266 313.682 16.8766C314.324 16.1266 315.186 15.7516 316.269 15.7516Z"/>
<path clip-path="url(#TextBounds)" d="M321.859 15.9695L323.87 22.1008L325.972 15.9695L327.357 15.9695L324.517 23.5L323.167 23.5L320.389 15.9695L321.859 15.9695Z"/>
<path clip-path="url(#TextBounds)" d="M329.411 21.4961C329.411 21.8617 329.544 22.15 329.811 22.3609C330.079 22.5719 330.395 22.6773 330.761 22.6773C331.206 22.6773 331.637 22.5742 332.054 22.368C332.757 22.0258 333.109 21.4656 333.109 20.6875L333.109 19.668C332.954 19.7664 332.755 19.8484 332.511 19.9141C332.268 19.9797 332.029 20.0266 331.794 20.0547L331.028 20.1531C330.568 20.2141 330.224 20.3102 329.994 20.4414C329.605 20.6617 329.411 21.0133 329.411 21.4961ZM332.476 18.9367C332.767 18.8992 332.961 18.7773 333.06 18.5711C333.116 18.4586 333.144 18.2969 333.144 18.0859C333.144 17.6547 332.991 17.3418 332.684 17.1473C332.377 16.9527 331.937 16.8555 331.365 16.8555C330.704 16.8555 330.236 17.0336 329.959 17.3898C329.804 17.5867 329.704 17.8797 329.657 18.2687L328.475 18.2687C328.499 17.3406 328.8 16.6949 329.379 16.3316C329.958 15.9684 330.629 15.7867 331.393 15.7867C332.279 15.7867 332.999 15.9555 333.552 16.293C334.1 16.6305 334.375 17.1555 334.375 17.868L334.375 22.2062C334.375 22.3375 334.402 22.443 334.455 22.5227C334.509 22.6023 334.623 22.6422 334.796 22.6422C334.853 22.6422 334.916 22.6387 334.986 22.6316C335.057 22.6246 335.132 22.6141 335.211 22.6L335.211 23.5352C335.014 23.5914 334.864 23.6266 334.761 23.6406C334.658 23.6547 334.518 23.6617 334.339 23.6617C333.904 23.6617 333.587 23.507 333.39 23.1977C333.287 23.0336 333.214 22.8016 333.172 22.5016C332.914 22.8391 332.544 23.132 332.061 23.3805C331.579 23.6289 331.046 23.7531 330.465 23.7531C329.767 23.7531 329.196 23.541 328.753 23.1168C328.31 22.6926 328.089 22.1617 328.089 21.5242C328.089 20.8258 328.307 20.2844 328.743 19.9C329.179 19.5156 329.75 19.2789 330.458 19.1898L332.476 18.9367Z"/>
<path clip-path="url(#TextBounds)" d="M336.484 13.1711L337.75 13.1711L337.75 23.5L336.484 23.5L336.484 13.1711Z"/>
<path clip-path="url(#TextBounds)" d="M344.401 21.1375C344.439 21.5594 344.544 21.8828 344.718 22.1078C345.036 22.5156 345.589 22.7195 346.377 22.7195C346.846 22.7195 347.258 22.6176 347.614 22.4137C347.971 22.2098 348.149 21.8945 348.149 21.468C348.149 21.1445 348.006 20.8984 347.72 20.7297C347.537 20.6266 347.176 20.507 346.637 20.3711L345.632 20.118C344.989 19.9586 344.516 19.7805 344.211 19.5836C343.668 19.2414 343.396 18.768 343.396 18.1633C343.396 17.4508 343.652 16.8742 344.166 16.4336C344.679 15.993 345.369 15.7727 346.236 15.7727C347.371 15.7727 348.189 16.1055 348.69 16.7711C349.004 17.193 349.157 17.6477 349.147 18.1352L347.952 18.1352C347.929 17.8492 347.828 17.5891 347.65 17.3547C347.359 17.0219 346.855 16.8555 346.138 16.8555C345.66 16.8555 345.298 16.9469 345.052 17.1297C344.805 17.3125 344.682 17.5539 344.682 17.8539C344.682 18.182 344.844 18.4445 345.168 18.6414C345.355 18.7586 345.632 18.8617 345.997 18.9508L346.834 19.1547C347.743 19.375 348.353 19.5883 348.662 19.7945C349.154 20.118 349.4 20.6266 349.4 21.3203C349.4 21.9906 349.146 22.5695 348.638 23.057C348.129 23.5445 347.354 23.7883 346.314 23.7883C345.193 23.7883 344.4 23.534 343.934 23.0254C343.467 22.5168 343.218 21.8875 343.185 21.1375L344.401 21.1375Z"/>
<path clip-path="url(#TextBounds)" d="M351.102 13.8672L352.382 13.8672L352.382 15.9695L353.584 15.9695L353.584 17.0031L352.382 17.0031L352.382 21.918C352.382 22.1805 352.471 22.3562 352.649 22.4453C352.747 22.4969 352.911 22.5227 353.141 22.5227C353.202 22.5227 353.268 22.5215 353.338 22.5191C353.408 22.5168 353.49 22.5109 353.584 22.5016L353.584 23.5C353.439 23.5422 353.288 23.5727 353.13 23.5914C352.973 23.6102 352.804 23.6195 352.621 23.6195C352.03 23.6195 351.629 23.4684 351.418 23.166C351.207 22.8637 351.102 22.4711 351.102 21.9883L351.102 17.0031L350.082 17.0031L350.082 15.9695L351.102 15.9695L351.102 13.8672Z"/>
<path clip-path="url(#TextBounds)" d="M355.82 21.4961C355.82 21.8617 355.954 22.15 356.221 22.3609C356.488 22.5719 356.804 22.6773 357.17 22.6773C357.615 22.6773 358.046 22.5742 358.464 22.368C359.167 22.0258 359.518 21.4656 359.518 20.6875L359.518 19.668C359.364 19.7664 359.164 19.8484 358.921 19.9141C358.677 19.9797 358.438 20.0266 358.204 20.0547L357.437 20.1531C356.978 20.2141 356.633 20.3102 356.404 20.4414C356.014 20.6617 355.82 21.0133 355.82 21.4961ZM358.886 18.9367C359.176 18.8992 359.371 18.7773 359.469 18.5711C359.525 18.4586 359.554 18.2969 359.554 18.0859C359.554 17.6547 359.4 17.3418 359.093 17.1473C358.786 16.9527 358.346 16.8555 357.775 16.8555C357.114 16.8555 356.645 17.0336 356.368 17.3898C356.214 17.5867 356.113 17.8797 356.066 18.2687L354.885 18.2687C354.908 17.3406 355.209 16.6949 355.788 16.3316C356.367 15.9684 357.039 15.7867 357.803 15.7867C358.689 15.7867 359.408 15.9555 359.961 16.293C360.51 16.6305 360.784 17.1555 360.784 17.868L360.784 22.2062C360.784 22.3375 360.811 22.443 360.865 22.5227C360.919 22.6023 361.032 22.6422 361.206 22.6422C361.262 22.6422 361.325 22.6387 361.396 22.6316C361.466 22.6246 361.541 22.6141 361.621 22.6L361.621 23.5352C361.424 23.5914 361.274 23.6266 361.171 23.6406C361.068 23.6547 360.927 23.6617 360.749 23.6617C360.313 23.6617 359.996 23.507 359.8 23.1977C359.696 23.0336 359.624 22.8016 359.582 22.5016C359.324 22.8391 358.954 23.132 358.471 23.3805C357.988 23.6289 357.456 23.7531 356.875 23.7531C356.176 23.7531 355.605 23.541 355.163 23.1168C354.72 22.6926 354.498 22.1617 354.498 21.5242C354.498 20.8258 354.716 20.2844 355.152 19.9C355.588 19.5156 356.16 19.2789 356.868 19.1898L358.886 18.9367Z"/>
<path clip-path="url(#TextBounds)" d="M363.111 13.8672L364.391 13.8672L364.391 15.9695L365.593 15.9695L365.593 17.0031L364.391 17.0031L364.391 21.918C364.391 22.1805 364.48 22.3562 364.658 22.4453C364.757 22.4969 364.921 22.5227 365.15 22.5227C365.211 22.5227 365.277 22.5215 365.347 22.5191C365.418 22.5168 365.5 22.5109 365.593 22.5016L365.593 23.5C365.448 23.5422 365.297 23.5727 365.14 23.5914C364.983 23.6102 364.813 23.6195 364.63 23.6195C364.039 23.6195 363.639 23.4684 363.428 23.166C363.217 22.8637 363.111 22.4711 363.111 21.9883L363.111 17.0031L362.092 17.0031L362.092 15.9695L363.111 15.9695L363.111 13.8672Z"/>
<path clip-path="url(#TextBounds)" d="M368.125 15.9695L368.125 20.9687C368.125 21.3531 368.186 21.6672 368.307 21.9109C368.532 22.3609 368.952 22.5859 369.566 22.5859C370.447 22.5859 371.047 22.1922 371.366 21.4047C371.539 20.9828 371.626 20.4039 371.626 19.668L371.626 15.9695L372.892 15.9695L372.892 23.5L371.696 23.5L371.711 22.3891C371.546 22.675 371.343 22.9164 371.099 23.1133C370.616 23.507 370.03 23.7039 369.341 23.7039C368.268 23.7039 367.536 23.3453 367.147 22.6281C366.936 22.2437 366.831 21.7305 366.831 21.0883L366.831 15.9695L368.125 15.9695Z"/>
<path clip-path="url(#TextBounds)" d="M375.62 21.1375C375.657 21.5594 375.763 21.8828 375.936 22.1078C376.255 22.5156 376.808 22.7195 377.596 22.7195C378.064 22.7195 378.477 22.6176 378.833 22.4137C379.189 22.2098 379.368 21.8945 379.368 21.468C379.368 21.1445 379.225 20.8984 378.939 20.7297C378.756 20.6266 378.395 20.507 377.856 20.3711L376.85 20.118C376.208 19.9586 375.735 19.7805 375.43 19.5836C374.886 19.2414 374.614 18.768 374.614 18.1633C374.614 17.4508 374.871 16.8742 375.384 16.4336C375.898 15.993 376.588 15.7727 377.455 15.7727C378.589 15.7727 379.407 16.1055 379.909 16.7711C380.223 17.193 380.375 17.6477 380.366 18.1352L379.171 18.1352C379.147 17.8492 379.046 17.5891 378.868 17.3547C378.578 17.0219 378.074 16.8555 377.357 16.8555C376.879 16.8555 376.516 16.9469 376.27 17.1297C376.024 17.3125 375.901 17.5539 375.901 17.8539C375.901 18.182 376.063 18.4445 376.386 18.6414C376.574 18.7586 376.85 18.8617 377.216 18.9508L378.053 19.1547C378.962 19.375 379.571 19.5883 379.881 19.7945C380.373 20.118 380.619 20.6266 380.619 21.3203C380.619 21.9906 380.365 22.5695 379.856 23.057C379.348 23.5445 378.573 23.7883 377.532 23.7883C376.412 23.7883 375.619 23.534 375.152 23.0254C374.686 22.5168 374.436 21.8875 374.404 21.1375L375.62 21.1375Z"/>
</g>
<g opacity="1">
<path d="M407.601 60.8696C402.601 60.8696 392.804 75.9696 389.538 81.0029L386.272 86.0362" fill="none" opacity="1" stroke="#2bbe83" stroke-linecap="butt" stroke-linejoin="miter" stroke-width="1"/>
<path d="M477.142 295.807C472.142 295.807 455.704 288.473 450.225 286.028L444.745 283.583" fill="none" opacity="1" stroke="#ffcf3a" stroke-linecap="butt" stroke-linejoin="miter" stroke-width="1"/>
<path d="M108.786 248.265C113.786 248.265 131.567 245.47 137.495 244.539L143.422 243.607" fill="none" opacity="1" stroke="#337bb7" stroke-linecap="butt" stroke-linejoin="miter" stroke-width="1"/>
<g opacity="1">
<g fill="#ffffff" opacity="1" stroke="#ffffff" stroke-linecap="butt" stroke-linejoin="round" stroke-width="1.6">
<path clip-path="url(#TextBounds_2)" d="M420.66 63.2754C420.66 63.4988 420.742 63.675 420.905 63.8039C421.068 63.9328 421.262 63.9973 421.485 63.9973C421.757 63.9973 422.021 63.9342 422.276 63.8082C422.705 63.5991 422.92 63.2568 422.92 62.7812L422.92 62.1582C422.826 62.2184 422.704 62.2685 422.555 62.3086C422.406 62.3487 422.26 62.3773 422.117 62.3945L421.648 62.4547C421.368 62.4919 421.157 62.5507 421.017 62.6309C420.779 62.7655 420.66 62.9803 420.66 63.2754ZM422.534 61.7113C422.711 61.6884 422.83 61.6139 422.89 61.4879C422.925 61.4191 422.942 61.3203 422.942 61.1914C422.942 60.9279 422.848 60.7367 422.66 60.6178C422.473 60.4989 422.204 60.4395 421.855 60.4395C421.451 60.4395 421.164 60.5483 420.995 60.766C420.901 60.8863 420.839 61.0654 420.811 61.3031L420.089 61.3031C420.103 60.7359 420.287 60.3413 420.641 60.1193C420.995 59.8973 421.405 59.7863 421.872 59.7863C422.413 59.7863 422.853 59.8895 423.191 60.0957C423.526 60.302 423.694 60.6228 423.694 61.0582L423.694 63.7094C423.694 63.7896 423.71 63.854 423.743 63.9027C423.776 63.9514 423.846 63.9758 423.952 63.9758C423.986 63.9758 424.025 63.9736 424.068 63.9693C424.111 63.965 424.156 63.9586 424.205 63.95L424.205 64.5215C424.085 64.5559 423.993 64.5773 423.93 64.5859C423.867 64.5945 423.781 64.5988 423.672 64.5988C423.406 64.5988 423.213 64.5043 423.092 64.3152C423.029 64.215 422.985 64.0732 422.959 63.8898C422.801 64.0961 422.575 64.2751 422.28 64.427C421.985 64.5788 421.66 64.6547 421.305 64.6547C420.878 64.6547 420.529 64.5251 420.258 64.2658C419.988 64.0066 419.852 63.6822 419.852 63.2926C419.852 62.8658 419.986 62.5349 420.252 62.3C420.518 62.0651 420.868 61.9204 421.3 61.866L422.534 61.7113Z"/>
<path clip-path="url(#TextBounds_2)" d="M426.904 63.9801C427.264 63.9801 427.565 63.829 427.804 63.5268C428.043 63.2245 428.163 62.7727 428.163 62.1711C428.163 61.8044 428.11 61.4893 428.004 61.2258C427.803 60.7187 427.436 60.4652 426.904 60.4652C426.368 60.4652 426.001 60.7331 425.804 61.2687C425.698 61.5552 425.645 61.919 425.645 62.3602C425.645 62.7154 425.698 63.0176 425.804 63.2668C426.004 63.7423 426.371 63.9801 426.904 63.9801ZM424.901 59.9195L425.653 59.9195L425.653 60.5297C425.808 60.3206 425.977 60.1587 426.16 60.0441C426.421 59.8723 426.727 59.7863 427.08 59.7863C427.601 59.7863 428.044 59.9861 428.407 60.3857C428.771 60.7854 428.953 61.3561 428.953 62.098C428.953 63.1007 428.691 63.8168 428.167 64.2465C427.835 64.5186 427.448 64.6547 427.007 64.6547C426.66 64.6547 426.369 64.5788 426.134 64.427C425.997 64.341 425.844 64.1935 425.675 63.9844L425.675 66.3348L424.901 66.3348L424.901 59.9195Z"/>
<path clip-path="url(#TextBounds_2)" d="M431.798 63.9801C432.159 63.9801 432.459 63.829 432.698 63.5268C432.937 63.2245 433.057 62.7727 433.057 62.1711C433.057 61.8044 433.004 61.4893 432.898 61.2258C432.697 60.7187 432.33 60.4652 431.798 60.4652C431.262 60.4652 430.895 60.7331 430.698 61.2687C430.592 61.5552 430.539 61.919 430.539 62.3602C430.539 62.7154 430.592 63.0176 430.698 63.2668C430.898 63.7423 431.265 63.9801 431.798 63.9801ZM429.795 59.9195L430.547 59.9195L430.547 60.5297C430.702 60.3206 430.871 60.1587 431.054 60.0441C431.315 59.8723 431.621 59.7863 431.974 59.7863C432.495 59.7863 432.938 59.9861 433.302 60.3857C433.665 60.7854 433.847 61.3561 433.847 62.098C433.847 63.1007 433.585 63.8168 433.061 64.2465C432.729 64.5186 432.342 64.6547 431.901 64.6547C431.554 64.6547 431.263 64.5788 431.029 64.427C430.891 64.341 430.738 64.1935 430.569 63.9844L430.569 66.3348L429.795 66.3348L429.795 59.9195Z"/>
<path clip-path="url(#TextBounds_2)" d="M434.771 59.898L435.506 59.898L435.506 60.693C435.566 60.5383 435.714 60.3499 435.948 60.1279C436.183 59.9059 436.454 59.7949 436.761 59.7949C436.775 59.7949 436.799 59.7964 436.834 59.7992C436.868 59.8021 436.927 59.8078 437.01 59.8164L437.01 60.6328C436.964 60.6242 436.922 60.6185 436.883 60.6156C436.844 60.6128 436.802 60.6113 436.756 60.6113C436.367 60.6113 436.067 60.7367 435.858 60.9873C435.649 61.238 435.545 61.5266 435.545 61.8531L435.545 64.5L434.771 64.5L434.771 59.898Z"/>
<path clip-path="url(#TextBounds_2)" d="M439.506 64.0016C440.019 64.0016 440.371 63.8075 440.561 63.4193C440.752 63.0312 440.847 62.5993 440.847 62.1238C440.847 61.6941 440.778 61.3447 440.641 61.0754C440.423 60.6514 440.048 60.4395 439.515 60.4395C439.042 60.4395 438.698 60.6199 438.484 60.9809C438.269 61.3418 438.161 61.7772 438.161 62.2871C438.161 62.777 438.269 63.1852 438.484 63.5117C438.698 63.8383 439.039 64.0016 439.506 64.0016ZM439.536 59.7648C440.129 59.7648 440.631 59.9625 441.04 60.3578C441.45 60.7531 441.655 61.3346 441.655 62.1023C441.655 62.8443 441.474 63.4573 441.113 63.9414C440.752 64.4255 440.192 64.6676 439.433 64.6676C438.8 64.6676 438.297 64.4535 437.925 64.0252C437.553 63.5969 437.366 63.0219 437.366 62.3C437.366 61.5266 437.563 60.9107 437.955 60.4523C438.348 59.994 438.875 59.7648 439.536 59.7648Z"/>
<path clip-path="url(#TextBounds_2)" d="M442.952 59.898L444.181 63.6449L445.466 59.898L446.313 59.898L444.577 64.5L443.752 64.5L442.054 59.898L442.952 59.898Z"/>
<path clip-path="url(#TextBounds_2)" d="M448.891 59.7949C449.217 59.7949 449.534 59.8715 449.84 60.0248C450.147 60.1781 450.38 60.3764 450.541 60.6199C450.695 60.852 450.798 61.1227 450.85 61.432C450.896 61.644 450.919 61.982 450.919 62.4461L447.546 62.4461C447.56 62.913 447.67 63.2876 447.877 63.5697C448.083 63.8519 448.402 63.993 448.835 63.993C449.239 63.993 449.561 63.8598 449.802 63.5934C449.939 63.4387 450.036 63.2596 450.094 63.0562L450.854 63.0562C450.834 63.2253 450.768 63.4136 450.654 63.6213C450.541 63.829 450.415 63.9987 450.274 64.1305C450.039 64.3596 449.749 64.5143 449.402 64.5945C449.216 64.6404 449.005 64.6633 448.77 64.6633C448.197 64.6633 447.712 64.4549 447.314 64.0381C446.915 63.6213 446.716 63.0376 446.716 62.2871C446.716 61.548 446.917 60.9479 447.318 60.4867C447.719 60.0255 448.243 59.7949 448.891 59.7949ZM450.124 61.8316C450.092 61.4965 450.019 61.2286 449.905 61.0281C449.693 60.6557 449.339 60.4695 448.843 60.4695C448.488 60.4695 448.19 60.5977 447.95 60.8541C447.709 61.1105 447.582 61.4363 447.567 61.8316L450.124 61.8316Z"/>
<path clip-path="url(#TextBounds_2)" d="M452.358 62.2527C452.358 62.7454 452.463 63.1579 452.672 63.4902C452.881 63.8225 453.216 63.9887 453.677 63.9887C454.035 63.9887 454.33 63.8347 454.56 63.5268C454.791 63.2188 454.906 62.777 454.906 62.2012C454.906 61.6197 454.787 61.1893 454.55 60.91C454.312 60.6307 454.018 60.491 453.669 60.491C453.279 60.491 452.963 60.64 452.721 60.9379C452.479 61.2358 452.358 61.6741 452.358 62.2527ZM453.523 59.8164C453.875 59.8164 454.17 59.8909 454.408 60.0398C454.545 60.1258 454.701 60.2762 454.876 60.491L454.876 58.1664L455.62 58.1664L455.62 64.5L454.923 64.5L454.923 63.8598C454.743 64.1434 454.53 64.3482 454.283 64.4742C454.037 64.6003 453.755 64.6633 453.437 64.6633C452.924 64.6633 452.48 64.4477 452.105 64.0166C451.729 63.5855 451.542 63.0118 451.542 62.2957C451.542 61.6254 451.713 61.0446 452.055 60.5533C452.398 60.062 452.887 59.8164 453.523 59.8164Z"/>
</g>
<g fill="#000000" opacity="1" stroke="none">
<path clip-path="url(#TextBounds_3)" d="M420.66 63.2754C420.66 63.4988 420.742 63.675 420.905 63.8039C421.068 63.9328 421.262 63.9973 421.485 63.9973C421.757 63.9973 422.021 63.9342 422.276 63.8082C422.705 63.5991 422.92 63.2568 422.92 62.7812L422.92 62.1582C422.826 62.2184 422.704 62.2685 422.555 62.3086C422.406 62.3487 422.26 62.3773 422.117 62.3945L421.648 62.4547C421.368 62.4919 421.157 62.5507 421.017 62.6309C420.779 62.7655 420.66 62.9803 420.66 63.2754ZM422.534 61.7113C422.711 61.6884 422.83 61.6139 422.89 61.4879C422.925 61.4191 422.942 61.3203 422.942 61.1914C422.942 60.9279 422.848 60.7367 422.66 60.6178C422.473 60.4989 422.204 60.4395 421.855 60.4395C421.451 60.4395 421.164 60.5483 420.995 60.766C420.901 60.8863 420.839 61.0654 420.811 61.3031L420.089 61.3031C420.103 60.7359 420.287 60.3413 420.641 60.1193C420.995 59.8973 421.405 59.7863 421.872 59.7863C422.413 59.7863 422.853 59.8895 423.191 60.0957C423.526 60.302 423.694 60.6228 423.694 61.0582L423.694 63.7094C423.694 63.7896 423.71 63.854 423.743 63.9027C423.776 63.9514 423.846 63.9758 423.952 63.9758C423.986 63.9758 424.025 63.9736 424.068 63.9693C424.111 63.965 424.156 63.9586 424.205 63.95L424.205 64.5215C424.085 64.5559 423.993 64.5773 423.93 64.5859C423.867 64.5945 423.781 64.5988 423.672 64.5988C423.406 64.5988 423.213 64.5043 423.092 64.3152C423.029 64.215 422.985 64.0732 422.959 63.8898C422.801 64.0961 422.575 64.2751 422.28 64.427C421.985 64.5788 421.66 64.6547 421.305 64.6547C420.878 64.6547 420.529 64.5251 420.258 64.2658C419.988 64.0066 419.852 63.6822 419.852 63.2926C419.852 62.8658 419.986 62.5349 420.252 62.3C420.518 62.0651 420.868 61.9204 421.3 61.866L422.534 61.7113Z"/>
<path clip-path="url(#TextBounds_3)" d="M426.904 63.9801C427.264 63.9801 427.565 63.829 427.804 63.5268C428.043 63.2245 428.163 62.7727 428.163 62.1711C428.163 61.8044 428.11 61.4893 428.004 61.2258C427.803 60.7187 427.436 60.4652 426.904 60.4652C426.368 60.4652 426.001 60.7331 425.804 61.2687C425.698 61.5552 425.645 61.919 425.645 62.3602C425.645 62.7154 425.698 63.0176 425.804 63.2668C426.004 63.7423 426.371 63.9801 426.904 63.9801ZM424.901 59.9195L425.653 59.9195L425.653 60.5297C425.808 60.3206 425.977 60.1587 426.16 60.0441C426.421 59.8723 426.727 59.7863 427.08 59.7863C427.601 59.7863 428.044 59.9861 428.407 60.3857C428.771 60.7854 428.953 61.3561 428.953 62.098C428.953 63.1007 428.691 63.8168 428.167 64.2465C427.835 64.5186 427.448 64.6547 427.007 64.6547C426.66 64.6547 426.369 64.5788 426.134 64.427C425.997 64.341 425.844 64.1935 425.675 63.9844L425.675 66.3348L424.901 66.3348L424.901 59.9195Z"/>
<path clip-path="url(#TextBounds_3)" d="M431.798 63.9801C432.159 63.9801 432.459 63.829 432.698 63.5268C432.937 63.2245 433.057 62.7727 433.057 62.1711C433.057 61.8044 433.004 61.4893 432.898 61.2258C432.697 60.7187 432.33 60.4652 431.798 60.4652C431.262 60.4652 430.895 60.7331 430.698 61.2687C430.592 61.5552 430.539 61.919 430.539 62.3602C430.539 62.7154 430.592 63.0176 430.698 63.2668C430.898 63.7423 431.265 63.9801 431.798 63.9801ZM429.795 59.9195L430.547 59.9195L430.547 60.5297C430.702 60.3206 430.871 60.1587 431.054 60.0441C431.315 59.8723 431.621 59.7863 431.974 59.7863C432.495 59.7863 432.938 59.9861 433.302 60.3857C433.665 60.7854 433.847 61.3561 433.847 62.098C433.847 63.1007 433.585 63.8168 433.061 64.2465C432.729 64.5186 432.342 64.6547 431.901 64.6547C431.554 64.6547 431.263 64.5788 431.029 64.427C430.891 64.341 430.738 64.1935 430.569 63.9844L430.569 66.3348L429.795 66.3348L429.795 59.9195Z"/>
<path clip-path="url(#TextBounds_3)" d="M434.771 59.898L435.506 59.898L435.506 60.693C435.566 60.5383 435.714 60.3499 435.948 60.1279C436.183 59.9059 436.454 59.7949 436.761 59.7949C436.775 59.7949 436.799 59.7964 436.834 59.7992C436.868 59.8021 436.927 59.8078 437.01 59.8164L437.01 60.6328C436.964 60.6242 436.922 60.6185 436.883 60.6156C436.844 60.6128 436.802 60.6113 436.756 60.6113C436.367 60.6113 436.067 60.7367 435.858 60.9873C435.649 61.238 435.545 61.5266 435.545 61.8531L435.545 64.5L434.771 64.5L434.771 59.898Z"/>
<path clip-path="url(#TextBounds_3)" d="M439.506 64.0016C440.019 64.0016 440.371 63.8075 440.561 63.4193C440.752 63.0312 440.847 62.5993 440.847 62.1238C440.847 61.6941 440.778 61.3447 440.641 61.0754C440.423 60.6514 440.048 60.4395 439.515 60.4395C439.042 60.4395 438.698 60.6199 438.484 60.9809C438.269 61.3418 438.161 61.7772 438.161 62.2871C438.161 62.777 438.269 63.1852 438.484 63.5117C438.698 63.8383 439.039 64.0016 439.506 64.0016ZM439.536 59.7648C440.129 59.7648 440.631 59.9625 441.04 60.3578C441.45 60.7531 441.655 61.3346 441.655 62.1023C441.655 62.8443 441.474 63.4573 441.113 63.9414C440.752 64.4255 440.192 64.6676 439.433 64.6676C438.8 64.6676 438.297 64.4535 437.925 64.0252C437.553 63.5969 437.366 63.0219 437.366 62.3C437.366 61.5266 437.563 60.9107 437.955 60.4523C438.348 59.994 438.875 59.7648 439.536 59.7648Z"/>
<path clip-path="url(#TextBounds_3)" d="M442.952 59.898L444.181 63.6449L445.466 59.898L446.313 59.898L444.577 64.5L443.752 64.5L442.054 59.898L442.952 59.898Z"/>
<path clip-path="url(#TextBounds_3)" d="M448.891 59.7949C449.217 59.7949 449.534 59.8715 449.84 60.0248C450.147 60.1781 450.38 60.3764 450.541 60.6199C450.695 60.852 450.798 61.1227 450.85 61.432C450.896 61.644 450.919 61.982 450.919 62.4461L447.546 62.4461C447.56 62.913 447.67 63.2876 447.877 63.5697C448.083 63.8519 448.402 63.993 448.835 63.993C449.239 63.993 449.561 63.8598 449.802 63.5934C449.939 63.4387 450.036 63.2596 450.094 63.0562L450.854 63.0562C450.834 63.2253 450.768 63.4136 450.654 63.6213C450.541 63.829 450.415 63.9987 450.274 64.1305C450.039 64.3596 449.749 64.5143 449.402 64.5945C449.216 64.6404 449.005 64.6633 448.77 64.6633C448.197 64.6633 447.712 64.4549 447.314 64.0381C446.915 63.6213 446.716 63.0376 446.716 62.2871C446.716 61.548 446.917 60.9479 447.318 60.4867C447.719 60.0255 448.243 59.7949 448.891 59.7949ZM450.124 61.8316C450.092 61.4965 450.019 61.2286 449.905 61.0281C449.693 60.6557 449.339 60.4695 448.843 60.4695C448.488 60.4695 448.19 60.5977 447.95 60.8541C447.709 61.1105 447.582 61.4363 447.567 61.8316L450.124 61.8316Z"/>
<path clip-path="url(#TextBounds_3)" d="M452.358 62.2527C452.358 62.7454 452.463 63.1579 452.672 63.4902C452.881 63.8225 453.216 63.9887 453.677 63.9887C454.035 63.9887 454.33 63.8347 454.56 63.5268C454.791 63.2188 454.906 62.777 454.906 62.2012C454.906 61.6197 454.787 61.1893 454.55 60.91C454.312 60.6307 454.018 60.491 453.669 60.491C453.279 60.491 452.963 60.64 452.721 60.9379C452.479 61.2358 452.358 61.6741 452.358 62.2527ZM453.523 59.8164C453.875 59.8164 454.17 59.8909 454.408 60.0398C454.545 60.1258 454.701 60.2762 454.876 60.491L454.876 58.1664L455.62 58.1664L455.62 64.5L454.923 64.5L454.923 63.8598C454.743 64.1434 454.53 64.3482 454.283 64.4742C454.037 64.6003 453.755 64.6633 453.437 64.6633C452.924 64.6633 452.48 64.4477 452.105 64.0166C451.729 63.5855 451.542 63.0118 451.542 62.2957C451.542 61.6254 451.713 61.0446 452.055 60.5533C452.398 60.062 452.887 59.8164 453.523 59.8164Z"/>
</g>
</g>
<g opacity="1">
<g fill="#ffffff" opacity="1" stroke="#ffffff" stroke-linecap="butt" stroke-linejoin="round" stroke-width="1.6">
<path clip-path="url(#TextBounds_4)" d="M490.842 294.765C491.36 294.765 491.782 294.891 492.107 295.143C492.432 295.395 492.628 295.829 492.694 296.445L491.942 296.445C491.896 296.161 491.791 295.926 491.628 295.738C491.465 295.55 491.203 295.457 490.842 295.457C490.349 295.457 489.997 295.697 489.785 296.179C489.647 296.491 489.579 296.876 489.579 297.334C489.579 297.796 489.676 298.184 489.871 298.499C490.065 298.814 490.372 298.971 490.79 298.971C491.111 298.971 491.365 298.873 491.553 298.677C491.741 298.481 491.87 298.212 491.942 297.871L492.694 297.871C492.608 298.482 492.393 298.928 492.049 299.21C491.705 299.492 491.266 299.633 490.73 299.633C490.129 299.633 489.649 299.413 489.291 298.974C488.933 298.534 488.754 297.985 488.754 297.326C488.754 296.518 488.95 295.889 489.342 295.439C489.735 294.99 490.235 294.765 490.842 294.765Z"/>
<path clip-path="url(#TextBounds_4)" d="M493.489 293.188L494.262 293.188L494.262 299.5L493.489 299.5L493.489 293.188Z"/>
<path clip-path="url(#TextBounds_4)" d="M495.422 294.92L496.209 294.92L496.209 299.5L495.422 299.5L495.422 294.92ZM495.422 293.188L496.209 293.188L496.209 294.064L495.422 294.064L495.422 293.188Z"/>
<path clip-path="url(#TextBounds_4)" d="M497.377 294.898L498.112 294.898L498.112 295.551C498.33 295.282 498.56 295.089 498.804 294.971C499.047 294.854 499.318 294.795 499.616 294.795C500.269 294.795 500.71 295.023 500.939 295.478C501.065 295.727 501.129 296.084 501.129 296.548L501.129 299.5L500.342 299.5L500.342 296.6C500.342 296.319 500.301 296.093 500.218 295.921C500.08 295.634 499.831 295.491 499.47 295.491C499.287 295.491 499.136 295.51 499.019 295.547C498.807 295.61 498.621 295.736 498.46 295.925C498.331 296.077 498.247 296.234 498.209 296.396C498.17 296.557 498.151 296.789 498.151 297.089L498.151 299.5L497.377 299.5L497.377 294.898Z"/>
<path clip-path="url(#TextBounds_4)" d="M502.271 294.92L503.058 294.92L503.058 299.5L502.271 299.5L502.271 294.92ZM502.271 293.188L503.058 293.188L503.058 294.064L502.271 294.064L502.271 293.188Z"/>
<path clip-path="url(#TextBounds_4)" d="M506.001 294.765C506.52 294.765 506.941 294.891 507.267 295.143C507.592 295.395 507.787 295.829 507.853 296.445L507.101 296.445C507.055 296.161 506.951 295.926 506.788 295.738C506.624 295.55 506.362 295.457 506.001 295.457C505.508 295.457 505.156 295.697 504.944 296.179C504.807 296.491 504.738 296.876 504.738 297.334C504.738 297.796 504.835 298.184 505.03 298.499C505.225 298.814 505.531 298.971 505.95 298.971C506.27 298.971 506.525 298.873 506.712 298.677C506.9 298.481 507.03 298.212 507.101 297.871L507.853 297.871C507.767 298.482 507.552 298.928 507.209 299.21C506.865 299.492 506.425 299.633 505.889 299.633C505.288 299.633 504.808 299.413 504.45 298.974C504.092 298.534 503.913 297.985 503.913 297.326C503.913 296.518 504.109 295.889 504.502 295.439C504.894 294.99 505.394 294.765 506.001 294.765Z"/>
<path clip-path="url(#TextBounds_4)" d="M509.22 298.275C509.22 298.499 509.301 298.675 509.464 298.804C509.628 298.933 509.821 298.997 510.045 298.997C510.317 298.997 510.58 298.934 510.835 298.808C511.265 298.599 511.48 298.257 511.48 297.781L511.48 297.158C511.385 297.218 511.263 297.268 511.114 297.309C510.965 297.349 510.819 297.377 510.676 297.395L510.208 297.455C509.927 297.492 509.717 297.551 509.576 297.631C509.338 297.765 509.22 297.98 509.22 298.275ZM511.093 296.711C511.271 296.688 511.389 296.614 511.45 296.488C511.484 296.419 511.501 296.32 511.501 296.191C511.501 295.928 511.407 295.737 511.22 295.618C511.032 295.499 510.764 295.439 510.414 295.439C510.01 295.439 509.724 295.548 509.555 295.766C509.46 295.886 509.399 296.065 509.37 296.303L508.648 296.303C508.662 295.736 508.846 295.341 509.2 295.119C509.554 294.897 509.964 294.786 510.431 294.786C510.973 294.786 511.412 294.889 511.75 295.096C512.086 295.302 512.253 295.623 512.253 296.058L512.253 298.709C512.253 298.79 512.27 298.854 512.303 298.903C512.335 298.951 512.405 298.976 512.511 298.976C512.545 298.976 512.584 298.974 512.627 298.969C512.67 298.965 512.716 298.959 512.764 298.95L512.764 299.521C512.644 299.556 512.552 299.577 512.489 299.586C512.426 299.595 512.34 299.599 512.232 299.599C511.965 299.599 511.772 299.504 511.652 299.315C511.589 299.215 511.544 299.073 511.518 298.89C511.361 299.096 511.135 299.275 510.839 299.427C510.544 299.579 510.219 299.655 509.864 299.655C509.437 299.655 509.088 299.525 508.818 299.266C508.547 299.007 508.412 298.682 508.412 298.293C508.412 297.866 508.545 297.535 508.811 297.3C509.078 297.065 509.427 296.92 509.86 296.866L511.093 296.711Z"/>
<path clip-path="url(#TextBounds_4)" d="M513.542 293.188L514.316 293.188L514.316 299.5L513.542 299.5L513.542 293.188Z"/>
<path clip-path="url(#TextBounds_4)" d="M518.075 293.613L518.857 293.613L518.857 294.898L519.592 294.898L519.592 295.53L518.857 295.53L518.857 298.533C518.857 298.694 518.912 298.801 519.021 298.855C519.081 298.887 519.181 298.903 519.321 298.903C519.359 298.903 519.399 298.902 519.442 298.901C519.485 298.899 519.535 298.896 519.592 298.89L519.592 299.5C519.503 299.526 519.411 299.544 519.315 299.556C519.219 299.567 519.115 299.573 519.004 299.573C518.643 299.573 518.398 299.481 518.269 299.296C518.14 299.111 518.075 298.871 518.075 298.576L518.075 295.53L517.452 295.53L517.452 294.898L518.075 294.898L518.075 293.613Z"/>
<path clip-path="url(#TextBounds_4)" d="M520.387 294.898L521.122 294.898L521.122 295.693C521.182 295.538 521.33 295.35 521.564 295.128C521.799 294.906 522.07 294.795 522.377 294.795C522.391 294.795 522.415 294.796 522.45 294.799C522.484 294.802 522.543 294.808 522.626 294.816L522.626 295.633C522.58 295.624 522.538 295.618 522.499 295.616C522.46 295.613 522.418 295.611 522.372 295.611C521.983 295.611 521.683 295.737 521.474 295.987C521.265 296.238 521.161 296.527 521.161 296.853L521.161 299.5L520.387 299.5L520.387 294.898Z"/>
<path clip-path="url(#TextBounds_4)" d="M523.296 294.92L524.082 294.92L524.082 299.5L523.296 299.5L523.296 294.92ZM523.296 293.188L524.082 293.188L524.082 294.064L523.296 294.064L523.296 293.188Z"/>
<path clip-path="url(#TextBounds_4)" d="M525.844 298.275C525.844 298.499 525.926 298.675 526.089 298.804C526.252 298.933 526.446 298.997 526.669 298.997C526.941 298.997 527.205 298.934 527.46 298.808C527.889 298.599 528.104 298.257 528.104 297.781L528.104 297.158C528.01 297.218 527.888 297.268 527.739 297.309C527.59 297.349 527.444 297.377 527.301 297.395L526.832 297.455C526.552 297.492 526.341 297.551 526.201 297.631C525.963 297.765 525.844 297.98 525.844 298.275ZM527.718 296.711C527.895 296.688 528.014 296.614 528.074 296.488C528.109 296.419 528.126 296.32 528.126 296.191C528.126 295.928 528.032 295.737 527.844 295.618C527.657 295.499 527.388 295.439 527.039 295.439C526.635 295.439 526.348 295.548 526.179 295.766C526.085 295.886 526.023 296.065 525.995 296.303L525.273 296.303C525.287 295.736 525.471 295.341 525.825 295.119C526.179 294.897 526.589 294.786 527.056 294.786C527.597 294.786 528.037 294.889 528.375 295.096C528.71 295.302 528.878 295.623 528.878 296.058L528.878 298.709C528.878 298.79 528.894 298.854 528.927 298.903C528.96 298.951 529.03 298.976 529.136 298.976C529.17 298.976 529.209 298.974 529.252 298.969C529.295 298.965 529.34 298.959 529.389 298.95L529.389 299.521C529.269 299.556 529.177 299.577 529.114 299.586C529.051 299.595 528.965 299.599 528.856 299.599C528.59 299.599 528.396 299.504 528.276 299.315C528.213 299.215 528.169 299.073 528.143 298.89C527.985 299.096 527.759 299.275 527.464 299.427C527.169 299.579 526.844 299.655 526.489 299.655C526.062 299.655 525.713 299.525 525.442 299.266C525.172 299.007 525.036 298.682 525.036 298.293C525.036 297.866 525.17 297.535 525.436 297.3C525.702 297.065 526.052 296.92 526.484 296.866L527.718 296.711Z"/>
<path clip-path="url(#TextBounds_4)" d="M530.167 293.188L530.94 293.188L530.94 299.5L530.167 299.5L530.167 293.188Z"/>
<path clip-path="url(#TextBounds_4)" d="M532.56 298.056C532.583 298.314 532.648 298.512 532.754 298.649C532.948 298.898 533.286 299.023 533.768 299.023C534.054 299.023 534.306 298.961 534.524 298.836C534.742 298.712 534.85 298.519 534.85 298.258C534.85 298.061 534.763 297.91 534.588 297.807C534.477 297.744 534.256 297.671 533.927 297.588L533.312 297.433C532.92 297.336 532.63 297.227 532.444 297.107C532.112 296.898 531.946 296.608 531.946 296.239C531.946 295.803 532.103 295.451 532.416 295.182C532.73 294.912 533.152 294.778 533.682 294.778C534.375 294.778 534.875 294.981 535.181 295.388C535.373 295.646 535.466 295.924 535.461 296.221L534.73 296.221C534.716 296.047 534.654 295.888 534.545 295.745C534.368 295.541 534.06 295.439 533.621 295.439C533.329 295.439 533.108 295.495 532.958 295.607C532.807 295.719 532.732 295.866 532.732 296.05C532.732 296.25 532.831 296.411 533.029 296.531C533.143 296.602 533.312 296.665 533.536 296.72L534.047 296.845C534.603 296.979 534.975 297.11 535.164 297.236C535.465 297.433 535.615 297.744 535.615 298.168C535.615 298.578 535.46 298.931 535.149 299.229C534.838 299.527 534.365 299.676 533.729 299.676C533.044 299.676 532.559 299.521 532.274 299.21C531.989 298.899 531.837 298.515 531.817 298.056L532.56 298.056Z"/>
</g>
<g fill="#000000" opacity="1" stroke="none">
<path clip-path="url(#TextBounds_5)" d="M490.842 294.765C491.36 294.765 491.782 294.891 492.107 295.143C492.432 295.395 492.628 295.829 492.694 296.445L491.942 296.445C491.896 296.161 491.791 295.926 491.628 295.738C491.465 295.55 491.203 295.457 490.842 295.457C490.349 295.457 489.997 295.697 489.785 296.179C489.647 296.491 489.579 296.876 489.579 297.334C489.579 297.796 489.676 298.184 489.871 298.499C490.065 298.814 490.372 298.971 490.79 298.971C491.111 298.971 491.365 298.873 491.553 298.677C491.741 298.481 491.87 298.212 491.942 297.871L492.694 297.871C492.608 298.482 492.393 298.928 492.049 299.21C491.705 299.492 491.266 299.633 490.73 299.633C490.129 299.633 489.649 299.413 489.291 298.974C488.933 298.534 488.754 297.985 488.754 297.326C488.754 296.518 488.95 295.889 489.342 295.439C489.735 294.99 490.235 294.765 490.842 294.765Z"/>
<path clip-path="url(#TextBounds_5)" d="M493.489 293.188L494.262 293.188L494.262 299.5L493.489 299.5L493.489 293.188Z"/>
<path clip-path="url(#TextBounds_5)" d="M495.422 294.92L496.209 294.92L496.209 299.5L495.422 299.5L495.422 294.92ZM495.422 293.188L496.209 293.188L496.209 294.064L495.422 294.064L495.422 293.188Z"/>
<path clip-path="url(#TextBounds_5)" d="M497.377 294.898L498.112 294.898L498.112 295.551C498.33 295.282 498.56 295.089 498.804 294.971C499.047 294.854 499.318 294.795 499.616 294.795C500.269 294.795 500.71 295.023 500.939 295.478C501.065 295.727 501.129 296.084 501.129 296.548L501.129 299.5L500.342 299.5L500.342 296.6C500.342 296.319 500.301 296.093 500.218 295.921C500.08 295.634 499.831 295.491 499.47 295.491C499.287 295.491 499.136 295.51 499.019 295.547C498.807 295.61 498.621 295.736 498.46 295.925C498.331 296.077 498.247 296.234 498.209 296.396C498.17 296.557 498.151 296.789 498.151 297.089L498.151 299.5L497.377 299.5L497.377 294.898Z"/>
<path clip-path="url(#TextBounds_5)" d="M502.271 294.92L503.058 294.92L503.058 299.5L502.271 299.5L502.271 294.92ZM502.271 293.188L503.058 293.188L503.058 294.064L502.271 294.064L502.271 293.188Z"/>
<path clip-path="url(#TextBounds_5)" d="M506.001 294.765C506.52 294.765 506.941 294.891 507.267 295.143C507.592 295.395 507.787 295.829 507.853 296.445L507.101 296.445C507.055 296.161 506.951 295.926 506.788 295.738C506.624 295.55 506.362 295.457 506.001 295.457C505.508 295.457 505.156 295.697 504.944 296.179C504.807 296.491 504.738 296.876 504.738 297.334C504.738 297.796 504.835 298.184 505.03 298.499C505.225 298.814 505.531 298.971 505.95 298.971C506.27 298.971 506.525 298.873 506.712 298.677C506.9 298.481 507.03 298.212 507.101 297.871L507.853 297.871C507.767 298.482 507.552 298.928 507.209 299.21C506.865 299.492 506.425 299.633 505.889 299.633C505.288 299.633 504.808 299.413 504.45 298.974C504.092 298.534 503.913 297.985 503.913 297.326C503.913 296.518 504.109 295.889 504.502 295.439C504.894 294.99 505.394 294.765 506.001 294.765Z"/>
<path clip-path="url(#TextBounds_5)" d="M509.22 298.275C509.22 298.499 509.301 298.675 509.464 298.804C509.628 298.933 509.821 298.997 510.045 298.997C510.317 298.997 510.58 298.934 510.835 298.808C511.265 298.599 511.48 298.257 511.48 297.781L511.48 297.158C511.385 297.218 511.263 297.268 511.114 297.309C510.965 297.349 510.819 297.377 510.676 297.395L510.208 297.455C509.927 297.492 509.717 297.551 509.576 297.631C509.338 297.765 509.22 297.98 509.22 298.275ZM511.093 296.711C511.271 296.688 511.389 296.614 511.45 296.488C511.484 296.419 511.501 296.32 511.501 296.191C511.501 295.928 511.407 295.737 511.22 295.618C511.032 295.499 510.764 295.439 510.414 295.439C510.01 295.439 509.724 295.548 509.555 295.766C509.46 295.886 509.399 296.065 509.37 296.303L508.648 296.303C508.662 295.736 508.846 295.341 509.2 295.119C509.554 294.897 509.964 294.786 510.431 294.786C510.973 294.786 511.412 294.889 511.75 295.096C512.086 295.302 512.253 295.623 512.253 296.058L512.253 298.709C512.253 298.79 512.27 298.854 512.303 298.903C512.335 298.951 512.405 298.976 512.511 298.976C512.545 298.976 512.584 298.974 512.627 298.969C512.67 298.965 512.716 298.959 512.764 298.95L512.764 299.521C512.644 299.556 512.552 299.577 512.489 299.586C512.426 299.595 512.34 299.599 512.232 299.599C511.965 299.599 511.772 299.504 511.652 299.315C511.589 299.215 511.544 299.073 511.518 298.89C511.361 299.096 511.135 299.275 510.839 299.427C510.544 299.579 510.219 299.655 509.864 299.655C509.437 299.655 509.088 299.525 508.818 299.266C508.547 299.007 508.412 298.682 508.412 298.293C508.412 297.866 508.545 297.535 508.811 297.3C509.078 297.065 509.427 296.92 509.86 296.866L511.093 296.711Z"/>
<path clip-path="url(#TextBounds_5)" d="M513.542 293.188L514.316 293.188L514.316 299.5L513.542 299.5L513.542 293.188Z"/>
<path clip-path="url(#TextBounds_5)" d="M518.075 293.613L518.857 293.613L518.857 294.898L519.592 294.898L519.592 295.53L518.857 295.53L518.857 298.533C518.857 298.694 518.912 298.801 519.021 298.855C519.081 298.887 519.181 298.903 519.321 298.903C519.359 298.903 519.399 298.902 519.442 298.901C519.485 298.899 519.535 298.896 519.592 298.89L519.592 299.5C519.503 299.526 519.411 299.544 519.315 299.556C519.219 299.567 519.115 299.573 519.004 299.573C518.643 299.573 518.398 299.481 518.269 299.296C518.14 299.111 518.075 298.871 518.075 298.576L518.075 295.53L517.452 295.53L517.452 294.898L518.075 294.898L518.075 293.613Z"/>
<path clip-path="url(#TextBounds_5)" d="M520.387 294.898L521.122 294.898L521.122 295.693C521.182 295.538 521.33 295.35 521.564 295.128C521.799 294.906 522.07 294.795 522.377 294.795C522.391 294.795 522.415 294.796 522.45 294.799C522.484 294.802 522.543 294.808 522.626 294.816L522.626 295.633C522.58 295.624 522.538 295.618 522.499 295.616C522.46 295.613 522.418 295.611 522.372 295.611C521.983 295.611 521.683 295.737 521.474 295.987C521.265 296.238 521.161 296.527 521.161 296.853L521.161 299.5L520.387 299.5L520.387 294.898Z"/>
<path clip-path="url(#TextBounds_5)" d="M523.296 294.92L524.082 294.92L524.082 299.5L523.296 299.5L523.296 294.92ZM523.296 293.188L524.082 293.188L524.082 294.064L523.296 294.064L523.296 293.188Z"/>
<path clip-path="url(#TextBounds_5)" d="M525.844 298.275C525.844 298.499 525.926 298.675 526.089 298.804C526.252 298.933 526.446 298.997 526.669 298.997C526.941 298.997 527.205 298.934 527.46 298.808C527.889 298.599 528.104 298.257 528.104 297.781L528.104 297.158C528.01 297.218 527.888 297.268 527.739 297.309C527.59 297.349 527.444 297.377 527.301 297.395L526.832 297.455C526.552 297.492 526.341 297.551 526.201 297.631C525.963 297.765 525.844 297.98 525.844 298.275ZM527.718 296.711C527.895 296.688 528.014 296.614 528.074 296.488C528.109 296.419 528.126 296.32 528.126 296.191C528.126 295.928 528.032 295.737 527.844 295.618C527.657 295.499 527.388 295.439 527.039 295.439C526.635 295.439 526.348 295.548 526.179 295.766C526.085 295.886 526.023 296.065 525.995 296.303L525.273 296.303C525.287 295.736 525.471 295.341 525.825 295.119C526.179 294.897 526.589 294.786 527.056 294.786C527.597 294.786 528.037 294.889 528.375 295.096C528.71 295.302 528.878 295.623 528.878 296.058L528.878 298.709C528.878 298.79 528.894 298.854 528.927 298.903C528.96 298.951 529.03 298.976 529.136 298.976C529.17 298.976 529.209 298.974 529.252 298.969C529.295 298.965 529.34 298.959 529.389 298.95L529.389 299.521C529.269 299.556 529.177 299.577 529.114 299.586C529.051 299.595 528.965 299.599 528.856 299.599C528.59 299.599 528.396 299.504 528.276 299.315C528.213 299.215 528.169 299.073 528.143 298.89C527.985 299.096 527.759 299.275 527.464 299.427C527.169 299.579 526.844 299.655 526.489 299.655C526.062 299.655 525.713 299.525 525.442 299.266C525.172 299.007 525.036 298.682 525.036 298.293C525.036 297.866 525.17 297.535 525.436 297.3C525.702 297.065 526.052 296.92 526.484 296.866L527.718 296.711Z"/>
<path clip-path="url(#TextBounds_5)" d="M530.167 293.188L530.94 293.188L530.94 299.5L530.167 299.5L530.167 293.188Z"/>
<path clip-path="url(#TextBounds_5)" d="M532.56 298.056C532.583 298.314 532.648 298.512 532.754 298.649C532.948 298.898 533.286 299.023 533.768 299.023C534.054 299.023 534.306 298.961 534.524 298.836C534.742 298.712 534.85 298.519 534.85 298.258C534.85 298.061 534.763 297.91 534.588 297.807C534.477 297.744 534.256 297.671 533.927 297.588L533.312 297.433C532.92 297.336 532.63 297.227 532.444 297.107C532.112 296.898 531.946 296.608 531.946 296.239C531.946 295.803 532.103 295.451 532.416 295.182C532.73 294.912 533.152 294.778 533.682 294.778C534.375 294.778 534.875 294.981 535.181 295.388C535.373 295.646 535.466 295.924 535.461 296.221L534.73 296.221C534.716 296.047 534.654 295.888 534.545 295.745C534.368 295.541 534.06 295.439 533.621 295.439C533.329 295.439 533.108 295.495 532.958 295.607C532.807 295.719 532.732 295.866 532.732 296.05C532.732 296.25 532.831 296.411 533.029 296.531C533.143 296.602 533.312 296.665 533.536 296.72L534.047 296.845C534.603 296.979 534.975 297.11 535.164 297.236C535.465 297.433 535.615 297.744 535.615 298.168C535.615 298.578 535.46 298.931 535.149 299.229C534.838 299.527 534.365 299.676 533.729 299.676C533.044 299.676 532.559 299.521 532.274 299.21C531.989 298.899 531.837 298.515 531.817 298.056L532.56 298.056Z"/>
</g>
</g>
<g opacity="1">
<g fill="#ffffff" opacity="1" stroke="#ffffff" stroke-linecap="butt" stroke-linejoin="round" stroke-width="1.6">
<path clip-path="url(#TextBounds_6)" d="M27.9836 247.795C28.3102 247.795 28.6267 247.872 28.9332 248.025C29.2397 248.178 29.4732 248.376 29.6336 248.62C29.7883 248.852 29.8914 249.123 29.943 249.432C29.9888 249.644 30.0117 249.982 30.0117 250.446L26.6387 250.446C26.653 250.913 26.7633 251.288 26.9695 251.57C27.1758 251.852 27.4952 251.993 27.9277 251.993C28.3316 251.993 28.6539 251.86 28.8945 251.593C29.032 251.439 29.1294 251.26 29.1867 251.056L29.9473 251.056C29.9272 251.225 29.8606 251.414 29.7475 251.621C29.6343 251.829 29.5076 251.999 29.3672 252.13C29.1323 252.36 28.8415 252.514 28.4949 252.595C28.3087 252.64 28.0982 252.663 27.8633 252.663C27.2904 252.663 26.8048 252.455 26.4066 252.038C26.0085 251.621 25.8094 251.038 25.8094 250.287C25.8094 249.548 26.0099 248.948 26.4109 248.487C26.812 248.026 27.3362 247.795 27.9836 247.795ZM29.2168 249.832C29.1853 249.496 29.1122 249.229 28.9977 249.028C28.7857 248.656 28.4319 248.47 27.9363 248.47C27.5811 248.47 27.2832 248.598 27.0426 248.854C26.802 249.11 26.6745 249.436 26.6602 249.832L29.2168 249.832Z"/>
<path clip-path="url(#TextBounds_6)" d="M30.523 247.898L31.5242 247.898L32.5813 249.518L33.6512 247.898L34.5922 247.92L33.041 250.141L34.6609 252.5L33.6727 252.5L32.5297 250.773L31.4211 252.5L30.4414 252.5L32.0613 250.141L30.523 247.898Z"/>
<path clip-path="url(#TextBounds_6)" d="M37.3035 251.98C37.6645 251.98 37.9645 251.829 38.2037 251.527C38.4429 251.225 38.5625 250.773 38.5625 250.171C38.5625 249.804 38.5095 249.489 38.4035 249.226C38.203 248.719 37.8363 248.465 37.3035 248.465C36.7678 248.465 36.4012 248.733 36.2035 249.269C36.0975 249.555 36.0445 249.919 36.0445 250.36C36.0445 250.715 36.0975 251.018 36.2035 251.267C36.404 251.742 36.7707 251.98 37.3035 251.98ZM35.3012 247.92L36.0531 247.92L36.0531 248.53C36.2078 248.321 36.3768 248.159 36.5602 248.044C36.8208 247.872 37.1273 247.786 37.4797 247.786C38.001 247.786 38.4436 247.986 38.8074 248.386C39.1712 248.785 39.3531 249.356 39.3531 250.098C39.3531 251.101 39.091 251.817 38.5668 252.246C38.2345 252.519 37.8478 252.655 37.4066 252.655C37.06 252.655 36.7693 252.579 36.5344 252.427C36.3969 252.341 36.2436 252.193 36.0746 251.984L36.0746 254.335L35.3012 254.335L35.3012 247.92Z"/>
<path clip-path="url(#TextBounds_6)" d="M42.1719 247.795C42.4984 247.795 42.815 247.872 43.1215 248.025C43.428 248.178 43.6615 248.376 43.8219 248.62C43.9766 248.852 44.0797 249.123 44.1313 249.432C44.1771 249.644 44.2 249.982 44.2 250.446L40.827 250.446C40.8413 250.913 40.9516 251.288 41.1578 251.57C41.3641 251.852 41.6835 251.993 42.116 251.993C42.5199 251.993 42.8422 251.86 43.0828 251.593C43.2203 251.439 43.3177 251.26 43.375 251.056L44.1355 251.056C44.1155 251.225 44.0489 251.414 43.9357 251.621C43.8226 251.829 43.6958 251.999 43.5555 252.13C43.3206 252.36 43.0298 252.514 42.6832 252.595C42.497 252.64 42.2865 252.663 42.0516 252.663C41.4786 252.663 40.9931 252.455 40.5949 252.038C40.1967 251.621 39.9977 251.038 39.9977 250.287C39.9977 249.548 40.1982 248.948 40.5992 248.487C41.0003 248.026 41.5245 247.795 42.1719 247.795ZM43.4051 249.832C43.3736 249.496 43.3005 249.229 43.1859 249.028C42.974 248.656 42.6202 248.47 42.1246 248.47C41.7694 248.47 41.4715 248.598 41.2309 248.854C40.9902 249.11 40.8628 249.436 40.8484 249.832L43.4051 249.832Z"/>
<path clip-path="url(#TextBounds_6)" d="M45.1711 247.898L45.9059 247.898L45.9059 248.693C45.966 248.538 46.1135 248.35 46.3484 248.128C46.5833 247.906 46.854 247.795 47.1605 247.795C47.1749 247.795 47.1992 247.796 47.2336 247.799C47.268 247.802 47.3267 247.808 47.4098 247.816L47.4098 248.633C47.3639 248.624 47.3217 248.618 47.283 248.616C47.2443 248.613 47.2021 248.611 47.1563 248.611C46.7667 248.611 46.4673 248.737 46.2582 248.987C46.0491 249.238 45.9445 249.527 45.9445 249.853L45.9445 252.5L45.1711 252.5L45.1711 247.898Z"/>
<path clip-path="url(#TextBounds_6)" d="M48.0801 247.92L48.8664 247.92L48.8664 252.5L48.0801 252.5L48.0801 247.92ZM48.0801 246.188L48.8664 246.188L48.8664 247.064L48.0801 247.064L48.0801 246.188Z"/>
<path clip-path="url(#TextBounds_6)" d="M50.0352 247.898L50.8 247.898L50.8 248.551C50.9833 248.325 51.1495 248.16 51.2984 248.057C51.5534 247.882 51.8427 247.795 52.1664 247.795C52.5331 247.795 52.8281 247.885 53.0516 248.066C53.1776 248.169 53.2922 248.321 53.3953 248.521C53.5672 248.275 53.7691 248.092 54.0012 247.973C54.2332 247.854 54.4939 247.795 54.7832 247.795C55.402 247.795 55.823 248.018 56.0465 248.465C56.1668 248.706 56.227 249.03 56.227 249.436L56.227 252.5L55.4234 252.5L55.4234 249.303C55.4234 248.997 55.3468 248.786 55.1936 248.671C55.0403 248.557 54.8534 248.5 54.6328 248.5C54.3292 248.5 54.0678 248.601 53.8486 248.805C53.6295 249.008 53.5199 249.348 53.5199 249.823L53.5199 252.5L52.7336 252.5L52.7336 249.496C52.7336 249.184 52.6964 248.957 52.6219 248.813C52.5044 248.598 52.2853 248.491 51.9645 248.491C51.6723 248.491 51.4066 248.604 51.1674 248.83C50.9282 249.057 50.8086 249.466 50.8086 250.059L50.8086 252.5L50.0352 252.5L50.0352 247.898Z"/>
<path clip-path="url(#TextBounds_6)" d="M59.282 247.795C59.6086 247.795 59.9251 247.872 60.2316 248.025C60.5382 248.178 60.7716 248.376 60.932 248.62C61.0867 248.852 61.1898 249.123 61.2414 249.432C61.2872 249.644 61.3102 249.982 61.3102 250.446L57.9371 250.446C57.9514 250.913 58.0617 251.288 58.268 251.57C58.4742 251.852 58.7936 251.993 59.2262 251.993C59.6301 251.993 59.9523 251.86 60.193 251.593C60.3305 251.439 60.4279 251.26 60.4852 251.056L61.2457 251.056C61.2257 251.225 61.1591 251.414 61.0459 251.621C60.9327 251.829 60.806 251.999 60.6656 252.13C60.4307 252.36 60.14 252.514 59.7934 252.595C59.6072 252.64 59.3966 252.663 59.1617 252.663C58.5888 252.663 58.1033 252.455 57.7051 252.038C57.3069 251.621 57.1078 251.038 57.1078 250.287C57.1078 249.548 57.3083 248.948 57.7094 248.487C58.1104 248.026 58.6346 247.795 59.282 247.795ZM60.5152 249.832C60.4837 249.496 60.4107 249.229 60.2961 249.028C60.0841 248.656 59.7303 248.47 59.2348 248.47C58.8796 248.47 58.5816 248.598 58.341 248.854C58.1004 249.11 57.9729 249.436 57.9586 249.832L60.5152 249.832Z"/>
<path clip-path="url(#TextBounds_6)" d="M62.2598 247.898L62.9945 247.898L62.9945 248.551C63.2122 248.282 63.4428 248.089 63.6863 247.971C63.9298 247.854 64.2005 247.795 64.4984 247.795C65.1516 247.795 65.5927 248.023 65.8219 248.478C65.9479 248.727 66.0109 249.084 66.0109 249.548L66.0109 252.5L65.2246 252.5L65.2246 249.6C65.2246 249.319 65.1831 249.093 65.1 248.921C64.9625 248.634 64.7133 248.491 64.3523 248.491C64.169 248.491 64.0186 248.51 63.9012 248.547C63.6892 248.61 63.503 248.736 63.3426 248.925C63.2137 249.077 63.1299 249.234 63.0912 249.396C63.0525 249.557 63.0332 249.789 63.0332 250.089L63.0332 252.5L62.2598 252.5L62.2598 247.898Z"/>
<path clip-path="url(#TextBounds_6)" d="M67.3086 246.613L68.0906 246.613L68.0906 247.898L68.8254 247.898L68.8254 248.53L68.0906 248.53L68.0906 251.533C68.0906 251.694 68.1451 251.801 68.2539 251.855C68.3141 251.887 68.4143 251.903 68.5547 251.903C68.5919 251.903 68.632 251.902 68.675 251.901C68.718 251.899 68.7681 251.896 68.8254 251.89L68.8254 252.5C68.7366 252.526 68.6442 252.544 68.5482 252.556C68.4523 252.567 68.3484 252.573 68.2367 252.573C67.8758 252.573 67.6309 252.481 67.502 252.296C67.373 252.111 67.3086 251.871 67.3086 251.576L67.3086 248.53L66.6855 248.53L66.6855 247.898L67.3086 247.898L67.3086 246.613Z"/>
<path clip-path="url(#TextBounds_6)" d="M70.1918 251.275C70.1918 251.499 70.2734 251.675 70.4367 251.804C70.6 251.933 70.7934 251.997 71.0168 251.997C71.2889 251.997 71.5525 251.934 71.8074 251.808C72.2371 251.599 72.452 251.257 72.452 250.781L72.452 250.158C72.3574 250.218 72.2357 250.268 72.0867 250.309C71.9378 250.349 71.7917 250.377 71.6484 250.395L71.1801 250.455C70.8993 250.492 70.6888 250.551 70.5484 250.631C70.3107 250.765 70.1918 250.98 70.1918 251.275ZM72.0652 249.711C72.2428 249.688 72.3617 249.614 72.4219 249.488C72.4563 249.419 72.4734 249.32 72.4734 249.191C72.4734 248.928 72.3796 248.737 72.192 248.618C72.0044 248.499 71.7358 248.439 71.3863 248.439C70.9824 248.439 70.696 248.548 70.527 248.766C70.4324 248.886 70.3708 249.065 70.3422 249.303L69.6203 249.303C69.6346 248.736 69.8187 248.341 70.1725 248.119C70.5262 247.897 70.9366 247.786 71.4035 247.786C71.9449 247.786 72.3846 247.889 72.7227 248.096C73.0578 248.302 73.2254 248.623 73.2254 249.058L73.2254 251.709C73.2254 251.79 73.2419 251.854 73.2748 251.903C73.3077 251.951 73.3772 251.976 73.4832 251.976C73.5176 251.976 73.5563 251.974 73.5992 251.969C73.6422 251.965 73.688 251.959 73.7367 251.95L73.7367 252.521C73.6164 252.556 73.5247 252.577 73.4617 252.586C73.3987 252.595 73.3128 252.599 73.2039 252.599C72.9375 252.599 72.7441 252.504 72.6238 252.315C72.5608 252.215 72.5164 252.073 72.4906 251.89C72.3331 252.096 72.1068 252.275 71.8117 252.427C71.5167 252.579 71.1915 252.655 70.8363 252.655C70.4095 252.655 70.0607 252.525 69.79 252.266C69.5193 252.007 69.384 251.682 69.384 251.293C69.384 250.866 69.5172 250.535 69.7836 250.3C70.05 250.065 70.3995 249.92 70.832 249.866L72.0652 249.711Z"/>
<path clip-path="url(#TextBounds_6)" d="M74.5145 246.188L75.2879 246.188L75.2879 252.5L74.5145 252.5L74.5145 246.188Z"/>
</g>
<g fill="#000000" opacity="1" stroke="none">
<path clip-path="url(#TextBounds_7)" d="M27.9836 247.795C28.3102 247.795 28.6267 247.872 28.9332 248.025C29.2397 248.178 29.4732 248.376 29.6336 248.62C29.7883 248.852 29.8914 249.123 29.943 249.432C29.9888 249.644 30.0117 249.982 30.0117 250.446L26.6387 250.446C26.653 250.913 26.7633 251.288 26.9695 251.57C27.1758 251.852 27.4952 251.993 27.9277 251.993C28.3316 251.993 28.6539 251.86 28.8945 251.593C29.032 251.439 29.1294 251.26 29.1867 251.056L29.9473 251.056C29.9272 251.225 29.8606 251.414 29.7475 251.621C29.6343 251.829 29.5076 251.999 29.3672 252.13C29.1323 252.36 28.8415 252.514 28.4949 252.595C28.3087 252.64 28.0982 252.663 27.8633 252.663C27.2904 252.663 26.8048 252.455 26.4066 252.038C26.0085 251.621 25.8094 251.038 25.8094 250.287C25.8094 249.548 26.0099 248.948 26.4109 248.487C26.812 248.026 27.3362 247.795 27.9836 247.795ZM29.2168 249.832C29.1853 249.496 29.1122 249.229 28.9977 249.028C28.7857 248.656 28.4319 248.47 27.9363 248.47C27.5811 248.47 27.2832 248.598 27.0426 248.854C26.802 249.11 26.6745 249.436 26.6602 249.832L29.2168 249.832Z"/>
<path clip-path="url(#TextBounds_7)" d="M30.523 247.898L31.5242 247.898L32.5813 249.518L33.6512 247.898L34.5922 247.92L33.041 250.141L34.6609 252.5L33.6727 252.5L32.5297 250.773L31.4211 252.5L30.4414 252.5L32.0613 250.141L30.523 247.898Z"/>
<path clip-path="url(#TextBounds_7)" d="M37.3035 251.98C37.6645 251.98 37.9645 251.829 38.2037 251.527C38.4429 251.225 38.5625 250.773 38.5625 250.171C38.5625 249.804 38.5095 249.489 38.4035 249.226C38.203 248.719 37.8363 248.465 37.3035 248.465C36.7678 248.465 36.4012 248.733 36.2035 249.269C36.0975 249.555 36.0445 249.919 36.0445 250.36C36.0445 250.715 36.0975 251.018 36.2035 251.267C36.404 251.742 36.7707 251.98 37.3035 251.98ZM35.3012 247.92L36.0531 247.92L36.0531 248.53C36.2078 248.321 36.3768 248.159 36.5602 248.044C36.8208 247.872 37.1273 247.786 37.4797 247.786C38.001 247.786 38.4436 247.986 38.8074 248.386C39.1712 248.785 39.3531 249.356 39.3531 250.098C39.3531 251.101 39.091 251.817 38.5668 252.246C38.2345 252.519 37.8478 252.655 37.4066 252.655C37.06 252.655 36.7693 252.579 36.5344 252.427C36.3969 252.341 36.2436 252.193 36.0746 251.984L36.0746 254.335L35.3012 254.335L35.3012 247.92Z"/>
<path clip-path="url(#TextBounds_7)" d="M42.1719 247.795C42.4984 247.795 42.815 247.872 43.1215 248.025C43.428 248.178 43.6615 248.376 43.8219 248.62C43.9766 248.852 44.0797 249.123 44.1313 249.432C44.1771 249.644 44.2 249.982 44.2 250.446L40.827 250.446C40.8413 250.913 40.9516 251.288 41.1578 251.57C41.3641 251.852 41.6835 251.993 42.116 251.993C42.5199 251.993 42.8422 251.86 43.0828 251.593C43.2203 251.439 43.3177 251.26 43.375 251.056L44.1355 251.056C44.1155 251.225 44.0489 251.414 43.9357 251.621C43.8226 251.829 43.6958 251.999 43.5555 252.13C43.3206 252.36 43.0298 252.514 42.6832 252.595C42.497 252.64 42.2865 252.663 42.0516 252.663C41.4786 252.663 40.9931 252.455 40.5949 252.038C40.1967 251.621 39.9977 251.038 39.9977 250.287C39.9977 249.548 40.1982 248.948 40.5992 248.487C41.0003 248.026 41.5245 247.795 42.1719 247.795ZM43.4051 249.832C43.3736 249.496 43.3005 249.229 43.1859 249.028C42.974 248.656 42.6202 248.47 42.1246 248.47C41.7694 248.47 41.4715 248.598 41.2309 248.854C40.9902 249.11 40.8628 249.436 40.8484 249.832L43.4051 249.832Z"/>
<path clip-path="url(#TextBounds_7)" d="M45.1711 247.898L45.9059 247.898L45.9059 248.693C45.966 248.538 46.1135 248.35 46.3484 248.128C46.5833 247.906 46.854 247.795 47.1605 247.795C47.1749 247.795 47.1992 247.796 47.2336 247.799C47.268 247.802 47.3267 247.808 47.4098 247.816L47.4098 248.633C47.3639 248.624 47.3217 248.618 47.283 248.616C47.2443 248.613 47.2021 248.611 47.1563 248.611C46.7667 248.611 46.4673 248.737 46.2582 248.987C46.0491 249.238 45.9445 249.527 45.9445 249.853L45.9445 252.5L45.1711 252.5L45.1711 247.898Z"/>
<path clip-path="url(#TextBounds_7)" d="M48.0801 247.92L48.8664 247.92L48.8664 252.5L48.0801 252.5L48.0801 247.92ZM48.0801 246.188L48.8664 246.188L48.8664 247.064L48.0801 247.064L48.0801 246.188Z"/>
<path clip-path="url(#TextBounds_7)" d="M50.0352 247.898L50.8 247.898L50.8 248.551C50.9833 248.325 51.1495 248.16 51.2984 248.057C51.5534 247.882 51.8427 247.795 52.1664 247.795C52.5331 247.795 52.8281 247.885 53.0516 248.066C53.1776 248.169 53.2922 248.321 53.3953 248.521C53.5672 248.275 53.7691 248.092 54.0012 247.973C54.2332 247.854 54.4939 247.795 54.7832 247.795C55.402 247.795 55.823 248.018 56.0465 248.465C56.1668 248.706 56.227 249.03 56.227 249.436L56.227 252.5L55.4234 252.5L55.4234 249.303C55.4234 248.997 55.3468 248.786 55.1936 248.671C55.0403 248.557 54.8534 248.5 54.6328 248.5C54.3292 248.5 54.0678 248.601 53.8486 248.805C53.6295 249.008 53.5199 249.348 53.5199 249.823L53.5199 252.5L52.7336 252.5L52.7336 249.496C52.7336 249.184 52.6964 248.957 52.6219 248.813C52.5044 248.598 52.2853 248.491 51.9645 248.491C51.6723 248.491 51.4066 248.604 51.1674 248.83C50.9282 249.057 50.8086 249.466 50.8086 250.059L50.8086 252.5L50.0352 252.5L50.0352 247.898Z"/>
<path clip-path="url(#TextBounds_7)" d="M59.282 247.795C59.6086 247.795 59.9251 247.872 60.2316 248.025C60.5382 248.178 60.7716 248.376 60.932 248.62C61.0867 248.852 61.1898 249.123 61.2414 249.432C61.2872 249.644 61.3102 249.982 61.3102 250.446L57.9371 250.446C57.9514 250.913 58.0617 251.288 58.268 251.57C58.4742 251.852 58.7936 251.993 59.2262 251.993C59.6301 251.993 59.9523 251.86 60.193 251.593C60.3305 251.439 60.4279 251.26 60.4852 251.056L61.2457 251.056C61.2257 251.225 61.1591 251.414 61.0459 251.621C60.9327 251.829 60.806 251.999 60.6656 252.13C60.4307 252.36 60.14 252.514 59.7934 252.595C59.6072 252.64 59.3966 252.663 59.1617 252.663C58.5888 252.663 58.1033 252.455 57.7051 252.038C57.3069 251.621 57.1078 251.038 57.1078 250.287C57.1078 249.548 57.3083 248.948 57.7094 248.487C58.1104 248.026 58.6346 247.795 59.282 247.795ZM60.5152 249.832C60.4837 249.496 60.4107 249.229 60.2961 249.028C60.0841 248.656 59.7303 248.47 59.2348 248.47C58.8796 248.47 58.5816 248.598 58.341 248.854C58.1004 249.11 57.9729 249.436 57.9586 249.832L60.5152 249.832Z"/>
<path clip-path="url(#TextBounds_7)" d="M62.2598 247.898L62.9945 247.898L62.9945 248.551C63.2122 248.282 63.4428 248.089 63.6863 247.971C63.9298 247.854 64.2005 247.795 64.4984 247.795C65.1516 247.795 65.5927 248.023 65.8219 248.478C65.9479 248.727 66.0109 249.084 66.0109 249.548L66.0109 252.5L65.2246 252.5L65.2246 249.6C65.2246 249.319 65.1831 249.093 65.1 248.921C64.9625 248.634 64.7133 248.491 64.3523 248.491C64.169 248.491 64.0186 248.51 63.9012 248.547C63.6892 248.61 63.503 248.736 63.3426 248.925C63.2137 249.077 63.1299 249.234 63.0912 249.396C63.0525 249.557 63.0332 249.789 63.0332 250.089L63.0332 252.5L62.2598 252.5L62.2598 247.898Z"/>
<path clip-path="url(#TextBounds_7)" d="M67.3086 246.613L68.0906 246.613L68.0906 247.898L68.8254 247.898L68.8254 248.53L68.0906 248.53L68.0906 251.533C68.0906 251.694 68.1451 251.801 68.2539 251.855C68.3141 251.887 68.4143 251.903 68.5547 251.903C68.5919 251.903 68.632 251.902 68.675 251.901C68.718 251.899 68.7681 251.896 68.8254 251.89L68.8254 252.5C68.7366 252.526 68.6442 252.544 68.5482 252.556C68.4523 252.567 68.3484 252.573 68.2367 252.573C67.8758 252.573 67.6309 252.481 67.502 252.296C67.373 252.111 67.3086 251.871 67.3086 251.576L67.3086 248.53L66.6855 248.53L66.6855 247.898L67.3086 247.898L67.3086 246.613Z"/>
<path clip-path="url(#TextBounds_7)" d="M70.1918 251.275C70.1918 251.499 70.2734 251.675 70.4367 251.804C70.6 251.933 70.7934 251.997 71.0168 251.997C71.2889 251.997 71.5525 251.934 71.8074 251.808C72.2371 251.599 72.452 251.257 72.452 250.781L72.452 250.158C72.3574 250.218 72.2357 250.268 72.0867 250.309C71.9378 250.349 71.7917 250.377 71.6484 250.395L71.1801 250.455C70.8993 250.492 70.6888 250.551 70.5484 250.631C70.3107 250.765 70.1918 250.98 70.1918 251.275ZM72.0652 249.711C72.2428 249.688 72.3617 249.614 72.4219 249.488C72.4563 249.419 72.4734 249.32 72.4734 249.191C72.4734 248.928 72.3796 248.737 72.192 248.618C72.0044 248.499 71.7358 248.439 71.3863 248.439C70.9824 248.439 70.696 248.548 70.527 248.766C70.4324 248.886 70.3708 249.065 70.3422 249.303L69.6203 249.303C69.6346 248.736 69.8187 248.341 70.1725 248.119C70.5262 247.897 70.9366 247.786 71.4035 247.786C71.9449 247.786 72.3846 247.889 72.7227 248.096C73.0578 248.302 73.2254 248.623 73.2254 249.058L73.2254 251.709C73.2254 251.79 73.2419 251.854 73.2748 251.903C73.3077 251.951 73.3772 251.976 73.4832 251.976C73.5176 251.976 73.5563 251.974 73.5992 251.969C73.6422 251.965 73.688 251.959 73.7367 251.95L73.7367 252.521C73.6164 252.556 73.5247 252.577 73.4617 252.586C73.3987 252.595 73.3128 252.599 73.2039 252.599C72.9375 252.599 72.7441 252.504 72.6238 252.315C72.5608 252.215 72.5164 252.073 72.4906 251.89C72.3331 252.096 72.1068 252.275 71.8117 252.427C71.5167 252.579 71.1915 252.655 70.8363 252.655C70.4095 252.655 70.0607 252.525 69.79 252.266C69.5193 252.007 69.384 251.682 69.384 251.293C69.384 250.866 69.5172 250.535 69.7836 250.3C70.05 250.065 70.3995 249.92 70.832 249.866L72.0652 249.711Z"/>
<path clip-path="url(#TextBounds_7)" d="M74.5145 246.188L75.2879 246.188L75.2879 252.5L74.5145 252.5L74.5145 246.188Z"/>
</g>
</g>
</g>
</g>
</g>
</svg>
