<?xml version="1.0" encoding="UTF-8" standalone="no"?>
<!DOCTYPE svg PUBLIC "-//W3C//DTD SVG 1.1//EN" "http://www.w3.org/Graphics/SVG/1.1/DTD/svg11.dtd">
<!-- Created with Vectornator (http://vectornator.io/) -->
<svg height="100%" stroke-miterlimit="10" style="fill-rule:nonzero;clip-rule:evenodd;stroke-linecap:round;stroke-linejoin:round;" version="1.1" viewBox="0 0 258.082 259.353" width="100%" xml:space="preserve" xmlns="http://www.w3.org/2000/svg" xmlns:vectornator="http://vectornator.io" xmlns:xlink="http://www.w3.org/1999/xlink">
<defs/>
<g id="layer1" vectornator:layerName="layer1">
<g opacity="1">
<path d="M33.8816 170.803C34.8429 170.789 35.8093 171.149 36.5533 171.886L64.7133 199.812C66.2011 201.284 66.235 203.709 64.789 205.226C63.343 206.742 60.9674 206.775 59.4795 205.3L31.317 177.377C29.8292 175.905 29.7953 173.48 31.2413 171.963C31.9668 171.202 32.9203 170.816 33.8816 170.803Z" fill="#000000" fill-rule="nonzero" opacity="1" stroke="none"/>
<path d="M62.4017 175.786C63.363 175.772 64.3294 176.132 65.0734 176.869L87.1119 198.722C88.5997 200.195 88.6336 202.622 87.1876 204.136C85.7416 205.652 83.366 205.686 81.8781 204.21L59.8396 182.358C58.3518 180.885 58.3179 178.457 59.7639 176.944C60.4869 176.188 61.4429 175.799 62.4017 175.786Z" fill="#000000" fill-rule="nonzero" opacity="1" stroke="none"/>
<path d="M105.286 92.5163C106.247 92.5028 107.213 92.8621 107.957 93.5997L147.061 132.376C148.548 133.848 148.582 136.276 147.136 137.79C145.69 139.306 143.315 139.339 141.827 137.864L102.724 99.0906C101.236 97.6153 101.202 95.1929 102.648 93.6765C103.371 92.9158 104.324 92.5297 105.286 92.5163Z" fill="#000000" fill-rule="nonzero" opacity="1" stroke="none"/>
<path d="M120.865 84.6671C121.826 84.6536 122.792 85.0129 123.536 85.7505L146.733 108.754C148.22 110.229 148.254 112.652 146.808 114.168C145.362 115.684 142.987 115.717 141.499 114.242L118.303 91.2389C116.815 89.7636 116.781 87.3412 118.227 85.8248C118.947 85.0667 119.903 84.6805 120.865 84.6671Z" fill="#000000" fill-rule="nonzero" opacity="1" stroke="none"/>
<path d="M99.1849 109.764C100.146 109.75 101.113 110.109 101.857 110.847L123.898 132.7C125.385 134.172 125.419 136.597 123.973 138.114C122.527 139.63 120.152 139.663 118.664 138.188L96.6229 116.335C95.135 114.86 95.1011 112.438 96.5471 110.921C97.2676 110.163 98.2237 109.777 99.1849 109.764Z" fill="#000000" fill-rule="nonzero" opacity="1" stroke="none"/>
<path d="M181.304 16.2101C182.266 16.1967 183.232 16.5559 183.976 17.2936L212.134 45.2162C213.622 46.6915 213.655 49.1139 212.209 50.6303C210.763 52.1466 208.388 52.1799 206.9 50.7045L178.74 22.782C177.252 21.3067 177.218 18.8842 178.664 17.3679C179.387 16.6122 180.343 16.2236 181.304 16.2101Z" fill="#000000" fill-rule="nonzero" opacity="1" stroke="none"/>
<path d="M186.987 45.1391C187.948 45.1256 188.915 45.4848 189.659 46.2225L212.517 68.8884C214.005 70.3637 214.039 72.7861 212.593 74.3024C211.147 75.8188 208.772 75.852 207.284 74.3767L184.425 51.7109C182.937 50.2355 182.903 47.8131 184.349 46.2968C185.072 45.5411 186.026 45.1525 186.987 45.1391Z" fill="#000000" fill-rule="nonzero" opacity="1" stroke="none"/>
<path d="M174.145 71.2506C183.966 73.0319 193.135 74.3276 201.515 73.4317C209.894 72.5358 217.483 69.4482 224.143 62.4629C227.928 58.4935 234.149 58.409 238.043 62.2685C241.938 66.1279 242.027 72.4737 238.242 76.4431C220.364 95.1905 198.849 95.3383 178.362 92.2625" fill="#000000" fill-rule="nonzero" opacity="1" stroke="none"/>
<path d="M83.9353 165.844C64.2934 162.282 47.2576 160.664 33.9377 174.632C30.1549 178.599 23.9317 178.686 20.0369 174.826C16.1446 170.967 16.0558 164.621 19.8386 160.652C37.7162 141.904 59.2316 141.756 79.7154 144.83" fill="#000000" fill-rule="nonzero" opacity="1" stroke="none"/>
<path d="M83.9384 234.107C86.4539 234.071 88.987 233.039 90.8784 231.056C112.971 207.886 106.977 179.779 101.766 155.043C100.138 147.315 98.5892 140.048 97.8332 133.079C96.3701 119.586 97.9412 107.566 107.673 97.3607C120.996 83.3901 137.996 85.0433 157.638 88.6058L153.45 67.5847C132.966 64.5114 111.389 64.5794 93.5116 83.3267C79.5377 97.9805 76.7644 114.593 77.9314 131.075C78.6087 140.652 80.709 150.249 82.6238 159.339C87.4054 182.025 91.4777 201.542 76.7166 217.022C72.9338 220.991 73.0234 227.391 76.9157 231.251C78.8631 233.181 81.4229 234.142 83.9384 234.107Z" fill="#000000" fill-rule="nonzero" opacity="1" stroke="none"/>
<path d="M101.251 148.394L105.467 169.378C111.169 170.233 116.94 170.813 122.709 170.846L120.719 150.526C114.539 150.334 108.123 149.64 101.251 148.394Z" fill="#000000" fill-rule="nonzero" opacity="1" stroke="none"/>
<path d="M174.955 2.88232C172.439 2.91751 169.93 3.93038 168.039 5.91382C145.947 29.0834 151.934 57.2024 157.145 81.9381C158.772 89.6667 160.32 96.9468 161.076 103.916C162.539 117.41 160.956 129.426 151.224 139.631C147.853 143.166 144.249 145.69 140.424 147.447L142.413 168.099C150.459 165.586 158.221 161.166 165.386 153.652C179.36 138.998 182.137 122.388 180.97 105.906C180.293 96.3285 178.196 86.7181 176.281 77.6277C171.499 54.9413 167.441 35.4611 182.202 19.9819C185.985 16.0125 185.857 9.58384 181.965 5.72435C180.018 3.79463 177.47 2.84712 174.955 2.88232Z" fill="#000000" fill-rule="nonzero" opacity="1" stroke="none"/>
</g>
<g opacity="1">
<path d="M166.623 196.409L146.522 203.39L134.653 169.217L130.548 169.656L122.37 223.371L127.985 227.85L148.087 220.868L159.955 255.042L164.073 254.639L172.197 201.235L166.623 196.409Z" fill="#eb5528" fill-rule="nonzero" opacity="1" stroke="none"/>
<path d="M166.623 196.409C164.403 197.18 163.228 199.605 163.999 201.825C164.771 204.046 167.196 205.221 169.416 204.449C171.637 203.678 172.811 201.253 172.04 199.033C171.269 196.812 168.844 195.637 166.623 196.409ZM125.192 219.809C122.971 220.58 121.797 223.005 122.568 225.226C123.339 227.446 125.764 228.621 127.985 227.85C130.205 227.079 131.38 224.654 130.609 222.433C129.837 220.213 127.412 219.038 125.192 219.809ZM131.944 167.905C130.834 168.291 130.247 169.503 130.632 170.613C131.018 171.724 132.23 172.311 133.341 171.925C134.451 171.54 135.038 170.327 134.653 169.217C134.267 168.107 133.054 167.519 131.944 167.905ZM161.267 252.333C160.157 252.719 159.57 253.931 159.955 255.042C160.341 256.152 161.554 256.739 162.664 256.354C163.774 255.968 164.361 254.755 163.976 253.645C163.59 252.535 162.378 251.948 161.267 252.333Z" fill="#eb5528" fill-rule="nonzero" opacity="1" stroke="none"/>
</g>
</g>
</svg>
