<?xml version="1.0" encoding="UTF-8" standalone="no"?>
<!DOCTYPE svg PUBLIC "-//W3C//DTD SVG 1.1//EN" "http://www.w3.org/Graphics/SVG/1.1/DTD/svg11.dtd">
<!-- Created with Vectornator (http://vectornator.io/) -->
<svg height="100%" stroke-miterlimit="10" style="fill-rule:nonzero;clip-rule:evenodd;stroke-linecap:round;stroke-linejoin:round;" version="1.1" viewBox="0 0 200.46 118.805" width="100%" xml:space="preserve" xmlns="http://www.w3.org/2000/svg" xmlns:vectornator="http://vectornator.io" xmlns:xlink="http://www.w3.org/1999/xlink">
<defs/>
<g id="Untitled" vectornator:layerName="Untitled">
<path d="M44.1268 88.3142C36.3818 88.3142 31.7198 83.4942 31.7198 75.8282C31.7198 70.9282 33.7728 64.7642 37.4088 60.1802C41.5198 54.9652 47.1298 52.0412 52.6618 52.0412C58.8248 52.0412 62.9358 55.2812 62.9358 59.7072C62.9358 62.3932 60.9588 64.6852 57.8768 64.6852C55.3488 64.6852 53.6888 63.0262 53.6888 60.7342C53.6888 58.9962 54.7168 57.8102 54.7168 56.7832C54.7168 55.9922 53.9258 55.4392 52.5038 55.4392C50.3698 55.4392 48.3938 57.0982 46.3388 60.3382C43.4148 65.0812 41.4388 72.1932 41.4388 77.0922C41.4388 81.4382 43.5728 83.8092 47.0508 83.8092C50.9228 83.8092 53.8468 81.2812 57.6408 76.4602L59.6948 78.0412C55.1108 84.9162 50.1328 88.3142 44.1268 88.3142" fill="#7b7671" fill-rule="nonzero" opacity="1" stroke="none"/>
<path d="M126.323 31.9041C129.168 31.9041 131.539 34.2741 131.539 37.1191C131.539 40.0431 129.011 42.3351 126.323 42.3351C123.636 42.3351 121.107 39.8061 121.107 37.1191C121.107 34.4321 123.398 31.9041 126.323 31.9041" fill="#7b7671" fill-rule="nonzero" opacity="1" stroke="none"/>
<path d="M110.571 31.9041C113.416 31.9041 115.787 34.2741 115.787 37.1191C115.787 40.0431 113.258 42.3351 110.571 42.3351C107.883 42.3351 105.355 39.8061 105.355 37.1191C105.355 34.4321 107.646 31.9041 110.571 31.9041" fill="#7b7671" fill-rule="nonzero" opacity="1" stroke="none"/>
<path d="M142.076 31.9041C144.921 31.9041 147.292 34.2741 147.292 37.1191C147.292 40.0431 144.763 42.3351 142.076 42.3351C139.388 42.3351 136.86 39.8061 136.86 37.1191C136.86 34.4321 139.151 31.9041 142.076 31.9041" fill="#7b7671" fill-rule="nonzero" opacity="1" stroke="none"/>
<path d="M154.439 79.5428C158.074 72.8248 159.813 65.4758 159.813 61.6038C159.813 57.5728 158.232 55.4388 155.308 55.4388C152.78 55.4388 150.645 56.7828 148.987 59.6278C145.114 66.0278 142.98 74.4058 142.98 78.8308C142.98 82.8618 144.561 84.9948 147.485 84.9948C150.409 84.9948 152.463 83.2568 154.439 79.5428M133.813 74.4838C133.813 69.6638 135.71 63.9748 139.266 59.5488C143.295 54.5688 148.511 52.1198 154.993 52.1198C163.369 52.1198 168.823 57.8108 168.823 65.7918C168.823 78.1988 159.023 88.3138 147.959 88.3138C139.187 88.3138 133.813 82.9398 133.813 74.4838" fill="#7b7671" fill-rule="nonzero" opacity="1" stroke="none"/>
<path d="M103.001 77.7947C101.103 81.1367 99.6898 82.8617 98.4578 82.8617C97.6668 82.8617 97.1138 82.3087 97.1138 81.4387C97.1138 81.1227 97.2718 80.3327 97.5878 79.2267L100.987 67.0567C102.014 63.4997 102.883 60.8137 102.883 58.6787C102.883 54.6487 100.354 52.1197 96.0868 52.1197C90.4758 52.1197 86.2088 55.7547 82.4938 63.1047L82.2568 62.9467C82.6518 60.6547 82.8888 58.9167 82.8888 57.8107C82.8888 54.0957 80.6758 52.1197 77.8308 52.1197C73.7398 52.1197 69.5828 55.4457 66.7818 61.8617L68.9068 62.5257C70.4578 59.5027 72.2928 57.5197 73.4248 57.6987C74.1908 57.8197 74.2988 58.4297 74.2748 59.7057C74.2148 62.9457 71.6668 72.0347 67.2408 87.2077L76.0148 87.2077C81.6248 67.4507 87.3138 57.4937 91.8978 57.4937C93.1618 57.4937 93.7948 58.1257 93.7948 59.3907C93.7948 60.1027 93.4798 61.2867 93.0038 63.0247L88.7368 78.1197C88.2638 79.8577 88.0248 81.4387 88.0248 82.6237C88.0248 86.3387 90.2378 88.3147 94.0318 88.3147C98.6158 88.3147 101.593 85.2297 104.688 78.9417L103.001 77.7947Z" fill="#7b7671" fill-rule="nonzero" opacity="1" stroke="none"/>
<path d="M127.213 77.6101C125.252 80.9881 123.577 82.7031 122.276 82.7031C121.407 82.7031 120.934 82.1501 120.934 81.0441C120.934 80.1741 121.171 79.1471 121.566 78.0411L126.229 63.5001C126.94 61.3661 127.256 59.5481 127.256 57.9671C127.256 54.4121 124.806 52.1201 120.696 52.1201C116.021 52.1201 112.25 55.2571 108.929 61.7281L111.28 62.4631C113.13 59.2761 114.928 57.7311 115.955 57.7311C116.982 57.7311 117.456 58.2051 117.456 59.3111C117.456 60.1021 117.219 61.1291 116.824 62.3141L112.161 76.8551C111.45 78.9101 111.056 80.7271 111.056 82.3871C111.056 85.9431 113.584 88.3141 117.615 88.3141C122.244 88.3141 126.027 85.2331 129.283 79.0171L127.213 77.6101Z" fill="#7b7671" fill-rule="nonzero" opacity="1" stroke="none"/>
</g>
</svg>
