<?xml version="1.0" encoding="UTF-8" standalone="no"?>
<!DOCTYPE svg PUBLIC "-//W3C//DTD SVG 1.1//EN" "http://www.w3.org/Graphics/SVG/1.1/DTD/svg11.dtd">
<!-- Created with Vectornator (http://vectornator.io/) -->
<svg height="100%" stroke-miterlimit="10" style="fill-rule:nonzero;clip-rule:evenodd;stroke-linecap:round;stroke-linejoin:round;" version="1.1" viewBox="0 0 510.236 113.386" width="100%" xml:space="preserve" xmlns="http://www.w3.org/2000/svg" xmlns:vectornator="http://vectornator.io" xmlns:xlink="http://www.w3.org/1999/xlink">
<defs/>
<clipPath id="ArtboardFrame">
<rect height="113.386" width="510.236" x="0" y="0"/>
</clipPath>
<g clip-path="url(#ArtboardFrame)" id="Untitled" vectornator:layerName="Untitled">
<path d="M14.5625 24.1116L14.5625 25.8156C21.3775 25.8156 21.8035 27.3746 21.8035 32.5486L21.8035 57.0686C21.8035 66.7066 28.6885 72.2376 40.4005 72.2376C52.8935 72.2376 59.3535 66.3506 59.3535 54.8716L59.3535 32.5486C59.3535 28.5796 61.8365 26.1696 66.0965 25.8156L66.0965 24.1116L50.4805 24.1116L50.4805 25.8156C55.3065 25.8156 57.3655 27.8696 57.3655 32.5486L57.3655 54.8716C57.3655 64.8636 51.1185 69.9656 41.5365 69.9656C37.0635 69.9656 33.4445 68.3356 31.5285 66.3506C29.3975 64.0846 28.9015 60.9666 28.9015 55.9346L28.9015 32.5486C28.9015 27.4456 29.1145 25.8156 36.1415 25.8156L36.1415 24.1116L14.5625 24.1116ZM74.9825 64.7136L74.9825 50.3746C74.9825 49.0976 79.0995 43.9166 84.3525 43.9166C88.3975 43.9166 89.4625 46.1876 89.4625 50.5886L89.4625 64.7136C89.4625 68.2626 89.1785 69.8236 85.6285 69.8236L84.9195 69.8236L84.9195 71.2436L99.3295 71.2436L99.3295 69.8236L98.6195 69.8236C94.9995 69.8236 94.7155 68.2626 94.7155 64.7136L94.7155 51.0856C94.7155 44.8396 91.8765 41.6436 86.1975 41.6436C82.0095 41.6436 77.9635 43.7026 74.9825 47.6076C74.9825 47.1106 75.0535 46.6126 75.0535 46.1876C75.0535 44.2706 74.7695 42.4966 74.3435 40.8636C71.3625 41.7866 68.3805 42.3546 65.1865 42.6376L65.1865 43.9166L66.2515 43.9166C69.2335 43.9166 69.7295 44.8396 69.7295 48.7426L69.7295 64.7136L69.7295 66.9136C69.7295 68.6186 68.4525 69.8956 66.1095 69.8956C65.8255 69.8956 65.4705 69.8956 65.1865 69.8236L65.1865 71.2436L79.5965 71.2436L79.5965 69.8236L78.8855 69.8236C75.2665 69.8236 74.9825 68.2626 74.9825 64.7136M109.267 26.0446C107.281 26.0446 105.719 27.6066 105.719 29.5936C105.719 31.5116 107.35 33.1436 109.267 33.1436C111.183 33.1436 112.816 31.5816 112.816 29.5936C112.816 27.6066 111.255 26.0446 109.267 26.0446M112.249 40.8636C108.983 41.7156 105.647 42.2826 102.24 42.6376L102.24 43.9166L103.305 43.9166C106.287 43.9166 106.784 44.8396 106.784 48.7426L106.784 64.7136L106.784 66.9136C106.784 68.6886 105.364 69.8956 102.808 69.8956C102.454 69.8956 102.028 69.8956 101.602 69.8236L101.602 71.2436L116.862 71.2436L116.862 69.8236L116.153 69.8236C112.532 69.8236 112.249 68.2626 112.249 64.7136L112.249 40.8636ZM117.522 42.6376L117.522 44.1286C119.936 44.5536 121.142 46.3996 121.142 46.7556C121.142 46.9686 121.569 47.6776 122.278 49.2396L132.713 72.2376L134.487 72.2376L144.07 51.0856C145.916 46.8976 147.548 44.6256 149.749 44.1286L149.749 42.6376L140.591 42.6376L140.591 44.1286C142.934 44.4836 143.786 45.1936 143.786 46.9686C143.786 47.5356 143.5 48.5286 143.006 49.7366L135.552 66.4176L127.672 48.6006C127.106 47.3226 126.822 46.5416 126.822 46.1876C126.822 44.6256 127.886 44.1286 130.228 44.1286L130.228 42.6376L117.522 42.6376ZM169.835 51.0136L156.632 51.0136C157.201 45.7616 159.542 43.2056 163.944 43.2056C167.635 43.2056 169.906 45.2646 169.906 48.8846C169.906 49.2396 169.906 49.9486 169.835 51.0136M175.584 52.4336L175.584 52.2916C175.584 45.7616 170.97 41.7156 164.44 41.7156C156.279 41.7156 150.458 48.0326 150.458 57.4026C150.458 66.3466 156.065 72.1676 164.512 72.1676C170.97 72.1676 175.584 68.8316 176.296 64.0026L174.662 64.0026C173.668 67.8376 170.19 70.3216 165.506 70.3216C158.691 70.3216 156.35 66.1326 156.35 57.6156C156.35 55.9836 156.421 54.2796 156.49 52.4336L175.584 52.4336ZM189.228 40.8636C186.319 41.7866 183.196 42.3546 179.93 42.6376L179.93 43.9166L180.994 43.9166C183.976 43.9166 184.472 44.8396 184.472 48.7426L184.472 64.7136L184.472 66.9136C184.472 68.6186 183.196 69.8956 180.853 69.8956C180.57 69.8956 180.214 69.8956 179.93 69.8236L179.93 71.2436L194.907 71.2436L194.907 69.8236L193.915 69.8236C190.222 69.8236 189.868 68.2626 189.868 64.7136L189.868 53.1436C189.868 48.9556 193.63 43.9166 196.681 43.9166C197.748 43.9166 198.526 44.6966 198.812 46.1156C199.095 47.5356 199.876 48.2456 201.226 48.2456C202.643 48.2456 203.709 47.1806 203.709 45.7616C203.709 43.4896 201.508 41.6436 198.526 41.6436C195.12 41.6436 191.642 44.0586 189.796 48.3876C189.868 47.6076 189.939 46.8266 189.939 46.0456C189.939 44.1996 189.655 42.4966 189.228 40.8636M224.873 41.6436C224.518 42.7096 224.091 43.6316 223.381 44.4126C221.251 42.4966 219.194 41.7156 216.495 41.7156C211.244 41.7156 208.049 45.0516 208.049 49.3816C208.049 52.3616 209.751 54.9186 213.018 56.8346C215.929 58.5376 219.264 59.3896 221.821 61.5206C223.31 62.7966 224.02 63.8616 224.02 65.5656C224.02 68.5486 221.962 70.6046 218.27 70.6046C213.656 70.6046 210.746 67.9776 209.327 62.5846L207.835 62.5846L207.835 72.2376L209.327 72.2376C209.611 71.1006 210.037 70.1086 210.746 69.2576C213.231 71.4586 215.502 72.3076 218.554 72.3076C224.375 72.3076 227.924 68.7586 227.924 63.1526C227.924 59.6026 225.794 56.8346 221.607 54.7046C216.353 52.0786 211.739 51.2976 211.739 47.3946C211.739 44.9806 213.656 43.2056 216.78 43.2056C220.542 43.2056 223.026 45.6906 224.873 50.8716L226.363 50.8716L226.363 41.6436L224.873 41.6436ZM240.337 26.0446C238.35 26.0446 236.787 27.6066 236.787 29.5936C236.787 31.5116 238.419 33.1436 240.337 33.1436C242.252 33.1436 243.885 31.5816 243.885 29.5936C243.885 27.6066 242.325 26.0446 240.337 26.0446M243.317 40.8636C240.052 41.7156 236.715 42.2826 233.31 42.6376L233.31 43.9166L234.375 43.9166C237.355 43.9166 237.852 44.8396 237.852 48.7426L237.852 64.7136L237.852 66.9136C237.852 68.6886 236.433 69.8956 233.876 69.8956C233.522 69.8956 233.096 69.8956 232.671 69.8236L232.671 71.2436L247.931 71.2436L247.931 69.8236L247.222 69.8236C243.601 69.8236 243.317 68.2626 243.317 64.7136L243.317 40.8636ZM275.139 47.9616L275.139 65.4956C272.726 68.6186 269.815 70.1786 266.621 70.1786C261.44 70.1786 257.749 65.7066 257.749 57.4736C257.749 48.3876 261.794 43.4196 267.047 43.4196C269.815 43.4196 272.656 44.9096 275.139 47.9616M275.209 30.2156L275.209 45.6906C272.015 42.9226 269.461 41.6436 265.913 41.6436C257.678 41.6436 251.786 47.7496 251.786 57.2606C251.786 66.1326 257.251 72.2376 264.918 72.2376C268.893 72.2376 272.228 70.6766 275.209 67.5516C275.209 69.0446 275.423 70.6046 275.849 72.2376C278.618 71.8116 281.67 71.3856 285.005 70.9606L285.005 69.6806C284.651 69.6806 284.368 69.7536 284.084 69.7536C281.385 69.7536 280.464 68.1926 280.464 64.4306L280.464 22.3376C277.269 23.1896 274.003 23.7566 270.596 24.1116L270.596 25.3186L271.591 25.3186C274.642 25.3186 275.209 26.3826 275.209 30.2156M313.086 52.1496C313.086 45.7616 312.235 41.7156 302.51 41.7156C294.63 41.7156 290.514 45.2646 290.514 48.1036C290.514 49.5236 291.365 50.3746 292.644 50.3746C295.127 50.3746 295.199 47.8916 295.625 46.4716C296.264 44.3416 298.536 43.2056 301.659 43.2056C306.202 43.2056 307.834 45.0516 307.834 49.0976L307.834 52.3616C295.341 57.1176 289.166 60.8096 289.166 66.3466C289.166 69.9656 291.507 72.3806 295.411 72.3806C299.103 72.3806 303.077 70.6046 307.834 67.2686C308.473 70.6046 310.389 72.2376 313.654 72.2376C317.132 72.2376 319.262 70.0386 319.262 66.4176L319.262 66.0616L318.267 66.0616C317.771 68.3336 316.777 69.4696 315.216 69.4696C313.442 69.4696 313.086 68.2626 313.086 66.0616L313.086 52.1496ZM307.834 53.9956L307.834 65.2806C304.214 68.1206 301.231 69.5406 299.103 69.5406C296.546 69.5406 294.916 67.8376 294.916 64.9266C294.916 59.8166 299.033 56.9766 307.834 53.9956M346.32 66.7726L346.32 84.3056C343.906 87.4266 340.998 88.9896 337.803 88.9896C332.622 88.9896 328.93 84.5166 328.93 76.2846C328.93 67.1986 332.976 62.2296 338.228 62.2296C340.998 62.2296 343.836 63.7196 346.32 66.7726M346.392 49.0266L346.392 64.5006C343.197 61.7326 340.642 60.4536 337.092 60.4536C328.86 60.4536 322.967 66.5596 322.967 76.0696C322.967 84.9426 328.433 91.0486 336.099 91.0486C340.074 91.0486 343.411 89.4876 346.392 86.3626C346.392 87.8526 346.606 89.4156 347.031 91.0486C349.798 90.6226 352.851 90.1966 356.188 89.7706L356.188 88.4936C355.832 88.4936 355.548 88.5636 355.264 88.5636C352.567 88.5636 351.644 87.0016 351.644 83.2416L351.644 41.1476C348.452 41.9996 345.185 42.5666 341.777 42.9226L341.777 44.1286L342.772 44.1286C345.825 44.1286 346.392 45.1936 346.392 49.0266M377.735 69.8236L364.531 69.8236C365.099 64.5716 367.442 62.0156 371.841 62.0156C375.534 62.0156 377.805 64.0746 377.805 67.6946C377.805 68.0496 377.805 68.7586 377.735 69.8236M383.483 71.2436L383.483 71.1006C383.483 64.5716 378.87 60.5266 372.339 60.5266C364.176 60.5266 358.356 66.8426 358.356 76.2126C358.356 85.1556 363.964 90.9756 372.411 90.9756C378.87 90.9756 383.483 87.6396 384.193 82.8136L382.56 82.8136C381.567 86.6476 378.089 89.1326 373.404 89.1326C366.589 89.1326 364.248 84.9426 364.248 76.4246C364.248 74.7946 364.32 73.0896 364.389 71.2436L383.483 71.2436ZM369.428 24.1116L369.428 25.7436L369.64 25.7436C374.467 25.7436 375.32 28.1576 377.45 33.0556L394.272 72.2376L396.755 72.2376L411.195 33.1266C412.897 28.8676 414 26.4526 417.495 25.7436L417.495 24.1116L405.644 24.1116L405.644 25.7436C408.452 25.9246 409.704 27.5196 409.704 29.7906C409.704 30.7836 409.418 32.0616 408.851 33.4816L397.892 63.9326L383.695 30.9266C383.2 29.7186 382.986 28.7966 382.986 28.2286C382.986 26.5966 384.264 25.7436 386.676 25.7436L389.089 25.7436L389.089 24.1116L369.428 24.1116ZM423.228 26.0446C421.24 26.0446 419.678 27.6066 419.678 29.5936C419.678 31.5116 421.31 33.1436 423.228 33.1436C425.144 33.1436 426.776 31.5816 426.776 29.5936C426.776 27.6066 425.214 26.0446 423.228 26.0446M426.209 40.8636C422.943 41.7156 419.606 42.2826 416.202 42.6376L416.202 43.9166L417.264 43.9166C420.247 43.9166 420.743 44.8396 420.743 48.7426L420.743 64.7136L420.743 66.9136C420.743 68.6886 419.324 69.8956 416.769 69.8956C416.413 69.8956 415.988 69.8956 415.562 69.8236L415.562 71.2436L430.822 71.2436L430.822 69.8236L430.113 69.8236C426.493 69.8236 426.209 68.2626 426.209 64.7136L426.209 40.8636ZM456.125 45.0516C453.64 42.7796 450.659 41.6436 447.11 41.6436C440.082 41.6436 435.539 46.0456 435.539 52.2206C435.539 56.4806 437.457 59.3896 441.502 61.8036C437.385 62.6546 435.255 64.8566 435.255 67.7646C435.255 72.8056 441.005 72.9486 449.096 73.6576C455.486 74.2256 458.68 75.9286 458.68 79.6186C458.68 84.0206 454.42 87.0736 448.317 87.0736C441.005 87.0736 436.747 84.0906 436.747 79.9756C436.747 78.2706 437.457 76.8506 438.947 75.5036C438.735 74.6516 438.236 74.3686 437.385 74.3686C435.539 74.3686 433.765 76.5676 433.765 79.5496C433.765 84.8016 438.875 88.5636 448.387 88.5636C457.474 88.5636 462.442 84.2336 462.442 77.9156C462.442 71.8836 458.183 69.1846 449.594 68.4056C442.284 67.7646 438.663 68.1926 438.663 65.4956C438.663 63.7196 441.005 62.7266 445.546 62.7266L446.683 62.7266C454.137 62.7266 458.75 58.6806 458.75 52.2206C458.75 50.0206 458.253 48.1746 457.046 46.0456C458.68 44.7676 459.887 44.1996 460.526 44.1996C461.589 44.1996 461.589 47.1106 463.719 47.1106C465.068 47.1106 465.918 46.1876 465.918 44.6256C465.918 43.0636 464.43 41.6436 462.3 41.6436C460.384 41.6436 458.68 42.9226 456.125 45.0516M447.18 43.1356C451.865 43.1356 453.498 46.2576 453.498 52.2916C453.498 58.3246 451.298 61.3066 446.897 61.3066C442.567 61.3066 440.793 58.4676 440.793 52.2916C440.793 46.1876 442.353 43.1356 447.18 43.1356M489.712 56.9766C489.712 66.1326 486.589 70.7476 480.839 70.7476C474.522 70.7476 471.683 65.8486 471.683 56.1246C471.683 47.3946 474.452 43.1356 480.839 43.1356C487.442 43.1356 489.712 47.8196 489.712 56.9766M465.791 56.8346C465.791 66.0616 471.966 72.2376 480.697 72.2376C489.428 72.2376 495.673 66.0616 495.673 56.9766C495.673 47.8916 489.5 41.6436 480.697 41.6436C471.897 41.6436 465.791 47.8916 465.791 56.8346" fill="#231f20" fill-rule="evenodd" opacity="1" stroke="none"/>
</g>
</svg>
