<?xml version="1.0" encoding="UTF-8" standalone="no"?>
<!DOCTYPE svg PUBLIC "-//W3C//DTD SVG 1.1//EN" "http://www.w3.org/Graphics/SVG/1.1/DTD/svg11.dtd">
<!-- Created with Vectornator (http://vectornator.io/) -->
<svg height="100%" stroke-miterlimit="10" style="fill-rule:nonzero;clip-rule:evenodd;stroke-linecap:round;stroke-linejoin:round;" version="1.1" viewBox="0 0 718.956 226.8" width="100%" xml:space="preserve" xmlns="http://www.w3.org/2000/svg" xmlns:vectornator="http://vectornator.io" xmlns:xlink="http://www.w3.org/1999/xlink">
<defs/>
<g id="layer1" vectornator:layerName="layer1">
<g opacity="1">
<g opacity="1">
<path d="M14.1859 113.4C14.1859 58.5996 58.6104 14.175 113.411 14.175C168.211 14.175 212.636 58.5996 212.636 113.4C212.636 168.2 168.211 212.625 113.411 212.625C58.6104 212.625 14.1859 168.2 14.1859 113.4Z" fill="none" opacity="1" stroke="#ff0000" stroke-linecap="butt" stroke-linejoin="miter" stroke-width="28.35"/>
<g opacity="1">
<path d="M116.629 127.381L116.629 106.271L165.079 106.271L165.079 149.53C155.804 155.851 147.603 160.154 140.474 162.438C133.344 164.722 124.889 165.864 115.107 165.864C103.063 165.864 93.2466 163.811 85.6561 159.704C78.0657 155.597 72.1825 149.483 68.0066 141.362C63.8307 133.241 61.7427 123.921 61.7427 113.4C61.7427 102.326 64.0268 92.6935 68.5949 84.5032C73.163 76.3129 79.8537 70.0952 88.6669 65.8501C95.5422 62.574 104.794 60.9359 116.422 60.9359C127.634 60.9359 136.021 61.951 141.581 63.9813C147.141 66.0116 151.755 69.1608 155.424 73.429C159.092 77.6972 161.849 83.1074 163.695 89.6596L133.448 95.0583C132.202 91.2285 130.091 88.2984 127.115 86.2682C124.139 84.2379 120.344 83.2228 115.73 83.2228C108.854 83.2228 103.375 85.6106 99.2912 90.3864C95.2076 95.1621 93.1658 102.718 93.1658 113.054C93.1658 124.036 95.2307 131.88 99.3605 136.587C103.49 141.293 109.247 143.646 116.629 143.646C120.136 143.646 123.481 143.139 126.665 142.124C129.849 141.109 133.494 139.378 137.601 136.933L137.601 127.381L116.629 127.381Z" fill="#ff0000" fill-rule="nonzero" opacity="1" stroke="#ff0000" stroke-linecap="butt" stroke-linejoin="miter" stroke-width="2.268"/>
</g>
</g>
<g opacity="1">
<path d="M322.045 113.4L492.145 113.4" fill="none" opacity="1" stroke="#0000ff" stroke-linecap="butt" stroke-linejoin="miter" stroke-width="28.35"/>
<path d="M307.87 56.7L307.87 170.1" fill="none" opacity="1" stroke="#0000ff" stroke-linecap="butt" stroke-linejoin="miter" stroke-width="28.35"/>
</g>
<g opacity="1">
<path d="M550.42 14.175L660.67 14.175C685.026 14.175 704.77 33.9192 704.77 58.275L704.77 168.525C704.77 192.881 685.026 212.625 660.67 212.625L550.42 212.625C526.064 212.625 506.32 192.881 506.32 168.525L506.32 58.275C506.32 33.9192 526.064 14.175 550.42 14.175Z" fill="none" opacity="1" stroke="#0000ff" stroke-linecap="butt" stroke-linejoin="miter" stroke-width="28.35"/>
<g opacity="1">
<path d="M558.86 62.6662L605.441 62.6662C614.624 62.6662 622.041 63.9121 627.694 66.4038C633.346 68.8955 638.018 72.4715 641.709 77.1319C645.401 81.7923 648.077 87.2141 649.738 93.3972C651.399 99.5803 652.23 106.133 652.23 113.054C652.23 123.897 650.996 132.307 648.527 138.282C646.058 144.258 642.632 149.264 638.249 153.302C633.865 157.339 629.159 160.027 624.129 161.365C617.254 163.211 611.025 164.134 605.441 164.134L558.86 164.134L558.86 62.6662ZM590.214 85.6452L590.214 141.086L597.897 141.086C604.449 141.086 609.11 140.359 611.878 138.905C614.647 137.452 616.815 134.914 618.384 131.292C619.953 127.67 620.738 121.798 620.738 113.677C620.738 102.926 618.984 95.5659 615.477 91.5976C611.97 87.6294 606.157 85.6452 598.035 85.6452L590.214 85.6452Z" fill="#0000ff" fill-rule="nonzero" opacity="1" stroke="#0000ff" stroke-linecap="butt" stroke-linejoin="miter" stroke-width="2.268"/>
</g>
</g>
</g>
</g>
</svg>
