<?xml version="1.0" encoding="UTF-8" standalone="no"?>
<!DOCTYPE svg PUBLIC "-//W3C//DTD SVG 1.1//EN" "http://www.w3.org/Graphics/SVG/1.1/DTD/svg11.dtd">
<!-- Created with Vectornator (http://vectornator.io/) -->
<svg height="100%" stroke-miterlimit="10" style="fill-rule:nonzero;clip-rule:evenodd;stroke-linecap:round;stroke-linejoin:round;" version="1.1" viewBox="0 0 5670 453.6" width="100%" xml:space="preserve" xmlns="http://www.w3.org/2000/svg" xmlns:vectornator="http://vectornator.io" xmlns:xlink="http://www.w3.org/1999/xlink">
<defs/>
<g id="layer1" vectornator:layerName="layer1">
<g opacity="1">
<g opacity="1">
<g opacity="1">
<path d="M1953.22 50.073L2063.47 50.073C2087.83 50.073 2107.57 69.8172 2107.57 94.173L2107.57 204.423C2107.57 228.779 2087.83 248.523 2063.47 248.523L1953.22 248.523C1928.86 248.523 1909.12 228.779 1909.12 204.423L1909.12 94.173C1909.12 69.8172 1928.86 50.073 1953.22 50.073Z" fill="none" opacity="1" stroke="#0000ff" stroke-linecap="butt" stroke-linejoin="miter" stroke-width="28.35"/>
<g opacity="1">
<path d="M1961.66 98.5642L2008.24 98.5642C2017.42 98.5642 2024.84 99.8101 2030.49 102.302C2036.15 104.793 2040.82 108.37 2044.51 113.03C2048.2 117.69 2050.88 123.112 2052.54 129.295C2054.2 135.478 2055.03 142.031 2055.03 148.952C2055.03 159.795 2053.8 168.205 2051.33 174.18C2048.86 180.156 2045.43 185.162 2041.05 189.2C2036.66 193.237 2031.96 195.925 2026.93 197.263C2020.05 199.109 2013.82 200.032 2008.24 200.032L1961.66 200.032L1961.66 98.5642ZM1993.01 121.543L1993.01 176.984L2000.7 176.984C2007.25 176.984 2011.91 176.257 2014.68 174.803C2017.45 173.35 2019.62 170.812 2021.18 167.19C2022.75 163.568 2023.54 157.696 2023.54 149.575C2023.54 138.824 2021.78 131.464 2018.28 127.496C2014.77 123.527 2008.96 121.543 2000.84 121.543L1993.01 121.543Z" fill="#0000ff" fill-rule="nonzero" opacity="1" stroke="#0000ff" stroke-linecap="butt" stroke-linejoin="miter" stroke-width="2.268"/>
</g>
</g>
<g opacity="1">
<path d="M1416.99 149.298C1416.99 94.4975 1461.41 50.073 1516.21 50.073C1571.01 50.073 1615.44 94.4975 1615.44 149.298C1615.44 204.098 1571.01 248.523 1516.21 248.523C1461.41 248.523 1416.99 204.098 1416.99 149.298Z" fill="none" opacity="1" stroke="#ff0000" stroke-linecap="butt" stroke-linejoin="miter" stroke-width="28.35"/>
<g opacity="1">
<path d="M1519.43 163.279L1519.43 142.169L1567.88 142.169L1567.88 185.428C1558.6 191.749 1550.4 196.052 1543.27 198.336C1536.14 200.62 1527.69 201.762 1517.91 201.762C1505.86 201.762 1496.05 199.709 1488.46 195.602C1480.87 191.495 1474.98 185.381 1470.81 177.26C1466.63 169.139 1464.54 159.818 1464.54 149.298C1464.54 138.224 1466.83 128.591 1471.39 120.401C1475.96 112.211 1482.65 105.993 1491.47 101.748C1498.34 98.4719 1507.59 96.8339 1519.22 96.8339C1530.43 96.8339 1538.82 97.849 1544.38 99.8793C1549.94 101.91 1554.56 105.059 1558.22 109.327C1561.89 113.595 1564.65 119.005 1566.49 125.558L1536.25 130.956C1535 127.126 1532.89 124.196 1529.91 122.166C1526.94 120.136 1523.14 119.121 1518.53 119.121C1511.65 119.121 1506.17 121.509 1502.09 126.284C1498.01 131.06 1495.97 138.616 1495.97 148.952C1495.97 159.934 1498.03 167.778 1502.16 172.485C1506.29 177.191 1512.05 179.544 1519.43 179.544C1522.94 179.544 1526.28 179.037 1529.47 178.022C1532.65 177.007 1536.29 175.276 1540.4 172.831L1540.4 163.279L1519.43 163.279Z" fill="#ff0000" fill-rule="nonzero" opacity="1" stroke="#ff0000" stroke-linecap="butt" stroke-linejoin="miter" stroke-width="2.268"/>
</g>
</g>
<g opacity="1">
<path d="M1657.09 137.958L1679.77 137.958L1679.77 160.638L1657.09 160.638L1657.09 137.958Z" fill="#808080" fill-rule="nonzero" opacity="1" stroke="none"/>
<path d="M1844.79 137.958L1867.47 137.958L1867.47 160.638L1844.79 160.638L1844.79 137.958Z" fill="#808080" fill-rule="nonzero" opacity="1" stroke="none"/>
<path d="M1807.25 137.958L1829.93 137.958L1829.93 160.638L1807.25 160.638L1807.25 137.958Z" fill="#808080" fill-rule="nonzero" opacity="1" stroke="none"/>
<path d="M1769.71 137.958L1792.39 137.958L1792.39 160.638L1769.71 160.638L1769.71 137.958Z" fill="#808080" fill-rule="nonzero" opacity="1" stroke="none"/>
<path d="M1732.17 137.958L1754.85 137.958L1754.85 160.638L1732.17 160.638L1732.17 137.958Z" fill="#808080" fill-rule="nonzero" opacity="1" stroke="none"/>
<path d="M1694.63 137.958L1717.31 137.958L1717.31 160.638L1694.63 160.638L1694.63 137.958Z" fill="#808080" fill-rule="nonzero" opacity="1" stroke="none"/>
</g>
</g>
<g opacity="1">
<g opacity="1">
<path d="M167.242 149.298C167.242 94.4975 211.667 50.073 266.467 50.073C321.268 50.073 365.692 94.4975 365.692 149.298C365.692 204.098 321.268 248.523 266.467 248.523C211.667 248.523 167.242 204.098 167.242 149.298Z" fill="none" opacity="1" stroke="#ff0000" stroke-linecap="butt" stroke-linejoin="miter" stroke-width="28.35"/>
<g opacity="1">
<path d="M269.686 163.279L269.686 142.169L318.136 142.169L318.136 185.428C308.861 191.749 300.659 196.052 293.53 198.336C286.401 200.62 277.945 201.762 268.163 201.762C256.12 201.762 246.303 199.709 238.713 195.602C231.122 191.495 225.239 185.381 221.063 177.26C216.887 169.139 214.799 159.818 214.799 149.298C214.799 138.224 217.083 128.591 221.651 120.401C226.22 112.211 232.91 105.993 241.724 101.748C248.599 98.4719 257.85 96.8339 269.478 96.8339C280.691 96.8339 289.077 97.849 294.638 99.8793C300.198 101.91 304.812 105.059 308.48 109.327C312.149 113.595 314.906 119.005 316.751 125.558L286.505 130.956C285.259 127.126 283.148 124.196 280.172 122.166C277.196 120.136 273.4 119.121 268.786 119.121C261.911 119.121 256.431 121.509 252.348 126.284C248.264 131.06 246.222 138.616 246.222 148.952C246.222 159.934 248.287 167.778 252.417 172.485C256.547 177.191 262.303 179.544 269.686 179.544C273.193 179.544 276.538 179.037 279.722 178.022C282.906 177.007 286.551 175.276 290.658 172.831L290.658 163.279L269.686 163.279Z" fill="#ff0000" fill-rule="nonzero" opacity="1" stroke="#ff0000" stroke-linecap="butt" stroke-linejoin="miter" stroke-width="2.268"/>
</g>
</g>
<g opacity="1">
<path d="M475.102 149.298L645.202 149.298" fill="none" opacity="1" stroke="#0000ff" stroke-linecap="butt" stroke-linejoin="miter" stroke-width="28.35"/>
<path d="M460.927 92.598L460.927 205.998" fill="none" opacity="1" stroke="#0000ff" stroke-linecap="butt" stroke-linejoin="miter" stroke-width="28.35"/>
</g>
<g opacity="1">
<path d="M703.477 50.073L813.727 50.073C838.082 50.073 857.827 69.8172 857.827 94.1729L857.827 204.423C857.827 228.779 838.082 248.523 813.727 248.523L703.477 248.523C679.121 248.523 659.377 228.779 659.377 204.423L659.377 94.1729C659.377 69.8172 679.121 50.073 703.477 50.073Z" fill="none" opacity="1" stroke="#0000ff" stroke-linecap="butt" stroke-linejoin="miter" stroke-width="28.35"/>
<g opacity="1">
<path d="M711.917 98.5642L758.498 98.5642C767.68 98.5642 775.098 99.8101 780.75 102.302C786.403 104.793 791.075 108.37 794.766 113.03C798.457 117.69 801.134 123.112 802.795 129.295C804.456 135.478 805.286 142.031 805.286 148.952C805.286 159.795 804.052 168.205 801.584 174.18C799.115 180.156 795.689 185.162 791.305 189.2C786.922 193.237 782.215 195.925 777.186 197.263C770.31 199.109 764.081 200.032 758.498 200.032L711.917 200.032L711.917 98.5642ZM743.271 121.543L743.271 176.984L750.954 176.984C757.506 176.984 762.166 176.257 764.935 174.803C767.703 173.35 769.872 170.812 771.441 167.19C773.01 163.568 773.794 157.696 773.794 149.575C773.794 138.824 772.041 131.464 768.534 127.496C765.027 123.527 759.213 121.543 751.092 121.543L743.271 121.543Z" fill="#0000ff" fill-rule="nonzero" opacity="1" stroke="#0000ff" stroke-linecap="butt" stroke-linejoin="miter" stroke-width="2.268"/>
</g>
</g>
</g>
<g fill="#000000" opacity="1" stroke="none">
<path d="M249.055 376.257L249.055 344.757L256.895 344.757C259.601 344.757 261.876 345.142 263.72 345.912C265.563 346.682 267.045 347.79 268.165 349.237C269.285 350.683 270.09 352.422 270.58 354.452C271.07 356.482 271.315 358.757 271.315 361.277C271.315 364.03 270.965 366.363 270.265 368.277C269.565 370.19 268.631 371.742 267.465 372.932C266.298 374.122 264.968 374.973 263.475 375.487C261.981 376 260.441 376.257 258.855 376.257L249.055 376.257ZM238.065 335.517L238.065 385.497L259.625 385.497C263.451 385.497 266.776 384.855 269.6 383.572C272.423 382.288 274.78 380.527 276.67 378.287C278.56 376.047 279.971 373.387 280.905 370.307C281.838 367.227 282.305 363.867 282.305 360.227C282.305 356.073 281.733 352.457 280.59 349.377C279.446 346.297 277.86 343.73 275.83 341.677C273.8 339.623 271.396 338.083 268.62 337.057C265.843 336.03 262.845 335.517 259.625 335.517L238.065 335.517Z"/>
<path d="M289.935 335.517L289.935 385.497L300.925 385.497L300.925 335.517L289.935 335.517Z"/>
<path d="M321.575 358.127L321.575 344.057L333.615 344.057C336.135 344.057 338.025 344.605 339.285 345.702C340.545 346.798 341.175 348.56 341.175 350.987C341.175 353.507 340.545 355.327 339.285 356.447C338.025 357.567 336.135 358.127 333.615 358.127L321.575 358.127ZM310.585 335.517L310.585 385.497L321.575 385.497L321.575 365.967L332.565 365.967C335.318 365.967 337.301 366.573 338.515 367.787C339.728 369 340.521 370.913 340.895 373.527C341.175 375.533 341.385 377.633 341.525 379.827C341.665 382.02 342.038 383.91 342.645 385.497L353.635 385.497C353.121 384.797 352.736 383.945 352.48 382.942C352.223 381.938 352.036 380.877 351.92 379.757C351.803 378.637 351.721 377.54 351.675 376.467C351.628 375.393 351.581 374.46 351.535 373.667C351.441 372.407 351.266 371.147 351.01 369.887C350.753 368.627 350.345 367.472 349.785 366.422C349.225 365.372 348.501 364.462 347.615 363.692C346.728 362.922 345.608 362.35 344.255 361.977L344.255 361.837C347.055 360.717 349.073 359.083 350.31 356.937C351.546 354.79 352.165 352.247 352.165 349.307C352.165 347.393 351.826 345.608 351.15 343.952C350.473 342.295 349.493 340.837 348.21 339.577C346.926 338.317 345.386 337.325 343.59 336.602C341.793 335.878 339.775 335.517 337.535 335.517L310.585 335.517Z"/>
<path d="M361.125 335.517L361.125 385.497L399.065 385.497L399.065 376.257L372.115 376.257L372.115 364.007L396.335 364.007L396.335 355.467L372.115 355.467L372.115 344.757L398.505 344.757L398.505 335.517L361.125 335.517Z"/>
<path d="M439.805 352.317L450.445 352.317C450.118 349.423 449.325 346.857 448.065 344.617C446.805 342.377 445.206 340.498 443.27 338.982C441.333 337.465 439.14 336.31 436.69 335.517C434.24 334.723 431.638 334.327 428.885 334.327C425.058 334.327 421.616 335.003 418.56 336.357C415.503 337.71 412.925 339.577 410.825 341.957C408.725 344.337 407.115 347.125 405.995 350.322C404.875 353.518 404.315 356.983 404.315 360.717C404.315 364.357 404.875 367.752 405.995 370.902C407.115 374.052 408.725 376.793 410.825 379.127C412.925 381.46 415.503 383.292 418.56 384.622C421.616 385.952 425.058 386.617 428.885 386.617C431.965 386.617 434.788 386.15 437.355 385.217C439.921 384.283 442.161 382.93 444.075 381.157C445.988 379.383 447.528 377.237 448.695 374.717C449.861 372.197 450.585 369.373 450.865 366.247L440.225 366.247C439.805 369.607 438.65 372.313 436.76 374.367C434.87 376.42 432.245 377.447 428.885 377.447C426.411 377.447 424.311 376.968 422.585 376.012C420.858 375.055 419.458 373.783 418.385 372.197C417.311 370.61 416.53 368.825 416.04 366.842C415.55 364.858 415.305 362.817 415.305 360.717C415.305 358.523 415.55 356.4 416.04 354.347C416.53 352.293 417.311 350.462 418.385 348.852C419.458 347.242 420.858 345.958 422.585 345.002C424.311 344.045 426.411 343.567 428.885 343.567C430.238 343.567 431.533 343.788 432.77 344.232C434.006 344.675 435.115 345.293 436.095 346.087C437.075 346.88 437.891 347.802 438.545 348.852C439.198 349.902 439.618 351.057 439.805 352.317Z"/>
<path d="M469.415 344.757L469.415 385.497L480.405 385.497L480.405 344.757L495.385 344.757L495.385 335.517L454.435 335.517L454.435 344.757L469.415 344.757Z"/>
<path d="M531.645 344.757L531.645 385.497L542.635 385.497L542.635 344.757L557.615 344.757L557.615 335.517L516.665 335.517L516.665 344.757L531.645 344.757Z"/>
<path d="M569.515 366.177L576.025 347.837L576.165 347.837L582.465 366.177L569.515 366.177ZM570.565 335.517L551.665 385.497L562.725 385.497L566.645 374.367L585.335 374.367L589.115 385.497L600.525 385.497L581.835 335.517L570.565 335.517Z"/>
<path d="M615.855 358.127L615.855 344.057L627.895 344.057C630.415 344.057 632.305 344.605 633.565 345.702C634.825 346.798 635.455 348.56 635.455 350.987C635.455 353.507 634.825 355.327 633.565 356.447C632.305 357.567 630.415 358.127 627.895 358.127L615.855 358.127ZM604.865 335.517L604.865 385.497L615.855 385.497L615.855 365.967L626.845 365.967C629.598 365.967 631.581 366.573 632.795 367.787C634.008 369 634.801 370.913 635.175 373.527C635.455 375.533 635.665 377.633 635.805 379.827C635.945 382.02 636.318 383.91 636.925 385.497L647.915 385.497C647.401 384.797 647.016 383.945 646.76 382.942C646.503 381.938 646.316 380.877 646.2 379.757C646.083 378.637 646.001 377.54 645.955 376.467C645.908 375.393 645.861 374.46 645.815 373.667C645.721 372.407 645.546 371.147 645.29 369.887C645.033 368.627 644.625 367.472 644.065 366.422C643.505 365.372 642.781 364.462 641.895 363.692C641.008 362.922 639.888 362.35 638.535 361.977L638.535 361.837C641.335 360.717 643.353 359.083 644.59 356.937C645.826 354.79 646.445 352.247 646.445 349.307C646.445 347.393 646.106 345.608 645.43 343.952C644.753 342.295 643.773 340.837 642.49 339.577C641.206 338.317 639.666 337.325 637.87 336.602C636.073 335.878 634.055 335.517 631.815 335.517L604.865 335.517Z"/>
<path d="M691.525 379.827L692.645 385.497L699.645 385.497L699.645 358.477L678.645 358.477L678.645 366.667L689.705 366.667C689.378 370.167 688.223 372.838 686.24 374.682C684.256 376.525 681.445 377.447 677.805 377.447C675.331 377.447 673.231 376.968 671.505 376.012C669.778 375.055 668.378 373.783 667.305 372.197C666.231 370.61 665.45 368.825 664.96 366.842C664.47 364.858 664.225 362.817 664.225 360.717C664.225 358.523 664.47 356.4 664.96 354.347C665.45 352.293 666.231 350.462 667.305 348.852C668.378 347.242 669.778 345.958 671.505 345.002C673.231 344.045 675.331 343.567 677.805 343.567C680.465 343.567 682.728 344.267 684.595 345.667C686.461 347.067 687.721 349.167 688.375 351.967L698.875 351.967C698.595 349.12 697.825 346.6 696.565 344.407C695.305 342.213 693.706 340.37 691.77 338.877C689.833 337.383 687.663 336.252 685.26 335.482C682.856 334.712 680.371 334.327 677.805 334.327C673.978 334.327 670.536 335.003 667.48 336.357C664.423 337.71 661.845 339.577 659.745 341.957C657.645 344.337 656.035 347.125 654.915 350.322C653.795 353.518 653.235 356.983 653.235 360.717C653.235 364.357 653.795 367.752 654.915 370.902C656.035 374.052 657.645 376.793 659.745 379.127C661.845 381.46 664.423 383.292 667.48 384.622C670.536 385.952 673.978 386.617 677.805 386.617C680.231 386.617 682.635 386.115 685.015 385.112C687.395 384.108 689.565 382.347 691.525 379.827Z"/>
<path d="M708.535 335.517L708.535 385.497L746.475 385.497L746.475 376.257L719.525 376.257L719.525 364.007L743.745 364.007L743.745 355.467L719.525 355.467L719.525 344.757L745.915 344.757L745.915 335.517L708.535 335.517Z"/>
<path d="M764.955 344.757L764.955 385.497L775.945 385.497L775.945 344.757L790.925 344.757L790.925 335.517L749.975 335.517L749.975 344.757L764.955 344.757Z"/>
</g>
<g fill="#000000" opacity="1" stroke="none">
<path d="M1561.69 355.747L1561.69 344.057L1571.98 344.057C1572.96 344.057 1573.91 344.138 1574.82 344.302C1575.73 344.465 1576.53 344.757 1577.23 345.177C1577.93 345.597 1578.49 346.18 1578.91 346.927C1579.33 347.673 1579.54 348.63 1579.54 349.797C1579.54 351.897 1578.91 353.413 1577.65 354.347C1576.39 355.28 1574.78 355.747 1572.82 355.747L1561.69 355.747ZM1550.7 335.517L1550.7 385.497L1574.92 385.497C1577.16 385.497 1579.34 385.217 1581.47 384.657C1583.59 384.097 1585.48 383.233 1587.14 382.067C1588.79 380.9 1590.11 379.395 1591.09 377.552C1592.07 375.708 1592.56 373.527 1592.56 371.007C1592.56 367.88 1591.8 365.208 1590.29 362.992C1588.77 360.775 1586.47 359.223 1583.39 358.337C1585.63 357.263 1587.32 355.887 1588.47 354.207C1589.61 352.527 1590.18 350.427 1590.18 347.907C1590.18 345.573 1589.8 343.613 1589.03 342.027C1588.26 340.44 1587.17 339.168 1585.77 338.212C1584.37 337.255 1582.69 336.567 1580.73 336.147C1578.77 335.727 1576.6 335.517 1574.22 335.517L1550.7 335.517ZM1561.69 376.957L1561.69 363.237L1573.66 363.237C1576.04 363.237 1577.96 363.785 1579.4 364.882C1580.85 365.978 1581.57 367.81 1581.57 370.377C1581.57 371.683 1581.35 372.757 1580.91 373.597C1580.46 374.437 1579.87 375.102 1579.12 375.592C1578.38 376.082 1577.51 376.432 1576.53 376.642C1575.55 376.852 1574.53 376.957 1573.45 376.957L1561.69 376.957Z"/>
<path d="M1599.98 335.517L1599.98 385.497L1610.97 385.497L1610.97 335.517L1599.98 335.517Z"/>
<path d="M1629.45 360.717C1629.45 358.523 1629.7 356.4 1630.19 354.347C1630.68 352.293 1631.46 350.462 1632.53 348.852C1633.61 347.242 1635.01 345.958 1636.73 345.002C1638.46 344.045 1640.56 343.567 1643.03 343.567C1645.51 343.567 1647.61 344.045 1649.33 345.002C1651.06 345.958 1652.46 347.242 1653.53 348.852C1654.61 350.462 1655.39 352.293 1655.88 354.347C1656.37 356.4 1656.61 358.523 1656.61 360.717C1656.61 362.817 1656.37 364.858 1655.88 366.842C1655.39 368.825 1654.61 370.61 1653.53 372.197C1652.46 373.783 1651.06 375.055 1649.33 376.012C1647.61 376.968 1645.51 377.447 1643.03 377.447C1640.56 377.447 1638.46 376.968 1636.73 376.012C1635.01 375.055 1633.61 373.783 1632.53 372.197C1631.46 370.61 1630.68 368.825 1630.19 366.842C1629.7 364.858 1629.45 362.817 1629.45 360.717ZM1618.46 360.717C1618.46 364.357 1619.02 367.752 1620.14 370.902C1621.26 374.052 1622.87 376.793 1624.97 379.127C1627.07 381.46 1629.65 383.292 1632.71 384.622C1635.76 385.952 1639.21 386.617 1643.03 386.617C1646.91 386.617 1650.36 385.952 1653.39 384.622C1656.43 383.292 1658.99 381.46 1661.09 379.127C1663.19 376.793 1664.8 374.052 1665.92 370.902C1667.04 367.752 1667.6 364.357 1667.6 360.717C1667.6 356.983 1667.04 353.518 1665.92 350.322C1664.8 347.125 1663.19 344.337 1661.09 341.957C1658.99 339.577 1656.43 337.71 1653.39 336.357C1650.36 335.003 1646.91 334.327 1643.03 334.327C1639.21 334.327 1635.76 335.003 1632.71 336.357C1629.65 337.71 1627.07 339.577 1624.97 341.957C1622.87 344.337 1621.26 347.125 1620.14 350.322C1619.02 353.518 1618.46 356.983 1618.46 360.717Z"/>
<path d="M1675.09 335.517L1675.09 385.497L1685.38 385.497L1685.38 350.427L1685.52 350.427L1697.77 385.497L1706.24 385.497L1718.49 350.077L1718.63 350.077L1718.63 385.497L1728.92 385.497L1728.92 335.517L1713.45 335.517L1702.39 369.887L1702.25 369.887L1690.56 335.517L1675.09 335.517Z"/>
<path d="M1751.18 366.177L1757.69 347.837L1757.83 347.837L1764.13 366.177L1751.18 366.177ZM1752.23 335.517L1733.33 385.497L1744.39 385.497L1748.31 374.367L1767 374.367L1770.78 385.497L1782.19 385.497L1763.5 335.517L1752.23 335.517Z"/>
<path d="M1797.52 358.127L1797.52 344.057L1809.56 344.057C1812.08 344.057 1813.97 344.605 1815.23 345.702C1816.49 346.798 1817.12 348.56 1817.12 350.987C1817.12 353.507 1816.49 355.327 1815.23 356.447C1813.97 357.567 1812.08 358.127 1809.56 358.127L1797.52 358.127ZM1786.53 335.517L1786.53 385.497L1797.52 385.497L1797.52 365.967L1808.51 365.967C1811.27 365.967 1813.25 366.573 1814.46 367.787C1815.68 369 1816.47 370.913 1816.84 373.527C1817.12 375.533 1817.33 377.633 1817.47 379.827C1817.61 382.02 1817.99 383.91 1818.59 385.497L1829.58 385.497C1829.07 384.797 1828.68 383.945 1828.43 382.942C1828.17 381.938 1827.98 380.877 1827.87 379.757C1827.75 378.637 1827.67 377.54 1827.62 376.467C1827.58 375.393 1827.53 374.46 1827.48 373.667C1827.39 372.407 1827.21 371.147 1826.96 369.887C1826.7 368.627 1826.29 367.472 1825.73 366.422C1825.17 365.372 1824.45 364.462 1823.56 363.692C1822.68 362.922 1821.56 362.35 1820.2 361.977L1820.2 361.837C1823 360.717 1825.02 359.083 1826.26 356.937C1827.49 354.79 1828.11 352.247 1828.11 349.307C1828.11 347.393 1827.77 345.608 1827.1 343.952C1826.42 342.295 1825.44 340.837 1824.16 339.577C1822.87 338.317 1821.33 337.325 1819.54 336.602C1817.74 335.878 1815.72 335.517 1813.48 335.517L1786.53 335.517Z"/>
<path d="M1837.07 335.517L1837.07 385.497L1848.06 385.497L1848.06 369.397L1854.36 363.027L1869.41 385.497L1883.2 385.497L1861.78 355.257L1881.31 335.517L1867.59 335.517L1848.06 356.237L1848.06 335.517L1837.07 335.517Z"/>
<path d="M1887.61 335.517L1887.61 385.497L1925.55 385.497L1925.55 376.257L1898.6 376.257L1898.6 364.007L1922.82 364.007L1922.82 355.467L1898.6 355.467L1898.6 344.757L1924.99 344.757L1924.99 335.517L1887.61 335.517Z"/>
<path d="M1943.96 358.127L1943.96 344.057L1956 344.057C1958.52 344.057 1960.41 344.605 1961.67 345.702C1962.93 346.798 1963.56 348.56 1963.56 350.987C1963.56 353.507 1962.93 355.327 1961.67 356.447C1960.41 357.567 1958.52 358.127 1956 358.127L1943.96 358.127ZM1932.97 335.517L1932.97 385.497L1943.96 385.497L1943.96 365.967L1954.95 365.967C1957.71 365.967 1959.69 366.573 1960.9 367.787C1962.12 369 1962.91 370.913 1963.28 373.527C1963.56 375.533 1963.77 377.633 1963.91 379.827C1964.05 382.02 1964.43 383.91 1965.03 385.497L1976.02 385.497C1975.51 384.797 1975.12 383.945 1974.87 382.942C1974.61 381.938 1974.42 380.877 1974.31 379.757C1974.19 378.637 1974.11 377.54 1974.06 376.467C1974.02 375.393 1973.97 374.46 1973.92 373.667C1973.83 372.407 1973.65 371.147 1973.4 369.887C1973.14 368.627 1972.73 367.472 1972.17 366.422C1971.61 365.372 1970.89 364.462 1970 363.692C1969.12 362.922 1968 362.35 1966.64 361.977L1966.64 361.837C1969.44 360.717 1971.46 359.083 1972.7 356.937C1973.93 354.79 1974.55 352.247 1974.55 349.307C1974.55 347.393 1974.21 345.608 1973.54 343.952C1972.86 342.295 1971.88 340.837 1970.6 339.577C1969.31 338.317 1967.77 337.325 1965.98 336.602C1964.18 335.878 1962.16 335.517 1959.92 335.517L1932.97 335.517Z"/>
</g>
<g opacity="1">
<g opacity="1">
<g opacity="1">
<path d="M5348.41 50.073L5458.66 50.073C5483.01 50.073 5502.76 69.8172 5502.76 94.173L5502.76 204.423C5502.76 228.779 5483.01 248.523 5458.66 248.523L5348.41 248.523C5324.05 248.523 5304.31 228.779 5304.31 204.423L5304.31 94.173C5304.31 69.8172 5324.05 50.073 5348.41 50.073Z" fill="none" opacity="1" stroke="#0000ff" stroke-linecap="butt" stroke-linejoin="miter" stroke-width="28.35"/>
<g opacity="1">
<path d="M5356.85 98.5642L5403.43 98.5642C5412.61 98.5642 5420.03 99.8101 5425.68 102.302C5431.33 104.793 5436.01 108.37 5439.7 113.03C5443.39 117.69 5446.06 123.112 5447.73 129.295C5449.39 135.478 5450.22 142.031 5450.22 148.952C5450.22 159.795 5448.98 168.205 5446.51 174.18C5444.05 180.156 5440.62 185.162 5436.24 189.2C5431.85 193.237 5427.15 195.925 5422.12 197.263C5415.24 199.109 5409.01 200.032 5403.43 200.032L5356.85 200.032L5356.85 98.5642ZM5388.2 121.543L5388.2 176.984L5395.88 176.984C5402.44 176.984 5407.1 176.257 5409.87 174.803C5412.63 173.35 5414.8 170.812 5416.37 167.19C5417.94 163.568 5418.72 157.696 5418.72 149.575C5418.72 138.824 5416.97 131.464 5413.46 127.496C5409.96 123.527 5404.14 121.543 5396.02 121.543L5388.2 121.543Z" fill="#0000ff" fill-rule="nonzero" opacity="1" stroke="#0000ff" stroke-linecap="butt" stroke-linejoin="miter" stroke-width="2.268"/>
</g>
</g>
<g opacity="1">
<path d="M4363.53 149.298C4363.53 94.4975 4407.96 50.073 4462.76 50.073C4517.56 50.073 4561.98 94.4975 4561.98 149.298C4561.98 204.098 4517.56 248.523 4462.76 248.523C4407.96 248.523 4363.53 204.098 4363.53 149.298Z" fill="none" opacity="1" stroke="#ff0000" stroke-linecap="butt" stroke-linejoin="miter" stroke-width="28.35"/>
<g opacity="1">
<path d="M4465.98 163.279L4465.98 142.169L4514.43 142.169L4514.43 185.428C4505.15 191.749 4496.95 196.052 4489.82 198.336C4482.69 200.62 4474.24 201.762 4464.46 201.762C4452.41 201.762 4442.6 199.709 4435 195.602C4427.41 191.495 4421.53 185.381 4417.36 177.26C4413.18 169.139 4411.09 159.818 4411.09 149.298C4411.09 138.224 4413.38 128.592 4417.94 120.401C4422.51 112.211 4429.2 105.993 4438.02 101.748C4444.89 98.4719 4454.14 96.8339 4465.77 96.8339C4476.98 96.8339 4485.37 97.849 4490.93 99.8793C4496.49 101.91 4501.1 105.059 4504.77 109.327C4508.44 113.595 4511.2 119.005 4513.04 125.558L4482.8 130.956C4481.55 127.126 4479.44 124.196 4476.46 122.166C4473.49 120.136 4469.69 119.121 4465.08 119.121C4458.2 119.121 4452.72 121.509 4448.64 126.284C4444.56 131.06 4442.51 138.616 4442.51 148.952C4442.51 159.934 4444.58 167.778 4448.71 172.485C4452.84 177.191 4458.6 179.544 4465.98 179.544C4469.48 179.544 4472.83 179.037 4476.01 178.022C4479.2 177.007 4482.84 175.276 4486.95 172.831L4486.95 163.279L4465.98 163.279Z" fill="#ff0000" fill-rule="nonzero" opacity="1" stroke="#ff0000" stroke-linecap="butt" stroke-linejoin="miter" stroke-width="2.268"/>
</g>
</g>
<g opacity="1">
<path d="M4838.88 149.298C4838.88 94.4975 4883.31 50.073 4938.11 50.073C4992.91 50.073 5037.33 94.4975 5037.33 149.298C5037.33 204.098 4992.91 248.523 4938.11 248.523C4883.31 248.523 4838.88 204.098 4838.88 149.298Z" fill="none" opacity="1" stroke="#808080" stroke-linecap="butt" stroke-linejoin="miter" stroke-width="28.35"/>
<g opacity="1">
<path d="M4890.45 98.5642L4985.76 98.5642L4985.76 123.62L4953.78 123.62L4953.78 200.032L4922.43 200.032L4922.43 123.62L4890.45 123.62L4890.45 98.5642Z" fill="#808080" fill-rule="nonzero" opacity="1" stroke="#808080" stroke-linecap="butt" stroke-linejoin="miter" stroke-width="2.268"/>
</g>
</g>
<g opacity="1">
<path d="M5120.03 149.298L5290.13 149.298" fill="none" opacity="1" stroke="#0000ff" stroke-linecap="butt" stroke-linejoin="miter" stroke-width="28.35"/>
<path d="M5105.86 92.598L5105.86 205.998" fill="none" opacity="1" stroke="#0000ff" stroke-linecap="butt" stroke-linejoin="miter" stroke-width="28.35"/>
</g>
<g opacity="1">
<path d="M4561.98 149.298L4717.91 149.298" fill="none" opacity="1" stroke="#ff0000" stroke-linecap="butt" stroke-linejoin="miter" stroke-width="28.35"/>
<path d="M4695.23 106.773L4780.28 149.298L4695.23 191.823" fill="#ff0000" fill-rule="nonzero" opacity="1" stroke="none"/>
</g>
</g>
<g fill="#000000" opacity="1" stroke="none">
<path d="M4614.72 359.037L4614.72 344.057L4623.26 344.057C4624.52 344.057 4625.73 344.15 4626.9 344.337C4628.06 344.523 4629.09 344.885 4629.98 345.422C4630.86 345.958 4631.57 346.717 4632.11 347.697C4632.65 348.677 4632.92 349.96 4632.92 351.547C4632.92 353.133 4632.65 354.417 4632.11 355.397C4631.57 356.377 4630.86 357.135 4629.98 357.672C4629.09 358.208 4628.06 358.57 4626.9 358.757C4625.73 358.943 4624.52 359.037 4623.26 359.037L4614.72 359.037ZM4603.73 335.517L4603.73 385.497L4614.72 385.497L4614.72 367.577L4626.27 367.577C4629.39 367.577 4632.05 367.122 4634.25 366.212C4636.44 365.302 4638.22 364.1 4639.6 362.607C4640.98 361.113 4641.98 359.398 4642.61 357.462C4643.24 355.525 4643.56 353.553 4643.56 351.547C4643.56 349.493 4643.24 347.51 4642.61 345.597C4641.98 343.683 4640.98 341.98 4639.6 340.487C4638.22 338.993 4636.44 337.792 4634.25 336.882C4632.05 335.972 4629.39 335.517 4626.27 335.517L4603.73 335.517Z"/>
<path d="M4657.84 366.177L4664.35 347.837L4664.49 347.837L4670.79 366.177L4657.84 366.177ZM4658.89 335.517L4639.99 385.497L4651.05 385.497L4654.97 374.367L4673.66 374.367L4677.44 385.497L4688.85 385.497L4670.16 335.517L4658.89 335.517Z"/>
<path d="M4697.81 344.757L4697.81 385.497L4708.8 385.497L4708.8 344.757L4723.78 344.757L4723.78 335.517L4682.83 335.517L4682.83 344.757L4697.81 344.757Z"/>
<path d="M4729.52 335.517L4729.52 385.497L4740.51 385.497L4740.51 363.937L4760.74 363.937L4760.74 385.497L4771.73 385.497L4771.73 335.517L4760.74 335.517L4760.74 354.697L4740.51 354.697L4740.51 335.517L4729.52 335.517Z"/>
<path d="M4828.99 385.497L4842.43 335.517L4831.65 335.517L4823.46 369.957L4823.32 369.957L4814.78 335.517L4804.49 335.517L4795.81 369.537L4795.67 369.537L4787.76 335.517L4776.77 335.517L4790 385.497L4801.13 385.497L4809.46 351.477L4809.6 351.477L4818.07 385.497L4828.99 385.497Z"/>
<path d="M4858.39 366.177L4864.9 347.837L4865.04 347.837L4871.34 366.177L4858.39 366.177ZM4859.44 335.517L4840.54 385.497L4851.6 385.497L4855.52 374.367L4874.21 374.367L4877.99 385.497L4889.4 385.497L4870.71 335.517L4859.44 335.517Z"/>
<path d="M4901.51 366.037L4901.51 385.497L4912.5 385.497L4912.5 366.317L4931.05 335.517L4918.8 335.517L4907.18 355.257L4895.49 335.517L4883.17 335.517L4901.51 366.037Z"/>
<path d="M4954.71 335.517L4954.71 385.497L4965 385.497L4965 350.427L4965.14 350.427L4977.39 385.497L4985.86 385.497L4998.11 350.077L4998.25 350.077L4998.25 385.497L5008.54 385.497L5008.54 335.517L4993.07 335.517L4982.01 369.887L4981.87 369.887L4970.18 335.517L4954.71 335.517Z"/>
<path d="M5018.2 335.517L5018.2 385.497L5056.14 385.497L5056.14 376.257L5029.19 376.257L5029.19 364.007L5053.41 364.007L5053.41 355.467L5029.19 355.467L5029.19 344.757L5055.58 344.757L5055.58 335.517L5018.2 335.517Z"/>
<path d="M5063.56 335.517L5063.56 385.497L5073.85 385.497L5073.85 350.427L5073.99 350.427L5086.24 385.497L5094.71 385.497L5106.96 350.077L5107.1 350.077L5107.1 385.497L5117.39 385.497L5117.39 335.517L5101.92 335.517L5090.86 369.887L5090.72 369.887L5079.03 335.517L5063.56 335.517Z"/>
<path d="M5138.04 355.747L5138.04 344.057L5148.33 344.057C5149.31 344.057 5150.25 344.138 5151.16 344.302C5152.07 344.465 5152.88 344.757 5153.58 345.177C5154.28 345.597 5154.84 346.18 5155.26 346.927C5155.68 347.673 5155.89 348.63 5155.89 349.797C5155.89 351.897 5155.26 353.413 5154 354.347C5152.74 355.28 5151.13 355.747 5149.17 355.747L5138.04 355.747ZM5127.05 335.517L5127.05 385.497L5151.27 385.497C5153.51 385.497 5155.69 385.217 5157.81 384.657C5159.93 384.097 5161.82 383.233 5163.48 382.067C5165.14 380.9 5166.46 379.395 5167.44 377.552C5168.42 375.708 5168.91 373.527 5168.91 371.007C5168.91 367.88 5168.15 365.208 5166.63 362.992C5165.11 360.775 5162.82 359.223 5159.74 358.337C5161.98 357.263 5163.67 355.887 5164.81 354.207C5165.95 352.527 5166.53 350.427 5166.53 347.907C5166.53 345.573 5166.14 343.613 5165.37 342.027C5164.6 340.44 5163.52 339.168 5162.12 338.212C5160.72 337.255 5159.04 336.567 5157.08 336.147C5155.12 335.727 5152.95 335.517 5150.57 335.517L5127.05 335.517ZM5138.04 376.957L5138.04 363.237L5150.01 363.237C5152.39 363.237 5154.3 363.785 5155.75 364.882C5157.19 365.978 5157.92 367.81 5157.92 370.377C5157.92 371.683 5157.69 372.757 5157.25 373.597C5156.81 374.437 5156.21 375.102 5155.47 375.592C5154.72 376.082 5153.86 376.432 5152.88 376.642C5151.9 376.852 5150.87 376.957 5149.8 376.957L5138.04 376.957Z"/>
<path d="M5176.33 335.517L5176.33 385.497L5214.27 385.497L5214.27 376.257L5187.32 376.257L5187.32 364.007L5211.54 364.007L5211.54 355.467L5187.32 355.467L5187.32 344.757L5213.71 344.757L5213.71 335.517L5176.33 335.517Z"/>
<path d="M5232.68 358.127L5232.68 344.057L5244.72 344.057C5247.24 344.057 5249.13 344.605 5250.39 345.702C5251.65 346.798 5252.28 348.56 5252.28 350.987C5252.28 353.507 5251.65 355.327 5250.39 356.447C5249.13 357.567 5247.24 358.127 5244.72 358.127L5232.68 358.127ZM5221.69 335.517L5221.69 385.497L5232.68 385.497L5232.68 365.967L5243.67 365.967C5246.42 365.967 5248.4 366.573 5249.62 367.787C5250.83 369 5251.62 370.913 5252 373.527C5252.28 375.533 5252.49 377.633 5252.63 379.827C5252.77 382.02 5253.14 383.91 5253.75 385.497L5264.74 385.497C5264.22 384.797 5263.84 383.945 5263.58 382.942C5263.32 381.938 5263.14 380.877 5263.02 379.757C5262.9 378.637 5262.82 377.54 5262.78 376.467C5262.73 375.393 5262.68 374.46 5262.64 373.667C5262.54 372.407 5262.37 371.147 5262.11 369.887C5261.85 368.627 5261.45 367.472 5260.89 366.422C5260.33 365.372 5259.6 364.462 5258.72 363.692C5257.83 362.922 5256.71 362.35 5255.36 361.977L5255.36 361.837C5258.16 360.717 5260.17 359.083 5261.41 356.937C5262.65 354.79 5263.27 352.247 5263.27 349.307C5263.27 347.393 5262.93 345.608 5262.25 343.952C5261.57 342.295 5260.59 340.837 5259.31 339.577C5258.03 338.317 5256.49 337.325 5254.69 336.602C5252.89 335.878 5250.88 335.517 5248.64 335.517L5221.69 335.517Z"/>
</g>
</g>
<g opacity="1">
<g opacity="1">
<g opacity="1">
<path d="M3650.02 50.073L3760.27 50.073C3784.62 50.073 3804.37 69.8172 3804.37 94.173L3804.37 204.423C3804.37 228.779 3784.62 248.523 3760.27 248.523L3650.02 248.523C3625.66 248.523 3605.92 228.779 3605.92 204.423L3605.92 94.173C3605.92 69.8172 3625.66 50.073 3650.02 50.073Z" fill="none" opacity="1" stroke="#0000ff" stroke-linecap="butt" stroke-linejoin="miter" stroke-width="28.35"/>
<g opacity="1">
<path d="M3658.46 98.5642L3705.04 98.5642C3714.22 98.5642 3721.64 99.8101 3727.29 102.302C3732.94 104.793 3737.61 108.37 3741.3 113.03C3745 117.69 3747.67 123.112 3749.33 129.295C3750.99 135.478 3751.83 142.031 3751.83 148.952C3751.83 159.795 3750.59 168.205 3748.12 174.18C3745.65 180.156 3742.23 185.162 3737.84 189.2C3733.46 193.237 3728.75 195.925 3723.72 197.263C3716.85 199.109 3710.62 200.032 3705.04 200.032L3658.46 200.032L3658.46 98.5642ZM3689.81 121.543L3689.81 176.984L3697.49 176.984C3704.04 176.984 3708.71 176.257 3711.47 174.803C3714.24 173.35 3716.41 170.812 3717.98 167.19C3719.55 163.568 3720.33 157.696 3720.33 149.575C3720.33 138.824 3718.58 131.464 3715.07 127.496C3711.57 123.527 3705.75 121.543 3697.63 121.543L3689.81 121.543Z" fill="#0000ff" fill-rule="nonzero" opacity="1" stroke="#0000ff" stroke-linecap="butt" stroke-linejoin="miter" stroke-width="2.268"/>
</g>
</g>
<g opacity="1">
<path d="M3140.49 149.298C3140.49 94.4975 3184.91 50.073 3239.72 50.073C3294.52 50.073 3338.94 94.4975 3338.94 149.298C3338.94 204.098 3294.52 248.523 3239.72 248.523C3184.91 248.523 3140.49 204.098 3140.49 149.298Z" fill="none" opacity="1" stroke="#808080" stroke-linecap="butt" stroke-linejoin="miter" stroke-width="28.35"/>
<g opacity="1">
<path d="M3192.06 98.5642L3287.37 98.5642L3287.37 123.62L3255.39 123.62L3255.39 200.032L3224.04 200.032L3224.04 123.62L3192.06 123.62L3192.06 98.5642Z" fill="#808080" fill-rule="nonzero" opacity="1" stroke="#808080" stroke-linecap="butt" stroke-linejoin="miter" stroke-width="2.268"/>
</g>
</g>
<g opacity="1">
<path d="M2666.75 149.298C2666.75 94.4975 2711.17 50.073 2765.97 50.073C2820.77 50.073 2865.2 94.4975 2865.2 149.298C2865.2 204.098 2820.77 248.523 2765.97 248.523C2711.17 248.523 2666.75 204.098 2666.75 149.298Z" fill="none" opacity="1" stroke="#ff0000" stroke-linecap="butt" stroke-linejoin="miter" stroke-width="28.35"/>
<g opacity="1">
<path d="M2769.19 163.279L2769.19 142.169L2817.64 142.169L2817.64 185.428C2808.37 191.749 2800.17 196.052 2793.04 198.336C2785.91 200.62 2777.45 201.762 2767.67 201.762C2755.63 201.762 2745.81 199.709 2738.22 195.602C2730.63 191.495 2724.75 185.381 2720.57 177.26C2716.39 169.139 2714.31 159.818 2714.31 149.298C2714.31 138.224 2716.59 128.592 2721.16 120.401C2725.73 112.211 2732.42 105.993 2741.23 101.748C2748.1 98.4719 2757.36 96.8339 2768.98 96.8339C2780.2 96.8339 2788.58 97.849 2794.14 99.8793C2799.7 101.91 2804.32 105.059 2807.99 109.327C2811.65 113.595 2814.41 119.005 2816.26 125.558L2786.01 130.956C2784.77 127.126 2782.65 124.196 2779.68 122.166C2776.7 120.136 2772.91 119.121 2768.29 119.121C2761.42 119.121 2755.94 121.509 2751.85 126.284C2747.77 131.06 2745.73 138.616 2745.73 148.952C2745.73 159.934 2747.79 167.778 2751.92 172.485C2756.05 177.191 2761.81 179.544 2769.19 179.544C2772.7 179.544 2776.04 179.037 2779.23 178.022C2782.41 177.007 2786.06 175.276 2790.16 172.831L2790.16 163.279L2769.19 163.279Z" fill="#ff0000" fill-rule="nonzero" opacity="1" stroke="#ff0000" stroke-linecap="butt" stroke-linejoin="miter" stroke-width="2.268"/>
</g>
</g>
<g opacity="1">
<path d="M3421.64 149.298L3591.74 149.298" fill="none" opacity="1" stroke="#0000ff" stroke-linecap="butt" stroke-linejoin="miter" stroke-width="28.35"/>
<path d="M3407.47 92.598L3407.47 205.998" fill="none" opacity="1" stroke="#0000ff" stroke-linecap="butt" stroke-linejoin="miter" stroke-width="28.35"/>
</g>
<g opacity="1">
<path d="M2897.66 137.958L2920.34 137.958L2920.34 160.638L2897.66 160.638L2897.66 137.958Z" fill="#808080" fill-rule="nonzero" opacity="1" stroke="none"/>
<path d="M3085.35 137.958L3108.03 137.958L3108.03 160.638L3085.35 160.638L3085.35 137.958Z" fill="#808080" fill-rule="nonzero" opacity="1" stroke="none"/>
<path d="M3047.81 137.958L3070.49 137.958L3070.49 160.638L3047.81 160.638L3047.81 137.958Z" fill="#808080" fill-rule="nonzero" opacity="1" stroke="none"/>
<path d="M3010.27 137.958L3032.95 137.958L3032.95 160.638L3010.27 160.638L3010.27 137.958Z" fill="#808080" fill-rule="nonzero" opacity="1" stroke="none"/>
<path d="M2972.73 137.958L2995.41 137.958L2995.41 160.638L2972.73 160.638L2972.73 137.958Z" fill="#808080" fill-rule="nonzero" opacity="1" stroke="none"/>
<path d="M2935.2 137.958L2957.88 137.958L2957.88 160.638L2935.2 160.638L2935.2 137.958Z" fill="#808080" fill-rule="nonzero" opacity="1" stroke="none"/>
</g>
</g>
<g fill="#000000" opacity="1" stroke="none">
<path d="M2866.87 379.827L2867.99 385.497L2874.99 385.497L2874.99 358.477L2853.99 358.477L2853.99 366.667L2865.05 366.667C2864.72 370.167 2863.57 372.838 2861.58 374.682C2859.6 376.525 2856.79 377.447 2853.15 377.447C2850.67 377.447 2848.57 376.968 2846.85 376.012C2845.12 375.055 2843.72 373.783 2842.65 372.197C2841.57 370.61 2840.79 368.825 2840.3 366.842C2839.81 364.858 2839.57 362.817 2839.57 360.717C2839.57 358.523 2839.81 356.4 2840.3 354.347C2840.79 352.293 2841.57 350.462 2842.65 348.852C2843.72 347.242 2845.12 345.958 2846.85 345.002C2848.57 344.045 2850.67 343.567 2853.15 343.567C2855.81 343.567 2858.07 344.267 2859.94 345.667C2861.8 347.067 2863.06 349.167 2863.72 351.967L2874.22 351.967C2873.94 349.12 2873.17 346.6 2871.91 344.407C2870.65 342.213 2869.05 340.37 2867.11 338.877C2865.18 337.383 2863.01 336.252 2860.6 335.482C2858.2 334.712 2855.71 334.327 2853.15 334.327C2849.32 334.327 2845.88 335.003 2842.82 336.357C2839.77 337.71 2837.19 339.577 2835.09 341.957C2832.99 344.337 2831.38 347.125 2830.26 350.322C2829.14 353.518 2828.58 356.983 2828.58 360.717C2828.58 364.357 2829.14 367.752 2830.26 370.902C2831.38 374.052 2832.99 376.793 2835.09 379.127C2837.19 381.46 2839.77 383.292 2842.82 384.622C2845.88 385.952 2849.32 386.617 2853.15 386.617C2855.57 386.617 2857.98 386.115 2860.36 385.112C2862.74 384.108 2864.91 382.347 2866.87 379.827Z"/>
<path d="M2883.88 335.517L2883.88 385.497L2921.82 385.497L2921.82 376.257L2894.87 376.257L2894.87 364.007L2919.09 364.007L2919.09 355.467L2894.87 355.467L2894.87 344.757L2921.26 344.757L2921.26 335.517L2883.88 335.517Z"/>
<path d="M2929.24 335.517L2929.24 385.497L2939.53 385.497L2939.53 352.037L2939.67 352.037L2960.46 385.497L2971.45 385.497L2971.45 335.517L2961.16 335.517L2961.16 369.047L2961.02 369.047L2940.16 335.517L2929.24 335.517Z"/>
<path d="M2981.11 335.517L2981.11 385.497L3019.05 385.497L3019.05 376.257L2992.1 376.257L2992.1 364.007L3016.32 364.007L3016.32 355.467L2992.1 355.467L2992.1 344.757L3018.49 344.757L3018.49 335.517L2981.11 335.517Z"/>
<path d="M3037.53 344.757L3037.53 385.497L3048.52 385.497L3048.52 344.757L3063.5 344.757L3063.5 335.517L3022.55 335.517L3022.55 344.757L3037.53 344.757Z"/>
<path d="M3069.24 335.517L3069.24 385.497L3080.23 385.497L3080.23 335.517L3069.24 335.517Z"/>
<path d="M3123.21 352.317L3133.85 352.317C3133.52 349.423 3132.73 346.857 3131.47 344.617C3130.21 342.377 3128.61 340.498 3126.67 338.982C3124.74 337.465 3122.54 336.31 3120.09 335.517C3117.64 334.723 3115.04 334.327 3112.29 334.327C3108.46 334.327 3105.02 335.003 3101.96 336.357C3098.91 337.71 3096.33 339.577 3094.23 341.957C3092.13 344.337 3090.52 347.125 3089.4 350.322C3088.28 353.518 3087.72 356.983 3087.72 360.717C3087.72 364.357 3088.28 367.752 3089.4 370.902C3090.52 374.052 3092.13 376.793 3094.23 379.127C3096.33 381.46 3098.91 383.292 3101.96 384.622C3105.02 385.952 3108.46 386.617 3112.29 386.617C3115.37 386.617 3118.19 386.15 3120.76 385.217C3123.32 384.283 3125.56 382.93 3127.48 381.157C3129.39 379.383 3130.93 377.237 3132.1 374.717C3133.26 372.197 3133.99 369.373 3134.27 366.247L3123.63 366.247C3123.21 369.607 3122.05 372.313 3120.16 374.367C3118.27 376.42 3115.65 377.447 3112.29 377.447C3109.81 377.447 3107.71 376.968 3105.99 376.012C3104.26 375.055 3102.86 373.783 3101.79 372.197C3100.71 370.61 3099.93 368.825 3099.44 366.842C3098.95 364.858 3098.71 362.817 3098.71 360.717C3098.71 358.523 3098.95 356.4 3099.44 354.347C3099.93 352.293 3100.71 350.462 3101.79 348.852C3102.86 347.242 3104.26 345.958 3105.99 345.002C3107.71 344.045 3109.81 343.567 3112.29 343.567C3113.64 343.567 3114.94 343.788 3116.17 344.232C3117.41 344.675 3118.52 345.293 3119.5 346.087C3120.48 346.88 3121.29 347.802 3121.95 348.852C3122.6 349.902 3123.02 351.057 3123.21 352.317Z"/>
<path d="M3172.21 376.257L3172.21 344.757L3180.05 344.757C3182.75 344.757 3185.03 345.142 3186.87 345.912C3188.72 346.682 3190.2 347.79 3191.32 349.237C3192.44 350.683 3193.24 352.422 3193.73 354.452C3194.22 356.482 3194.47 358.757 3194.47 361.277C3194.47 364.03 3194.12 366.363 3193.42 368.277C3192.72 370.19 3191.78 371.742 3190.62 372.932C3189.45 374.122 3188.12 374.973 3186.63 375.487C3185.13 376 3183.59 376.257 3182.01 376.257L3172.21 376.257ZM3161.22 335.517L3161.22 385.497L3182.78 385.497C3186.6 385.497 3189.93 384.855 3192.75 383.572C3195.58 382.288 3197.93 380.527 3199.82 378.287C3201.71 376.047 3203.12 373.387 3204.06 370.307C3204.99 367.227 3205.46 363.867 3205.46 360.227C3205.46 356.073 3204.89 352.457 3203.74 349.377C3202.6 346.297 3201.01 343.73 3198.98 341.677C3196.95 339.623 3194.55 338.083 3191.77 337.057C3189 336.03 3186 335.517 3182.78 335.517L3161.22 335.517Z"/>
<path d="M3213.09 335.517L3213.09 385.497L3251.03 385.497L3251.03 376.257L3224.08 376.257L3224.08 364.007L3248.3 364.007L3248.3 355.467L3224.08 355.467L3224.08 344.757L3250.47 344.757L3250.47 335.517L3213.09 335.517Z"/>
<path d="M3269.44 359.037L3269.44 344.057L3277.98 344.057C3279.24 344.057 3280.45 344.15 3281.62 344.337C3282.78 344.523 3283.81 344.885 3284.7 345.422C3285.58 345.958 3286.3 346.717 3286.83 347.697C3287.37 348.677 3287.64 349.96 3287.64 351.547C3287.64 353.133 3287.37 354.417 3286.83 355.397C3286.3 356.377 3285.58 357.135 3284.7 357.672C3283.81 358.208 3282.78 358.57 3281.62 358.757C3280.45 358.943 3279.24 359.037 3277.98 359.037L3269.44 359.037ZM3258.45 335.517L3258.45 385.497L3269.44 385.497L3269.44 367.577L3280.99 367.577C3284.11 367.577 3286.77 367.122 3288.97 366.212C3291.16 365.302 3292.95 364.1 3294.32 362.607C3295.7 361.113 3296.7 359.398 3297.33 357.462C3297.96 355.525 3298.28 353.553 3298.28 351.547C3298.28 349.493 3297.96 347.51 3297.33 345.597C3296.7 343.683 3295.7 341.98 3294.32 340.487C3292.95 338.993 3291.16 337.792 3288.97 336.882C3286.77 335.972 3284.11 335.517 3280.99 335.517L3258.45 335.517Z"/>
<path d="M3305.14 335.517L3305.14 385.497L3343.08 385.497L3343.08 376.257L3316.13 376.257L3316.13 364.007L3340.35 364.007L3340.35 355.467L3316.13 355.467L3316.13 344.757L3342.52 344.757L3342.52 335.517L3305.14 335.517Z"/>
<path d="M3350.5 335.517L3350.5 385.497L3360.79 385.497L3360.79 352.037L3360.93 352.037L3381.72 385.497L3392.71 385.497L3392.71 335.517L3382.42 335.517L3382.42 369.047L3382.28 369.047L3361.42 335.517L3350.5 335.517Z"/>
<path d="M3413.36 376.257L3413.36 344.757L3421.2 344.757C3423.9 344.757 3426.18 345.142 3428.02 345.912C3429.87 346.682 3431.35 347.79 3432.47 349.237C3433.59 350.683 3434.39 352.422 3434.88 354.452C3435.37 356.482 3435.62 358.757 3435.62 361.277C3435.62 364.03 3435.27 366.363 3434.57 368.277C3433.87 370.19 3432.93 371.742 3431.77 372.932C3430.6 374.122 3429.27 374.973 3427.78 375.487C3426.28 376 3424.74 376.257 3423.16 376.257L3413.36 376.257ZM3402.37 335.517L3402.37 385.497L3423.93 385.497C3427.75 385.497 3431.08 384.855 3433.9 383.572C3436.73 382.288 3439.08 380.527 3440.97 378.287C3442.86 376.047 3444.27 373.387 3445.21 370.307C3446.14 367.227 3446.61 363.867 3446.61 360.227C3446.61 356.073 3446.04 352.457 3444.89 349.377C3443.75 346.297 3442.16 343.73 3440.13 341.677C3438.1 339.623 3435.7 338.083 3432.92 337.057C3430.15 336.03 3427.15 335.517 3423.93 335.517L3402.37 335.517Z"/>
<path d="M3454.24 335.517L3454.24 385.497L3492.18 385.497L3492.18 376.257L3465.23 376.257L3465.23 364.007L3489.45 364.007L3489.45 355.467L3465.23 355.467L3465.23 344.757L3491.62 344.757L3491.62 335.517L3454.24 335.517Z"/>
<path d="M3499.6 335.517L3499.6 385.497L3509.89 385.497L3509.89 352.037L3510.03 352.037L3530.82 385.497L3541.81 385.497L3541.81 335.517L3531.52 335.517L3531.52 369.047L3531.38 369.047L3510.52 335.517L3499.6 335.517Z"/>
<path d="M3584.79 352.317L3595.43 352.317C3595.1 349.423 3594.31 346.857 3593.05 344.617C3591.79 342.377 3590.19 340.498 3588.25 338.982C3586.32 337.465 3584.12 336.31 3581.67 335.517C3579.22 334.723 3576.62 334.327 3573.87 334.327C3570.04 334.327 3566.6 335.003 3563.54 336.357C3560.49 337.71 3557.91 339.577 3555.81 341.957C3553.71 344.337 3552.1 347.125 3550.98 350.322C3549.86 353.518 3549.3 356.983 3549.3 360.717C3549.3 364.357 3549.86 367.752 3550.98 370.902C3552.1 374.052 3553.71 376.793 3555.81 379.127C3557.91 381.46 3560.49 383.292 3563.54 384.622C3566.6 385.952 3570.04 386.617 3573.87 386.617C3576.95 386.617 3579.77 386.15 3582.34 385.217C3584.9 384.283 3587.14 382.93 3589.06 381.157C3590.97 379.383 3592.51 377.237 3593.68 374.717C3594.84 372.197 3595.57 369.373 3595.85 366.247L3585.21 366.247C3584.79 369.607 3583.63 372.313 3581.74 374.367C3579.85 376.42 3577.23 377.447 3573.87 377.447C3571.39 377.447 3569.29 376.968 3567.57 376.012C3565.84 375.055 3564.44 373.783 3563.37 372.197C3562.29 370.61 3561.51 368.825 3561.02 366.842C3560.53 364.858 3560.29 362.817 3560.29 360.717C3560.29 358.523 3560.53 356.4 3561.02 354.347C3561.51 352.293 3562.29 350.462 3563.37 348.852C3564.44 347.242 3565.84 345.958 3567.57 345.002C3569.29 344.045 3571.39 343.567 3573.87 343.567C3575.22 343.567 3576.52 343.788 3577.75 344.232C3578.99 344.675 3580.1 345.293 3581.08 346.087C3582.06 346.88 3582.87 347.802 3583.53 348.852C3584.18 349.902 3584.6 351.057 3584.79 352.317Z"/>
<path d="M3616.29 366.037L3616.29 385.497L3627.28 385.497L3627.28 366.317L3645.83 335.517L3633.58 335.517L3621.96 355.257L3610.27 335.517L3597.95 335.517L3616.29 366.037Z"/>
</g>
</g>
</g>
</g>
</svg>
