<?xml version="1.0" encoding="UTF-8" standalone="no"?>
<!DOCTYPE svg PUBLIC "-//W3C//DTD SVG 1.1//EN" "http://www.w3.org/Graphics/SVG/1.1/DTD/svg11.dtd">
<!-- Created with Vectornator (http://vectornator.io/) -->
<svg height="100%" stroke-miterlimit="10" style="fill-rule:nonzero;clip-rule:evenodd;stroke-linecap:round;stroke-linejoin:round;" version="1.1" viewBox="0 0 5670 453.6" width="100%" xml:space="preserve" xmlns="http://www.w3.org/2000/svg" xmlns:vectornator="http://vectornator.io" xmlns:xlink="http://www.w3.org/1999/xlink">
<defs/>
<g id="layer1" vectornator:layerName="layer1">
<g opacity="1">
<g opacity="1">
<g opacity="1">
<path d="M5348.41 50.073L5458.66 50.073C5483.01 50.073 5502.76 69.8172 5502.76 94.173L5502.76 204.423C5502.76 228.779 5483.01 248.523 5458.66 248.523L5348.41 248.523C5324.05 248.523 5304.31 228.779 5304.31 204.423L5304.31 94.173C5304.31 69.8172 5324.05 50.073 5348.41 50.073Z" fill="none" opacity="1" stroke="#0000ff" stroke-linecap="butt" stroke-linejoin="miter" stroke-width="28.35"/>
<g opacity="1">
<path d="M5356.85 98.5642L5403.43 98.5642C5412.61 98.5642 5420.03 99.8101 5425.68 102.302C5431.33 104.793 5436.01 108.37 5439.7 113.03C5443.39 117.69 5446.06 123.112 5447.73 129.295C5449.39 135.478 5450.22 142.031 5450.22 148.952C5450.22 159.795 5448.98 168.205 5446.51 174.18C5444.05 180.156 5440.62 185.162 5436.24 189.2C5431.85 193.237 5427.15 195.925 5422.12 197.263C5415.24 199.109 5409.01 200.032 5403.43 200.032L5356.85 200.032L5356.85 98.5642ZM5388.2 121.543L5388.2 176.984L5395.88 176.984C5402.44 176.984 5407.1 176.257 5409.87 174.803C5412.63 173.35 5414.8 170.812 5416.37 167.19C5417.94 163.568 5418.72 157.696 5418.72 149.575C5418.72 138.824 5416.97 131.464 5413.46 127.496C5409.96 123.527 5404.14 121.543 5396.02 121.543L5388.2 121.543Z" fill="#0000ff" fill-rule="nonzero" opacity="1" stroke="#0000ff" stroke-linecap="butt" stroke-linejoin="miter" stroke-width="2.268"/>
</g>
</g>
<g opacity="1">
<path d="M4838.88 149.298C4838.88 94.4975 4883.31 50.073 4938.11 50.073C4992.91 50.073 5037.33 94.4975 5037.33 149.298C5037.33 204.098 4992.91 248.523 4938.11 248.523C4883.31 248.523 4838.88 204.098 4838.88 149.298Z" fill="none" opacity="1" stroke="#808080" stroke-linecap="butt" stroke-linejoin="miter" stroke-width="28.35"/>
<g opacity="1">
<path d="M4890.45 98.5642L4985.76 98.5642L4985.76 123.62L4953.78 123.62L4953.78 200.032L4922.43 200.032L4922.43 123.62L4890.45 123.62L4890.45 98.5642Z" fill="#808080" fill-rule="nonzero" opacity="1" stroke="#808080" stroke-linecap="butt" stroke-linejoin="miter" stroke-width="2.268"/>
</g>
</g>
<g opacity="1">
<path d="M4365.14 149.298C4365.14 94.4975 4409.56 50.073 4464.37 50.073C4519.17 50.073 4563.59 94.4975 4563.59 149.298C4563.59 204.098 4519.17 248.523 4464.37 248.523C4409.56 248.523 4365.14 204.098 4365.14 149.298Z" fill="none" opacity="1" stroke="#ff0000" stroke-linecap="butt" stroke-linejoin="miter" stroke-width="28.35"/>
<g opacity="1">
<path d="M4467.58 163.279L4467.58 142.169L4516.03 142.169L4516.03 185.428C4506.76 191.749 4498.56 196.052 4491.43 198.336C4484.3 200.62 4475.84 201.762 4466.06 201.762C4454.02 201.762 4444.2 199.709 4436.61 195.602C4429.02 191.495 4423.14 185.381 4418.96 177.26C4414.79 169.139 4412.7 159.818 4412.7 149.298C4412.7 138.224 4414.98 128.592 4419.55 120.401C4424.12 112.211 4430.81 105.993 4439.62 101.748C4446.5 98.4719 4455.75 96.8339 4467.38 96.8339C4478.59 96.8339 4486.98 97.849 4492.54 99.8793C4498.1 101.91 4502.71 105.059 4506.38 109.327C4510.05 113.595 4512.8 119.005 4514.65 125.558L4484.4 130.956C4483.16 127.126 4481.05 124.196 4478.07 122.166C4475.09 120.136 4471.3 119.121 4466.68 119.121C4459.81 119.121 4454.33 121.509 4450.25 126.284C4446.16 131.06 4444.12 138.616 4444.12 148.952C4444.12 159.934 4446.19 167.778 4450.31 172.485C4454.44 177.191 4460.2 179.544 4467.58 179.544C4471.09 179.544 4474.44 179.037 4477.62 178.022C4480.8 177.007 4484.45 175.276 4488.56 172.831L4488.56 163.279L4467.58 163.279Z" fill="#ff0000" fill-rule="nonzero" opacity="1" stroke="#ff0000" stroke-linecap="butt" stroke-linejoin="miter" stroke-width="2.268"/>
</g>
</g>
<g opacity="1">
<path d="M5120.03 149.298L5290.13 149.298" fill="none" opacity="1" stroke="#0000ff" stroke-linecap="butt" stroke-linejoin="miter" stroke-width="28.35"/>
<path d="M5105.86 92.598L5105.86 205.998" fill="none" opacity="1" stroke="#0000ff" stroke-linecap="butt" stroke-linejoin="miter" stroke-width="28.35"/>
</g>
<g opacity="1">
<path d="M4596.05 137.958L4618.73 137.958L4618.73 160.638L4596.05 160.638L4596.05 137.958Z" fill="#808080" fill-rule="nonzero" opacity="1" stroke="none"/>
<path d="M4783.74 137.958L4806.42 137.958L4806.42 160.638L4783.74 160.638L4783.74 137.958Z" fill="#808080" fill-rule="nonzero" opacity="1" stroke="none"/>
<path d="M4746.21 137.958L4768.89 137.958L4768.89 160.638L4746.21 160.638L4746.21 137.958Z" fill="#808080" fill-rule="nonzero" opacity="1" stroke="none"/>
<path d="M4708.67 137.958L4731.35 137.958L4731.35 160.638L4708.67 160.638L4708.67 137.958Z" fill="#808080" fill-rule="nonzero" opacity="1" stroke="none"/>
<path d="M4671.13 137.958L4693.81 137.958L4693.81 160.638L4671.13 160.638L4671.13 137.958Z" fill="#808080" fill-rule="nonzero" opacity="1" stroke="none"/>
<path d="M4633.59 137.958L4656.27 137.958L4656.27 160.638L4633.59 160.638L4633.59 137.958Z" fill="#808080" fill-rule="nonzero" opacity="1" stroke="none"/>
</g>
</g>
<g opacity="1">
<g opacity="1">
<path d="M3651.62 50.073L3761.87 50.073C3786.23 50.073 3805.97 69.8172 3805.97 94.173L3805.97 204.423C3805.97 228.779 3786.23 248.523 3761.87 248.523L3651.62 248.523C3627.27 248.523 3607.52 228.779 3607.52 204.423L3607.52 94.173C3607.52 69.8172 3627.27 50.073 3651.62 50.073Z" fill="none" opacity="1" stroke="#0000ff" stroke-linecap="butt" stroke-linejoin="miter" stroke-width="28.35"/>
<g opacity="1">
<path d="M3660.06 98.5642L3706.64 98.5642C3715.83 98.5642 3723.24 99.8101 3728.9 102.302C3734.55 104.793 3739.22 108.37 3742.91 113.03C3746.6 117.69 3749.28 123.112 3750.94 129.295C3752.6 135.478 3753.43 142.031 3753.43 148.952C3753.43 159.795 3752.2 168.205 3749.73 174.18C3747.26 180.156 3743.83 185.162 3739.45 189.2C3735.07 193.237 3730.36 195.925 3725.33 197.263C3718.46 199.109 3712.23 200.032 3706.64 200.032L3660.06 200.032L3660.06 98.5642ZM3691.42 121.543L3691.42 176.984L3699.1 176.984C3705.65 176.984 3710.31 176.257 3713.08 174.803C3715.85 173.35 3718.02 170.812 3719.59 167.19C3721.15 163.568 3721.94 157.696 3721.94 149.575C3721.94 138.824 3720.19 131.464 3716.68 127.496C3713.17 123.527 3707.36 121.543 3699.24 121.543L3691.42 121.543Z" fill="#0000ff" fill-rule="nonzero" opacity="1" stroke="#0000ff" stroke-linecap="butt" stroke-linejoin="miter" stroke-width="2.268"/>
</g>
</g>
<g opacity="1">
<path d="M2666.75 149.298C2666.75 94.4975 2711.17 50.073 2765.97 50.073C2820.77 50.073 2865.2 94.4975 2865.2 149.298C2865.2 204.098 2820.77 248.523 2765.97 248.523C2711.17 248.523 2666.75 204.098 2666.75 149.298Z" fill="none" opacity="1" stroke="#ff0000" stroke-linecap="butt" stroke-linejoin="miter" stroke-width="28.35"/>
<g opacity="1">
<path d="M2769.19 163.279L2769.19 142.169L2817.64 142.169L2817.64 185.428C2808.37 191.749 2800.17 196.052 2793.04 198.336C2785.91 200.62 2777.45 201.762 2767.67 201.762C2755.63 201.762 2745.81 199.709 2738.22 195.602C2730.63 191.495 2724.75 185.381 2720.57 177.26C2716.39 169.139 2714.31 159.818 2714.31 149.298C2714.31 138.224 2716.59 128.592 2721.16 120.401C2725.73 112.211 2732.42 105.993 2741.23 101.748C2748.1 98.4719 2757.36 96.8339 2768.98 96.8339C2780.2 96.8339 2788.58 97.849 2794.14 99.8793C2799.7 101.91 2804.32 105.059 2807.99 109.327C2811.65 113.595 2814.41 119.005 2816.26 125.558L2786.01 130.956C2784.77 127.126 2782.65 124.196 2779.68 122.166C2776.7 120.136 2772.91 119.121 2768.29 119.121C2761.42 119.121 2755.94 121.509 2751.85 126.284C2747.77 131.06 2745.73 138.616 2745.73 148.952C2745.73 159.934 2747.79 167.778 2751.92 172.485C2756.05 177.191 2761.81 179.544 2769.19 179.544C2772.7 179.544 2776.04 179.037 2779.23 178.022C2782.41 177.007 2786.06 175.276 2790.16 172.831L2790.16 163.279L2769.19 163.279Z" fill="#ff0000" fill-rule="nonzero" opacity="1" stroke="#ff0000" stroke-linecap="butt" stroke-linejoin="miter" stroke-width="2.268"/>
</g>
</g>
<g opacity="1">
<path d="M3142.1 149.298C3142.1 94.4975 3186.52 50.073 3241.32 50.073C3296.12 50.073 3340.55 94.4975 3340.55 149.298C3340.55 204.098 3296.12 248.523 3241.32 248.523C3186.52 248.523 3142.1 204.098 3142.1 149.298Z" fill="none" opacity="1" stroke="#808080" stroke-linecap="butt" stroke-linejoin="miter" stroke-width="28.35"/>
<g opacity="1">
<path d="M3193.67 98.5642L3288.98 98.5642L3288.98 123.62L3257 123.62L3257 200.032L3225.64 200.032L3225.64 123.62L3193.67 123.62L3193.67 98.5642Z" fill="#808080" fill-rule="nonzero" opacity="1" stroke="#808080" stroke-linecap="butt" stroke-linejoin="miter" stroke-width="2.268"/>
</g>
</g>
<g opacity="1">
<path d="M3423.25 149.298L3593.35 149.298" fill="none" opacity="1" stroke="#0000ff" stroke-linecap="butt" stroke-linejoin="miter" stroke-width="28.35"/>
<path d="M3409.07 92.598L3409.07 205.998" fill="none" opacity="1" stroke="#0000ff" stroke-linecap="butt" stroke-linejoin="miter" stroke-width="28.35"/>
</g>
<g opacity="1">
<path d="M2865.2 149.298L3021.12 149.298" fill="none" opacity="1" stroke="#ff0000" stroke-linecap="butt" stroke-linejoin="miter" stroke-width="28.35"/>
<path d="M2998.44 106.773L3083.49 149.298L2998.44 191.823" fill="#ff0000" fill-rule="nonzero" opacity="1" stroke="none"/>
</g>
</g>
<g opacity="1">
<g opacity="1">
<path d="M1953.22 50.073L2063.47 50.073C2087.83 50.073 2107.57 69.8172 2107.57 94.173L2107.57 204.423C2107.57 228.779 2087.83 248.523 2063.47 248.523L1953.22 248.523C1928.86 248.523 1909.12 228.779 1909.12 204.423L1909.12 94.173C1909.12 69.8172 1928.86 50.073 1953.22 50.073Z" fill="none" opacity="1" stroke="#0000ff" stroke-linecap="butt" stroke-linejoin="miter" stroke-width="28.35"/>
<g opacity="1">
<path d="M1961.66 98.5642L2008.24 98.5642C2017.42 98.5642 2024.84 99.8101 2030.49 102.302C2036.15 104.793 2040.82 108.37 2044.51 113.03C2048.2 117.69 2050.88 123.112 2052.54 129.295C2054.2 135.478 2055.03 142.031 2055.03 148.952C2055.03 159.795 2053.8 168.205 2051.33 174.18C2048.86 180.156 2045.43 185.162 2041.05 189.2C2036.66 193.237 2031.96 195.925 2026.93 197.263C2020.05 199.109 2013.82 200.032 2008.24 200.032L1961.66 200.032L1961.66 98.5642ZM1993.01 121.543L1993.01 176.984L2000.7 176.984C2007.25 176.984 2011.91 176.257 2014.68 174.803C2017.45 173.35 2019.62 170.812 2021.18 167.19C2022.75 163.568 2023.54 157.696 2023.54 149.575C2023.54 138.824 2021.78 131.464 2018.28 127.496C2014.77 123.527 2008.96 121.543 2000.84 121.543L1993.01 121.543Z" fill="#0000ff" fill-rule="nonzero" opacity="1" stroke="#0000ff" stroke-linecap="butt" stroke-linejoin="miter" stroke-width="2.268"/>
</g>
</g>
<g opacity="1">
<path d="M1416.99 149.298C1416.99 94.4975 1461.41 50.073 1516.21 50.073C1571.01 50.073 1615.44 94.4975 1615.44 149.298C1615.44 204.098 1571.01 248.523 1516.21 248.523C1461.41 248.523 1416.99 204.098 1416.99 149.298Z" fill="none" opacity="1" stroke="#ff0000" stroke-linecap="butt" stroke-linejoin="miter" stroke-width="28.35"/>
<g opacity="1">
<path d="M1519.43 163.279L1519.43 142.169L1567.88 142.169L1567.88 185.428C1558.6 191.749 1550.4 196.052 1543.27 198.336C1536.14 200.62 1527.69 201.762 1517.91 201.762C1505.86 201.762 1496.05 199.709 1488.46 195.602C1480.87 191.495 1474.98 185.381 1470.81 177.26C1466.63 169.139 1464.54 159.818 1464.54 149.298C1464.54 138.224 1466.83 128.591 1471.39 120.401C1475.96 112.211 1482.65 105.993 1491.47 101.748C1498.34 98.4719 1507.59 96.8339 1519.22 96.8339C1530.43 96.8339 1538.82 97.849 1544.38 99.8793C1549.94 101.91 1554.56 105.059 1558.22 109.327C1561.89 113.595 1564.65 119.005 1566.49 125.558L1536.25 130.956C1535 127.126 1532.89 124.196 1529.91 122.166C1526.94 120.136 1523.14 119.121 1518.53 119.121C1511.65 119.121 1506.17 121.509 1502.09 126.284C1498.01 131.06 1495.97 138.616 1495.97 148.952C1495.97 159.934 1498.03 167.778 1502.16 172.485C1506.29 177.191 1512.05 179.544 1519.43 179.544C1522.94 179.544 1526.28 179.037 1529.47 178.022C1532.65 177.007 1536.29 175.276 1540.4 172.831L1540.4 163.279L1519.43 163.279Z" fill="#ff0000" fill-rule="nonzero" opacity="1" stroke="#ff0000" stroke-linecap="butt" stroke-linejoin="miter" stroke-width="2.268"/>
</g>
</g>
<g opacity="1">
<path d="M1657.09 137.958L1679.77 137.958L1679.77 160.638L1657.09 160.638L1657.09 137.958Z" fill="#808080" fill-rule="nonzero" opacity="1" stroke="none"/>
<path d="M1844.79 137.958L1867.47 137.958L1867.47 160.638L1844.79 160.638L1844.79 137.958Z" fill="#808080" fill-rule="nonzero" opacity="1" stroke="none"/>
<path d="M1807.25 137.958L1829.93 137.958L1829.93 160.638L1807.25 160.638L1807.25 137.958Z" fill="#808080" fill-rule="nonzero" opacity="1" stroke="none"/>
<path d="M1769.71 137.958L1792.39 137.958L1792.39 160.638L1769.71 160.638L1769.71 137.958Z" fill="#808080" fill-rule="nonzero" opacity="1" stroke="none"/>
<path d="M1732.17 137.958L1754.85 137.958L1754.85 160.638L1732.17 160.638L1732.17 137.958Z" fill="#808080" fill-rule="nonzero" opacity="1" stroke="none"/>
<path d="M1694.63 137.958L1717.31 137.958L1717.31 160.638L1694.63 160.638L1694.63 137.958Z" fill="#808080" fill-rule="nonzero" opacity="1" stroke="none"/>
</g>
</g>
<g opacity="1">
<g opacity="1">
<path d="M167.242 149.298C167.242 94.4975 211.667 50.073 266.467 50.073C321.268 50.073 365.692 94.4975 365.692 149.298C365.692 204.098 321.268 248.523 266.467 248.523C211.667 248.523 167.242 204.098 167.242 149.298Z" fill="none" opacity="1" stroke="#ff0000" stroke-linecap="butt" stroke-linejoin="miter" stroke-width="28.35"/>
<g opacity="1">
<path d="M269.686 163.279L269.686 142.169L318.136 142.169L318.136 185.428C308.861 191.749 300.659 196.052 293.53 198.336C286.401 200.62 277.945 201.762 268.163 201.762C256.12 201.762 246.303 199.709 238.713 195.602C231.122 191.495 225.239 185.381 221.063 177.26C216.887 169.139 214.799 159.818 214.799 149.298C214.799 138.224 217.083 128.591 221.651 120.401C226.22 112.211 232.91 105.993 241.724 101.748C248.599 98.4719 257.85 96.8339 269.478 96.8339C280.691 96.8339 289.077 97.849 294.638 99.8793C300.198 101.91 304.812 105.059 308.48 109.327C312.149 113.595 314.906 119.005 316.751 125.558L286.505 130.956C285.259 127.126 283.148 124.196 280.172 122.166C277.196 120.136 273.4 119.121 268.786 119.121C261.911 119.121 256.431 121.509 252.348 126.284C248.264 131.06 246.222 138.616 246.222 148.952C246.222 159.934 248.287 167.778 252.417 172.485C256.547 177.191 262.303 179.544 269.686 179.544C273.193 179.544 276.538 179.037 279.722 178.022C282.906 177.007 286.551 175.276 290.658 172.831L290.658 163.279L269.686 163.279Z" fill="#ff0000" fill-rule="nonzero" opacity="1" stroke="#ff0000" stroke-linecap="butt" stroke-linejoin="miter" stroke-width="2.268"/>
</g>
</g>
<g opacity="1">
<path d="M475.102 149.298L645.202 149.298" fill="none" opacity="1" stroke="#0000ff" stroke-linecap="butt" stroke-linejoin="miter" stroke-width="28.35"/>
<path d="M460.927 92.598L460.927 205.998" fill="none" opacity="1" stroke="#0000ff" stroke-linecap="butt" stroke-linejoin="miter" stroke-width="28.35"/>
</g>
<g opacity="1">
<path d="M703.477 50.073L813.727 50.073C838.082 50.073 857.827 69.8172 857.827 94.1729L857.827 204.423C857.827 228.779 838.082 248.523 813.727 248.523L703.477 248.523C679.121 248.523 659.377 228.779 659.377 204.423L659.377 94.1729C659.377 69.8172 679.121 50.073 703.477 50.073Z" fill="none" opacity="1" stroke="#0000ff" stroke-linecap="butt" stroke-linejoin="miter" stroke-width="28.35"/>
<g opacity="1">
<path d="M711.917 98.5642L758.498 98.5642C767.68 98.5642 775.098 99.8101 780.75 102.302C786.403 104.793 791.075 108.37 794.766 113.03C798.457 117.69 801.134 123.112 802.795 129.295C804.456 135.478 805.286 142.031 805.286 148.952C805.286 159.795 804.052 168.205 801.584 174.18C799.115 180.156 795.689 185.162 791.305 189.2C786.922 193.237 782.215 195.925 777.186 197.263C770.31 199.109 764.081 200.032 758.498 200.032L711.917 200.032L711.917 98.5642ZM743.271 121.543L743.271 176.984L750.954 176.984C757.506 176.984 762.166 176.257 764.935 174.803C767.703 173.35 769.872 170.812 771.441 167.19C773.01 163.568 773.794 157.696 773.794 149.575C773.794 138.824 772.041 131.464 768.534 127.496C765.027 123.527 759.213 121.543 751.092 121.543L743.271 121.543Z" fill="#0000ff" fill-rule="nonzero" opacity="1" stroke="#0000ff" stroke-linecap="butt" stroke-linejoin="miter" stroke-width="2.268"/>
</g>
</g>
</g>
<g fill="#000000" opacity="1" stroke="none">
<path d="M249.055 376.257L249.055 344.757L256.895 344.757C259.601 344.757 261.876 345.142 263.72 345.912C265.563 346.682 267.045 347.79 268.165 349.237C269.285 350.683 270.09 352.422 270.58 354.452C271.07 356.482 271.315 358.757 271.315 361.277C271.315 364.03 270.965 366.363 270.265 368.277C269.565 370.19 268.631 371.742 267.465 372.932C266.298 374.122 264.968 374.973 263.475 375.487C261.981 376 260.441 376.257 258.855 376.257L249.055 376.257ZM238.065 335.517L238.065 385.497L259.625 385.497C263.451 385.497 266.776 384.855 269.6 383.572C272.423 382.288 274.78 380.527 276.67 378.287C278.56 376.047 279.971 373.387 280.905 370.307C281.838 367.227 282.305 363.867 282.305 360.227C282.305 356.073 281.733 352.457 280.59 349.377C279.446 346.297 277.86 343.73 275.83 341.677C273.8 339.623 271.396 338.083 268.62 337.057C265.843 336.03 262.845 335.517 259.625 335.517L238.065 335.517Z"/>
<path d="M289.935 335.517L289.935 385.497L300.925 385.497L300.925 335.517L289.935 335.517Z"/>
<path d="M321.575 358.127L321.575 344.057L333.615 344.057C336.135 344.057 338.025 344.605 339.285 345.702C340.545 346.798 341.175 348.56 341.175 350.987C341.175 353.507 340.545 355.327 339.285 356.447C338.025 357.567 336.135 358.127 333.615 358.127L321.575 358.127ZM310.585 335.517L310.585 385.497L321.575 385.497L321.575 365.967L332.565 365.967C335.318 365.967 337.301 366.573 338.515 367.787C339.728 369 340.521 370.913 340.895 373.527C341.175 375.533 341.385 377.633 341.525 379.827C341.665 382.02 342.038 383.91 342.645 385.497L353.635 385.497C353.121 384.797 352.736 383.945 352.48 382.942C352.223 381.938 352.036 380.877 351.92 379.757C351.803 378.637 351.721 377.54 351.675 376.467C351.628 375.393 351.581 374.46 351.535 373.667C351.441 372.407 351.266 371.147 351.01 369.887C350.753 368.627 350.345 367.472 349.785 366.422C349.225 365.372 348.501 364.462 347.615 363.692C346.728 362.922 345.608 362.35 344.255 361.977L344.255 361.837C347.055 360.717 349.073 359.083 350.31 356.937C351.546 354.79 352.165 352.247 352.165 349.307C352.165 347.393 351.826 345.608 351.15 343.952C350.473 342.295 349.493 340.837 348.21 339.577C346.926 338.317 345.386 337.325 343.59 336.602C341.793 335.878 339.775 335.517 337.535 335.517L310.585 335.517Z"/>
<path d="M361.125 335.517L361.125 385.497L399.065 385.497L399.065 376.257L372.115 376.257L372.115 364.007L396.335 364.007L396.335 355.467L372.115 355.467L372.115 344.757L398.505 344.757L398.505 335.517L361.125 335.517Z"/>
<path d="M439.805 352.317L450.445 352.317C450.118 349.423 449.325 346.857 448.065 344.617C446.805 342.377 445.206 340.498 443.27 338.982C441.333 337.465 439.14 336.31 436.69 335.517C434.24 334.723 431.638 334.327 428.885 334.327C425.058 334.327 421.616 335.003 418.56 336.357C415.503 337.71 412.925 339.577 410.825 341.957C408.725 344.337 407.115 347.125 405.995 350.322C404.875 353.518 404.315 356.983 404.315 360.717C404.315 364.357 404.875 367.752 405.995 370.902C407.115 374.052 408.725 376.793 410.825 379.127C412.925 381.46 415.503 383.292 418.56 384.622C421.616 385.952 425.058 386.617 428.885 386.617C431.965 386.617 434.788 386.15 437.355 385.217C439.921 384.283 442.161 382.93 444.075 381.157C445.988 379.383 447.528 377.237 448.695 374.717C449.861 372.197 450.585 369.373 450.865 366.247L440.225 366.247C439.805 369.607 438.65 372.313 436.76 374.367C434.87 376.42 432.245 377.447 428.885 377.447C426.411 377.447 424.311 376.968 422.585 376.012C420.858 375.055 419.458 373.783 418.385 372.197C417.311 370.61 416.53 368.825 416.04 366.842C415.55 364.858 415.305 362.817 415.305 360.717C415.305 358.523 415.55 356.4 416.04 354.347C416.53 352.293 417.311 350.462 418.385 348.852C419.458 347.242 420.858 345.958 422.585 345.002C424.311 344.045 426.411 343.567 428.885 343.567C430.238 343.567 431.533 343.788 432.77 344.232C434.006 344.675 435.115 345.293 436.095 346.087C437.075 346.88 437.891 347.802 438.545 348.852C439.198 349.902 439.618 351.057 439.805 352.317Z"/>
<path d="M469.415 344.757L469.415 385.497L480.405 385.497L480.405 344.757L495.385 344.757L495.385 335.517L454.435 335.517L454.435 344.757L469.415 344.757Z"/>
<path d="M531.645 344.757L531.645 385.497L542.635 385.497L542.635 344.757L557.615 344.757L557.615 335.517L516.665 335.517L516.665 344.757L531.645 344.757Z"/>
<path d="M569.515 366.177L576.025 347.837L576.165 347.837L582.465 366.177L569.515 366.177ZM570.565 335.517L551.665 385.497L562.725 385.497L566.645 374.367L585.335 374.367L589.115 385.497L600.525 385.497L581.835 335.517L570.565 335.517Z"/>
<path d="M615.855 358.127L615.855 344.057L627.895 344.057C630.415 344.057 632.305 344.605 633.565 345.702C634.825 346.798 635.455 348.56 635.455 350.987C635.455 353.507 634.825 355.327 633.565 356.447C632.305 357.567 630.415 358.127 627.895 358.127L615.855 358.127ZM604.865 335.517L604.865 385.497L615.855 385.497L615.855 365.967L626.845 365.967C629.598 365.967 631.581 366.573 632.795 367.787C634.008 369 634.801 370.913 635.175 373.527C635.455 375.533 635.665 377.633 635.805 379.827C635.945 382.02 636.318 383.91 636.925 385.497L647.915 385.497C647.401 384.797 647.016 383.945 646.76 382.942C646.503 381.938 646.316 380.877 646.2 379.757C646.083 378.637 646.001 377.54 645.955 376.467C645.908 375.393 645.861 374.46 645.815 373.667C645.721 372.407 645.546 371.147 645.29 369.887C645.033 368.627 644.625 367.472 644.065 366.422C643.505 365.372 642.781 364.462 641.895 363.692C641.008 362.922 639.888 362.35 638.535 361.977L638.535 361.837C641.335 360.717 643.353 359.083 644.59 356.937C645.826 354.79 646.445 352.247 646.445 349.307C646.445 347.393 646.106 345.608 645.43 343.952C644.753 342.295 643.773 340.837 642.49 339.577C641.206 338.317 639.666 337.325 637.87 336.602C636.073 335.878 634.055 335.517 631.815 335.517L604.865 335.517Z"/>
<path d="M691.525 379.827L692.645 385.497L699.645 385.497L699.645 358.477L678.645 358.477L678.645 366.667L689.705 366.667C689.378 370.167 688.223 372.838 686.24 374.682C684.256 376.525 681.445 377.447 677.805 377.447C675.331 377.447 673.231 376.968 671.505 376.012C669.778 375.055 668.378 373.783 667.305 372.197C666.231 370.61 665.45 368.825 664.96 366.842C664.47 364.858 664.225 362.817 664.225 360.717C664.225 358.523 664.47 356.4 664.96 354.347C665.45 352.293 666.231 350.462 667.305 348.852C668.378 347.242 669.778 345.958 671.505 345.002C673.231 344.045 675.331 343.567 677.805 343.567C680.465 343.567 682.728 344.267 684.595 345.667C686.461 347.067 687.721 349.167 688.375 351.967L698.875 351.967C698.595 349.12 697.825 346.6 696.565 344.407C695.305 342.213 693.706 340.37 691.77 338.877C689.833 337.383 687.663 336.252 685.26 335.482C682.856 334.712 680.371 334.327 677.805 334.327C673.978 334.327 670.536 335.003 667.48 336.357C664.423 337.71 661.845 339.577 659.745 341.957C657.645 344.337 656.035 347.125 654.915 350.322C653.795 353.518 653.235 356.983 653.235 360.717C653.235 364.357 653.795 367.752 654.915 370.902C656.035 374.052 657.645 376.793 659.745 379.127C661.845 381.46 664.423 383.292 667.48 384.622C670.536 385.952 673.978 386.617 677.805 386.617C680.231 386.617 682.635 386.115 685.015 385.112C687.395 384.108 689.565 382.347 691.525 379.827Z"/>
<path d="M708.535 335.517L708.535 385.497L746.475 385.497L746.475 376.257L719.525 376.257L719.525 364.007L743.745 364.007L743.745 355.467L719.525 355.467L719.525 344.757L745.915 344.757L745.915 335.517L708.535 335.517Z"/>
<path d="M764.955 344.757L764.955 385.497L775.945 385.497L775.945 344.757L790.925 344.757L790.925 335.517L749.975 335.517L749.975 344.757L764.955 344.757Z"/>
</g>
<g fill="#000000" opacity="1" stroke="none">
<path d="M1561.69 355.747L1561.69 344.057L1571.98 344.057C1572.96 344.057 1573.91 344.138 1574.82 344.302C1575.73 344.465 1576.53 344.757 1577.23 345.177C1577.93 345.597 1578.49 346.18 1578.91 346.927C1579.33 347.673 1579.54 348.63 1579.54 349.797C1579.54 351.897 1578.91 353.413 1577.65 354.347C1576.39 355.28 1574.78 355.747 1572.82 355.747L1561.69 355.747ZM1550.7 335.517L1550.7 385.497L1574.92 385.497C1577.16 385.497 1579.34 385.217 1581.47 384.657C1583.59 384.097 1585.48 383.233 1587.14 382.067C1588.79 380.9 1590.11 379.395 1591.09 377.552C1592.07 375.708 1592.56 373.527 1592.56 371.007C1592.56 367.88 1591.8 365.208 1590.29 362.992C1588.77 360.775 1586.47 359.223 1583.39 358.337C1585.63 357.263 1587.32 355.887 1588.47 354.207C1589.61 352.527 1590.18 350.427 1590.18 347.907C1590.18 345.573 1589.8 343.613 1589.03 342.027C1588.26 340.44 1587.17 339.168 1585.77 338.212C1584.37 337.255 1582.69 336.567 1580.73 336.147C1578.77 335.727 1576.6 335.517 1574.22 335.517L1550.7 335.517ZM1561.69 376.957L1561.69 363.237L1573.66 363.237C1576.04 363.237 1577.96 363.785 1579.4 364.882C1580.85 365.978 1581.57 367.81 1581.57 370.377C1581.57 371.683 1581.35 372.757 1580.91 373.597C1580.46 374.437 1579.87 375.102 1579.12 375.592C1578.38 376.082 1577.51 376.432 1576.53 376.642C1575.55 376.852 1574.53 376.957 1573.45 376.957L1561.69 376.957Z"/>
<path d="M1599.98 335.517L1599.98 385.497L1610.97 385.497L1610.97 335.517L1599.98 335.517Z"/>
<path d="M1629.45 360.717C1629.45 358.523 1629.7 356.4 1630.19 354.347C1630.68 352.293 1631.46 350.462 1632.53 348.852C1633.61 347.242 1635.01 345.958 1636.73 345.002C1638.46 344.045 1640.56 343.567 1643.03 343.567C1645.51 343.567 1647.61 344.045 1649.33 345.002C1651.06 345.958 1652.46 347.242 1653.53 348.852C1654.61 350.462 1655.39 352.293 1655.88 354.347C1656.37 356.4 1656.61 358.523 1656.61 360.717C1656.61 362.817 1656.37 364.858 1655.88 366.842C1655.39 368.825 1654.61 370.61 1653.53 372.197C1652.46 373.783 1651.06 375.055 1649.33 376.012C1647.61 376.968 1645.51 377.447 1643.03 377.447C1640.56 377.447 1638.46 376.968 1636.73 376.012C1635.01 375.055 1633.61 373.783 1632.53 372.197C1631.46 370.61 1630.68 368.825 1630.19 366.842C1629.7 364.858 1629.45 362.817 1629.45 360.717ZM1618.46 360.717C1618.46 364.357 1619.02 367.752 1620.14 370.902C1621.26 374.052 1622.87 376.793 1624.97 379.127C1627.07 381.46 1629.65 383.292 1632.71 384.622C1635.76 385.952 1639.21 386.617 1643.03 386.617C1646.91 386.617 1650.36 385.952 1653.39 384.622C1656.43 383.292 1658.99 381.46 1661.09 379.127C1663.19 376.793 1664.8 374.052 1665.92 370.902C1667.04 367.752 1667.6 364.357 1667.6 360.717C1667.6 356.983 1667.04 353.518 1665.92 350.322C1664.8 347.125 1663.19 344.337 1661.09 341.957C1658.99 339.577 1656.43 337.71 1653.39 336.357C1650.36 335.003 1646.91 334.327 1643.03 334.327C1639.21 334.327 1635.76 335.003 1632.71 336.357C1629.65 337.71 1627.07 339.577 1624.97 341.957C1622.87 344.337 1621.26 347.125 1620.14 350.322C1619.02 353.518 1618.46 356.983 1618.46 360.717Z"/>
<path d="M1675.09 335.517L1675.09 385.497L1685.38 385.497L1685.38 350.427L1685.52 350.427L1697.77 385.497L1706.24 385.497L1718.49 350.077L1718.63 350.077L1718.63 385.497L1728.92 385.497L1728.92 335.517L1713.45 335.517L1702.39 369.887L1702.25 369.887L1690.56 335.517L1675.09 335.517Z"/>
<path d="M1751.18 366.177L1757.69 347.837L1757.83 347.837L1764.13 366.177L1751.18 366.177ZM1752.23 335.517L1733.33 385.497L1744.39 385.497L1748.31 374.367L1767 374.367L1770.78 385.497L1782.19 385.497L1763.5 335.517L1752.23 335.517Z"/>
<path d="M1797.52 358.127L1797.52 344.057L1809.56 344.057C1812.08 344.057 1813.97 344.605 1815.23 345.702C1816.49 346.798 1817.12 348.56 1817.12 350.987C1817.12 353.507 1816.49 355.327 1815.23 356.447C1813.97 357.567 1812.08 358.127 1809.56 358.127L1797.52 358.127ZM1786.53 335.517L1786.53 385.497L1797.52 385.497L1797.52 365.967L1808.51 365.967C1811.27 365.967 1813.25 366.573 1814.46 367.787C1815.68 369 1816.47 370.913 1816.84 373.527C1817.12 375.533 1817.33 377.633 1817.47 379.827C1817.61 382.02 1817.99 383.91 1818.59 385.497L1829.58 385.497C1829.07 384.797 1828.68 383.945 1828.43 382.942C1828.17 381.938 1827.98 380.877 1827.87 379.757C1827.75 378.637 1827.67 377.54 1827.62 376.467C1827.58 375.393 1827.53 374.46 1827.48 373.667C1827.39 372.407 1827.21 371.147 1826.96 369.887C1826.7 368.627 1826.29 367.472 1825.73 366.422C1825.17 365.372 1824.45 364.462 1823.56 363.692C1822.68 362.922 1821.56 362.35 1820.2 361.977L1820.2 361.837C1823 360.717 1825.02 359.083 1826.26 356.937C1827.49 354.79 1828.11 352.247 1828.11 349.307C1828.11 347.393 1827.77 345.608 1827.1 343.952C1826.42 342.295 1825.44 340.837 1824.16 339.577C1822.87 338.317 1821.33 337.325 1819.54 336.602C1817.74 335.878 1815.72 335.517 1813.48 335.517L1786.53 335.517Z"/>
<path d="M1837.07 335.517L1837.07 385.497L1848.06 385.497L1848.06 369.397L1854.36 363.027L1869.41 385.497L1883.2 385.497L1861.78 355.257L1881.31 335.517L1867.59 335.517L1848.06 356.237L1848.06 335.517L1837.07 335.517Z"/>
<path d="M1887.61 335.517L1887.61 385.497L1925.55 385.497L1925.55 376.257L1898.6 376.257L1898.6 364.007L1922.82 364.007L1922.82 355.467L1898.6 355.467L1898.6 344.757L1924.99 344.757L1924.99 335.517L1887.61 335.517Z"/>
<path d="M1943.96 358.127L1943.96 344.057L1956 344.057C1958.52 344.057 1960.41 344.605 1961.67 345.702C1962.93 346.798 1963.56 348.56 1963.56 350.987C1963.56 353.507 1962.93 355.327 1961.67 356.447C1960.41 357.567 1958.52 358.127 1956 358.127L1943.96 358.127ZM1932.97 335.517L1932.97 385.497L1943.96 385.497L1943.96 365.967L1954.95 365.967C1957.71 365.967 1959.69 366.573 1960.9 367.787C1962.12 369 1962.91 370.913 1963.28 373.527C1963.56 375.533 1963.77 377.633 1963.91 379.827C1964.05 382.02 1964.43 383.91 1965.03 385.497L1976.02 385.497C1975.51 384.797 1975.12 383.945 1974.87 382.942C1974.61 381.938 1974.42 380.877 1974.31 379.757C1974.19 378.637 1974.11 377.54 1974.06 376.467C1974.02 375.393 1973.97 374.46 1973.92 373.667C1973.83 372.407 1973.65 371.147 1973.4 369.887C1973.14 368.627 1972.73 367.472 1972.17 366.422C1971.61 365.372 1970.89 364.462 1970 363.692C1969.12 362.922 1968 362.35 1966.64 361.977L1966.64 361.837C1969.44 360.717 1971.46 359.083 1972.7 356.937C1973.93 354.79 1974.55 352.247 1974.55 349.307C1974.55 347.393 1974.21 345.608 1973.54 343.952C1972.86 342.295 1971.88 340.837 1970.6 339.577C1969.31 338.317 1967.77 337.325 1965.98 336.602C1964.18 335.878 1962.16 335.517 1959.92 335.517L1932.97 335.517Z"/>
</g>
<g fill="#000000" opacity="1" stroke="none">
<path d="M2917.93 359.037L2917.93 344.057L2926.47 344.057C2927.73 344.057 2928.94 344.15 2930.11 344.337C2931.28 344.523 2932.3 344.885 2933.19 345.422C2934.08 345.958 2934.79 346.717 2935.33 347.697C2935.86 348.677 2936.13 349.96 2936.13 351.547C2936.13 353.133 2935.86 354.417 2935.33 355.397C2934.79 356.377 2934.08 357.135 2933.19 357.672C2932.3 358.208 2931.28 358.57 2930.11 358.757C2928.94 358.943 2927.73 359.037 2926.47 359.037L2917.93 359.037ZM2906.94 335.517L2906.94 385.497L2917.93 385.497L2917.93 367.577L2929.48 367.577C2932.61 367.577 2935.27 367.122 2937.46 366.212C2939.65 365.302 2941.44 364.1 2942.82 362.607C2944.19 361.113 2945.2 359.398 2945.83 357.462C2946.46 355.525 2946.77 353.553 2946.77 351.547C2946.77 349.493 2946.46 347.51 2945.83 345.597C2945.2 343.683 2944.19 341.98 2942.82 340.487C2941.44 338.993 2939.65 337.792 2937.46 336.882C2935.27 335.972 2932.61 335.517 2929.48 335.517L2906.94 335.517Z"/>
<path d="M2961.05 366.177L2967.56 347.837L2967.7 347.837L2974 366.177L2961.05 366.177ZM2962.1 335.517L2943.2 385.497L2954.26 385.497L2958.18 374.367L2976.87 374.367L2980.65 385.497L2992.06 385.497L2973.37 335.517L2962.1 335.517Z"/>
<path d="M3001.02 344.757L3001.02 385.497L3012.01 385.497L3012.01 344.757L3026.99 344.757L3026.99 335.517L2986.04 335.517L2986.04 344.757L3001.02 344.757Z"/>
<path d="M3032.73 335.517L3032.73 385.497L3043.72 385.497L3043.72 363.937L3063.95 363.937L3063.95 385.497L3074.94 385.497L3074.94 335.517L3063.95 335.517L3063.95 354.697L3043.72 354.697L3043.72 335.517L3032.73 335.517Z"/>
<path d="M3132.2 385.497L3145.64 335.517L3134.86 335.517L3126.67 369.957L3126.53 369.957L3117.99 335.517L3107.7 335.517L3099.02 369.537L3098.88 369.537L3090.97 335.517L3079.98 335.517L3093.21 385.497L3104.34 385.497L3112.67 351.477L3112.81 351.477L3121.28 385.497L3132.2 385.497Z"/>
<path d="M3161.6 366.177L3168.11 347.837L3168.25 347.837L3174.55 366.177L3161.6 366.177ZM3162.65 335.517L3143.75 385.497L3154.81 385.497L3158.73 374.367L3177.42 374.367L3181.2 385.497L3192.61 385.497L3173.92 335.517L3162.65 335.517Z"/>
<path d="M3204.72 366.037L3204.72 385.497L3215.71 385.497L3215.71 366.317L3234.26 335.517L3222.01 335.517L3210.39 355.257L3198.7 335.517L3186.38 335.517L3204.72 366.037Z"/>
<path d="M3257.92 335.517L3257.92 385.497L3268.21 385.497L3268.21 350.427L3268.35 350.427L3280.6 385.497L3289.07 385.497L3301.32 350.077L3301.46 350.077L3301.46 385.497L3311.75 385.497L3311.75 335.517L3296.28 335.517L3285.22 369.887L3285.08 369.887L3273.39 335.517L3257.92 335.517Z"/>
<path d="M3321.41 335.517L3321.41 385.497L3359.35 385.497L3359.35 376.257L3332.4 376.257L3332.4 364.007L3356.62 364.007L3356.62 355.467L3332.4 355.467L3332.4 344.757L3358.79 344.757L3358.79 335.517L3321.41 335.517Z"/>
<path d="M3366.77 335.517L3366.77 385.497L3377.06 385.497L3377.06 350.427L3377.2 350.427L3389.45 385.497L3397.92 385.497L3410.17 350.077L3410.31 350.077L3410.31 385.497L3420.6 385.497L3420.6 335.517L3405.13 335.517L3394.07 369.887L3393.93 369.887L3382.24 335.517L3366.77 335.517Z"/>
<path d="M3441.25 355.747L3441.25 344.057L3451.54 344.057C3452.52 344.057 3453.47 344.138 3454.38 344.302C3455.29 344.465 3456.09 344.757 3456.79 345.177C3457.49 345.597 3458.05 346.18 3458.47 346.927C3458.89 347.673 3459.1 348.63 3459.1 349.797C3459.1 351.897 3458.47 353.413 3457.21 354.347C3455.95 355.28 3454.34 355.747 3452.38 355.747L3441.25 355.747ZM3430.26 335.517L3430.26 385.497L3454.48 385.497C3456.72 385.497 3458.9 385.217 3461.03 384.657C3463.15 384.097 3465.04 383.233 3466.7 382.067C3468.35 380.9 3469.67 379.395 3470.65 377.552C3471.63 375.708 3472.12 373.527 3472.12 371.007C3472.12 367.88 3471.36 365.208 3469.85 362.992C3468.33 360.775 3466.03 359.223 3462.95 358.337C3465.19 357.263 3466.88 355.887 3468.03 354.207C3469.17 352.527 3469.74 350.427 3469.74 347.907C3469.74 345.573 3469.36 343.613 3468.59 342.027C3467.82 340.44 3466.73 339.168 3465.33 338.212C3463.93 337.255 3462.25 336.567 3460.29 336.147C3458.33 335.727 3456.16 335.517 3453.78 335.517L3430.26 335.517ZM3441.25 376.957L3441.25 363.237L3453.22 363.237C3455.6 363.237 3457.51 363.785 3458.96 364.882C3460.41 365.978 3461.13 367.81 3461.13 370.377C3461.13 371.683 3460.91 372.757 3460.47 373.597C3460.02 374.437 3459.43 375.102 3458.68 375.592C3457.93 376.082 3457.07 376.432 3456.09 376.642C3455.11 376.852 3454.08 376.957 3453.01 376.957L3441.25 376.957Z"/>
<path d="M3479.54 335.517L3479.54 385.497L3517.48 385.497L3517.48 376.257L3490.53 376.257L3490.53 364.007L3514.75 364.007L3514.75 355.467L3490.53 355.467L3490.53 344.757L3516.92 344.757L3516.92 335.517L3479.54 335.517Z"/>
<path d="M3535.89 358.127L3535.89 344.057L3547.93 344.057C3550.45 344.057 3552.34 344.605 3553.6 345.702C3554.86 346.798 3555.49 348.56 3555.49 350.987C3555.49 353.507 3554.86 355.327 3553.6 356.447C3552.34 357.567 3550.45 358.127 3547.93 358.127L3535.89 358.127ZM3524.9 335.517L3524.9 385.497L3535.89 385.497L3535.89 365.967L3546.88 365.967C3549.63 365.967 3551.62 366.573 3552.83 367.787C3554.04 369 3554.84 370.913 3555.21 373.527C3555.49 375.533 3555.7 377.633 3555.84 379.827C3555.98 382.02 3556.35 383.91 3556.96 385.497L3567.95 385.497C3567.44 384.797 3567.05 383.945 3566.8 382.942C3566.54 381.938 3566.35 380.877 3566.24 379.757C3566.12 378.637 3566.04 377.54 3565.99 376.467C3565.94 375.393 3565.9 374.46 3565.85 373.667C3565.76 372.407 3565.58 371.147 3565.33 369.887C3565.07 368.627 3564.66 367.472 3564.1 366.422C3563.54 365.372 3562.82 364.462 3561.93 363.692C3561.04 362.922 3559.92 362.35 3558.57 361.977L3558.57 361.837C3561.37 360.717 3563.39 359.083 3564.63 356.937C3565.86 354.79 3566.48 352.247 3566.48 349.307C3566.48 347.393 3566.14 345.608 3565.47 343.952C3564.79 342.295 3563.81 340.837 3562.53 339.577C3561.24 338.317 3559.7 337.325 3557.91 336.602C3556.11 335.878 3554.09 335.517 3551.85 335.517L3524.9 335.517Z"/>
</g>
<g fill="#000000" opacity="1" stroke="none">
<path d="M4565.26 379.827L4566.38 385.497L4573.38 385.497L4573.38 358.477L4552.38 358.477L4552.38 366.667L4563.44 366.667C4563.11 370.167 4561.96 372.838 4559.97 374.682C4557.99 376.525 4555.18 377.447 4551.54 377.447C4549.07 377.447 4546.97 376.968 4545.24 376.012C4543.51 375.055 4542.11 373.783 4541.04 372.197C4539.97 370.61 4539.18 368.825 4538.69 366.842C4538.2 364.858 4537.96 362.817 4537.96 360.717C4537.96 358.523 4538.2 356.4 4538.69 354.347C4539.18 352.293 4539.97 350.462 4541.04 348.852C4542.11 347.242 4543.51 345.958 4545.24 345.002C4546.97 344.045 4549.07 343.567 4551.54 343.567C4554.2 343.567 4556.46 344.267 4558.33 345.667C4560.2 347.067 4561.46 349.167 4562.11 351.967L4572.61 351.967C4572.33 349.12 4571.56 346.6 4570.3 344.407C4569.04 342.213 4567.44 340.37 4565.5 338.877C4563.57 337.383 4561.4 336.252 4558.99 335.482C4556.59 334.712 4554.11 334.327 4551.54 334.327C4547.71 334.327 4544.27 335.003 4541.21 336.357C4538.16 337.71 4535.58 339.577 4533.48 341.957C4531.38 344.337 4529.77 347.125 4528.65 350.322C4527.53 353.518 4526.97 356.983 4526.97 360.717C4526.97 364.357 4527.53 367.752 4528.65 370.902C4529.77 374.052 4531.38 376.793 4533.48 379.127C4535.58 381.46 4538.16 383.292 4541.21 384.622C4544.27 385.952 4547.71 386.617 4551.54 386.617C4553.97 386.617 4556.37 386.115 4558.75 385.112C4561.13 384.108 4563.3 382.347 4565.26 379.827Z"/>
<path d="M4582.27 335.517L4582.27 385.497L4620.21 385.497L4620.21 376.257L4593.26 376.257L4593.26 364.007L4617.48 364.007L4617.48 355.467L4593.26 355.467L4593.26 344.757L4619.65 344.757L4619.65 335.517L4582.27 335.517Z"/>
<path d="M4627.63 335.517L4627.63 385.497L4637.92 385.497L4637.92 352.037L4638.06 352.037L4658.85 385.497L4669.84 385.497L4669.84 335.517L4659.55 335.517L4659.55 369.047L4659.41 369.047L4638.55 335.517L4627.63 335.517Z"/>
<path d="M4679.5 335.517L4679.5 385.497L4717.44 385.497L4717.44 376.257L4690.49 376.257L4690.49 364.007L4714.71 364.007L4714.71 355.467L4690.49 355.467L4690.49 344.757L4716.88 344.757L4716.88 335.517L4679.5 335.517Z"/>
<path d="M4735.92 344.757L4735.92 385.497L4746.91 385.497L4746.91 344.757L4761.89 344.757L4761.89 335.517L4720.94 335.517L4720.94 344.757L4735.92 344.757Z"/>
<path d="M4767.63 335.517L4767.63 385.497L4778.62 385.497L4778.62 335.517L4767.63 335.517Z"/>
<path d="M4821.6 352.317L4832.24 352.317C4831.91 349.423 4831.12 346.857 4829.86 344.617C4828.6 342.377 4827 340.498 4825.06 338.982C4823.13 337.465 4820.93 336.31 4818.48 335.517C4816.03 334.723 4813.43 334.327 4810.68 334.327C4806.85 334.327 4803.41 335.003 4800.35 336.357C4797.3 337.71 4794.72 339.577 4792.62 341.957C4790.52 344.337 4788.91 347.125 4787.79 350.322C4786.67 353.518 4786.11 356.983 4786.11 360.717C4786.11 364.357 4786.67 367.752 4787.79 370.902C4788.91 374.052 4790.52 376.793 4792.62 379.127C4794.72 381.46 4797.3 383.292 4800.35 384.622C4803.41 385.952 4806.85 386.617 4810.68 386.617C4813.76 386.617 4816.58 386.15 4819.15 385.217C4821.72 384.283 4823.96 382.93 4825.87 381.157C4827.78 379.383 4829.32 377.237 4830.49 374.717C4831.66 372.197 4832.38 369.373 4832.66 366.247L4822.02 366.247C4821.6 369.607 4820.44 372.313 4818.55 374.367C4816.66 376.42 4814.04 377.447 4810.68 377.447C4808.21 377.447 4806.11 376.968 4804.38 376.012C4802.65 375.055 4801.25 373.783 4800.18 372.197C4799.11 370.61 4798.32 368.825 4797.83 366.842C4797.34 364.858 4797.1 362.817 4797.1 360.717C4797.1 358.523 4797.34 356.4 4797.83 354.347C4798.32 352.293 4799.11 350.462 4800.18 348.852C4801.25 347.242 4802.65 345.958 4804.38 345.002C4806.11 344.045 4808.21 343.567 4810.68 343.567C4812.03 343.567 4813.33 343.788 4814.56 344.232C4815.8 344.675 4816.91 345.293 4817.89 346.087C4818.87 346.88 4819.69 347.802 4820.34 348.852C4820.99 349.902 4821.41 351.057 4821.6 352.317Z"/>
<path d="M4870.6 376.257L4870.6 344.757L4878.44 344.757C4881.15 344.757 4883.42 345.142 4885.26 345.912C4887.11 346.682 4888.59 347.79 4889.71 349.237C4890.83 350.683 4891.63 352.422 4892.12 354.452C4892.61 356.482 4892.86 358.757 4892.86 361.277C4892.86 364.03 4892.51 366.363 4891.81 368.277C4891.11 370.19 4890.18 371.742 4889.01 372.932C4887.84 374.122 4886.51 374.973 4885.02 375.487C4883.53 376 4881.99 376.257 4880.4 376.257L4870.6 376.257ZM4859.61 335.517L4859.61 385.497L4881.17 385.497C4885 385.497 4888.32 384.855 4891.14 383.572C4893.97 382.288 4896.32 380.527 4898.21 378.287C4900.1 376.047 4901.52 373.387 4902.45 370.307C4903.38 367.227 4903.85 363.867 4903.85 360.227C4903.85 356.073 4903.28 352.457 4902.13 349.377C4900.99 346.297 4899.4 343.73 4897.37 341.677C4895.34 339.623 4892.94 338.083 4890.16 337.057C4887.39 336.03 4884.39 335.517 4881.17 335.517L4859.61 335.517Z"/>
<path d="M4911.48 335.517L4911.48 385.497L4949.42 385.497L4949.42 376.257L4922.47 376.257L4922.47 364.007L4946.69 364.007L4946.69 355.467L4922.47 355.467L4922.47 344.757L4948.86 344.757L4948.86 335.517L4911.48 335.517Z"/>
<path d="M4967.83 359.037L4967.83 344.057L4976.37 344.057C4977.63 344.057 4978.84 344.15 4980.01 344.337C4981.18 344.523 4982.2 344.885 4983.09 345.422C4983.98 345.958 4984.69 346.717 4985.22 347.697C4985.76 348.677 4986.03 349.96 4986.03 351.547C4986.03 353.133 4985.76 354.417 4985.22 355.397C4984.69 356.377 4983.98 357.135 4983.09 357.672C4982.2 358.208 4981.18 358.57 4980.01 358.757C4978.84 358.943 4977.63 359.037 4976.37 359.037L4967.83 359.037ZM4956.84 335.517L4956.84 385.497L4967.83 385.497L4967.83 367.577L4979.38 367.577C4982.51 367.577 4985.17 367.122 4987.36 366.212C4989.55 365.302 4991.34 364.1 4992.71 362.607C4994.09 361.113 4995.09 359.398 4995.72 357.462C4996.35 355.525 4996.67 353.553 4996.67 351.547C4996.67 349.493 4996.35 347.51 4995.72 345.597C4995.09 343.683 4994.09 341.98 4992.71 340.487C4991.34 338.993 4989.55 337.792 4987.36 336.882C4985.17 335.972 4982.51 335.517 4979.38 335.517L4956.84 335.517Z"/>
<path d="M5003.53 335.517L5003.53 385.497L5041.47 385.497L5041.47 376.257L5014.52 376.257L5014.52 364.007L5038.74 364.007L5038.74 355.467L5014.52 355.467L5014.52 344.757L5040.91 344.757L5040.91 335.517L5003.53 335.517Z"/>
<path d="M5048.89 335.517L5048.89 385.497L5059.18 385.497L5059.18 352.037L5059.32 352.037L5080.11 385.497L5091.1 385.497L5091.1 335.517L5080.81 335.517L5080.81 369.047L5080.67 369.047L5059.81 335.517L5048.89 335.517Z"/>
<path d="M5111.75 376.257L5111.75 344.757L5119.59 344.757C5122.3 344.757 5124.57 345.142 5126.41 345.912C5128.26 346.682 5129.74 347.79 5130.86 349.237C5131.98 350.683 5132.78 352.422 5133.27 354.452C5133.76 356.482 5134.01 358.757 5134.01 361.277C5134.01 364.03 5133.66 366.363 5132.96 368.277C5132.26 370.19 5131.33 371.742 5130.16 372.932C5128.99 374.122 5127.66 374.973 5126.17 375.487C5124.68 376 5123.14 376.257 5121.55 376.257L5111.75 376.257ZM5100.76 335.517L5100.76 385.497L5122.32 385.497C5126.15 385.497 5129.47 384.855 5132.29 383.572C5135.12 382.288 5137.47 380.527 5139.36 378.287C5141.25 376.047 5142.67 373.387 5143.6 370.307C5144.53 367.227 5145 363.867 5145 360.227C5145 356.073 5144.43 352.457 5143.28 349.377C5142.14 346.297 5140.55 343.73 5138.52 341.677C5136.49 339.623 5134.09 338.083 5131.31 337.057C5128.54 336.03 5125.54 335.517 5122.32 335.517L5100.76 335.517Z"/>
<path d="M5152.63 335.517L5152.63 385.497L5190.57 385.497L5190.57 376.257L5163.62 376.257L5163.62 364.007L5187.84 364.007L5187.84 355.467L5163.62 355.467L5163.62 344.757L5190.01 344.757L5190.01 335.517L5152.63 335.517Z"/>
<path d="M5197.99 335.517L5197.99 385.497L5208.28 385.497L5208.28 352.037L5208.42 352.037L5229.21 385.497L5240.2 385.497L5240.2 335.517L5229.91 335.517L5229.91 369.047L5229.77 369.047L5208.91 335.517L5197.99 335.517Z"/>
<path d="M5283.18 352.317L5293.82 352.317C5293.49 349.423 5292.7 346.857 5291.44 344.617C5290.18 342.377 5288.58 340.498 5286.64 338.982C5284.71 337.465 5282.51 336.31 5280.06 335.517C5277.61 334.723 5275.01 334.327 5272.26 334.327C5268.43 334.327 5264.99 335.003 5261.93 336.357C5258.88 337.71 5256.3 339.577 5254.2 341.957C5252.1 344.337 5250.49 347.125 5249.37 350.322C5248.25 353.518 5247.69 356.983 5247.69 360.717C5247.69 364.357 5248.25 367.752 5249.37 370.902C5250.49 374.052 5252.1 376.793 5254.2 379.127C5256.3 381.46 5258.88 383.292 5261.93 384.622C5264.99 385.952 5268.43 386.617 5272.26 386.617C5275.34 386.617 5278.16 386.15 5280.73 385.217C5283.3 384.283 5285.54 382.93 5287.45 381.157C5289.36 379.383 5290.9 377.237 5292.07 374.717C5293.24 372.197 5293.96 369.373 5294.24 366.247L5283.6 366.247C5283.18 369.607 5282.02 372.313 5280.13 374.367C5278.24 376.42 5275.62 377.447 5272.26 377.447C5269.79 377.447 5267.69 376.968 5265.96 376.012C5264.23 375.055 5262.83 373.783 5261.76 372.197C5260.69 370.61 5259.9 368.825 5259.41 366.842C5258.92 364.858 5258.68 362.817 5258.68 360.717C5258.68 358.523 5258.92 356.4 5259.41 354.347C5259.9 352.293 5260.69 350.462 5261.76 348.852C5262.83 347.242 5264.23 345.958 5265.96 345.002C5267.69 344.045 5269.79 343.567 5272.26 343.567C5273.61 343.567 5274.91 343.788 5276.14 344.232C5277.38 344.675 5278.49 345.293 5279.47 346.087C5280.45 346.88 5281.27 347.802 5281.92 348.852C5282.57 349.902 5282.99 351.057 5283.18 352.317Z"/>
<path d="M5314.68 366.037L5314.68 385.497L5325.67 385.497L5325.67 366.317L5344.22 335.517L5331.97 335.517L5320.35 355.257L5308.66 335.517L5296.34 335.517L5314.68 366.037Z"/>
</g>
</g>
</g>
</svg>
