<?xml version="1.0" encoding="UTF-8" standalone="no"?>
<!DOCTYPE svg PUBLIC "-//W3C//DTD SVG 1.1//EN" "http://www.w3.org/Graphics/SVG/1.1/DTD/svg11.dtd">
<!-- Created with Vectornator (http://vectornator.io/) -->
<svg height="100%" stroke-miterlimit="10" style="fill-rule:nonzero;clip-rule:evenodd;stroke-linecap:round;stroke-linejoin:round;" version="1.1" viewBox="0 0 3998.17 453.6" width="100%" xml:space="preserve" xmlns="http://www.w3.org/2000/svg" xmlns:vectornator="http://vectornator.io" xmlns:xlink="http://www.w3.org/1999/xlink">
<defs>
<clipPath id="TextBounds">
<rect height="161.595" width="96.7111" x="722.723" y="68.5005"/>
</clipPath>
<clipPath id="TextBounds_2">
<rect height="161.595" width="102.968" x="227.46" y="68.5005"/>
</clipPath>
<clipPath id="TextBounds_3">
<rect height="86.0305" width="561.6" x="244.211" y="317.497"/>
</clipPath>
<clipPath id="TextBounds_4">
<rect height="161.595" width="96.7112" x="1972.47" y="68.5005"/>
</clipPath>
<clipPath id="TextBounds_5">
<rect height="161.595" width="102.968" x="1477.2" y="68.5005"/>
</clipPath>
<clipPath id="TextBounds_6">
<rect height="86.0305" width="435.81" x="1556.85" y="317.497"/>
</clipPath>
<clipPath id="TextBounds_7">
<rect height="161.595" width="90.3988" x="3208.6" y="68.5005"/>
</clipPath>
<clipPath id="TextBounds_8">
<rect height="161.595" width="96.7112" x="3670.87" y="68.5005"/>
</clipPath>
<clipPath id="TextBounds_9">
<rect height="161.595" width="102.968" x="2726.97" y="68.5005"/>
</clipPath>
<clipPath id="TextBounds_10">
<rect height="86.0305" width="671.5" x="2913.09" y="317.497"/>
</clipPath>
</defs>
<g id="layer1" vectornator:layerName="layer1">
<g opacity="1">
<g opacity="1">
<g opacity="1">
<g opacity="1">
<g opacity="1">
<path d="M487.578 149.298L657.678 149.298" fill="none" opacity="1" stroke="#0000ff" stroke-linecap="butt" stroke-linejoin="miter" stroke-width="28.35"/>
<path d="M473.403 92.598L473.403 205.998" fill="none" opacity="1" stroke="#0000ff" stroke-linecap="butt" stroke-linejoin="miter" stroke-width="28.35"/>
</g>
<g opacity="1">
<path d="M715.953 50.073L826.204 50.073C850.559 50.073 870.303 69.8172 870.303 94.1729L870.303 204.423C870.303 228.779 850.559 248.523 826.204 248.523L715.953 248.523C691.598 248.523 671.854 228.779 671.853 204.423L671.853 94.1729C671.854 69.8172 691.598 50.073 715.953 50.073Z" fill="none" opacity="1" stroke="#0000ff" stroke-linecap="butt" stroke-linejoin="miter" stroke-width="28.35"/>
<path clip-path="url(#TextBounds)" d="M735.613 112.066L772.878 112.066C780.224 112.066 786.158 113.063 790.68 115.056C795.202 117.05 798.939 119.911 801.892 123.639C804.846 127.367 806.987 131.705 808.316 136.651C809.644 141.598 810.309 146.84 810.309 152.377C810.309 161.051 809.321 167.779 807.347 172.559C805.372 177.34 802.631 181.345 799.124 184.575C795.617 187.805 791.852 189.955 787.828 191.026C782.328 192.502 777.345 193.24 772.878 193.24L735.613 193.24L735.613 112.066ZM760.696 130.45L760.696 174.802L766.843 174.802C772.084 174.802 775.813 174.221 778.028 173.058C780.242 171.895 781.977 169.865 783.232 166.967C784.488 164.069 785.115 159.372 785.115 152.875C785.115 144.274 783.712 138.386 780.907 135.212C778.101 132.037 773.45 130.45 766.953 130.45L760.696 130.45Z" fill="#0000ff" opacity="1" stroke="#0000ff" stroke-linecap="butt" stroke-linejoin="miter" stroke-width="2.268"/>
</g>
</g>
<g opacity="1">
<path d="M179.719 149.298C179.719 94.4975 224.144 50.073 278.944 50.073C333.745 50.073 378.169 94.4975 378.169 149.298C378.169 204.098 333.745 248.523 278.944 248.523C224.144 248.523 179.719 204.098 179.719 149.298Z" fill="none" opacity="1" stroke="#ff0000" stroke-linecap="butt" stroke-linejoin="miter" stroke-width="28.35"/>
<path clip-path="url(#TextBounds_2)" d="M280.827 163.838L280.827 146.95L319.587 146.95L319.587 181.557C312.167 186.614 305.605 190.057 299.902 191.884C294.199 193.711 287.434 194.625 279.609 194.625C269.974 194.625 262.121 192.982 256.048 189.697C249.976 186.411 245.269 181.52 241.929 175.023C238.588 168.527 236.918 161.07 236.918 152.653C236.918 143.794 238.745 136.088 242.399 129.536C246.054 122.984 251.406 118.01 258.457 114.614C263.957 111.993 271.358 110.682 280.661 110.682C289.631 110.682 296.34 111.494 300.788 113.119C305.236 114.743 308.928 117.262 311.862 120.677C314.797 124.091 317.003 128.419 318.479 133.661L294.282 137.98C293.285 134.916 291.597 132.572 289.216 130.948C286.835 129.324 283.798 128.512 280.107 128.512C274.607 128.512 270.223 130.422 266.956 134.243C263.689 138.063 262.056 144.108 262.056 152.377C262.056 161.162 263.708 167.438 267.012 171.203C270.316 174.968 274.921 176.851 280.827 176.851C283.632 176.851 286.309 176.445 288.856 175.632C291.403 174.82 294.319 173.436 297.604 171.48L297.604 163.838L280.827 163.838Z" fill="#ff0000" opacity="1" stroke="#ff0000" stroke-linecap="butt" stroke-linejoin="miter" stroke-width="2.268"/>
</g>
</g>
<g fill="#000000" opacity="1" stroke="none">
<path clip-path="url(#TextBounds_3)" d="M261.531 376.257L261.531 344.757L269.371 344.757C272.078 344.757 274.353 345.142 276.196 345.912C278.04 346.682 279.521 347.79 280.641 349.237C281.761 350.683 282.566 352.422 283.056 354.452C283.546 356.482 283.791 358.757 283.791 361.277C283.791 364.03 283.441 366.363 282.741 368.277C282.041 370.19 281.108 371.742 279.941 372.932C278.775 374.122 277.445 374.973 275.951 375.487C274.458 376 272.918 376.257 271.331 376.257L261.531 376.257ZM250.541 335.517L250.541 385.497L272.101 385.497C275.928 385.497 279.253 384.855 282.076 383.572C284.9 382.288 287.256 380.527 289.146 378.287C291.036 376.047 292.448 373.387 293.381 370.307C294.315 367.227 294.781 363.867 294.781 360.227C294.781 356.073 294.21 352.457 293.066 349.377C291.923 346.297 290.336 343.73 288.306 341.677C286.276 339.623 283.873 338.083 281.096 337.057C278.32 336.03 275.321 335.517 272.101 335.517L250.541 335.517Z"/>
<path clip-path="url(#TextBounds_3)" d="M302.411 335.517L302.411 385.497L313.401 385.497L313.401 335.517L302.411 335.517Z"/>
<path clip-path="url(#TextBounds_3)" d="M334.051 358.127L334.051 344.057L346.091 344.057C348.611 344.057 350.501 344.605 351.761 345.702C353.021 346.798 353.651 348.56 353.651 350.987C353.651 353.507 353.021 355.327 351.761 356.447C350.501 357.567 348.611 358.127 346.091 358.127L334.051 358.127ZM323.061 335.517L323.061 385.497L334.051 385.497L334.051 365.967L345.041 365.967C347.795 365.967 349.778 366.573 350.991 367.787C352.205 369 352.998 370.913 353.371 373.527C353.651 375.533 353.861 377.633 354.001 379.827C354.141 382.02 354.515 383.91 355.121 385.497L366.111 385.497C365.598 384.797 365.213 383.945 364.956 382.942C364.7 381.938 364.513 380.877 364.396 379.757C364.28 378.637 364.198 377.54 364.151 376.467C364.105 375.393 364.058 374.46 364.011 373.667C363.918 372.407 363.743 371.147 363.486 369.887C363.23 368.627 362.821 367.472 362.261 366.422C361.701 365.372 360.978 364.462 360.091 363.692C359.205 362.922 358.085 362.35 356.731 361.977L356.731 361.837C359.531 360.717 361.55 359.083 362.786 356.937C364.023 354.79 364.641 352.247 364.641 349.307C364.641 347.393 364.303 345.608 363.626 343.952C362.95 342.295 361.97 340.837 360.686 339.577C359.403 338.317 357.863 337.325 356.066 336.602C354.27 335.878 352.251 335.517 350.011 335.517L323.061 335.517Z"/>
<path clip-path="url(#TextBounds_3)" d="M373.601 335.517L373.601 385.497L411.541 385.497L411.541 376.257L384.591 376.257L384.591 364.007L408.811 364.007L408.811 355.467L384.591 355.467L384.591 344.757L410.981 344.757L410.981 335.517L373.601 335.517Z"/>
<path clip-path="url(#TextBounds_3)" d="M452.281 352.317L462.921 352.317C462.595 349.423 461.801 346.857 460.541 344.617C459.281 342.377 457.683 340.498 455.746 338.982C453.81 337.465 451.616 336.31 449.166 335.517C446.716 334.723 444.115 334.327 441.361 334.327C437.535 334.327 434.093 335.003 431.036 336.357C427.98 337.71 425.401 339.577 423.301 341.957C421.201 344.337 419.591 347.125 418.471 350.322C417.351 353.518 416.791 356.983 416.791 360.717C416.791 364.357 417.351 367.752 418.471 370.902C419.591 374.052 421.201 376.793 423.301 379.127C425.401 381.46 427.98 383.292 431.036 384.622C434.093 385.952 437.535 386.617 441.361 386.617C444.441 386.617 447.265 386.15 449.831 385.217C452.398 384.283 454.638 382.93 456.551 381.157C458.465 379.383 460.005 377.237 461.171 374.717C462.338 372.197 463.061 369.373 463.341 366.247L452.701 366.247C452.281 369.607 451.126 372.313 449.236 374.367C447.346 376.42 444.721 377.447 441.361 377.447C438.888 377.447 436.788 376.968 435.061 376.012C433.335 375.055 431.935 373.783 430.861 372.197C429.788 370.61 429.006 368.825 428.516 366.842C428.026 364.858 427.781 362.817 427.781 360.717C427.781 358.523 428.026 356.4 428.516 354.347C429.006 352.293 429.788 350.462 430.861 348.852C431.935 347.242 433.335 345.958 435.061 345.002C436.788 344.045 438.888 343.567 441.361 343.567C442.715 343.567 444.01 343.788 445.246 344.232C446.483 344.675 447.591 345.293 448.571 346.087C449.551 346.88 450.368 347.802 451.021 348.852C451.675 349.902 452.095 351.057 452.281 352.317Z"/>
<path clip-path="url(#TextBounds_3)" d="M481.891 344.757L481.891 385.497L492.881 385.497L492.881 344.757L507.861 344.757L507.861 335.517L466.911 335.517L466.911 344.757L481.891 344.757Z"/>
<path clip-path="url(#TextBounds_3)" d="M544.121 344.757L544.121 385.497L555.111 385.497L555.111 344.757L570.091 344.757L570.091 335.517L529.141 335.517L529.141 344.757L544.121 344.757Z"/>
<path clip-path="url(#TextBounds_3)" d="M581.991 366.177L588.501 347.837L588.641 347.837L594.941 366.177L581.991 366.177ZM583.041 335.517L564.141 385.497L575.201 385.497L579.121 374.367L597.811 374.367L601.591 385.497L613.001 385.497L594.311 335.517L583.041 335.517Z"/>
<path clip-path="url(#TextBounds_3)" d="M628.331 358.127L628.331 344.057L640.371 344.057C642.891 344.057 644.781 344.605 646.041 345.702C647.301 346.798 647.931 348.56 647.931 350.987C647.931 353.507 647.301 355.327 646.041 356.447C644.781 357.567 642.891 358.127 640.371 358.127L628.331 358.127ZM617.341 335.517L617.341 385.497L628.331 385.497L628.331 365.967L639.321 365.967C642.075 365.967 644.058 366.573 645.271 367.787C646.485 369 647.278 370.913 647.651 373.527C647.931 375.533 648.141 377.633 648.281 379.827C648.421 382.02 648.795 383.91 649.401 385.497L660.391 385.497C659.878 384.797 659.493 383.945 659.236 382.942C658.98 381.938 658.793 380.877 658.676 379.757C658.56 378.637 658.478 377.54 658.431 376.467C658.385 375.393 658.338 374.46 658.291 373.667C658.198 372.407 658.023 371.147 657.766 369.887C657.51 368.627 657.101 367.472 656.541 366.422C655.981 365.372 655.258 364.462 654.371 363.692C653.485 362.922 652.365 362.35 651.011 361.977L651.011 361.837C653.811 360.717 655.83 359.083 657.066 356.937C658.303 354.79 658.921 352.247 658.921 349.307C658.921 347.393 658.583 345.608 657.906 343.952C657.23 342.295 656.25 340.837 654.966 339.577C653.683 338.317 652.143 337.325 650.346 336.602C648.55 335.878 646.531 335.517 644.291 335.517L617.341 335.517Z"/>
<path clip-path="url(#TextBounds_3)" d="M704.001 379.827L705.121 385.497L712.121 385.497L712.121 358.477L691.121 358.477L691.121 366.667L702.181 366.667C701.855 370.167 700.7 372.838 698.716 374.682C696.733 376.525 693.921 377.447 690.281 377.447C687.808 377.447 685.708 376.968 683.981 376.012C682.255 375.055 680.855 373.783 679.781 372.197C678.708 370.61 677.926 368.825 677.436 366.842C676.946 364.858 676.701 362.817 676.701 360.717C676.701 358.523 676.946 356.4 677.436 354.347C677.926 352.293 678.708 350.462 679.781 348.852C680.855 347.242 682.255 345.958 683.981 345.002C685.708 344.045 687.808 343.567 690.281 343.567C692.941 343.567 695.205 344.267 697.071 345.667C698.938 347.067 700.198 349.167 700.851 351.967L711.351 351.967C711.071 349.12 710.301 346.6 709.041 344.407C707.781 342.213 706.183 340.37 704.246 338.877C702.31 337.383 700.14 336.252 697.736 335.482C695.333 334.712 692.848 334.327 690.281 334.327C686.455 334.327 683.013 335.003 679.956 336.357C676.9 337.71 674.321 339.577 672.221 341.957C670.121 344.337 668.511 347.125 667.391 350.322C666.271 353.518 665.711 356.983 665.711 360.717C665.711 364.357 666.271 367.752 667.391 370.902C668.511 374.052 670.121 376.793 672.221 379.127C674.321 381.46 676.9 383.292 679.956 384.622C683.013 385.952 686.455 386.617 690.281 386.617C692.708 386.617 695.111 386.115 697.491 385.112C699.871 384.108 702.041 382.347 704.001 379.827Z"/>
<path clip-path="url(#TextBounds_3)" d="M721.011 335.517L721.011 385.497L758.951 385.497L758.951 376.257L732.001 376.257L732.001 364.007L756.221 364.007L756.221 355.467L732.001 355.467L732.001 344.757L758.391 344.757L758.391 335.517L721.011 335.517Z"/>
<path clip-path="url(#TextBounds_3)" d="M777.431 344.757L777.431 385.497L788.421 385.497L788.421 344.757L803.401 344.757L803.401 335.517L762.451 335.517L762.451 344.757L777.431 344.757Z"/>
</g>
</g>
<g opacity="1">
<g opacity="1">
<g opacity="1">
<path d="M1965.7 50.073L2075.95 50.073C2100.3 50.073 2120.05 69.8172 2120.05 94.1729L2120.05 204.423C2120.05 228.779 2100.3 248.523 2075.95 248.523L1965.7 248.523C1941.34 248.523 1921.6 228.779 1921.6 204.423L1921.6 94.1729C1921.6 69.8172 1941.34 50.073 1965.7 50.073Z" fill="none" opacity="1" stroke="#0000ff" stroke-linecap="butt" stroke-linejoin="miter" stroke-width="28.35"/>
<path clip-path="url(#TextBounds_4)" d="M1985.36 112.066L2022.62 112.066C2029.97 112.066 2035.9 113.063 2040.42 115.056C2044.94 117.05 2048.68 119.911 2051.64 123.639C2054.59 127.367 2056.73 131.705 2058.06 136.651C2059.39 141.598 2060.05 146.84 2060.05 152.377C2060.05 161.051 2059.06 167.779 2057.09 172.559C2055.11 177.34 2052.37 181.345 2048.87 184.575C2045.36 187.805 2041.6 189.955 2037.57 191.026C2032.07 192.502 2027.09 193.24 2022.62 193.24L1985.36 193.24L1985.36 112.066ZM2010.44 130.45L2010.44 174.802L2016.59 174.802C2021.83 174.802 2025.56 174.221 2027.77 173.058C2029.99 171.895 2031.72 169.865 2032.98 166.967C2034.23 164.069 2034.86 159.372 2034.86 152.875C2034.86 144.274 2033.46 138.386 2030.65 135.212C2027.84 132.037 2023.19 130.45 2016.7 130.45L2010.44 130.45Z" fill="#0000ff" opacity="1" stroke="#0000ff" stroke-linecap="butt" stroke-linejoin="miter" stroke-width="2.268"/>
</g>
<g opacity="1">
<path d="M1429.46 149.298C1429.46 94.4975 1473.89 50.073 1528.69 50.073C1583.49 50.073 1627.91 94.4975 1627.91 149.298C1627.91 204.098 1583.49 248.523 1528.69 248.523C1473.89 248.523 1429.46 204.098 1429.46 149.298Z" fill="none" opacity="1" stroke="#ff0000" stroke-linecap="butt" stroke-linejoin="miter" stroke-width="28.35"/>
<path clip-path="url(#TextBounds_5)" d="M1530.57 163.838L1530.57 146.95L1569.33 146.95L1569.33 181.557C1561.91 186.614 1555.35 190.057 1549.65 191.884C1543.94 193.711 1537.18 194.625 1529.35 194.625C1519.72 194.625 1511.86 192.982 1505.79 189.697C1499.72 186.411 1495.01 181.52 1491.67 175.023C1488.33 168.527 1486.66 161.07 1486.66 152.653C1486.66 143.794 1488.49 136.088 1492.14 129.536C1495.8 122.984 1501.15 118.01 1508.2 114.614C1513.7 111.993 1521.1 110.682 1530.4 110.682C1539.37 110.682 1546.08 111.494 1550.53 113.119C1554.98 114.743 1558.67 117.262 1561.61 120.677C1564.54 124.091 1566.75 128.419 1568.22 133.661L1544.03 137.98C1543.03 134.916 1541.34 132.572 1538.96 130.948C1536.58 129.324 1533.54 128.512 1529.85 128.512C1524.35 128.512 1519.97 130.422 1516.7 134.243C1513.43 138.063 1511.8 144.108 1511.8 152.377C1511.8 161.162 1513.45 167.438 1516.75 171.203C1520.06 174.968 1524.66 176.851 1530.57 176.851C1533.38 176.851 1536.05 176.445 1538.6 175.632C1541.15 174.82 1544.06 173.436 1547.35 171.48L1547.35 163.838L1530.57 163.838Z" fill="#ff0000" opacity="1" stroke="#ff0000" stroke-linecap="butt" stroke-linejoin="miter" stroke-width="2.268"/>
</g>
<g opacity="1">
<path d="M1669.57 137.958L1692.25 137.958L1692.25 160.638L1669.57 160.638L1669.57 137.958Z" fill="#808080" fill-rule="nonzero" opacity="1" stroke="none"/>
<path d="M1857.26 137.958L1879.94 137.958L1879.94 160.638L1857.26 160.638L1857.26 137.958Z" fill="#808080" fill-rule="nonzero" opacity="1" stroke="none"/>
<path d="M1819.72 137.958L1842.4 137.958L1842.4 160.638L1819.72 160.638L1819.72 137.958Z" fill="#808080" fill-rule="nonzero" opacity="1" stroke="none"/>
<path d="M1782.18 137.958L1804.86 137.958L1804.86 160.638L1782.18 160.638L1782.18 137.958Z" fill="#808080" fill-rule="nonzero" opacity="1" stroke="none"/>
<path d="M1744.64 137.958L1767.32 137.958L1767.32 160.638L1744.64 160.638L1744.64 137.958Z" fill="#808080" fill-rule="nonzero" opacity="1" stroke="none"/>
<path d="M1707.11 137.958L1729.79 137.958L1729.79 160.638L1707.11 160.638L1707.11 137.958Z" fill="#808080" fill-rule="nonzero" opacity="1" stroke="none"/>
</g>
</g>
<g fill="#000000" opacity="1" stroke="none">
<path clip-path="url(#TextBounds_6)" d="M1574.17 355.747L1574.17 344.057L1584.46 344.057C1585.44 344.057 1586.38 344.138 1587.29 344.302C1588.2 344.465 1589.01 344.757 1589.71 345.177C1590.41 345.597 1590.97 346.18 1591.39 346.927C1591.81 347.673 1592.02 348.63 1592.02 349.797C1592.02 351.897 1591.39 353.413 1590.13 354.347C1588.87 355.28 1587.26 355.747 1585.3 355.747L1574.17 355.747ZM1563.18 335.517L1563.18 385.497L1587.4 385.497C1589.64 385.497 1591.82 385.217 1593.94 384.657C1596.07 384.097 1597.96 383.233 1599.61 382.067C1601.27 380.9 1602.59 379.395 1603.57 377.552C1604.55 375.708 1605.04 373.527 1605.04 371.007C1605.04 367.88 1604.28 365.208 1602.76 362.992C1601.25 360.775 1598.95 359.223 1595.87 358.337C1598.11 357.263 1599.8 355.887 1600.94 354.207C1602.09 352.527 1602.66 350.427 1602.66 347.907C1602.66 345.573 1602.27 343.613 1601.5 342.027C1600.73 340.44 1599.65 339.168 1598.25 338.212C1596.85 337.255 1595.17 336.567 1593.21 336.147C1591.25 335.727 1589.08 335.517 1586.7 335.517L1563.18 335.517ZM1574.17 376.957L1574.17 363.237L1586.14 363.237C1588.52 363.237 1590.43 363.785 1591.88 364.882C1593.33 365.978 1594.05 367.81 1594.05 370.377C1594.05 371.683 1593.83 372.757 1593.38 373.597C1592.94 374.437 1592.35 375.102 1591.6 375.592C1590.85 376.082 1589.99 376.432 1589.01 376.642C1588.03 376.852 1587 376.957 1585.93 376.957L1574.17 376.957Z"/>
<path clip-path="url(#TextBounds_6)" d="M1612.46 335.517L1612.46 385.497L1623.45 385.497L1623.45 335.517L1612.46 335.517Z"/>
<path clip-path="url(#TextBounds_6)" d="M1641.93 360.717C1641.93 358.523 1642.17 356.4 1642.66 354.347C1643.15 352.293 1643.94 350.462 1645.01 348.852C1646.08 347.242 1647.48 345.958 1649.21 345.002C1650.94 344.045 1653.04 343.567 1655.51 343.567C1657.98 343.567 1660.08 344.045 1661.81 345.002C1663.54 345.958 1664.94 347.242 1666.01 348.852C1667.08 350.462 1667.86 352.293 1668.35 354.347C1668.84 356.4 1669.09 358.523 1669.09 360.717C1669.09 362.817 1668.84 364.858 1668.35 366.842C1667.86 368.825 1667.08 370.61 1666.01 372.197C1664.94 373.783 1663.54 375.055 1661.81 376.012C1660.08 376.968 1657.98 377.447 1655.51 377.447C1653.04 377.447 1650.94 376.968 1649.21 376.012C1647.48 375.055 1646.08 373.783 1645.01 372.197C1643.94 370.61 1643.15 368.825 1642.66 366.842C1642.17 364.858 1641.93 362.817 1641.93 360.717ZM1630.94 360.717C1630.94 364.357 1631.5 367.752 1632.62 370.902C1633.74 374.052 1635.35 376.793 1637.45 379.127C1639.55 381.46 1642.13 383.292 1645.18 384.622C1648.24 385.952 1651.68 386.617 1655.51 386.617C1659.38 386.617 1662.84 385.952 1665.87 384.622C1668.9 383.292 1671.47 381.46 1673.57 379.127C1675.67 376.793 1677.28 374.052 1678.4 370.902C1679.52 367.752 1680.08 364.357 1680.08 360.717C1680.08 356.983 1679.52 353.518 1678.4 350.322C1677.28 347.125 1675.67 344.337 1673.57 341.957C1671.47 339.577 1668.9 337.71 1665.87 336.357C1662.84 335.003 1659.38 334.327 1655.51 334.327C1651.68 334.327 1648.24 335.003 1645.18 336.357C1642.13 337.71 1639.55 339.577 1637.45 341.957C1635.35 344.337 1633.74 347.125 1632.62 350.322C1631.5 353.518 1630.94 356.983 1630.94 360.717Z"/>
<path clip-path="url(#TextBounds_6)" d="M1687.57 335.517L1687.57 385.497L1697.86 385.497L1697.86 350.427L1698 350.427L1710.25 385.497L1718.72 385.497L1730.97 350.077L1731.11 350.077L1731.11 385.497L1741.4 385.497L1741.4 335.517L1725.93 335.517L1714.87 369.887L1714.73 369.887L1703.04 335.517L1687.57 335.517Z"/>
<path clip-path="url(#TextBounds_6)" d="M1763.66 366.177L1770.17 347.837L1770.31 347.837L1776.61 366.177L1763.66 366.177ZM1764.71 335.517L1745.81 385.497L1756.87 385.497L1760.79 374.367L1779.48 374.367L1783.26 385.497L1794.67 385.497L1775.98 335.517L1764.71 335.517Z"/>
<path clip-path="url(#TextBounds_6)" d="M1810 358.127L1810 344.057L1822.04 344.057C1824.56 344.057 1826.45 344.605 1827.71 345.702C1828.97 346.798 1829.6 348.56 1829.6 350.987C1829.6 353.507 1828.97 355.327 1827.71 356.447C1826.45 357.567 1824.56 358.127 1822.04 358.127L1810 358.127ZM1799.01 335.517L1799.01 385.497L1810 385.497L1810 365.967L1820.99 365.967C1823.74 365.967 1825.73 366.573 1826.94 367.787C1828.15 369 1828.95 370.913 1829.32 373.527C1829.6 375.533 1829.81 377.633 1829.95 379.827C1830.09 382.02 1830.46 383.91 1831.07 385.497L1842.06 385.497C1841.55 384.797 1841.16 383.945 1840.9 382.942C1840.65 381.938 1840.46 380.877 1840.34 379.757C1840.23 378.637 1840.15 377.54 1840.1 376.467C1840.05 375.393 1840.01 374.46 1839.96 373.667C1839.87 372.407 1839.69 371.147 1839.43 369.887C1839.18 368.627 1838.77 367.472 1838.21 366.422C1837.65 365.372 1836.93 364.462 1836.04 363.692C1835.15 362.922 1834.03 362.35 1832.68 361.977L1832.68 361.837C1835.48 360.717 1837.5 359.083 1838.73 356.937C1839.97 354.79 1840.59 352.247 1840.59 349.307C1840.59 347.393 1840.25 345.608 1839.57 343.952C1838.9 342.295 1837.92 340.837 1836.63 339.577C1835.35 338.317 1833.81 337.325 1832.01 336.602C1830.22 335.878 1828.2 335.517 1825.96 335.517L1799.01 335.517Z"/>
<path clip-path="url(#TextBounds_6)" d="M1849.55 335.517L1849.55 385.497L1860.54 385.497L1860.54 369.397L1866.84 363.027L1881.89 385.497L1895.68 385.497L1874.26 355.257L1893.79 335.517L1880.07 335.517L1860.54 356.237L1860.54 335.517L1849.55 335.517Z"/>
<path clip-path="url(#TextBounds_6)" d="M1900.09 335.517L1900.09 385.497L1938.03 385.497L1938.03 376.257L1911.08 376.257L1911.08 364.007L1935.3 364.007L1935.3 355.467L1911.08 355.467L1911.08 344.757L1937.47 344.757L1937.47 335.517L1900.09 335.517Z"/>
<path clip-path="url(#TextBounds_6)" d="M1956.44 358.127L1956.44 344.057L1968.48 344.057C1971 344.057 1972.89 344.605 1974.15 345.702C1975.41 346.798 1976.04 348.56 1976.04 350.987C1976.04 353.507 1975.41 355.327 1974.15 356.447C1972.89 357.567 1971 358.127 1968.48 358.127L1956.44 358.127ZM1945.45 335.517L1945.45 385.497L1956.44 385.497L1956.44 365.967L1967.43 365.967C1970.18 365.967 1972.17 366.573 1973.38 367.787C1974.59 369 1975.39 370.913 1975.76 373.527C1976.04 375.533 1976.25 377.633 1976.39 379.827C1976.53 382.02 1976.9 383.91 1977.51 385.497L1988.5 385.497C1987.99 384.797 1987.6 383.945 1987.34 382.942C1987.09 381.938 1986.9 380.877 1986.78 379.757C1986.67 378.637 1986.59 377.54 1986.54 376.467C1986.49 375.393 1986.45 374.46 1986.4 373.667C1986.31 372.407 1986.13 371.147 1985.87 369.887C1985.62 368.627 1985.21 367.472 1984.65 366.422C1984.09 365.372 1983.37 364.462 1982.48 363.692C1981.59 362.922 1980.47 362.35 1979.12 361.977L1979.12 361.837C1981.92 360.717 1983.94 359.083 1985.17 356.937C1986.41 354.79 1987.03 352.247 1987.03 349.307C1987.03 347.393 1986.69 345.608 1986.01 343.952C1985.34 342.295 1984.36 340.837 1983.07 339.577C1981.79 338.317 1980.25 337.325 1978.45 336.602C1976.66 335.878 1974.64 335.517 1972.4 335.517L1945.45 335.517Z"/>
</g>
</g>
<g opacity="1">
<g opacity="1">
<g opacity="1">
<path d="M3154.57 149.298C3154.57 94.4975 3199 50.073 3253.8 50.073C3308.6 50.073 3353.02 94.4975 3353.02 149.298C3353.02 204.098 3308.6 248.523 3253.8 248.523C3199 248.523 3154.57 204.098 3154.57 149.298Z" fill="none" opacity="1" stroke="#808080" stroke-linecap="butt" stroke-linejoin="miter" stroke-width="28.35"/>
<path clip-path="url(#TextBounds_7)" d="M3215.45 112.066L3291.7 112.066L3291.7 132.111L3266.12 132.111L3266.12 193.24L3241.04 193.24L3241.04 132.111L3215.45 132.111L3215.45 112.066Z" fill="#808080" opacity="1" stroke="#808080" stroke-linecap="butt" stroke-linejoin="miter" stroke-width="2.268"/>
</g>
<g opacity="1">
<g opacity="1">
<path d="M3435.72 149.298L3605.82 149.298" fill="none" opacity="1" stroke="#0000ff" stroke-linecap="butt" stroke-linejoin="miter" stroke-width="28.35"/>
<path d="M3421.55 92.598L3421.55 205.998" fill="none" opacity="1" stroke="#0000ff" stroke-linecap="butt" stroke-linejoin="miter" stroke-width="28.35"/>
</g>
<g opacity="1">
<path d="M3664.1 50.073L3774.35 50.073C3798.7 50.073 3818.45 69.8172 3818.45 94.1729L3818.45 204.423C3818.45 228.779 3798.7 248.523 3774.35 248.523L3664.1 248.523C3639.74 248.523 3620 228.779 3620 204.423L3620 94.1729C3620 69.8172 3639.74 50.073 3664.1 50.073Z" fill="none" opacity="1" stroke="#0000ff" stroke-linecap="butt" stroke-linejoin="miter" stroke-width="28.35"/>
<path clip-path="url(#TextBounds_8)" d="M3683.76 112.066L3721.02 112.066C3728.37 112.066 3734.3 113.063 3738.82 115.056C3743.35 117.05 3747.08 119.911 3750.04 123.639C3752.99 127.367 3755.13 131.705 3756.46 136.651C3757.79 141.598 3758.45 146.84 3758.45 152.377C3758.45 161.051 3757.47 167.779 3755.49 172.559C3753.52 177.34 3750.78 181.345 3747.27 184.575C3743.76 187.805 3740 189.955 3735.97 191.026C3730.47 192.502 3725.49 193.24 3721.02 193.24L3683.76 193.24L3683.76 112.066ZM3708.84 130.45L3708.84 174.802L3714.99 174.802C3720.23 174.802 3723.96 174.221 3726.17 173.058C3728.39 171.895 3730.12 169.865 3731.38 166.967C3732.63 164.069 3733.26 159.372 3733.26 152.875C3733.26 144.274 3731.86 138.386 3729.05 135.212C3726.25 132.037 3721.6 130.45 3715.1 130.45L3708.84 130.45Z" fill="#0000ff" opacity="1" stroke="#0000ff" stroke-linecap="butt" stroke-linejoin="miter" stroke-width="2.268"/>
</g>
</g>
<g opacity="1">
<g opacity="1">
<path d="M2679.23 149.298C2679.23 94.4975 2723.65 50.073 2778.45 50.073C2833.25 50.073 2877.68 94.4975 2877.68 149.298C2877.68 204.098 2833.25 248.523 2778.45 248.523C2723.65 248.523 2679.23 204.098 2679.23 149.298Z" fill="none" opacity="1" stroke="#ff0000" stroke-linecap="butt" stroke-linejoin="miter" stroke-width="28.35"/>
<path clip-path="url(#TextBounds_9)" d="M2780.33 163.838L2780.33 146.95L2819.09 146.95L2819.09 181.557C2811.67 186.614 2805.11 190.057 2799.41 191.884C2793.71 193.711 2786.94 194.625 2779.11 194.625C2769.48 194.625 2761.63 192.982 2755.55 189.697C2749.48 186.411 2744.78 181.52 2741.43 175.023C2738.09 168.527 2736.42 161.07 2736.42 152.653C2736.42 143.794 2738.25 136.088 2741.91 129.536C2745.56 122.984 2750.91 118.01 2757.96 114.614C2763.46 111.993 2770.86 110.682 2780.17 110.682C2789.14 110.682 2795.85 111.494 2800.29 113.119C2804.74 114.743 2808.43 117.262 2811.37 120.677C2814.3 124.091 2816.51 128.419 2817.99 133.661L2793.79 137.98C2792.79 134.916 2791.1 132.572 2788.72 130.948C2786.34 129.324 2783.3 128.512 2779.61 128.512C2774.11 128.512 2769.73 130.422 2766.46 134.243C2763.2 138.063 2761.56 144.108 2761.56 152.377C2761.56 161.162 2763.21 167.438 2766.52 171.203C2769.82 174.968 2774.43 176.851 2780.33 176.851C2783.14 176.851 2785.81 176.445 2788.36 175.632C2790.91 174.82 2793.83 173.436 2797.11 171.48L2797.11 163.838L2780.33 163.838Z" fill="#ff0000" opacity="1" stroke="#ff0000" stroke-linecap="butt" stroke-linejoin="miter" stroke-width="2.268"/>
</g>
<g opacity="1">
<path d="M2877.68 149.298L3033.6 149.298" fill="none" opacity="1" stroke="#ff0000" stroke-linecap="butt" stroke-linejoin="miter" stroke-width="28.35"/>
<path d="M3010.92 106.773L3095.97 149.298L3010.92 191.823" fill="#ff0000" fill-rule="nonzero" opacity="1" stroke="none"/>
</g>
</g>
</g>
<g fill="#000000" opacity="1" stroke="none">
<path clip-path="url(#TextBounds_10)" d="M2930.41 359.037L2930.41 344.057L2938.95 344.057C2940.21 344.057 2941.42 344.15 2942.59 344.337C2943.75 344.523 2944.78 344.885 2945.67 345.422C2946.55 345.958 2947.27 346.717 2947.8 347.697C2948.34 348.677 2948.61 349.96 2948.61 351.547C2948.61 353.133 2948.34 354.417 2947.8 355.397C2947.27 356.377 2946.55 357.135 2945.67 357.672C2944.78 358.208 2943.75 358.57 2942.59 358.757C2941.42 358.943 2940.21 359.037 2938.95 359.037L2930.41 359.037ZM2919.42 335.517L2919.42 385.497L2930.41 385.497L2930.41 367.577L2941.96 367.577C2945.08 367.577 2947.74 367.122 2949.94 366.212C2952.13 365.302 2953.92 364.1 2955.29 362.607C2956.67 361.113 2957.67 359.398 2958.3 357.462C2958.93 355.525 2959.25 353.553 2959.25 351.547C2959.25 349.493 2958.93 347.51 2958.3 345.597C2957.67 343.683 2956.67 341.98 2955.29 340.487C2953.92 338.993 2952.13 337.792 2949.94 336.882C2947.74 335.972 2945.08 335.517 2941.96 335.517L2919.42 335.517Z"/>
<path clip-path="url(#TextBounds_10)" d="M2973.53 366.177L2980.04 347.837L2980.18 347.837L2986.48 366.177L2973.53 366.177ZM2974.58 335.517L2955.68 385.497L2966.74 385.497L2970.66 374.367L2989.35 374.367L2993.13 385.497L3004.54 385.497L2985.85 335.517L2974.58 335.517Z"/>
<path clip-path="url(#TextBounds_10)" d="M3013.5 344.757L3013.5 385.497L3024.49 385.497L3024.49 344.757L3039.47 344.757L3039.47 335.517L2998.52 335.517L2998.52 344.757L3013.5 344.757Z"/>
<path clip-path="url(#TextBounds_10)" d="M3045.21 335.517L3045.21 385.497L3056.2 385.497L3056.2 363.937L3076.43 363.937L3076.43 385.497L3087.42 385.497L3087.42 335.517L3076.43 335.517L3076.43 354.697L3056.2 354.697L3056.2 335.517L3045.21 335.517Z"/>
<path clip-path="url(#TextBounds_10)" d="M3144.68 385.497L3158.12 335.517L3147.34 335.517L3139.15 369.957L3139.01 369.957L3130.47 335.517L3120.18 335.517L3111.5 369.537L3111.36 369.537L3103.45 335.517L3092.46 335.517L3105.69 385.497L3116.82 385.497L3125.15 351.477L3125.29 351.477L3133.76 385.497L3144.68 385.497Z"/>
<path clip-path="url(#TextBounds_10)" d="M3174.08 366.177L3180.59 347.837L3180.73 347.837L3187.03 366.177L3174.08 366.177ZM3175.13 335.517L3156.23 385.497L3167.29 385.497L3171.21 374.367L3189.9 374.367L3193.68 385.497L3205.09 385.497L3186.4 335.517L3175.13 335.517Z"/>
<path clip-path="url(#TextBounds_10)" d="M3217.2 366.037L3217.2 385.497L3228.19 385.497L3228.19 366.317L3246.74 335.517L3234.49 335.517L3222.87 355.257L3211.18 335.517L3198.86 335.517L3217.2 366.037Z"/>
<path clip-path="url(#TextBounds_10)" d="M3270.4 335.517L3270.4 385.497L3280.69 385.497L3280.69 350.427L3280.83 350.427L3293.08 385.497L3301.55 385.497L3313.8 350.077L3313.94 350.077L3313.94 385.497L3324.23 385.497L3324.23 335.517L3308.76 335.517L3297.7 369.887L3297.56 369.887L3285.87 335.517L3270.4 335.517Z"/>
<path clip-path="url(#TextBounds_10)" d="M3333.89 335.517L3333.89 385.497L3371.83 385.497L3371.83 376.257L3344.88 376.257L3344.88 364.007L3369.1 364.007L3369.1 355.467L3344.88 355.467L3344.88 344.757L3371.27 344.757L3371.27 335.517L3333.89 335.517Z"/>
<path clip-path="url(#TextBounds_10)" d="M3379.25 335.517L3379.25 385.497L3389.54 385.497L3389.54 350.427L3389.68 350.427L3401.93 385.497L3410.4 385.497L3422.65 350.077L3422.79 350.077L3422.79 385.497L3433.08 385.497L3433.08 335.517L3417.61 335.517L3406.55 369.887L3406.41 369.887L3394.72 335.517L3379.25 335.517Z"/>
<path clip-path="url(#TextBounds_10)" d="M3453.73 355.747L3453.73 344.057L3464.02 344.057C3465 344.057 3465.94 344.138 3466.85 344.302C3467.76 344.465 3468.57 344.757 3469.27 345.177C3469.97 345.597 3470.53 346.18 3470.95 346.927C3471.37 347.673 3471.58 348.63 3471.58 349.797C3471.58 351.897 3470.95 353.413 3469.69 354.347C3468.43 355.28 3466.82 355.747 3464.86 355.747L3453.73 355.747ZM3442.74 335.517L3442.74 385.497L3466.96 385.497C3469.2 385.497 3471.38 385.217 3473.5 384.657C3475.63 384.097 3477.52 383.233 3479.17 382.067C3480.83 380.9 3482.15 379.395 3483.13 377.552C3484.11 375.708 3484.6 373.527 3484.6 371.007C3484.6 367.88 3483.84 365.208 3482.32 362.992C3480.81 360.775 3478.51 359.223 3475.43 358.337C3477.67 357.263 3479.36 355.887 3480.5 354.207C3481.65 352.527 3482.22 350.427 3482.22 347.907C3482.22 345.573 3481.83 343.613 3481.06 342.027C3480.29 340.44 3479.21 339.168 3477.81 338.212C3476.41 337.255 3474.73 336.567 3472.77 336.147C3470.81 335.727 3468.64 335.517 3466.26 335.517L3442.74 335.517ZM3453.73 376.957L3453.73 363.237L3465.7 363.237C3468.08 363.237 3469.99 363.785 3471.44 364.882C3472.88 365.978 3473.61 367.81 3473.61 370.377C3473.61 371.683 3473.39 372.757 3472.94 373.597C3472.5 374.437 3471.9 375.102 3471.16 375.592C3470.41 376.082 3469.55 376.432 3468.57 376.642C3467.59 376.852 3466.56 376.957 3465.49 376.957L3453.73 376.957Z"/>
<path clip-path="url(#TextBounds_10)" d="M3492.02 335.517L3492.02 385.497L3529.96 385.497L3529.96 376.257L3503.01 376.257L3503.01 364.007L3527.23 364.007L3527.23 355.467L3503.01 355.467L3503.01 344.757L3529.4 344.757L3529.4 335.517L3492.02 335.517Z"/>
<path clip-path="url(#TextBounds_10)" d="M3548.37 358.127L3548.37 344.057L3560.41 344.057C3562.93 344.057 3564.82 344.605 3566.08 345.702C3567.34 346.798 3567.97 348.56 3567.97 350.987C3567.97 353.507 3567.34 355.327 3566.08 356.447C3564.82 357.567 3562.93 358.127 3560.41 358.127L3548.37 358.127ZM3537.38 335.517L3537.38 385.497L3548.37 385.497L3548.37 365.967L3559.36 365.967C3562.11 365.967 3564.09 366.573 3565.31 367.787C3566.52 369 3567.31 370.913 3567.69 373.527C3567.97 375.533 3568.18 377.633 3568.32 379.827C3568.46 382.02 3568.83 383.91 3569.44 385.497L3580.43 385.497C3579.91 384.797 3579.53 383.945 3579.27 382.942C3579.02 381.938 3578.83 380.877 3578.71 379.757C3578.6 378.637 3578.51 377.54 3578.47 376.467C3578.42 375.393 3578.37 374.46 3578.33 373.667C3578.23 372.407 3578.06 371.147 3577.8 369.887C3577.55 368.627 3577.14 367.472 3576.58 366.422C3576.02 365.372 3575.29 364.462 3574.41 363.692C3573.52 362.922 3572.4 362.35 3571.05 361.977L3571.05 361.837C3573.85 360.717 3575.87 359.083 3577.1 356.937C3578.34 354.79 3578.96 352.247 3578.96 349.307C3578.96 347.393 3578.62 345.608 3577.94 343.952C3577.27 342.295 3576.29 340.837 3575 339.577C3573.72 338.317 3572.18 337.325 3570.38 336.602C3568.59 335.878 3566.57 335.517 3564.33 335.517L3537.38 335.517Z"/>
</g>
</g>
</g>
</g>
</svg>
