<?xml version="1.0" encoding="UTF-8" standalone="no"?>
<!DOCTYPE svg PUBLIC "-//W3C//DTD SVG 1.1//EN" "http://www.w3.org/Graphics/SVG/1.1/DTD/svg11.dtd">
<!-- Created with Vectornator (http://vectornator.io/) -->
<svg height="100%" stroke-miterlimit="10" style="fill-rule:nonzero;clip-rule:evenodd;stroke-linecap:round;stroke-linejoin:round;" version="1.1" viewBox="0 0 549.5 75.5" width="100%" xml:space="preserve" xmlns="http://www.w3.org/2000/svg" xmlns:vectornator="http://vectornator.io" xmlns:xlink="http://www.w3.org/1999/xlink">
<defs/>
<clipPath id="ArtboardFrame">
<rect height="75.5" width="549.5" x="0" y="0"/>
</clipPath>
<g clip-path="url(#ArtboardFrame)" id="Untitled" vectornator:layerName="Untitled">
<g opacity="1">
<g opacity="1">
<g opacity="1">
<path d="M0.607131 74.2246L0.607131 1.22656L26.486 1.22656C31.7269 1.22656 36.1703 3.11458 39.8161 6.89062C43.4619 10.6667 45.2849 15.2077 45.2849 20.5137C45.2849 25.8848 43.4701 30.4746 39.8405 34.2832C36.211 38.0918 31.8083 39.9961 26.6325 39.9961L5.00166 39.9961L5.00166 74.2246L0.607131 74.2246ZM5.00166 35.4062L26.6325 35.4062C30.5062 35.4062 33.8347 33.9577 36.6179 31.0605C39.4011 28.1634 40.7927 24.6478 40.7927 20.5137C40.7927 16.3796 39.3929 12.8558 36.5935 9.94238C33.794 7.02897 30.4248 5.57227 26.486 5.57227L5.00166 5.57227L5.00166 35.4062Z" fill="#668000" fill-rule="nonzero" opacity="1" stroke="none"/>
<path d="M58.1267 47.2227L87.5212 47.2227L72.7751 11.8223L58.1267 47.2227ZM89.279 51.6172L56.0271 51.6172L46.7497 74.2246L42.0622 74.2246L72.6286 0.445312L103.293 74.2246L98.6052 74.2246L89.279 51.6172Z" fill="#668000" fill-rule="nonzero" opacity="1" stroke="none"/>
<path d="M113.058 74.2246L113.058 0.445312L174.386 64.3613L174.386 1.32422L178.732 1.32422L178.732 75.0547L117.453 11.2363L117.453 74.2246L113.058 74.2246Z" fill="#668000" fill-rule="nonzero" opacity="1" stroke="none"/>
<path d="M201.535 66.7051L209.933 66.7051C215.467 66.7051 220.545 65.4437 225.168 62.9209C229.79 60.3981 233.452 56.9232 236.154 52.4961C238.856 48.069 240.207 43.1862 240.207 37.8477C240.207 32.4766 238.856 27.5693 236.154 23.126C233.452 18.6826 229.79 15.1914 225.168 12.6523C220.545 10.1133 215.467 8.84375 209.933 8.84375L201.535 8.84375L201.535 66.7051ZM193.771 74.2246L193.771 1.32422L209.933 1.32422C216.802 1.32422 223.141 2.92741 228.952 6.13379C234.762 9.34017 239.369 13.7428 242.77 19.3418C246.172 24.9408 247.873 31.1094 247.873 37.8477C247.873 44.5534 246.172 50.6976 242.77 56.2803C239.369 61.863 234.762 66.2493 228.952 69.4395C223.141 72.6296 216.802 74.2246 209.933 74.2246L193.771 74.2246Z" fill="#668000" fill-rule="nonzero" opacity="1" stroke="none"/>
<path d="M259.494 74.2246L259.494 1.32422L286.593 1.32422C292.192 1.32422 296.945 3.30176 300.851 7.25684C304.758 11.2119 306.711 15.9727 306.711 21.5391C306.711 25.9661 305.433 29.9294 302.878 33.4287C300.322 36.9281 297.01 39.3451 292.941 40.6797L311.838 74.2246L303 74.2246L284.64 41.5586L267.258 41.5586L267.258 74.2246L259.494 74.2246ZM267.258 33.9902L286.838 33.9902C290.125 33.9902 292.966 32.7777 295.358 30.3525C297.751 27.9274 298.947 24.9896 298.947 21.5391C298.947 18.0234 297.743 15.0286 295.334 12.5547C292.925 10.0807 290.011 8.84375 286.593 8.84375L267.258 8.84375L267.258 33.9902Z" fill="#668000" fill-rule="nonzero" opacity="1" stroke="none"/>
<path d="M319.65 1.32422L327.414 1.32422L327.414 46.1484C327.414 52.1055 329.359 57.1429 333.249 61.2607C337.139 65.3786 341.72 67.4375 346.994 67.4375C350.412 67.4375 353.586 66.5179 356.515 64.6787C359.445 62.8395 361.797 60.276 363.571 56.9883C365.345 53.7005 366.232 50.0872 366.232 46.1484L366.232 1.32422L373.996 1.32422L373.996 46.1484C373.996 51.3242 372.791 56.1257 370.383 60.5527C367.974 64.9798 364.678 68.4873 360.495 71.0752C356.312 73.6631 351.73 74.957 346.75 74.957C343.039 74.957 339.499 74.1921 336.13 72.6621C332.76 71.1322 329.88 69.0732 327.487 66.4854C325.094 63.8975 323.19 60.8294 321.774 57.2812C320.358 53.7331 319.65 50.0221 319.65 46.1484L319.65 1.32422Z" fill="#668000" fill-rule="nonzero" opacity="1" stroke="none"/>
<path d="M455.05 16.9492L448.898 21.5391C448.019 20.4323 447.303 19.5534 446.75 18.9023C446.196 18.2513 445.065 17.1608 443.356 15.6309C441.647 14.1009 439.963 12.8721 438.302 11.9443C436.642 11.0166 434.486 10.1621 431.833 9.38086C429.18 8.59961 426.421 8.20898 423.556 8.20898C419.422 8.20898 415.483 8.99023 411.74 10.5527C407.996 12.1152 404.774 14.2148 402.072 16.8516C399.37 19.4883 397.23 22.6377 395.651 26.2998C394.072 29.9619 393.283 33.8112 393.283 37.8477C393.283 41.8516 394.072 45.6764 395.651 49.3223C397.23 52.9681 399.362 56.1175 402.048 58.7705C404.733 61.4235 407.956 63.5312 411.716 65.0938C415.475 66.6563 419.422 67.4375 423.556 67.4375C431.206 67.4375 437.871 64.9554 443.551 59.9912C449.232 55.027 452.544 48.8828 453.488 41.5586L421.799 41.5586L421.799 33.9902L461.447 33.9902L461.447 37.8477C461.447 42.8932 460.446 47.7028 458.444 52.2764C456.442 56.8499 453.74 60.7806 450.339 64.0684C446.937 67.3561 442.9 69.9766 438.229 71.9297C433.558 73.8828 428.667 74.8594 423.556 74.8594C418.413 74.8594 413.49 73.8828 408.786 71.9297C404.082 69.9766 400.029 67.3561 396.628 64.0684C393.226 60.7806 390.516 56.8499 388.498 52.2764C386.48 47.7028 385.47 42.8932 385.47 37.8477C385.47 32.8021 386.48 27.9844 388.498 23.3945C390.516 18.8047 393.226 14.8496 396.628 11.5293C400.029 8.20898 404.082 5.57227 408.786 3.61914C413.49 1.66602 418.413 0.689453 423.556 0.689453C427.105 0.689453 430.539 1.1696 433.859 2.12988C437.179 3.09017 439.906 4.17253 442.038 5.37695C444.17 6.58138 446.237 8.04622 448.239 9.77148C450.241 11.4967 451.641 12.8151 452.438 13.7266C453.236 14.638 454.009 15.582 454.758 16.5586C454.888 16.7539 454.985 16.8841 455.05 16.9492Z" fill="#668000" fill-rule="nonzero" opacity="1" stroke="none"/>
<path d="M515.304 16.3145L508.029 18.8047L507.492 17.1934C506.45 14.2637 504.79 12.0339 502.511 10.5039C500.233 8.97396 497.743 8.20898 495.041 8.20898C491.883 8.20898 489.312 9.20996 487.326 11.2119C485.34 13.2139 484.347 15.6471 484.347 18.5117C484.347 20.0417 484.746 21.4251 485.544 22.6621C486.341 23.8991 487.407 24.957 488.742 25.8359C490.077 26.7148 491.623 27.5531 493.381 28.3506C495.138 29.1481 496.978 29.9456 498.898 30.7432C500.819 31.5407 502.739 32.3708 504.66 33.2334C506.58 34.096 508.42 35.1214 510.177 36.3096C511.935 37.4977 513.481 38.8161 514.816 40.2646C516.151 41.7132 517.217 43.4873 518.014 45.5869C518.812 47.6865 519.211 50.0059 519.211 52.5449C519.211 56.8743 518.055 60.7887 515.744 64.2881C513.433 67.7874 510.438 70.4567 506.759 72.2959C503.081 74.1351 499.142 75.0547 494.943 75.0547C492.176 75.0547 489.523 74.6152 486.984 73.7363C484.445 72.8574 482.077 71.5553 479.88 69.8301C477.682 68.1048 475.802 65.8018 474.24 62.9209C472.677 60.04 471.636 56.7441 471.115 53.0332L470.871 51.373L478.537 50.4453L478.781 52.0078C479.172 54.6445 479.888 56.9801 480.929 59.0146C481.971 61.0492 483.224 62.6605 484.689 63.8486C486.154 65.0368 487.749 65.932 489.474 66.5342C491.2 67.1364 493.022 67.4375 494.943 67.4375C499.403 67.4375 503.285 66.0378 506.589 63.2383C509.893 60.4388 511.545 56.8092 511.545 52.3496C511.545 49.9408 510.902 47.8249 509.616 46.002C508.33 44.179 506.67 42.6898 504.635 41.5342C502.601 40.3786 500.339 39.2881 497.848 38.2627C495.358 37.2373 492.876 36.1712 490.402 35.0645C487.928 33.9577 485.674 32.7207 483.639 31.3535C481.605 29.9863 479.945 28.2041 478.659 26.0068C477.373 23.8096 476.73 21.2624 476.73 18.3652C476.73 13.4499 478.439 9.25879 481.857 5.79199C485.275 2.3252 489.67 0.591797 495.041 0.591797C499.305 0.591797 503.26 1.82878 506.906 4.30273C510.552 6.77669 513.156 10.2598 514.718 14.752L515.304 16.3145Z" fill="#668000" fill-rule="nonzero" opacity="1" stroke="none"/>
</g>
<path d="M534.191 70.4986L548.893 70.4986L548.893 75.0547L526.878 75.0547L526.878 70.4986L541.925 59.5486C543.482 58.4255 544.26 56.9834 544.26 55.2222C544.26 53.6908 543.635 52.3763 542.384 51.2787C541.133 50.1812 539.628 49.6324 537.866 49.6324C536.233 49.6324 534.803 50.1301 533.578 51.1256C532.379 52.121 531.702 53.3462 531.549 54.8011L531.472 55.2222L526.84 55.2222L526.878 54.7245C527.082 51.9934 528.218 49.709 530.286 47.8712C532.379 46.0079 534.906 45.0763 537.866 45.0763C540.98 45.0763 543.597 46.0462 545.715 47.9861C547.834 49.9259 548.893 52.2869 548.893 55.0691C548.893 56.5495 548.561 57.9661 547.897 59.3189C547.234 60.6462 546.302 61.7692 545.102 62.6881L534.191 70.4986Z" fill="#ff0000" fill-rule="nonzero" opacity="1" stroke="#ff0000" stroke-linecap="butt" stroke-linejoin="miter" stroke-width="1.00014"/>
</g>
</g>
</g>
</svg>
