<?xml version="1.0" encoding="UTF-8" standalone="no"?>
<!DOCTYPE svg PUBLIC "-//W3C//DTD SVG 1.1//EN" "http://www.w3.org/Graphics/SVG/1.1/DTD/svg11.dtd">
<!-- Created with Vectornator (http://vectornator.io/) -->
<svg height="100%" stroke-miterlimit="10" style="fill-rule:nonzero;clip-rule:evenodd;stroke-linecap:round;stroke-linejoin:round;" version="1.1" viewBox="0 0 604.5 91.95" width="100%" xml:space="preserve" xmlns="http://www.w3.org/2000/svg" xmlns:vectornator="http://vectornator.io" xmlns:xlink="http://www.w3.org/1999/xlink">
<defs/>
<g id="Untitled" vectornator:layerName="Untitled">
<g opacity="1">
<g opacity="1">
<path d="M0.25 91.0888L0.25 18.0908L26.1289 18.0908C31.3698 18.0908 35.8132 19.9788 39.459 23.7548C43.1048 27.5309 44.9277 32.0719 44.9277 37.3779C44.9277 42.749 43.113 47.3388 39.4834 51.1474C35.8538 54.956 31.4512 56.8603 26.2754 56.8603L4.64453 56.8603L4.64453 91.0888L0.25 91.0888ZM4.64453 52.2705L26.2754 52.2705C30.1491 52.2705 33.4775 50.8219 36.2607 47.9248C39.0439 45.0276 40.4355 41.512 40.4355 37.3779C40.4355 33.2438 39.0358 29.72 36.2363 26.8066C33.4368 23.8932 30.0677 22.4365 26.1289 22.4365L4.64453 22.4365L4.64453 52.2705Z" fill="#668000" fill-rule="nonzero" opacity="1" stroke="none"/>
<path d="M57.7695 64.0869L87.1641 64.0869L72.418 28.6865L57.7695 64.0869ZM88.9219 68.4814L55.6699 68.4814L46.3926 91.0888L41.7051 91.0888L72.2715 17.3095L102.936 91.0888L98.248 91.0888L88.9219 68.4814Z" fill="#668000" fill-rule="nonzero" opacity="1" stroke="none"/>
<path d="M112.701 91.0888L112.701 17.3095L174.029 81.2255L174.029 18.1884L178.375 18.1884L178.375 91.9189L117.096 28.1005L117.096 91.0888L112.701 91.0888Z" fill="#668000" fill-rule="nonzero" opacity="1" stroke="none"/>
<path d="M201.178 83.5693L209.576 83.5693C215.11 83.5693 220.188 82.3079 224.811 79.7851C229.433 77.2623 233.095 73.7874 235.797 69.3603C238.499 64.9332 239.85 60.0504 239.85 54.7119C239.85 49.3408 238.499 44.4335 235.797 39.9902C233.095 35.5468 229.433 32.0556 224.811 29.5165C220.188 26.9775 215.11 25.708 209.576 25.708L201.178 25.708L201.178 83.5693ZM193.414 91.0888L193.414 18.1884L209.576 18.1884C216.445 18.1884 222.784 19.7916 228.595 22.998C234.405 26.2044 239.011 30.607 242.413 36.206C245.815 41.805 247.516 47.9736 247.516 54.7119C247.516 61.4176 245.815 67.5618 242.413 73.1445C239.011 78.7272 234.405 83.1136 228.595 86.3037C222.784 89.4938 216.445 91.0888 209.576 91.0888L193.414 91.0888Z" fill="#668000" fill-rule="nonzero" opacity="1" stroke="none"/>
<path d="M259.137 91.0888L259.137 18.1884L286.236 18.1884C291.835 18.1884 296.588 20.166 300.494 24.121C304.4 28.0761 306.354 32.8369 306.354 38.4033C306.354 42.8304 305.076 46.7936 302.521 50.2929C299.965 53.7923 296.653 56.2093 292.584 57.5439L311.48 91.0888L302.643 91.0888L284.283 58.4228L266.9 58.4228L266.9 91.0888L259.137 91.0888ZM266.9 50.8544L286.48 50.8544C289.768 50.8544 292.608 49.6419 295.001 47.2167C297.394 44.7916 298.59 41.8538 298.59 38.4033C298.59 34.8876 297.385 31.8929 294.977 29.4189C292.568 26.9449 289.654 25.708 286.236 25.708L266.9 25.708L266.9 50.8544Z" fill="#668000" fill-rule="nonzero" opacity="1" stroke="none"/>
<path d="M319.293 18.1884L327.057 18.1884L327.057 63.0126C327.057 68.9697 329.002 74.0071 332.892 78.1249C336.782 82.2428 341.363 84.3017 346.637 84.3017C350.055 84.3017 353.229 83.3821 356.158 81.5429C359.088 79.7037 361.44 77.1402 363.214 73.8525C364.988 70.5647 365.875 66.9514 365.875 63.0126L365.875 18.1884L373.639 18.1884L373.639 63.0126C373.639 68.1884 372.434 72.9899 370.025 77.4169C367.617 81.844 364.321 85.3515 360.138 87.9394C355.955 90.5273 351.373 91.8212 346.393 91.8212C342.682 91.8212 339.142 91.0563 335.772 89.5263C332.403 87.9964 329.522 85.9374 327.13 83.3496C324.737 80.7617 322.833 77.6936 321.417 74.1455C320.001 70.5973 319.293 66.8863 319.293 63.0126L319.293 18.1884Z" fill="#668000" fill-rule="nonzero" opacity="1" stroke="none"/>
<path d="M454.693 33.8134L448.541 38.4033C447.662 37.2965 446.946 36.4176 446.393 35.7665C445.839 35.1155 444.708 34.025 442.999 32.4951C441.29 30.9651 439.605 29.7363 437.945 28.8085C436.285 27.8808 434.129 27.0263 431.476 26.2451C428.823 25.4638 426.064 25.0732 423.199 25.0732C419.065 25.0732 415.126 25.8544 411.383 27.4169C407.639 28.9794 404.417 31.079 401.715 33.7158C399.013 36.3525 396.873 39.5019 395.294 43.164C393.715 46.8261 392.926 50.6754 392.926 54.7119C392.926 58.7158 393.715 62.5406 395.294 66.1865C396.873 69.8323 399.005 72.9817 401.69 75.6347C404.376 78.2877 407.599 80.3955 411.358 81.958C415.118 83.5205 419.065 84.3017 423.199 84.3017C430.849 84.3017 437.514 81.8196 443.194 76.8554C448.875 71.8912 452.187 65.747 453.131 58.4228L421.441 58.4228L421.441 50.8544L461.09 50.8544L461.09 54.7119C461.09 59.7574 460.089 64.567 458.087 69.1406C456.085 73.7141 453.383 77.6448 449.981 80.9326C446.58 84.2203 442.543 86.8408 437.872 88.7939C433.201 90.747 428.31 91.7236 423.199 91.7236C418.056 91.7236 413.132 90.747 408.429 88.7939C403.725 86.8408 399.672 84.2203 396.271 80.9326C392.869 77.6448 390.159 73.7141 388.141 69.1406C386.122 64.567 385.113 59.7574 385.113 54.7119C385.113 49.6663 386.122 44.8486 388.141 40.2587C390.159 35.6689 392.869 31.7138 396.271 28.3935C399.672 25.0732 403.725 22.4365 408.429 20.4833C413.132 18.5302 418.056 17.5537 423.199 17.5537C426.747 17.5537 430.182 18.0338 433.502 18.9941C436.822 19.9544 439.549 21.0367 441.681 22.2412C443.813 23.4456 445.88 24.9104 447.882 26.6357C449.884 28.3609 451.284 29.6793 452.081 30.5908C452.879 31.5022 453.652 32.4462 454.4 33.4228C454.531 33.6181 454.628 33.7483 454.693 33.8134Z" fill="#668000" fill-rule="nonzero" opacity="1" stroke="none"/>
<path d="M514.947 33.1787L507.672 35.6689L507.135 34.0576C506.093 31.1279 504.433 28.8981 502.154 27.3681C499.876 25.8382 497.385 25.0732 494.684 25.0732C491.526 25.0732 488.954 26.0742 486.969 28.0761C484.983 30.0781 483.99 32.5113 483.99 35.3759C483.99 36.9059 484.389 38.2893 485.187 39.5263C485.984 40.7633 487.05 41.8212 488.385 42.7001C489.719 43.579 491.266 44.4173 493.023 45.2148C494.781 46.0123 496.62 46.8098 498.541 47.6074C500.462 48.4049 502.382 49.235 504.303 50.0976C506.223 50.9602 508.062 51.9856 509.82 53.1738C511.578 54.3619 513.124 55.6803 514.459 57.1289C515.794 58.5774 516.86 60.3515 517.657 62.4511C518.455 64.5507 518.854 66.8701 518.854 69.4091C518.854 73.7386 517.698 77.6529 515.387 81.1523C513.076 84.6516 510.081 87.3209 506.402 89.1601C502.724 90.9993 498.785 91.9189 494.586 91.9189C491.819 91.9189 489.166 91.4794 486.627 90.6005C484.088 89.7216 481.72 88.4195 479.522 86.6943C477.325 84.969 475.445 82.666 473.883 79.7851C472.32 76.9042 471.279 73.6083 470.758 69.8974L470.514 68.2373L478.18 67.3095L478.424 68.872C478.814 71.5087 479.531 73.8443 480.572 75.8789C481.614 77.9134 482.867 79.5247 484.332 80.7128C485.797 81.901 487.392 82.7962 489.117 83.3984C490.842 84.0006 492.665 84.3017 494.586 84.3017C499.046 84.3017 502.927 82.902 506.231 80.1025C509.535 77.303 511.187 73.6734 511.187 69.2138C511.187 66.805 510.545 64.6891 509.259 62.8662C507.973 61.0432 506.313 59.554 504.278 58.3984C502.244 57.2428 499.981 56.1523 497.491 55.1269C495.001 54.1015 492.519 53.0354 490.045 51.9287C487.571 50.8219 485.317 49.5849 483.282 48.2177C481.248 46.8505 479.588 45.0683 478.302 42.871C477.016 40.6738 476.373 38.1266 476.373 35.2294C476.373 30.3141 478.082 26.123 481.5 22.6562C484.918 19.1894 489.312 17.456 494.684 17.456C498.948 17.456 502.903 18.693 506.549 21.1669C510.195 23.6409 512.799 27.124 514.361 31.6162L514.947 33.1787Z" fill="#668000" fill-rule="nonzero" opacity="1" stroke="none"/>
</g>
<path d="M527.677 15.3457C527.677 6.88771 534.533 0.0311084 542.991 0.0311084L588.935 0.0311084C597.393 0.0311084 604.25 6.88771 604.25 15.3457L604.25 45.975C604.25 54.433 597.393 61.2896 588.935 61.2896L542.991 61.2896C534.533 61.2896 527.677 54.433 527.677 45.975L527.677 15.3457Z" fill="#fd0011" fill-rule="nonzero" opacity="1" stroke="none"/>
<path d="M544.293 41.4189L558.995 41.4189L558.995 45.975L536.98 45.975L536.98 41.4189L552.027 30.4689C553.584 29.3459 554.363 27.9037 554.363 26.1425C554.363 24.6111 553.737 23.2966 552.487 22.199C551.236 21.1015 549.73 20.5527 547.969 20.5527C546.335 20.5527 544.906 21.0504 543.681 22.0459C542.481 23.0413 541.805 24.2665 541.651 25.7214L541.575 26.1425L536.942 26.1425L536.98 25.6448C537.185 22.9137 538.321 20.6293 540.388 18.7915C542.481 16.9282 545.008 15.9966 547.969 15.9966C551.083 15.9966 553.699 16.9665 555.817 18.9064C557.936 20.8462 558.995 23.2072 558.995 25.9894C558.995 27.4698 558.663 28.8864 558 30.2392C557.336 31.5665 556.405 32.6896 555.205 33.6084L544.293 41.4189ZM567.384 41.304C567.971 41.8911 568.265 42.6058 568.265 43.4481C568.265 44.2649 567.971 44.9796 567.384 45.5921C566.797 46.1792 566.082 46.46 565.24 46.4344C564.398 46.4344 563.683 46.1409 563.096 45.5539C562.509 44.9668 562.216 44.2649 562.216 43.4481C562.216 42.6058 562.509 41.8911 563.096 41.304C563.683 40.717 564.398 40.4234 565.24 40.4234C566.082 40.4234 566.797 40.717 567.384 41.304ZM574.204 38.5474C573.208 36.2502 572.711 33.7361 572.711 31.0049C572.711 28.2483 573.208 25.7342 574.204 23.4625C575.199 21.1653 576.603 19.3531 578.415 18.0258C580.227 16.673 582.269 15.9966 584.541 15.9966C586.813 15.9966 588.855 16.673 590.667 18.0258C592.479 19.3531 593.883 21.1653 594.878 23.4625C595.874 25.7342 596.372 28.2483 596.372 31.0049C596.372 33.7361 595.874 36.2502 594.878 38.5474C593.883 40.8191 592.479 42.6313 590.667 43.9841C588.855 45.3114 586.813 45.975 584.541 45.975C582.269 45.975 580.227 45.3114 578.415 43.9841C576.603 42.6313 575.199 40.8191 574.204 38.5474ZM578.377 36.2119C579.066 37.82 579.959 39.0834 581.057 40.0023C582.155 40.9212 583.316 41.3806 584.541 41.3806C585.766 41.3806 586.928 40.9212 588.025 40.0023C589.123 39.0834 590.003 37.82 590.667 36.2119C591.356 34.6039 591.701 32.8682 591.701 31.0049C591.701 29.1161 591.356 27.3677 590.667 25.7597C590.003 24.1517 589.123 22.8882 588.025 21.9693C586.928 21.0504 585.766 20.591 584.541 20.591C583.316 20.591 582.155 21.0504 581.057 21.9693C579.959 22.8882 579.066 24.1517 578.377 25.7597C577.713 27.3677 577.381 29.1161 577.381 31.0049C577.381 32.8682 577.713 34.6039 578.377 36.2119Z" fill="#ffffff" fill-rule="nonzero" opacity="1" stroke="none"/>
</g>
</g>
</svg>
